<?xml version="1.0" encoding="UTF-8" standalone="no"?>
<!DOCTYPE svg PUBLIC "-//W3C//DTD SVG 1.1//EN" "http://www.w3.org/Graphics/SVG/1.1/DTD/svg11.dtd">
<!-- Created with Vectornator (http://vectornator.io/) -->
<svg height="100%" stroke-miterlimit="10" style="fill-rule:nonzero;clip-rule:evenodd;stroke-linecap:round;stroke-linejoin:round;" version="1.1" viewBox="0 0 1024 1024" width="100%" xml:space="preserve" xmlns="http://www.w3.org/2000/svg" xmlns:vectornator="http://vectornator.io" xmlns:xlink="http://www.w3.org/1999/xlink">
<defs/>
<clipPath id="ArtboardFrame">
<rect height="1024" width="1024" x="0" y="0"/>
</clipPath>
<g clip-path="url(#ArtboardFrame)" id="Layer-1" vectornator:layerName="Layer 1">
<g opacity="1" vectornator:layerName="Leaf">
<g opacity="1" vectornator:layerName="path">
<path d="M797.906 327.562C772.823 384.107 742.474 438.197 709.062 490.219C673.601 545.433 634.643 598.415 592.812 648.969C549.001 701.917 502.037 752.4 451.531 799.031C411.035 836.42 368.283 871.44 322.656 902.406C307.128 912.945 291.217 922.953 274.969 932.344C262.964 939.282 250.717 945.748 238.312 951.938C231.734 955.22 225.123 958.477 218.406 961.469C211.519 964.536 204.526 967.316 197.531 970.125C150.003 989.209 98.4352 1002.43 46.875 997.25C36.2138 996.179 25.6967 994.209 15.3125 991.594C8.04794 989.756 0.681018 994.173-1.15625 1001.44C-2.99352 1008.7 1.42294 1016.07 8.6875 1017.91C20.3526 1020.87 32.146 1023.09 44.125 1024.31C100.486 1030.09 157.332 1016.25 208.812 993.906C216.109 990.739 223.246 987.178 230.375 983.656C240.956 978.429 251.403 972.971 261.656 967.125C272.22 961.102 282.596 954.764 292.844 948.219C306.27 939.644 319.417 930.654 332.344 921.344C383.807 884.275 431.417 841.917 476.062 796.938C521.927 750.729 564.717 701.525 604.625 650.094C643.695 599.742 680.114 547.286 713.156 492.781C745.267 439.814 774.255 384.844 797.906 327.562Z" fill="#000000" stroke="none"/>
</g>
<g opacity="1" vectornator:layerName="path">
<path d="M889.656 5.15625C887.611 4.89384 885.578 5.52188 883.969 6.78125C882.803 7.69335 881.931 9.05387 881.031 10.2188C880.044 11.4961 879.022 12.7816 878 14.0312C876.979 15.2803 875.959 16.496 874.906 17.7188C862.959 31.5936 848.91 43.5949 833.719 53.7812C815.166 66.2218 794.983 76.0262 774.25 84.25C750.451 93.6897 725.886 101.123 701.156 107.688C664.371 117.451 627.144 125.466 590.062 134C552.076 142.742 514.163 151.973 476.875 163.375C428.846 178.061 381.793 196.418 337.812 220.812C293.702 245.28 253.033 275.816 217.906 312.062C201.924 328.554 187.102 346.146 173.469 364.625C165.474 375.461 157.803 386.556 150.75 398.031C132.312 428.03 117.938 460.794 110.812 495.375C106.983 513.96 105.308 533.001 106 551.969C106.436 563.921 107.832 575.856 110.125 587.594C124.909 663.265 176.344 726.808 236.938 772.031C247.435 779.866 258.266 787.223 269.438 794.062C297.384 811.171 327.636 825.628 359.25 834.5C371.414 837.914 388.9 839.431 401.281 840.281C401.202 841.436 401.237 842.623 401.469 843.812C425.352 910.48 413.683 889.747 425.344 910.469C432.28 922.794 440.557 934.367 450.062 944.844C456.478 951.915 463.453 958.494 470.875 964.5C511.604 997.458 563.646 1011.41 615.094 1015.03C629.59 1016.05 644.267 1016.53 658.781 1015.66C675.14 1014.67 691.367 1011.97 707.25 1007.97C753.655 996.271 797.149 973.761 835.188 944.906C852.566 931.723 868.792 917.127 883.844 901.344C890.33 894.543 896.541 887.504 902.625 880.344C947.136 827.962 978.402 765.112 997.469 699.281C1007.64 664.15 1014.29 628.125 1018.22 591.781C1023.32 544.585 1023.19 496.824 1019.5 449.531C1013.43 371.693 997.383 294.736 975.062 220C958.762 165.42 939.183 111.903 917.25 59.3438C911.948 46.6388 906.481 34.0249 900.906 21.4375C900.298 20.0635 899.675 18.6846 899.062 17.3125C898.654 16.3976 898.254 15.4768 897.844 14.5625C897.432 13.6441 897.007 12.7303 896.594 11.8125C896.087 10.687 895.599 9.30951 894.875 8.3125C894.241 7.43909 893.444 6.66235 892.5 6.125C891.593 5.60839 890.697 5.28982 889.656 5.15625ZM886.844 25.75C888.634 29.8843 890.431 34.0077 892.188 38.1562C902.581 62.6976 912.504 87.4204 921.781 112.406C948.283 183.78 970.177 257.01 984.469 331.844C998.606 405.867 1005.34 481.638 1000.12 556.938C996.014 616.347 984.308 675.545 962.562 731.094C955.44 749.287 947.225 767.013 938.031 784.25C927.92 803.206 916.326 821.448 903.594 838.75C888.395 859.403 871.328 878.616 852.5 896.031C821.967 924.273 787.284 948.124 749.156 964.906C727.527 974.427 704.82 981.719 681.5 985.688C672.484 987.222 663.357 988.252 654.219 988.656C642.635 989.169 630.971 988.75 619.406 988C572.853 984.981 524.928 973.15 488 943.312C482.338 938.738 476.987 933.771 472 928.469C456.463 911.95 444.733 892.127 436.938 870.875C433.089 860.382 436.953 870.883 428.094 838.625C426.662 831.27 419.543 826.474 412.188 827.906C406.076 829.096 401.755 834.208 401.281 840.125C388.919 839.157 371.502 837.488 359.406 833.969C343.626 829.377 328.282 823.344 313.406 816.375C297.581 808.961 282.243 800.474 267.5 791.094C256.458 784.068 245.755 776.543 235.406 768.531C177.996 724.082 129.319 662.756 114.75 590.25C112.443 578.77 111.007 567.105 110.5 555.406C109.699 536.915 111.232 518.334 114.844 500.188C120.928 469.619 132.882 440.438 148.375 413.469C157.852 396.97 168.699 381.257 180.219 366.125C206.792 331.221 237.814 299.752 272.594 273C306.915 246.601 344.659 224.898 384.219 207.375C450.767 177.898 521.636 160.36 592.5 144.812C629.797 136.63 667.207 128.951 704.219 119.531C738.892 110.707 773.427 100.286 805.844 84.9688C831.069 73.0493 854.944 57.9184 875 38.4062C879.145 34.374 883.065 30.1245 886.844 25.75Z" fill="#000000" stroke="none"/>
</g>
</g>
</g>
</svg>
