<?xml version="1.0" encoding="UTF-8" standalone="no"?>
<!DOCTYPE svg PUBLIC "-//W3C//DTD SVG 1.1//EN" "http://www.w3.org/Graphics/SVG/1.1/DTD/svg11.dtd">
<!-- Created with Vectornator (http://vectornator.io/) -->
<svg height="100%" stroke-miterlimit="10" style="fill-rule:nonzero;clip-rule:evenodd;stroke-linecap:round;stroke-linejoin:round;" version="1.1" viewBox="0 0 1024 1024" width="100%" xml:space="preserve" xmlns="http://www.w3.org/2000/svg" xmlns:vectornator="http://vectornator.io" xmlns:xlink="http://www.w3.org/1999/xlink">
<defs/>
<clipPath id="ArtboardFrame">
<rect height="1024" width="1024" x="0" y="0"/>
</clipPath>
<g clip-path="url(#ArtboardFrame)" id="Layer-1" vectornator:layerName="Layer 1">
<g opacity="1" vectornator:layerName="Maple Leaf">
<g opacity="1" vectornator:layerName="path">
<path d="M752.25 9.71875C750.745 9.69461 748.993 11.456 747.938 12.3125C747.626 12.5655 747.311 12.8078 747 13.0625C746.693 13.3143 746.399 13.5903 746.094 13.8438C745.487 14.3474 744.883 14.8341 744.281 15.3438C737.777 20.8477 731.597 26.7416 725.781 32.9688C715.577 43.8949 706.626 55.8841 698.344 68.3125C686.785 85.6572 676.33 103.771 663.094 119.938C655.992 128.612 648.126 136.643 639.531 143.844C637.658 145.413 635.749 146.947 633.812 148.438C633.012 149.054 632.218 149.648 631.406 150.25C631.336 150.225 631.257 150.214 631.188 150.188C630.734 150.016 630.225 149.788 629.781 149.594C628.221 148.911 626.686 148.114 625.219 147.25C619.981 144.166 615.214 140.355 610.531 136.5C601.556 129.11 592.897 121.322 583.812 114.062C572.269 104.839 560.082 96.364 546.906 89.625C539.525 85.8497 531.855 82.6255 523.938 80.1562C523.355 79.9746 522.772 79.7989 522.188 79.625C519.986 78.9704 516.826 77.6695 515.625 80.6562C515.303 81.457 515.212 82.8258 515.094 83.625C514.87 85.1393 514.645 86.6396 514.438 88.1562C513.863 92.3616 513.349 96.5947 512.875 100.812C511.181 115.88 510.016 130.994 509.062 146.125C506.015 194.505 505.357 243.007 502.125 291.375C501.428 301.812 500.603 312.233 499.406 322.625C498.467 330.785 497.349 338.989 495.5 347C494.471 351.457 495.448 347.107 487.219 365.594C477.247 363.184 479.751 364.965 477.125 363.125C476.764 362.872 476.416 362.608 476.062 362.344C475.279 361.758 474.565 361.221 473.812 360.594C469.896 357.329 466.317 353.665 462.812 349.969C458.611 345.536 454.533 340.964 450.469 336.406C428.028 311.24 405.3 285.951 377.469 266.562C365.545 258.256 352.749 251.084 339.125 245.969C331.976 243.285 324.595 241.189 317.094 239.75C312.721 238.911 308.313 238.299 303.875 237.938C301.615 237.753 299.329 237.622 297.062 237.562C296.491 237.548 295.916 237.538 295.344 237.531C294.769 237.524 294.199 237.53 293.625 237.531C292.157 237.533 289.984 237.27 288.844 238.375C288.097 239.099 287.828 240.158 288.094 241.156C288.299 241.928 288.957 242.954 289.312 243.625C289.516 244.01 289.737 244.395 289.938 244.781C290.138 245.168 290.333 245.55 290.531 245.938C290.727 246.32 290.901 246.71 291.094 247.094C291.478 247.856 291.874 248.608 292.25 249.375C292.803 250.505 293.344 251.641 293.875 252.781C295.881 257.089 297.749 261.472 299.375 265.938C304.296 279.456 307.598 294.487 304.375 308.781C303.087 314.493 300.682 319.919 297.281 324.688C296.632 325.598 295.995 326.419 295.281 327.281C294.929 327.707 294.584 328.115 294.219 328.531C293.786 329.025 293.119 329.289 292.5 329.438C290.892 329.824 289.157 329.693 287.531 329.5C284.92 329.189 282.336 328.57 279.812 327.844C271.334 325.402 263.176 321.879 255.094 318.375C227.103 306.24 199.719 292.364 170.5 283.312C160.519 280.22 150.266 277.663 139.844 276.656C138.611 276.537 137.237 276.444 136 276.375C133.227 276.22 130.311 275.908 128.312 278.375C127.599 279.256 127.161 280.341 127.062 281.469C126.993 282.259 127.142 283.24 127.219 284.031C127.322 285.094 127.438 286.159 127.562 287.219C127.688 288.285 127.824 289.342 127.969 290.406C129.373 300.752 131.664 310.994 134.406 321.062C141.512 347.154 151.654 372.294 161.812 397.312C165.474 406.329 169.191 415.339 172.562 424.469C174.81 430.555 177.151 436.799 178.25 443.219C178.483 444.582 178.716 446.052 178.5 447.438C178.407 448.035 178.14 448.618 177.938 449.188C177.759 449.692 177.577 450.192 177.375 450.688C176.78 452.144 176.095 453.541 175.312 454.906C172.935 459.052 169.713 462.657 166.031 465.688C159.921 470.716 152.693 474.269 145.344 477.094C134.491 481.264 123.122 484.019 111.75 486.344C109.556 486.792 107.356 487.207 105.156 487.625C103.356 487.967 101.553 488.299 99.75 488.625C98.8363 488.79 97.9456 488.963 97.0312 489.125C95.327 489.426 93.0036 489.636 91.4062 490.406C89.7222 491.218 88.3443 492.541 87.5 494.219C87.0547 495.104 86.8118 495.991 86.6875 496.969C86.5917 497.722 86.6126 498.47 86.7188 499.219C87.0239 501.37 88.3979 503.373 89.5 505.219C89.848 505.802 90.1779 506.389 90.5312 506.969C90.8844 507.548 91.2354 508.111 91.5938 508.688C91.9502 509.261 92.3259 509.836 92.6875 510.406C93.4064 511.539 94.1377 512.66 94.875 513.781C100.658 522.576 107.026 530.973 113.906 538.938C132.748 560.75 155.173 579.188 179.188 595.031C195.648 605.891 212.865 615.545 230.344 624.656C238.236 628.77 246.182 632.768 254.094 636.844C260.718 640.256 267.345 643.688 273.75 647.5C277.475 649.717 281.21 652.066 284.5 654.906C285.715 655.955 287.126 657.174 287.844 658.656C287.777 659.682 287.73 660.704 287.531 661.719C287.232 663.244 286.645 664.695 285.656 665.906C284.45 667.385 282.734 668.44 281.031 669.25C278.128 670.63 275 671.481 271.875 672.188C270.287 672.547 268.696 672.835 267.094 673.125C264.888 673.524 262.685 673.885 260.469 674.219C252.258 675.457 244.003 676.492 235.875 678.219C222.448 681.072 209.205 685.831 198.469 694.625C195.389 697.147 192.574 699.938 190.031 703C186.848 706.833 184.121 711.054 181.875 715.5C180.716 717.794 179.542 720.183 179.344 722.781C179.247 724.051 179.328 725.353 179.625 726.594C179.873 727.632 180.244 728.589 180.75 729.531C181.756 731.404 183.233 732.965 185.031 734.094C186.081 734.753 187.27 735.223 188.406 735.719C190.421 736.599 192.427 737.512 194.406 738.469C196.673 739.564 198.933 740.699 201.125 741.938C204.025 743.576 206.864 745.355 209.469 747.438C211.897 749.379 215.207 752.289 215.688 755.594C216.108 758.483 214.757 761.519 213.562 764.062C211.115 769.276 207.872 774.103 204.719 778.906C196.722 791.087 188.851 803.386 183.625 817.062C182.926 818.891 182.292 820.731 181.688 822.594C181.287 823.827 180.856 825.191 180.5 826.438C179.807 828.86 179.073 831.357 179.312 833.906C179.491 835.8 180.031 837.677 181.031 839.312C181.515 840.104 182.047 840.861 182.688 841.531C183.388 842.264 184.183 842.946 185.031 843.5C185.862 844.043 186.756 844.469 187.688 844.812C188.511 845.116 189.382 845.308 190.25 845.438C191.542 845.631 192.874 845.554 194.156 845.344C195.621 845.104 197.283 844.426 198.688 843.969C200.387 843.415 202.074 842.872 203.781 842.344C205.745 841.737 207.713 841.163 209.688 840.594C212.18 839.875 214.708 839.182 217.219 838.531C220.141 837.774 223.056 837.072 226 836.406C230.22 835.452 234.478 834.597 238.75 833.906C249.343 832.192 260.365 831.235 271.031 832.906C273.858 833.349 276.756 834.006 279.5 835.031C273.373 839.308 267.229 843.546 261.031 847.719C240.921 861.26 220.444 874.288 199.406 886.344C180.197 897.352 160.499 907.591 140.125 916.281C124.03 923.147 107.451 929.09 90.375 933C79.0849 935.585 67.5975 937.096 56.0312 937.688C48.063 938.095 39.9044 937.865 32.0625 939.531C28.1195 940.369 24.2967 941.805 20.75 943.719C16.7149 945.896 13.0445 948.754 10 952.188C7.6838 954.799 5.7476 957.721 4.25 960.875C-4.25599 978.786 2.53553 1000.23 17.625 1012.28C26.9588 1019.74 38.7976 1023.24 50.6562 1023.28C53.0246 1023.29 55.4633 1023.26 57.8125 1022.94C60.0286 1022.64 62.2375 1022.04 64.4062 1021.5C67.7674 1020.67 71.1046 1019.73 74.4062 1018.69C84.7517 1015.42 94.8478 1011.32 104.75 1006.91C110.291 1004.43 115.772 1001.86 121.219 999.188C128.592 995.571 135.887 991.785 143.125 987.906C151.813 983.251 160.431 978.457 168.969 973.531C198.536 956.471 227.341 938.089 255.594 918.938C267.964 910.552 280.244 902.021 292.344 893.25C301.265 886.783 310.121 880.199 318.75 873.344C331.727 863.034 344.353 852.247 356.75 841.25C387.121 814.309 415.853 785.553 442.969 755.344C461.608 734.579 479.485 713.13 496.562 691.062C501.005 685.323 505.416 679.541 509.75 673.719C510.633 672.532 511.497 671.346 512.375 670.156C513.703 668.357 514.957 666.638 515.625 664.469C517.058 659.815 516.122 654.638 514.969 650.031C512.88 641.692 509.405 633.68 505.594 626C499.184 613.083 491.44 600.844 482.969 589.188C473.393 576.011 462.793 563.583 451.5 551.844C459.452 557.683 467.286 563.677 474.906 569.938C483.297 576.831 491.513 583.918 499.719 591.031C506.381 596.807 512.992 602.629 519.812 608.219C524.159 611.781 528.628 615.549 533.656 618.125C536.028 619.34 538.698 620.286 541.406 620.094C542.088 620.045 542.778 619.96 543.438 619.781C544.198 619.575 544.962 619.311 545.656 618.938C546.433 618.519 547.152 617.991 547.812 617.406C548.378 616.905 548.847 616.314 549.312 615.719C550.242 614.531 550.992 613.111 551.812 611.844C557.044 603.766 562.16 595.643 567.188 587.438C578.216 569.438 588.737 551.137 598.75 532.562C593.041 547.782 587.166 562.924 580.938 577.938C579.715 580.884 578.466 583.845 577.219 586.781C576.72 587.956 576.122 589.071 575.719 590.281C575.467 591.035 575.158 591.799 575.125 592.594C575.077 593.743 575.12 594.935 575.469 596.031C575.798 597.069 576.446 598.024 577.125 598.875C577.638 599.518 578.318 599.977 579 600.438C580.331 601.336 582.02 601.71 583.594 601.844C585.719 602.024 587.882 601.81 590 601.625C592.469 601.41 594.942 601.144 597.406 600.875C614.4 599.023 631.423 597.624 648.531 597.844C660.641 597.999 672.788 598.955 684.781 600.812C684.041 600.824 683.302 600.794 682.562 600.812C649.062 601.665 615.799 609.738 585.719 624.531C572.346 631.108 559.354 638.944 547.938 648.562C545.073 650.976 542.003 653.525 539.844 656.625C538.989 657.852 538.405 659.256 537.75 660.594C537.145 661.829 536.515 663.048 535.906 664.281C533.747 668.654 531.564 673.033 529.344 677.375C521.954 691.825 514.174 706.075 505.781 719.969C481.66 759.899 452.469 796.421 422.875 832.375C411.176 846.588 399.341 860.719 387.5 874.812C384.834 877.985 382.168 881.142 379.5 884.312C377.769 886.369 375.406 888.569 375.281 891.438C375.249 892.189 375.351 892.872 375.562 893.594C376.663 897.346 380.735 898.402 383.875 899.844C385.092 900.402 386.293 900.982 387.5 901.562C389.049 902.307 390.597 903.058 392.125 903.844C406.617 911.294 420.794 920.72 430.781 933.812C435.787 940.375 439.517 947.805 441.656 955.781C443.635 963.159 444.255 970.822 444.312 978.438C444.366 985.595 443.867 992.75 444.094 999.906C444.115 1000.59 444.15 1001.28 444.188 1001.97C444.298 1004.01 444.318 1006.4 445.469 1008.16C446.046 1009.04 446.816 1009.78 447.75 1010.28C449.126 1011.02 450.678 1011.18 452.188 1010.81C453.512 1010.49 455.463 1009.2 456.562 1008.53C456.918 1008.32 457.271 1008.09 457.625 1007.88C457.974 1007.66 458.309 1007.44 458.656 1007.22C459.343 1006.78 460.038 1006.35 460.719 1005.91C461.727 1005.25 462.727 1004.59 463.719 1003.91C465.007 1003.02 466.272 1002.09 467.531 1001.16C469.061 1000.03 470.58 998.88 472.062 997.688C473.786 996.302 475.471 994.874 477.125 993.406C486.231 985.324 494.134 975.996 500.844 965.844C506.515 957.262 511.273 948.123 515.812 938.906C519.51 931.399 522.997 923.427 527.969 916.656C530.756 912.861 534.248 909.375 538.844 907.938C541.705 907.043 544.748 906.977 547.719 907.156C555.799 907.644 562.376 910.754 567.906 916.656C572.03 921.057 575.232 926.283 578.094 931.562C582.226 939.186 585.745 947.137 589.25 955.062C590.191 957.19 591.126 959.308 592.062 961.438C592.852 963.234 593.646 965.049 594.438 966.844C594.846 967.771 595.246 968.699 595.656 969.625C596.075 970.572 596.485 971.522 596.906 972.469C597.437 973.662 597.981 975.202 598.844 976.188C600.015 977.526 601.71 978.258 603.5 978.156C603.883 978.135 604.254 978.066 604.625 977.969C607.306 977.266 608.915 974.192 610.344 972.062C610.654 971.601 610.943 971.12 611.25 970.656C614.751 965.377 618.096 959.994 621.25 954.5C633.233 933.628 642.603 910.963 646.531 887.125C648.344 876.125 649.027 864.985 648.625 853.844C648.205 842.199 646.506 830.694 644.781 819.188C644.223 815.46 643.671 811.722 643.312 807.969C643.233 807.135 643.182 806.304 643.125 805.469C643.28 805.449 643.447 805.424 643.594 805.406C646.092 805.109 648.61 804.938 651.125 804.906C658.982 804.807 666.818 805.887 674.469 807.625C696.78 812.694 718.01 823.255 737.5 835.031C763.96 851.019 788.436 870.209 811.625 890.594C813.466 892.212 815.3 893.834 817.125 895.469C818.52 896.719 819.895 897.99 821.281 899.25C822.687 900.528 824.103 901.807 825.5 903.094C826.444 903.963 827.372 904.814 828.312 905.688C830.381 907.611 832.402 910.053 835.656 908.875C835.943 908.771 836.238 908.655 836.5 908.5C838.028 907.599 838.606 905.869 839 904.688C839.209 904.062 839.413 903.436 839.625 902.812C839.842 902.177 840.088 901.54 840.312 900.906C842.075 895.928 844.011 891.015 845.844 886.062C849.893 875.123 853.471 863.951 855.156 852.375C857.192 838.397 856.318 824.136 851.875 810.688C848.378 800.102 842.839 790.275 836.125 781.406C834.855 779.728 833.445 778.156 832.094 776.531C837.294 775.267 843.102 775.42 848.344 775.719C857.457 776.238 866.51 777.588 875.5 779.125C889.124 781.454 902.657 784.323 916.156 787.281C933.086 790.991 949.983 794.889 966.906 798.625C978.436 801.17 989.979 803.678 1001.56 805.969C1002.78 806.21 1004 806.421 1005.22 806.656C1006.03 806.812 1006.82 806.969 1007.62 807.125C1009.66 807.517 1012.15 808.348 1014 807C1016.4 805.257 1015.62 801.704 1015.41 799.188C1015.36 798.662 1015.33 798.119 1015.28 797.594C1015.18 796.558 1015.08 795.533 1014.97 794.5C1013.68 782.99 1011.12 771.606 1007.25 760.688C1001.62 744.819 993.154 730.117 982.75 716.906C974.062 705.875 964.123 695.935 953.719 686.531C943.901 677.657 933.467 669.388 924.125 660C919.206 655.057 913.891 649.193 911.719 642.406C915.901 639.752 919.901 636.777 923.906 633.875C935.682 625.343 947.805 617.509 962.438 615.125C964.2 614.838 965.969 614.63 967.75 614.5C969.136 614.398 970.107 614.369 971.5 614.344C972.455 614.327 973.389 614.346 974.344 614.375C975.327 614.405 976.332 614.456 977.312 614.531C978.102 614.592 979.093 614.786 979.875 614.625C981.079 614.377 982.03 613.541 982.438 612.375C982.566 612.006 982.626 611.637 982.625 611.25C982.624 610.716 982.46 610.174 982.25 609.688C981.656 608.31 980.892 606.958 980.188 605.656C978.602 602.725 976.898 599.865 975.094 597.062C969.252 587.986 962.299 579.646 954.531 572.156C925.308 543.977 886.519 528.336 848.156 517.031C837.864 513.998 827.474 511.244 817.094 508.531C808.971 506.409 800.809 504.35 792.812 501.781C788.687 500.456 784.422 499.058 780.688 496.812C779.318 495.989 777.5 494.867 777.094 493.188C776.54 490.898 777.757 488.285 778.719 486.281C780.797 481.951 783.642 477.965 786.5 474.125C791.448 467.477 796.771 461.13 802.094 454.781C808.779 446.808 815.525 438.899 822.188 430.906C838.203 411.692 853.819 392.117 868.438 371.812C886.977 346.063 903.939 319.25 919.156 291.406C925.554 279.7 931.577 267.778 937.281 255.719C938.617 252.895 939.959 250.063 941.25 247.219C941.435 246.811 941.596 246.408 941.781 246C942.246 244.976 943.033 243.654 942.906 242.5C942.606 239.764 939.18 239.727 937.125 239.344C936.693 239.263 936.276 239.175 935.844 239.094C930.163 238.025 924.488 236.908 918.812 235.812C906.485 233.433 894.12 231.28 881.594 230.281C867.006 229.118 852.334 229.418 837.75 230.5C830.111 231.067 822.48 231.832 814.875 232.75C813.114 232.962 811.353 233.179 809.594 233.406C809.447 233.425 809.303 233.45 809.156 233.469C809.15 232.439 809.163 231.397 809.156 230.375C809.132 226.617 809.082 222.882 809 219.125C808.761 208.113 808.285 197.114 807.531 186.125C804.559 142.783 796.543 99.5522 780.156 59.1875C774.791 45.972 768.34 33.1469 760.969 20.9375C760.267 19.7758 759.563 18.6192 758.844 17.4688C758.363 16.7001 757.895 15.9511 757.406 15.1875C756.916 14.422 756.404 13.635 755.906 12.875C755.012 11.5122 754.122 9.74877 752.25 9.71875ZM751.781 15.6562C752.017 16.0167 752.235 16.3884 752.469 16.75C753.677 18.615 754.872 20.4788 756.031 22.375C759.25 27.6423 762.257 33.0487 765.094 38.5312C773.635 55.0394 780.54 72.439 785.844 90.25C796.021 124.43 801.232 159.898 803.125 195.469C803.673 205.773 804.007 216.088 804.125 226.406C804.14 227.745 804.148 229.067 804.156 230.406C804.161 231.07 804.185 231.742 804.188 232.406C804.194 234.035 803.835 236.514 805.031 237.812C805.445 238.261 805.965 238.563 806.562 238.688C807.321 238.845 808.431 238.599 809.188 238.5C809.543 238.454 809.894 238.421 810.25 238.375C810.605 238.329 810.957 238.264 811.312 238.219C811.662 238.174 811.994 238.138 812.344 238.094C817.935 237.392 823.546 236.75 829.156 236.219C850.396 234.207 871.743 233.746 892.938 236.5C903.277 237.843 913.521 239.847 923.75 241.844C927.468 242.569 931.183 243.299 934.906 244C935.615 244.133 936.322 244.275 937.031 244.406C936.734 245.062 936.457 245.72 936.156 246.375C935.235 248.384 934.289 250.408 933.344 252.406C930.189 259.075 926.943 265.677 923.594 272.25C908.81 301.262 892.009 329.266 873.469 356.031C859.722 375.877 845.098 395.102 829.844 413.812C818.435 427.807 806.601 441.417 795 455.25C791.069 459.937 787.158 464.674 783.438 469.531C780.747 473.045 778.135 476.628 775.875 480.438C773.524 484.4 770.779 489.679 771.938 494.438C772.612 497.208 774.642 499.236 776.938 500.781C780.747 503.347 785.211 504.942 789.531 506.406C797.744 509.19 806.186 511.366 814.562 513.594C824.81 516.319 835.053 519.046 845.219 522.062C870.667 529.614 895.86 538.904 918.688 552.625C931.338 560.229 943.247 569.194 953.5 579.844C959.947 586.54 965.758 593.877 970.656 601.781C971.931 603.838 973.128 605.936 974.281 608.062C973.315 608.029 972.341 607.955 971.375 607.969C966.763 608.033 962.196 608.516 957.688 609.5C949.024 611.39 940.893 615.049 933.312 619.594C927.453 623.106 921.915 627.138 916.375 631.125C914.087 632.771 911.82 634.414 909.469 635.969C908.171 636.827 905.697 637.998 904.969 639.625C904.075 641.621 905.36 644.707 906.062 646.469C906.39 647.29 906.733 648.051 907.125 648.844C910.811 656.309 916.82 662.469 922.781 668.156C932.264 677.203 942.464 685.514 952.062 694.438C964.701 706.188 976.467 718.937 985.812 733.5C994.913 747.681 1001.46 763.34 1005.03 779.812C1006.14 784.93 1006.97 790.107 1007.53 795.312C1007.68 796.707 1007.79 798.101 1007.91 799.5C1007.9 799.498 1007.89 799.502 1007.88 799.5C1005.04 798.941 1002.2 798.398 999.375 797.812C990.74 796.026 982.106 794.167 973.5 792.25C953.017 787.686 932.617 782.806 912.125 778.281C896.107 774.745 880.007 771.337 863.75 769.094C857.334 768.209 850.854 767.499 844.375 767.344C840.133 767.242 835.839 767.357 831.656 768.125C830.578 768.323 829.521 768.566 828.469 768.875C826.4 769.482 822.705 770.721 821.656 773.062C820.19 776.334 823.145 778.654 825 780.844C825.673 781.638 826.347 782.44 827 783.25C827.846 784.298 828.66 785.36 829.469 786.438C830.444 787.738 831.394 789.065 832.312 790.406C833.366 791.944 834.376 793.5 835.344 795.094C840.146 803.001 843.808 811.611 845.812 820.656C847.443 828.012 847.944 835.58 847.469 843.094C846.442 859.297 840.85 874.574 835.094 889.594C834.126 892.12 833.245 894.701 832.312 897.25C831.584 896.581 830.882 895.889 830.156 895.219C825.559 890.968 820.914 886.767 816.219 882.625C803.521 871.421 790.429 860.654 776.875 850.5C762.646 839.84 747.899 829.833 732.406 821.094C719.186 813.636 705.382 807.036 690.969 802.219C677.211 797.621 662.666 794.546 648.094 795.156C646.671 795.216 645.23 795.302 643.812 795.438C642.869 795.528 642.002 795.625 641.062 795.75C640.61 795.81 640.17 795.869 639.719 795.938C638.618 796.105 637.287 796.261 636.281 796.75C635.32 797.218 634.498 797.966 633.938 798.875C632.597 801.048 633.08 804.281 633.25 806.688C633.581 811.366 634.232 816.017 634.906 820.656C636.012 828.264 637.161 835.84 637.844 843.5C638.55 851.426 638.776 859.394 638.375 867.344C637.051 893.576 628.588 918.748 616.25 941.781C613.015 947.82 609.537 953.699 605.844 959.469C605.277 960.354 604.677 961.22 604.094 962.094C602.994 959.567 601.88 957.059 600.781 954.531C595.961 943.442 591.258 932.179 585.094 921.75C580.935 914.715 575.911 907.941 569.188 903.156C564.708 899.968 559.581 897.823 554.188 896.781C550.106 895.993 545.833 895.727 541.688 896.094C539.607 896.278 537.559 896.666 535.562 897.281C522.221 901.392 515.207 914.768 509.344 926.375C508.088 928.861 506.867 931.381 505.625 933.875C503.867 937.406 502.082 940.929 500.219 944.406C496.12 952.055 491.591 959.455 486.344 966.375C479.458 975.456 471.36 983.582 462.281 990.469C460.256 992.005 458.112 993.368 456 994.781C456.043 989.31 456.204 983.849 456.188 978.375C456.162 970.209 455.54 962.013 453.594 954.062C452.317 948.846 450.492 943.76 448.125 938.938C438.978 920.299 422.392 906.772 404.688 896.625C400.318 894.121 395.826 891.825 391.281 889.656C394.397 885.987 397.515 882.33 400.625 878.656C415.524 861.059 430.36 843.433 444.969 825.594C464.679 801.524 484.026 777.073 501.5 751.312C515.498 730.675 528.083 709.161 539.625 687.062C543.518 679.608 547.411 672.123 551.031 664.531C551.038 664.506 551.046 664.49 551.062 664.469C551.067 664.463 551.058 664.443 551.062 664.438C551.103 664.387 551.177 664.331 551.219 664.281C551.287 664.201 551.336 664.11 551.406 664.031C551.6 663.813 551.83 663.583 552.031 663.375C552.656 662.729 553.306 662.107 553.969 661.5C555.701 659.914 557.528 658.418 559.375 656.969C566.695 651.226 574.597 646.219 582.75 641.75C618.121 622.362 658.816 613.377 699.062 615.438C713.756 616.19 728.354 618.377 742.656 621.812C743.882 622.107 745.091 622.406 746.312 622.719C746.926 622.876 747.544 623.025 748.156 623.188C749.914 623.653 752.601 624.662 754.344 624.281C755.165 624.102 756.097 624.06 756.75 623.531C758.195 622.361 759.767 621.09 760.406 619.344C761.012 617.691 760.561 615.789 760.219 614.062C760.069 613.306 759.457 612.715 759 612.094C758.162 610.954 756.396 610.101 755.156 609.375C754.742 609.132 754.323 608.895 753.906 608.656C753.49 608.418 753.075 608.172 752.656 607.938C751.825 607.471 750.996 607.016 750.156 606.562C749.321 606.111 748.468 605.687 747.625 605.25C746.366 604.597 745.119 603.965 743.844 603.344C742.158 602.523 740.461 601.705 738.75 600.938C736.632 599.987 734.497 599.087 732.344 598.219C729.789 597.188 727.191 596.198 724.594 595.281C691.39 583.561 655.612 581.155 620.688 583.344C611.949 583.891 603.239 584.797 594.531 585.688C595.939 582.35 597.336 579.004 598.719 575.656C604.202 562.377 609.473 548.998 614.562 535.562C627.143 502.353 638.833 468.747 648.906 434.688C649.642 432.201 650.348 429.711 651.062 427.219C652.435 422.436 653.782 417.652 655.062 412.844C655.216 412.266 655.348 411.703 655.5 411.125C655.765 410.118 656.179 408.978 656.094 407.938C656.021 407.049 656.438 405.848 655.75 405.281C652.868 402.907 649.731 400.354 646.062 399.656C644.277 399.317 642.897 401.479 641.438 402.562C641.096 402.816 640.946 403.265 640.719 403.625C640.162 404.507 639.796 405.721 639.406 406.688C639.243 407.091 639.069 407.502 638.906 407.906C638.746 408.304 638.599 408.696 638.438 409.094C638.114 409.892 637.763 410.703 637.438 411.5C636.951 412.691 636.492 413.874 636 415.062C635.343 416.648 634.663 418.23 634 419.812C633.173 421.784 632.367 423.751 631.531 425.719C630.534 428.066 629.513 430.41 628.5 432.75C612.575 469.53 594.628 505.424 574.906 540.312C566.392 555.374 557.535 570.237 548.312 584.875C545.401 589.496 542.442 594.074 539.469 598.656C539.13 599.178 538.777 599.697 538.438 600.219C537.733 599.715 536.969 599.307 536.281 598.781C534.103 597.117 531.977 595.383 529.875 593.625C523.9 588.628 518.078 583.475 512.219 578.344C495.891 564.044 479.419 549.864 461.969 536.938C450.241 528.25 438.076 520.07 425.156 513.25C422.256 511.719 419.293 510.243 416.312 508.875C413.77 507.708 411.199 506.613 408.594 505.594C406.768 504.879 404.921 504.219 403.062 503.594C401.6 503.102 400.138 502.616 398.656 502.188C397.563 501.871 396.478 501.592 395.375 501.312C394.64 501.126 393.895 500.949 393.156 500.781C391.791 500.472 389.892 499.968 388.469 500.031C387.908 500.056 387.324 500.043 386.781 500.188C385.814 500.445 384.783 500.637 383.969 501.219C382.627 502.177 381.269 503.247 380.469 504.688C379.637 506.185 379.355 507.978 379.25 509.688C379.184 510.765 379.633 511.818 379.969 512.844C380.156 513.417 380.498 513.923 380.812 514.438C382.026 516.423 385.205 518.443 387.031 519.812C387.97 520.517 388.911 521.226 389.844 521.938C391.231 522.996 392.625 524.051 394 525.125C395.801 526.532 397.597 527.97 399.375 529.406C401.983 531.512 404.568 533.646 407.125 535.812C410.018 538.264 412.862 540.752 415.688 543.281C430.649 556.679 444.622 571.195 457.219 586.844C467.006 599.002 476.028 611.853 483.625 625.5C487.862 633.111 491.741 641.025 494.562 649.281C495.328 651.522 496.023 653.804 496.5 656.125C496.659 656.9 496.717 657.724 496.781 658.531C496.556 658.833 496.35 659.136 496.125 659.438C494.829 661.174 493.497 662.93 492.188 664.656C487.47 670.877 482.707 677.056 477.875 683.188C458.348 707.966 437.731 731.89 416.156 754.906C390.375 782.409 363.221 808.624 334.594 833.156C325.144 841.254 315.569 849.248 305.781 856.938C297.358 863.554 288.706 869.887 280 876.125C268.033 884.7 255.918 893.056 243.688 901.25C215.764 919.957 187.269 937.891 158.062 954.531C144.235 962.41 130.239 970.014 115.969 977.062C104.95 982.504 93.7721 987.645 82.3125 992.094C76.7691 994.246 71.143 996.226 65.4375 997.906C62.6725 998.721 59.9088 999.473 57.0938 1000.09C56.369 1000.25 55.5794 1000.47 54.8438 1000.56C51.5816 1000.96 48.0744 1000.73 44.8438 1000.19C37.911 999.013 31.3605 995.521 27.3125 989.656C22.7271 983.013 21.5783 973.325 27.5625 967.125C28.7556 965.889 30.1729 964.867 31.6875 964.062C36.3559 961.584 41.6797 961.5 46.8438 961.312C52.3521 961.112 57.8434 960.973 63.3438 960.594C79.4594 959.483 95.3621 956.462 110.875 952C134.164 945.302 156.589 935.768 178.281 925.031C204.488 912.06 229.757 897.24 254.406 881.531C267.582 873.134 280.557 864.419 293.406 855.531C295.385 854.162 297.371 852.816 299.344 851.438C300.847 850.387 302.345 849.337 303.844 848.281C305.208 847.32 306.717 846.358 307.906 845.188C309.151 843.962 310.161 842.487 310.844 840.875C311.233 839.957 311.515 839.046 311.688 838.062C312.532 833.255 310.593 829.451 307.906 825.812C306.478 823.879 304.875 822.113 303.094 820.5C302.151 819.646 301.206 818.886 300.188 818.125C298.645 816.971 297.023 815.943 295.344 815C287.623 810.666 278.848 808.507 270.094 807.594C255.38 806.059 240.408 807.79 225.969 810.688C221.261 811.632 216.608 812.766 211.969 814C213.874 810.279 215.922 806.633 218.094 803.062C223.455 794.25 229.591 785.834 234.219 776.594C237.607 769.83 240.073 762.409 239.562 754.75C239.424 752.679 239.091 750.624 238.531 748.625C235.154 736.57 224.718 728.385 214.281 722.469C211.843 721.086 209.275 719.939 206.75 718.719C207.566 717.615 208.417 716.544 209.344 715.531C215.509 708.793 223.831 704.677 232.438 701.969C242.183 698.902 252.356 697.504 262.406 695.844C269.124 694.734 275.872 693.563 282.375 691.5C292.721 688.218 302.032 682.359 306.25 671.906C307.302 669.3 307.955 666.566 308.312 663.781C308.698 660.781 308.856 657.637 308.25 654.656C306.352 645.322 298.114 638.896 290.562 634C284.471 630.05 278.028 626.666 271.562 623.375C263.716 619.381 255.777 615.569 247.875 611.688C228.832 602.334 209.969 592.582 191.938 581.375C166.411 565.51 142.503 546.682 122.906 523.781C117.302 517.232 112.034 510.369 107.219 503.219C107.562 503.147 107.907 503.072 108.25 503C116.184 501.336 124.072 499.483 131.875 497.281C150.328 492.074 170.49 484.405 182.781 468.938C185.94 464.963 188.488 460.52 190.312 455.781C191.111 453.707 191.89 451.559 192.188 449.344C192.891 444.102 191.406 438.631 189.906 433.656C187.665 426.222 184.74 418.984 181.781 411.812C171.834 387.7 160.946 363.985 152.156 339.406C147.679 326.887 143.676 314.141 140.781 301.156C139.802 296.763 138.948 292.358 138.281 287.906C138.23 287.564 138.206 287.218 138.156 286.875C139.011 286.933 139.867 286.98 140.719 287.062C145.752 287.547 150.752 288.412 155.688 289.5C170.632 292.796 185.121 297.98 199.344 303.562C212.596 308.764 225.655 314.451 238.75 320.031C248.234 324.073 257.747 328.121 267.469 331.562C273.697 333.767 280.171 335.946 286.781 336.594C289.904 336.9 293.254 336.841 296.156 335.5C298.628 334.358 300.203 332.238 301.781 330.094C303.609 327.611 305.212 324.991 306.562 322.219C313.633 307.707 312.692 291.029 308.469 275.844C306.151 267.509 302.88 259.472 299.125 251.688C297.628 248.585 295.999 245.53 294.344 242.5C294.662 242.502 294.963 242.527 295.281 242.531C301.753 242.611 308.223 243.241 314.594 244.375C332.712 247.599 349.836 254.953 365.438 264.594C388.146 278.627 407.698 297.197 425.844 316.625C436.154 327.665 445.965 339.16 456.219 350.25C460.029 354.371 463.927 358.456 468.094 362.219C470.493 364.385 470.696 363.459 486.5 368.75C486.561 368.881 486.508 369.034 486.594 369.156C487.353 370.236 488.794 370.486 489.906 369.812C489.946 369.826 489.929 369.83 489.969 369.844C489.99 369.83 489.979 369.795 490 369.781C490.018 369.769 490.044 369.794 490.062 369.781C490.25 369.443 490.197 369.601 490.375 369.281C490.678 368.934 490.954 368.599 491.031 368.156C498.025 355.842 497.451 358.956 498.938 353.781C500.39 348.726 501.418 343.529 502.281 338.344C503.501 331.012 504.385 323.644 505.125 316.25C507.391 293.609 508.431 270.851 509.406 248.125C510.622 219.794 511.595 191.443 513.094 163.125C514.069 144.691 515.254 126.273 517.125 107.906C517.773 101.544 518.509 95.1803 519.375 88.8438C519.587 87.2931 519.836 85.7365 520.062 84.1875C520.303 84.2568 520.542 84.335 520.781 84.4062C521.345 84.5738 521.907 84.7624 522.469 84.9375C525.242 85.8025 527.976 86.7388 530.688 87.7812C538.039 90.6075 545.146 94.1006 551.969 98.0312C562.954 104.36 573.202 111.888 583.031 119.875C590.605 126.029 597.917 132.495 605.406 138.75C611.621 143.941 618.026 149.225 625.25 152.969C625.778 153.242 626.398 153.53 626.938 153.781C628.355 154.442 630.931 155.843 632.656 155.312C633.703 154.991 635.186 153.657 635.969 153.062C637.414 151.964 638.869 150.859 640.281 149.719C646.115 145.009 651.646 139.935 656.844 134.531C665.024 126.027 672.308 116.718 679.031 107.031C689.283 92.2614 698.322 76.7035 708.719 62.0312C718.166 48.6996 728.724 36.201 740.75 25.125C743.243 22.8294 745.777 20.5825 748.375 18.4062C749.493 17.4693 750.645 16.5717 751.781 15.6562Z" fill="#000000" stroke="none"/>
</g>
</g>
</g>
</svg>
