<?xml version="1.0" encoding="UTF-8" standalone="no"?>
<!DOCTYPE svg PUBLIC "-//W3C//DTD SVG 1.1//EN" "http://www.w3.org/Graphics/SVG/1.1/DTD/svg11.dtd">
<!-- Created with Vectornator (http://vectornator.io/) -->
<svg height="100%" stroke-miterlimit="10" style="fill-rule:nonzero;clip-rule:evenodd;stroke-linecap:round;stroke-linejoin:round;" version="1.1" viewBox="0 0 1024 1024" width="100%" xml:space="preserve" xmlns="http://www.w3.org/2000/svg" xmlns:vectornator="http://vectornator.io" xmlns:xlink="http://www.w3.org/1999/xlink">
<defs>
<path d="M202.312 151.795C176.263 152.15 163.043 153.733 162.594 156.576C161.995 160.366 163.777 163.518 167.969 166.045C172.161 168.571 175.141 172.672 176.937 178.357C178.734 184.042 179.625 232.975 179.625 325.201C179.625 417.427 178.734 466.422 176.937 472.107C175.141 477.792 172.161 481.893 167.969 484.42C163.777 486.946 161.688 489.761 161.687 492.92C161.687 494.499 161.687 496.091 161.687 497.67C174.862 497.67 188.044 497.67 201.219 497.67C214.393 497.67 227.576 497.67 240.75 497.67C240.75 496.406 240.75 495.183 240.75 493.92C240.75 491.393 238.046 487.598 232.656 482.545C227.267 477.491 223.948 470.513 222.75 461.67C221.552 452.826 220.969 427.854 220.969 386.795C220.969 366.265 220.969 345.731 220.969 325.201C230.251 325.201 239.531 325.201 248.812 325.201C267.376 325.201 278.47 326.181 282.062 328.076C285.656 329.971 288.052 332.174 289.25 334.701C290.448 337.228 291.922 338.513 293.719 338.513C295.515 338.513 297.605 340.411 300 344.201C302.395 347.991 304.177 354.295 305.375 363.138C306.573 371.982 307.187 417.456 307.187 499.576C307.187 581.695 306.88 626.558 306.281 634.138C305.682 641.719 304.484 647.38 302.687 651.17C300.891 654.96 298.218 657.806 294.625 659.701C291.032 661.596 288.943 663.831 288.344 666.357C288.044 667.621 287.737 668.844 287.437 670.107C324.266 670.423 361.109 670.791 397.937 671.107C471.594 671.739 508.99 668.25 510.187 660.67C511.385 653.089 512 643.634 512 632.263C512 620.893 511.385 614.527 510.187 613.263C508.99 612 507.208 612 504.812 613.263C502.417 614.527 500.911 616.73 500.312 619.888C499.714 623.047 496.733 628.127 491.344 635.076C485.954 642.025 477.565 648.023 466.187 653.076C454.81 658.129 434.161 660.67 404.219 660.67C374.277 660.67 357.807 659.078 354.812 655.92C351.818 652.761 350.312 620.231 350.312 558.326C350.312 527.373 350.312 496.435 350.312 465.482C352.109 468.641 353.922 471.761 355.719 474.92C359.312 481.237 365.304 487.603 373.687 493.92C382.071 500.237 391.935 503.357 403.312 503.357C414.69 503.357 422.157 502.103 425.75 499.576C427.547 498.313 429.36 497.058 431.156 495.795C430.258 494.531 429.336 493.246 428.437 491.982C426.641 489.455 423.077 487.864 417.687 487.232C412.298 486.601 408.427 484.092 406.031 479.67C403.636 475.248 401.823 473.045 400.625 473.045C399.427 473.045 395.217 464.812 388.031 448.388C380.845 431.965 376.359 419.969 374.562 412.388C372.766 404.808 371.291 401.045 370.094 401.045C368.896 401.045 367.39 397.25 365.594 389.67C363.797 382.089 362.291 378.295 361.094 378.295C359.896 378.295 358.114 375.112 355.719 368.795C353.323 362.478 352.74 356.511 353.937 350.826C355.135 345.141 357.808 341.04 362 338.513C366.192 335.987 368.281 333.415 368.281 330.888C368.281 328.362 367.698 326.464 366.5 325.201C365.302 323.938 355.991 323.326 338.625 323.326C321.259 323.326 311.088 322.714 308.094 321.451C305.1 320.188 303.594 318.902 303.594 317.638C303.594 316.375 307.22 315.12 314.406 313.857C321.592 312.594 329.366 309.442 337.75 304.388C346.134 299.335 353.324 293.306 359.312 286.357C365.301 279.409 369.48 273.442 371.875 268.388C374.27 263.335 376.36 254.765 378.156 242.763C379.953 230.761 380.26 221.643 379.062 215.326C377.865 209.009 375.468 202.368 371.875 195.42C368.282 188.471 361.43 181.219 351.25 173.638C341.07 166.058 330.284 160.672 318.906 157.513C307.528 154.355 278.767 152.458 232.656 151.826C221.129 151.668 210.996 151.676 202.312 151.795ZM222.75 164.138C229.637 164.138 236.551 164.138 243.437 164.138C257.211 164.138 268.304 165.118 276.687 167.013C285.071 168.909 294.903 174.264 306.281 183.107C317.659 191.951 325.157 200.764 328.75 209.607C332.343 218.451 334.432 226.989 335.031 235.201C335.63 243.413 335.046 251.645 333.25 259.857C331.453 268.069 327.858 275.965 322.469 283.545C317.079 291.125 309.581 297.123 300 301.545C290.419 305.967 274.871 308.17 253.312 308.17C242.533 308.17 231.748 308.17 220.969 308.17C221.268 284.166 221.544 260.143 221.844 236.138C222.143 212.134 222.451 188.143 222.75 164.138Z" id="Fill"/>
<path d="M912.395-40.5731C911.771-38.1861 911.147-35.7961 910.523-33.4092C909.275-28.6352 909.369-18.851 910.814-4.02272C912.259 10.8057 910.066 29.3395 904.242 51.6182C898.418 73.8968 888.253 92.4886 873.715 107.389C859.177 122.289 841.987 135.668 822.173 147.489C802.359 159.31 792.121 166.393 791.497 168.78C791.185 169.973 790.882 171.129 790.57 172.322C780.965 169.811 771.399 167.31 761.793 164.799C742.581 159.777 731.92 155.343 729.906 151.417C727.892 147.49 722.291 144.296 713.041 141.878C703.791 139.459 690.456 141.08 673.017 146.721C655.579 152.363 647.151 156.997 647.742 160.551C648.333 164.106 652.006 168.854 658.794 174.878C665.581 180.903 675.353 185.599 688.16 188.948C700.968 192.296 709.862 193.344 714.755 192.073C719.648 190.802 724.186 186.428 728.4 179.03C732.615 171.631 735.981 167.405 738.532 166.372C741.083 165.338 748.442 166.439 760.538 169.601C772.634 172.764 778.499 176.438 778.171 180.603C777.842 184.767 775.963 188.971 772.58 193.187C769.198 197.403 763.972 198.59 756.857 196.73C749.742 194.87 740.488 196.692 729.158 202.23C717.828 207.769 709.352 209.752 703.66 208.264C700.813 207.52 698.003 206.785 695.156 206.041C694.992 208.123 694.796 210.214 694.632 212.296C694.303 216.46 697.527 221.587 704.314 227.611C711.101 233.636 717.661 237.492 724.064 239.166C730.468 240.84 736.624 240.72 742.437 238.839C745.344 237.899 748.25 236.928 751.156 235.988C750.844 237.181 750.522 238.416 750.21 239.609C749.586 241.996 745.26 245.561 737.193 250.252C729.125 254.943 723.163 260.137 719.364 265.944C715.566 271.752 712.706 278.21 710.834 285.371C708.962 292.532 708.809 297.598 710.319 300.543C711.83 303.488 712.153 306.58 711.321 309.762C710.489 312.945 711.436 315.292 714.074 316.832C716.713 318.372 722.34 315.644 731.032 308.566C739.724 301.487 746.558 294.296 751.485 287.083C756.411 279.871 759.35 274.297 760.39 270.319C761.43 266.341 761.181 261.623 759.583 256.105C757.985 250.587 758.234 243.816 760.314 235.859C762.394 227.902 764.236 223.689 765.867 223.265C767.499 222.842 769.156 219.487 770.82 213.122C772.484 206.757 776.222 199.621 782.067 191.798C787.913 183.976 793.795 177.442 799.728 172.193C802.695 169.568 805.713 166.981 808.679 164.357C807.223 169.926 805.772 175.476 804.316 181.046C801.404 192.185 801.123 201.913 803.521 210.19C805.918 218.467 808.056 223.268 809.983 224.621C811.909 225.975 813.799 226.058 815.638 224.838C817.478 223.619 821.22 219.449 826.858 212.422C832.496 205.396 836.562 197.153 839.058 187.605C841.554 178.057 841.438 171.19 838.712 167.077C835.986 162.965 835.336 158.142 836.792 152.572C838.248 147.002 844.394 140.95 855.221 134.429C866.047 127.909 875.703 120.221 884.1 111.365C888.298 106.937 892.449 102.547 896.647 98.1189C891.759 116.817 886.872 135.512 881.984 154.21C872.208 191.606 862.582 222.609 853.079 247.326C843.577 272.043 833.502 284.317 822.917 284.1C812.331 283.883 803.379 286.196 796.022 291.073C788.666 295.95 781.625 302.592 774.859 311.024C768.094 319.456 765.135 325.107 765.934 327.866C766.733 330.625 769.232 332.555 773.501 333.671C777.77 334.787 786.685 334.111 800.237 331.704C807.013 330.5 813.8 329.31 820.576 328.106C816.613 335.995 812.674 343.902 808.711 351.791C800.786 367.57 786.407 381.684 765.673 394.114C744.94 406.545 731.562 406.836 725.52 395.055C719.477 383.275 709.737 375.622 696.218 372.088C682.698 368.554 675.049 365.731 673.33 363.582C671.612 361.432 668.763 360.688 664.79 361.349C660.816 362.01 658.503 363.547 657.879 365.934C657.255 368.321 659.493 374.382 664.529 384.199C669.564 394.016 676.297 403.024 684.803 411.198C689.056 415.285 693.333 419.368 697.586 423.455C696.103 424.767 694.621 426.11 693.137 427.422C690.17 430.047 686.909 430.882 683.352 429.952C679.794 429.022 677.427 429.269 676.3 430.674C675.173 432.08 669.693 432.747 659.819 432.716C649.945 432.684 639.136 430.312 627.455 425.558C615.775 420.805 607.787 413.61 603.463 403.979C599.139 394.349 594.322 386.664 588.958 381.012C583.594 375.359 576.046 372.151 566.38 371.325C556.714 370.498 545.861 372.767 533.82 378.119C521.778 383.472 515.843 388.715 516.018 393.861C516.193 399.007 518.745 402.227 523.726 403.529C526.216 404.18 528.773 404.849 531.263 405.5C531.055 406.296 530.854 407.066 530.646 407.862C530.438 408.657 530.226 409.467 530.018 410.263C531.441 410.635 532.865 411.007 534.288 411.379C537.135 412.123 540.528 415.11 544.468 420.39C548.409 425.671 556.72 429.985 569.528 433.333C582.336 436.682 590.711 436.729 594.597 433.495C598.483 430.261 603.634 429.508 610.038 431.182C613.24 432.019 616.416 432.849 619.618 433.686C615.94 436.125 612.255 438.58 608.577 441.019C601.221 445.896 597.16 449.941 596.328 453.123C595.912 454.715 595.509 456.255 595.093 457.847C594.382 457.661 593.651 457.47 592.94 457.284C592.228 457.098 591.535 456.917 590.823 456.73C590.199 459.117 589.574 461.507 588.95 463.894C587.702 468.668 585.595 472.401 582.629 475.026C579.662 477.65 577.994 481.044 577.666 485.208C577.337 489.373 579.662 492.122 584.642 493.424C589.623 494.726 597.214 493.292 607.417 489.159C617.619 485.026 625.353 480.211 630.575 474.776C635.797 469.341 639.239 463.488 640.903 457.123C642.567 450.757 646.199 447.012 651.803 445.927C654.606 445.385 657.401 444.839 660.203 444.296C658.08 450.966 655.951 457.616 653.827 464.286C649.579 477.626 647.282 486.416 646.953 490.58C646.625 494.744 647.689 497.987 650.119 500.323C652.549 502.658 660.585 496.687 674.203 482.397C687.822 468.106 695.71 458.225 697.877 452.841C700.045 447.458 700.717 443.392 699.918 440.633C699.519 439.254 699.128 437.917 698.728 436.537C705.46 434.047 712.167 431.517 718.9 429.027C732.365 424.047 747.288 416.5 763.632 406.322C771.804 401.233 779.957 396.159 788.129 391.07C784.27 398.561 780.415 405.994 776.556 413.486C768.839 428.469 758.859 445.009 746.544 463.041C734.228 481.072 723.412 488.869 714.162 486.451C704.912 484.033 694.425 486.398 682.679 493.528C670.933 500.657 663.521 504.238 660.467 504.289C658.94 504.315 657.415 504.328 655.888 504.354C656.08 506.529 656.249 508.715 656.44 510.89C656.824 515.241 659.094 518.346 663.155 520.257C667.217 522.169 674.538 523.26 685.124 523.477C690.417 523.586 695.685 523.728 700.977 523.837C697.386 528.848 693.78 533.835 690.19 538.847C683.009 548.87 674.596 556.43 664.897 561.545C655.198 566.66 645.532 570.062 635.953 571.808C626.374 573.555 620.965 569.629 619.695 559.947C618.425 550.264 614.275 541.52 607.193 533.718C600.11 525.916 595.632 522.604 593.793 523.823C591.954 525.042 590.127 530.537 588.343 540.27C586.558 550.004 586.902 557.342 589.42 562.251C591.937 567.159 592.938 570.797 592.314 573.184C591.69 575.571 588.746 576.532 583.558 576.025C578.369 575.519 575.219 575.93 574.091 577.335C572.964 578.74 569.586 578.681 563.894 577.192C561.047 576.448 558.199 575.704 555.353 574.96C555.873 572.971 556.377 571.045 556.897 569.055C557.417 567.066 557.941 565.062 558.461 563.072C557.749 562.886 557.056 562.705 556.344 562.519C554.921 562.147 553.492 558.808 552.102 552.495C550.712 546.181 545.91 539.778 537.7 533.381C529.49 526.985 524.393 521.864 522.379 517.937C520.365 514.011 517.94 511.647 515.094 510.903C513.671 510.531 512.247 510.158 510.824 509.786C510.408 511.378 509.984 512.997 509.568 514.589C508.736 517.771 508.963 524.214 510.233 533.896C511.503 543.578 513.657 551.306 516.678 557.196C518.188 560.141 519.681 563.084 521.192 566.029C517.782 565.988 514.346 565.997 510.937 565.955C504.117 565.873 498.95 565.345 495.392 564.415C491.834 563.485 487.356 560.172 481.992 554.52C476.628 548.867 474.177 545.262 474.593 543.671C475.009 542.079 471.097 538.092 462.887 531.695C454.677 525.299 448.409 521.519 444.14 520.402C439.871 519.286 435.631 515.213 431.395 508.155C427.158 501.098 420.436 496.376 411.186 493.957C401.935 491.539 392.036 491.504 381.538 493.86C376.289 495.038 371.064 496.225 365.815 497.403C366.51 500.56 367.209 503.707 367.904 506.864C369.294 513.178 373.009 519.256 379.085 525.094C385.161 530.933 392.487 534.99 401.026 537.222C409.564 539.454 415.81 540.18 419.784 539.519C423.758 538.858 427.331 536.827 430.506 533.407C433.681 529.986 437.381 528.812 441.65 529.928C445.919 531.044 452.696 535.865 461.913 544.224C466.522 548.404 471.089 552.564 475.698 556.743C473.859 557.963 472.07 559.141 470.23 560.36C466.552 562.799 460.433 562.929 451.894 560.697C443.356 558.465 438.957 556.492 438.661 554.714C438.366 552.937 434.422 551.906 426.89 551.637C419.359 551.368 409.475 554.261 397.225 560.409C391.1 563.483 384.986 566.579 378.861 569.653C381.291 571.989 383.716 574.353 386.146 576.688C391.007 581.359 399.476 585.219 411.572 588.381C423.669 591.543 431.821 592.44 436.003 590.983C440.185 589.526 444.647 585.587 449.366 579.17C454.084 572.753 464.058 570.707 479.416 573.022C487.095 574.18 494.84 575.297 502.519 576.455C494.971 579.157 487.395 581.871 479.848 584.573C464.752 589.977 451.337 596.23 439.591 603.359C427.845 610.489 418.533 614.026 411.713 613.944C404.893 613.861 396.724 617.655 387.113 625.343C377.501 633.03 370.529 642.244 366.194 653.011C364.026 658.395 361.861 663.843 359.693 669.226C361.472 669.691 363.225 670.149 365.003 670.614C368.561 671.544 378.905 668.234 396.048 660.815C413.191 653.397 423.149 644.553 425.853 634.209C428.557 623.865 433.126 616.534 439.563 612.267C442.781 610.133 445.99 608.007 449.208 605.874C449.175 611.815 449.138 617.777 449.105 623.719C449.039 635.602 450.341 643.602 453.066 647.715C454.429 649.771 455.806 651.819 457.168 653.875C459.883 650.76 462.647 647.653 465.362 644.537C470.792 638.306 474.874 631.344 477.665 623.574C480.457 615.803 481.865 608.923 481.898 602.981C481.931 597.04 487.876 591.757 499.71 587.2C511.544 582.644 530.4 581.686 556.345 584.218C582.289 586.75 605.385 585.541 625.67 580.642C635.812 578.194 646.008 575.753 656.151 573.304C656.194 574.59 656.221 575.832 656.264 577.118C656.352 579.691 654.812 582.749 651.637 586.169C648.462 589.59 638.292 599.243 621.204 615.177C604.115 631.111 593.041 635.875 587.885 629.427C582.729 622.979 575.725 617.688 566.891 613.678C558.057 609.669 544.923 610.519 527.485 616.16C510.046 621.802 501.48 626.811 501.864 631.161C502.247 635.512 504.581 638.221 508.85 639.338C513.12 640.454 516.021 642.489 517.531 645.434C519.042 648.379 525.484 651.339 536.869 654.316C548.254 657.292 557.11 658.331 563.426 657.432C566.585 656.982 569.782 656.542 572.94 656.092C562.513 663.992 552.063 671.884 541.636 679.784C520.782 695.583 509.309 703.208 507.175 702.651C505.04 702.093 501.822 698.287 497.586 691.229C493.349 684.171 486.955 679.534 478.416 677.302C469.878 675.07 461.868 675.118 454.424 677.422C446.98 679.726 439.712 679.926 432.596 678.066C425.481 676.206 421.034 675.908 419.195 677.127C417.356 678.347 416.366 680.641 416.246 684.01C416.125 687.379 420.317 693.127 428.823 701.301C437.329 709.475 446.936 714.951 457.61 717.742C462.946 719.137 468.277 720.53 473.614 721.926C472.486 723.331 471.332 724.76 470.204 726.165C467.949 728.975 455.593 735.504 433.141 745.786C410.688 756.067 389.836 758.687 370.624 753.664C361.019 751.153 351.453 748.653 341.847 746.141C342.991 741.765 344.13 737.41 345.274 733.034C347.562 724.282 348.377 716.835 347.699 710.707C347.02 704.58 343.161 695.911 336.199 684.741C329.237 673.57 323.886 667.93 320.12 667.795C316.354 667.661 313.776 670.363 312.32 675.933C310.864 681.503 310.958 691.287 312.611 705.319C313.438 712.336 314.248 719.384 315.074 726.4C310.657 724.396 306.268 722.383 301.851 720.379C293.017 716.369 288.793 713.577 289.209 711.985C289.625 710.394 287.465 706.864 282.813 701.398C278.16 695.932 271.602 692.076 263.063 689.843C254.525 687.611 245.785 687.467 236.918 689.4C228.05 691.332 221.502 691.762 217.233 690.646C212.964 689.53 210.078 690.421 208.535 693.418C206.991 696.415 207.213 699.891 209.227 703.818C211.242 707.745 217.176 713.991 227.104 722.537C237.033 731.083 245.254 736.196 251.658 737.871C258.062 739.545 264.938 739.201 272.382 736.897C279.826 734.592 284.379 731.953 285.923 728.956C287.466 725.96 292.643 726.448 301.477 730.457C310.312 734.467 318.093 739.466 324.88 745.49C331.667 751.515 342.799 756.978 358.245 761.866C365.968 764.31 373.719 766.748 381.441 769.192C361.452 775.867 341.442 782.579 321.452 789.254C281.474 802.604 260.801 807.37 259.499 803.629C258.196 799.889 254.787 795.622 249.216 790.765C243.644 785.908 234.608 782.722 222.095 781.152C209.583 779.581 202.897 780.386 202.065 783.569C201.233 786.751 202.36 789.599 205.502 792.121C208.644 794.642 210.501 797.681 211.093 801.236C211.684 804.79 214.902 808.596 220.682 812.658C223.572 814.688 226.483 816.684 229.373 818.714C222.745 820.807 216.101 822.942 209.473 825.034C196.216 829.219 188.497 830.989 186.363 830.431C184.228 829.873 183.254 827.93 183.375 824.561C183.495 821.193 180.954 816.287 175.799 809.839C170.643 803.391 161.665 798.491 148.857 795.142C136.049 791.794 128.871 791.648 127.327 794.644C125.784 797.641 126.18 801.944 128.49 807.648C130.8 813.352 134.251 818.949 138.903 824.416C143.556 829.882 148.082 833.165 152.351 834.281C154.486 834.839 156.603 835.393 158.738 835.951C158.53 836.746 158.308 837.596 158.1 838.391C157.684 839.983 154.576 841.724 148.763 843.604C142.95 845.485 134.697 844.973 124.024 842.183C113.351 839.393 101.662 838.89 89.0292 840.688C76.3964 842.486 65.8884 846.575 57.4045 852.858C48.9205 859.14 42.9858 864.383 39.6032 868.599C36.2205 872.815 34.4997 876.565 34.379 879.933C34.2586 883.302 35.9525 885.475 39.5103 886.405C43.0681 887.335 46.218 886.924 48.9768 885.095C51.7355 883.266 58.6751 884.173 69.8518 887.945C81.0286 891.717 90.5044 893.371 98.244 892.844C105.984 892.318 113.056 889.883 119.493 885.615C125.93 881.348 132.166 874.949 138.22 866.331C144.274 857.713 148.408 853.688 150.543 854.246C151.611 854.525 152.669 854.802 153.737 855.081C152.133 859.762 150.518 864.446 148.914 869.127C145.707 878.489 144.732 883.71 145.947 884.878C147.162 886.045 147.231 888.617 146.191 892.595C145.151 896.573 145.992 900.665 148.718 904.778C150.081 906.834 151.467 908.843 152.83 910.899C157.341 905.278 161.804 899.692 166.314 894.071C175.335 882.828 180.603 871.481 182.092 859.97C183.581 848.459 196.683 839.076 221.357 831.926C233.695 828.351 245.971 824.808 258.308 821.232C255.681 826.921 253.071 832.579 250.443 838.268C245.189 849.645 238.561 854.707 230.526 853.456C222.491 852.206 214.423 855.614 206.234 863.674C198.046 871.734 193.424 877.774 192.384 881.753C191.344 885.731 191.778 888.398 193.705 889.751C195.631 891.105 197.632 890.763 199.679 888.748C201.727 886.733 207.417 885.256 216.788 884.306C221.473 883.83 226.121 883.358 230.807 882.882C230.183 885.269 229.558 887.659 228.934 890.046C227.686 894.82 225.107 897.522 221.134 898.183C217.16 898.845 212.581 901.889 207.359 907.324C202.137 912.759 198.473 919.461 196.393 927.418C194.313 935.375 193.498 942.821 193.968 949.744C194.439 956.668 196.249 961.382 199.391 963.904C202.533 966.425 209.425 961.844 220.077 950.178C230.728 938.512 236.907 929.502 238.571 923.137C240.235 916.772 240.061 911.62 238.046 907.693C236.032 903.766 235.508 899.8 236.548 895.821C237.588 891.843 239.108 888.864 241.155 886.849C243.202 884.834 248.354 872.591 256.52 850.075C264.687 827.559 271.501 816.121 276.897 815.831C282.294 815.542 291.32 812.795 304.073 807.629C310.45 805.046 316.845 802.518 323.222 799.935C322.095 801.34 320.988 802.74 319.86 804.145C317.605 806.955 314.789 814.743 311.461 827.474C308.133 840.205 306.787 848.336 307.379 851.891C307.97 855.445 309.674 857.579 312.52 858.323C313.943 858.695 315.367 859.067 316.79 859.439C317.102 858.246 317.415 857.051 317.727 855.857C318.351 853.47 321.871 850.149 328.308 845.882C334.745 841.614 340.78 835.986 346.418 828.959C352.056 821.933 355.481 815.992 356.729 811.218C357.977 806.444 357.692 801.716 355.886 796.994C354.982 794.633 354.082 792.256 353.179 789.894C360.476 786.702 367.786 783.506 375.083 780.314C382.379 777.121 389.69 773.925 396.986 770.733C395.026 775.321 393.083 779.919 391.124 784.507C387.205 793.683 382.254 811.127 376.31 836.774C370.365 862.421 362.455 875.219 352.581 875.188C342.707 875.157 333.077 878.569 323.674 885.461C314.27 892.353 309.019 897.817 307.979 901.795C306.939 905.773 305.621 907.982 303.989 908.406C302.358 908.829 301.151 910.613 300.319 913.796C299.487 916.979 300.35 919.346 302.988 920.886C305.626 922.425 310.057 921.442 316.286 917.97C322.515 914.498 330.9 912.861 341.486 913.078C346.779 913.186 352.121 913.348 357.413 913.457C354.058 921.93 350.722 930.364 347.367 938.837C340.656 955.784 335.319 964.56 331.345 965.221C327.371 965.882 323.639 968.367 320.257 972.583C316.874 976.799 314.47 978.682 313.047 978.309C312.336 978.123 311.642 977.942 310.931 977.756C309.683 982.53 308.433 987.31 307.185 992.084C304.689 1001.63 303.609 1008.6 303.992 1012.95C304.375 1017.3 306.133 1020.72 309.274 1023.24C312.416 1025.77 318.806 1021.92 328.33 1011.66C337.854 1001.4 343.063 992.957 344.016 986.405C344.968 979.854 344.846 975.992 343.631 974.825C342.416 973.657 344.132 968.587 348.763 959.597C351.078 955.102 353.386 950.599 355.702 946.104C356.692 951.039 357.661 955.987 358.651 960.921C360.633 970.789 363.29 976.59 366.639 978.316C368.314 979.179 370.003 980.032 371.678 980.895C372.554 978.999 373.406 977.08 374.282 975.184C376.033 971.391 378.734 961.061 382.39 944.166C386.047 927.272 386.476 915.483 383.663 908.797C380.85 902.111 378.399 898.506 376.264 897.948C374.13 897.39 373.23 895.013 373.558 890.848C373.887 886.684 376.466 872.493 381.283 848.251C386.1 824.009 389.325 811.673 390.956 811.25C392.587 810.827 395.409 804.359 399.448 791.814C403.488 779.269 407.109 771.237 410.284 767.817C413.458 764.397 421.4 760.132 434.153 754.965C440.529 752.382 446.935 749.815 453.312 747.232C450.996 751.727 448.688 756.23 446.373 760.725C441.742 769.715 438.825 777.889 437.664 785.236C436.504 792.583 436.583 801.086 437.852 810.768C439.122 820.451 441.16 825.636 444.006 826.38C446.852 827.124 452.358 820.535 460.579 806.533C468.801 792.532 474.312 784.582 477.07 782.754C479.829 780.925 482.339 775.651 484.627 766.899C486.915 758.147 486.783 749.999 484.178 742.517C481.572 735.036 488.434 726.247 504.778 716.069C512.95 710.98 521.112 705.867 529.285 700.777C528.913 703.655 528.553 706.525 528.18 709.403C527.436 715.159 528.298 723.498 530.783 734.348C533.268 745.198 536.094 753.185 539.324 758.28C542.553 763.374 545.501 765.38 548.052 764.346C550.603 763.313 553.737 755.649 557.481 741.327C561.225 727.005 562.454 717.979 561.151 714.238C559.849 710.497 559.737 706.596 560.777 702.618C561.817 698.64 561.019 694.232 558.501 689.323C557.242 686.869 555.977 684.397 554.718 681.942C560.235 678.285 565.794 674.631 571.311 670.973C582.346 663.658 592.039 655.525 600.435 646.67C608.832 637.814 613.66 633.97 614.875 635.137C616.09 636.305 611.113 659.671 599.968 705.21C594.396 727.979 588.788 750.769 583.216 773.539C581.437 773.074 579.685 772.616 577.906 772.151C574.348 771.22 568.657 772.697 560.797 776.593C552.937 780.489 546.41 785.165 541.188 790.6C535.967 796.036 532.827 800.733 531.787 804.711C530.747 808.69 531.181 811.356 533.108 812.71C535.034 814.064 539.465 813.08 546.405 809.794C553.346 806.509 558.608 805.331 562.166 806.261C565.723 807.191 568.948 806.346 571.914 803.721C573.397 802.409 574.869 801.105 576.352 799.793C575.832 801.782 575.308 803.787 574.788 805.776C573.748 809.754 569.915 814.27 563.27 819.334C556.626 824.397 552.469 830.147 550.806 836.512C549.142 842.878 548.586 849.485 549.056 856.408C549.527 863.332 550.442 866.989 551.865 867.361C552.577 867.547 553.308 867.738 554.019 867.924C553.603 869.516 553.2 871.056 552.784 872.648C552.368 874.239 551.945 875.859 551.529 877.45C553.767 877.61 555.985 877.779 558.224 877.939C562.701 878.259 565.38 876.818 566.212 873.635C567.044 870.452 569.972 866.565 574.986 861.925C580 857.286 583.764 850.198 586.26 840.651C588.756 831.103 588.74 823.85 586.223 818.942C583.705 814.034 584.727 802.811 589.303 785.307C591.591 776.554 593.868 767.844 596.156 759.092C596.868 759.278 597.599 759.469 598.31 759.655C599.733 760.027 604.931 764.761 613.94 773.917C622.95 783.073 625.839 792.311 622.632 801.673C621.028 806.354 619.413 811.038 617.809 815.719C618.521 815.905 619.251 816.096 619.963 816.282C621.386 816.654 622.768 820.022 624.158 826.336C625.548 832.65 628.464 837.612 632.821 841.301C637.178 844.99 642.552 847.713 648.955 849.387C652.157 850.224 655.333 851.055 658.535 851.892C658.628 844.266 658.75 836.638 658.844 829.012C659.03 813.76 654.293 801.444 644.572 792.102C639.712 787.431 634.805 782.772 629.944 778.101C633.371 775.172 636.801 772.197 640.227 769.267C647.08 763.408 652.132 755.877 655.339 746.515C656.943 741.834 658.558 737.149 660.162 732.468C655.016 733.248 649.818 734.031 644.673 734.811C634.383 736.371 626.177 740.156 620.036 746.2C613.894 752.245 608.934 753.914 605.081 751.206C601.228 748.499 601.25 739.61 605.202 724.492C607.178 716.934 609.173 709.3 611.149 701.741C614.959 703.162 618.744 704.648 622.554 706.068C630.173 708.91 635.725 709.454 639.196 707.812C642.666 706.169 646.875 706.035 651.855 707.336C656.836 708.639 660.611 707.483 663.074 703.877C665.537 700.271 662.477 694.365 653.972 686.191C645.466 678.017 637.007 674.118 628.556 674.458C624.331 674.629 620.074 674.792 615.849 674.963C618.241 665.813 620.629 656.678 623.021 647.528C627.805 629.227 638.161 611.551 654.034 594.45C661.971 585.899 669.912 577.308 677.848 568.758C678.44 572.312 678.99 575.875 679.581 579.429C680.763 586.539 683.929 595.025 688.964 604.843C693.999 614.659 699.038 621.495 704.107 625.37C706.641 627.307 709.15 629.198 711.684 631.135C713.66 623.576 715.635 616.021 717.611 608.463C721.563 593.345 722.946 585.223 721.73 584.056C720.515 582.888 720.409 580.308 721.45 576.329C722.49 572.351 722.469 568.104 721.374 563.568C720.28 559.031 716.971 554.379 711.4 549.522C705.828 544.665 703.424 540.576 704.256 537.394C705.088 534.211 709.16 528.935 716.429 521.484C723.697 514.034 729.098 506.509 732.601 498.925C736.104 491.34 739.105 487.019 741.656 485.985C744.207 484.952 752.381 472.635 766.153 449.033C773.038 437.233 779.905 425.439 786.791 413.638C788.285 419.554 789.82 425.473 791.314 431.389C794.303 443.221 791.073 452.59 781.669 459.482C772.266 466.374 765.473 477.734 761.313 493.647C757.153 509.56 755.448 518.916 756.247 521.675C757.046 524.434 758.925 526.202 761.771 526.946C764.618 527.69 771.145 523.013 781.38 512.939C791.616 502.864 797.599 495.945 799.35 492.153C800.226 490.257 801.115 488.347 801.991 486.451C799.287 496.795 796.586 507.125 793.882 517.468C788.474 538.156 781.137 551.599 771.941 557.695C762.746 563.792 756.927 571.576 754.431 581.125C751.935 590.673 750.854 603.61 751.172 619.844C751.489 636.077 753.055 644.558 755.902 645.302C758.748 646.046 761.982 645.161 765.66 642.723C769.338 640.284 775.12 634.136 783.012 624.299C790.905 614.461 796.788 602.41 800.532 588.088C802.404 580.927 804.268 573.797 806.14 566.636C809.101 574.21 812.049 581.733 815.01 589.308C820.932 604.457 824.716 613.105 826.435 615.255C828.153 617.404 831.002 618.149 834.975 617.488C838.949 616.826 842.338 605.358 845.107 583.131C847.877 560.904 848.09 546.959 845.78 541.254C843.471 535.55 838.484 530.005 830.778 524.591C823.071 519.176 819.562 515.294 820.186 512.907C820.81 510.52 819.809 506.882 817.292 501.974C814.774 497.065 811.773 483.926 808.227 462.598C804.68 441.27 801.362 426.359 798.253 417.896C795.144 409.433 796.108 399.926 801.155 389.345C803.679 384.054 806.188 378.781 808.712 373.49C811.377 379.287 814.034 385.088 816.7 390.885C822.031 402.479 828.986 410.639 837.612 415.444C841.925 417.846 846.287 420.263 850.6 422.666C849.938 413.568 849.277 404.458 848.615 395.36C847.29 377.163 844.988 365.525 841.759 360.431C838.53 355.336 834.089 352.033 828.396 350.545C825.55 349.801 822.702 349.057 819.856 348.313C825.986 335.039 832.107 321.774 838.237 308.501C844.368 295.228 850.487 281.962 856.618 268.689C858.025 272.032 859.417 275.36 860.824 278.703C863.637 285.389 868.12 291.667 874.196 297.506C880.271 303.344 884.395 306.522 886.53 307.08C888.664 307.638 890.718 306.94 892.766 304.926C894.813 302.911 896.576 296.165 898.065 284.654C899.554 273.143 899.369 263.705 897.475 256.409C895.582 249.114 890.659 243.174 882.744 238.555C874.83 233.936 874.407 218.094 881.479 191.042C885.015 177.515 888.552 163.986 892.088 150.459C896.752 163.154 901.436 175.826 906.099 188.521C915.425 213.91 920.983 233.235 922.843 246.472C924.704 259.71 925.084 274.221 923.978 290.083C922.872 305.944 920.575 314.734 917.104 316.377C913.634 318.02 910.056 323.056 906.344 331.436C902.633 339.816 901.15 348.323 901.916 357.023C902.683 365.724 905.382 374.501 909.914 383.336C914.446 392.171 918.008 397.344 920.646 398.884C923.284 400.423 925.868 400.687 928.418 399.654C930.969 398.621 934.516 389.377 939.093 371.872C943.669 354.368 945.533 342.912 944.646 337.58C944.203 334.914 943.769 332.247 943.325 329.581C946.675 331.307 950.005 333.043 953.355 334.768C960.054 338.22 964.177 341.397 965.688 344.342C967.199 347.288 969.132 348.7 971.474 348.462C973.817 348.225 975.14 348.982 975.436 350.759C975.731 352.537 977.748 353.475 981.514 353.61C983.396 353.677 985.286 353.76 987.169 353.827C987.498 349.663 987.853 345.472 988.181 341.308C988.838 332.979 987.256 321.571 983.469 306.981C979.681 292.39 975.616 283.172 971.259 279.483C966.902 275.794 961.042 273.439 953.719 272.374C946.395 271.31 940.641 265.564 936.525 255.138C932.409 244.711 930.584 238.716 931 237.124C931.208 236.329 931.409 235.558 931.617 234.763C933.544 236.116 935.46 237.44 937.386 238.794C941.24 241.502 949.456 243.649 961.968 245.22C974.48 246.791 981.865 247.487 984.208 247.25C986.55 247.012 988.271 244.909 989.311 240.93C990.351 236.952 988.821 233.999 984.76 232.087C980.699 230.175 975.723 224.591 969.768 215.384C963.813 206.177 957.265 200.635 950.149 198.775C943.034 196.915 937.189 197.486 932.591 200.535C927.994 203.583 924.294 204.757 921.447 204.013C918.601 203.269 914.668 195.035 909.666 179.277C904.663 163.518 901.726 149.984 900.872 138.71C900.019 127.437 900.204 119.414 901.452 114.64C902.076 112.253 902.691 109.902 903.315 107.515C908.679 113.168 914.078 118.779 919.442 124.431C930.17 135.736 937.046 141.364 940.1 141.312C943.154 141.26 945.203 139.243 946.243 135.264C947.283 131.286 945.198 121.804 939.987 106.842C934.777 91.8789 928.7 83.0423 921.792 80.3863C914.885 77.7305 913.34 66.3329 917.117 46.0691C920.894 25.8055 922.367 7.04118 921.546-10.1742C920.725-27.3896 918.995-36.7362 916.357-38.2759C915.038-39.0457 913.715-39.8033 912.395-40.5731ZM915.32 87.6934C917.099 88.1585 918.889 88.6263 920.667 89.0913C924.225 90.0214 926.808 91.9312 928.319 94.8762C929.829 97.8213 931.327 103.731 932.805 112.618C933.543 117.061 934.247 121.528 934.986 125.972C931.949 123.052 928.931 120.122 925.893 117.203C919.818 111.364 917.717 106.12 919.676 101.532C921.636 96.9439 921.403 93.5068 918.973 91.1715C917.758 90.0038 916.535 88.8612 915.32 87.6934ZM832.11 170.482C831.322 174.951 830.538 179.441 829.75 183.91C828.173 192.849 825.726 199.373 822.344 203.589C818.961 207.805 816.182 209.632 814.047 209.074C811.913 208.515 811.712 202.122 813.409 189.815C814.258 183.662 815.089 177.496 815.938 171.342C816.649 171.528 817.38 171.719 818.091 171.905C818.803 172.091 819.496 172.273 820.208 172.459C819.332 174.355 818.453 176.225 817.577 178.121C815.826 181.913 815.465 184.784 816.472 186.747C816.976 187.729 817.484 188.769 817.988 189.75C820.347 186.542 822.682 183.28 825.041 180.072C827.4 176.863 829.751 173.69 832.11 170.482ZM947.649 208.34C953.341 209.828 958.941 214.668 964.393 222.894C967.119 227.007 969.834 231.093 972.56 235.205C968.438 234.978 964.309 234.806 960.188 234.578C951.945 234.123 945.153 232.348 939.877 229.268C937.238 227.729 934.649 226.145 932.011 224.605C935.065 224.554 938.078 224.518 941.132 224.466C944.186 224.415 947.273 224.399 950.327 224.347C950.283 223.06 950.278 221.74 950.234 220.454C950.146 217.881 946.832 215.78 940.429 214.106C937.227 213.269 934.05 212.438 930.849 211.601C932.228 210.687 933.61 209.729 934.989 208.815C937.747 206.986 941.956 206.852 947.649 208.34ZM710.551 151.403C714.464 152.426 718.371 153.448 722.285 154.471C721.617 155.571 720.929 156.71 720.261 157.81C718.925 160.011 713.7 161.199 704.538 161.353C699.957 161.431 695.345 161.46 690.764 161.537C690.704 163.222 690.646 164.937 690.586 166.621C690.465 169.99 691.466 171.981 693.6 172.54C695.735 173.098 698.212 172.427 700.971 170.598C703.73 168.769 708.526 167.881 715.346 167.964C718.756 168.005 722.133 168.065 725.543 168.106C725.231 169.3 724.908 170.534 724.596 171.728C723.972 174.115 721.394 176.817 716.796 179.865C712.198 182.913 703.824 182.866 691.728 179.703C679.631 176.541 671.082 172.988 666.013 169.112C663.479 167.175 660.933 165.275 658.399 163.337C665.132 160.847 671.876 158.327 678.608 155.836C692.073 150.856 702.724 149.357 710.551 151.403ZM753.29 205.974C755.781 206.625 758.263 207.274 760.754 207.925C760.442 209.119 760.129 210.313 759.817 211.507C759.193 213.894 755.969 214.739 750.069 214.047C747.119 213.701 744.16 213.381 741.21 213.034C741.253 214.321 741.317 215.572 741.36 216.859C741.448 219.432 743.142 221.605 746.492 223.33C748.166 224.193 749.855 225.046 751.53 225.909C747.808 227.061 744.07 228.226 740.349 229.378C732.905 231.682 726.277 230.773 720.497 226.711C717.607 224.681 714.695 222.685 711.806 220.655C712.473 219.554 713.162 218.415 713.829 217.315C715.165 215.114 717.256 214.426 720.102 215.17C722.949 215.914 727.919 214.207 735.068 210.125C742.216 206.044 748.309 204.672 753.29 205.974ZM874.767 242.819C876.19 243.191 877.614 243.563 879.037 243.935C881.883 244.679 884.345 247.053 886.359 250.98C888.373 254.907 888.982 262.725 888.204 274.423C887.815 280.271 887.423 286.098 887.034 291.947C884.752 290.5 882.471 289.081 880.188 287.634C875.623 284.741 871.669 279.423 868.352 271.756C865.035 264.089 863.702 259.045 864.326 256.658C864.638 255.465 864.94 254.309 865.252 253.115C867.031 253.581 868.82 254.048 870.599 254.513C872.378 254.978 874.13 255.436 875.909 255.901C875.717 253.726 875.547 251.54 875.356 249.365C875.165 247.19 874.958 244.994 874.767 242.819ZM933.538 270.967C934.397 272.042 935.329 273.108 936.188 274.183C937.906 276.332 937.413 282.544 934.709 292.888C933.357 298.06 931.997 303.264 930.645 308.436C931.138 302.19 931.641 295.938 932.133 289.692C932.626 283.445 933.045 277.213 933.538 270.967ZM953.691 281.282C956.937 283.405 960.155 285.565 963.401 287.689C969.893 291.936 974.074 297.724 975.968 305.02C977.862 312.315 978.518 320.105 977.861 328.433C977.532 332.597 977.188 336.749 976.859 340.913C971.287 336.056 965.697 331.177 960.125 326.32C948.981 316.606 943.662 308.009 944.111 300.476C944.335 296.71 944.532 292.973 944.756 289.207C946.415 293.041 948.071 296.85 949.73 300.684C953.046 308.351 956.127 312.533 958.973 313.277C960.396 313.649 961.82 314.021 963.243 314.393C961.645 308.875 960.046 303.351 958.448 297.833C956.85 292.315 955.289 286.8 953.691 281.282ZM739.151 255.81C738.467 259.881 737.757 263.937 737.073 268.008C736.389 272.08 735.706 276.185 735.021 280.256C736.549 280.23 738.073 280.217 739.6 280.192C741.127 280.166 742.662 280.113 744.19 280.088C744.146 278.801 744.093 277.511 744.049 276.224C743.962 273.651 744.74 272.166 746.371 271.743C747.187 271.531 747.991 271.288 748.807 271.076C748.287 273.065 747.763 275.07 747.243 277.059C746.202 281.037 741.353 286.606 732.661 293.684C728.315 297.224 723.974 300.699 719.628 304.238C719.124 303.257 718.632 302.305 718.129 301.323C717.122 299.36 717.641 294.389 719.721 286.433C721.801 278.476 725.565 271.389 730.995 265.158C733.71 262.043 736.436 258.925 739.151 255.81ZM933.389 306.588C934.396 308.552 935.397 310.543 936.404 312.507C937.411 314.47 938.422 316.422 939.429 318.386C938.006 318.014 936.582 317.642 935.159 317.27C933.736 316.898 932.312 316.525 930.889 316.153C931.305 314.562 931.718 312.982 932.134 311.391C932.55 309.799 932.973 308.18 933.389 306.588ZM826.747 291.451C829.237 292.102 831.72 292.752 834.21 293.403C834.002 294.198 833.791 295.008 833.583 295.804C833.167 297.395 828.89 299.284 820.734 301.402C812.578 303.52 808.174 305.745 807.55 308.132C807.238 309.325 806.936 310.481 806.624 311.674C809.678 311.623 812.69 311.587 815.744 311.535C818.798 311.484 821.885 311.468 824.939 311.416C824.731 312.212 824.53 312.982 824.322 313.778C823.906 315.369 819.866 317.689 812.214 320.789C804.562 323.889 796.596 325.267 788.353 324.812C784.231 324.585 780.123 324.334 776.001 324.106C778.82 320.593 781.658 317.051 784.477 313.538C790.114 306.511 797.31 300.775 806.089 296.27C814.868 291.764 821.766 290.149 826.747 291.451ZM928.398 325.679C929.761 327.735 931.127 329.822 932.49 331.879C935.216 335.992 934.569 345.624 930.617 360.742C928.641 368.301 926.676 375.816 924.7 383.375C922.626 381.133 920.557 378.903 918.482 376.661C914.333 372.176 911.94 366.856 911.262 360.728C910.583 354.6 911.69 347.23 914.69 338.664C916.189 334.381 917.694 330.121 919.193 325.838C919.324 329.697 919.52 333.578 919.651 337.438C919.914 345.157 920.983 349.72 922.91 351.073C924.837 352.427 926.382 352.336 927.509 350.93C928.637 349.525 929.035 345.018 928.772 337.299C928.641 333.439 928.529 329.539 928.398 325.679ZM823.742 359.547C826.024 360.994 828.295 362.453 830.578 363.899C835.143 366.793 837.762 374.23 838.408 386.3C838.731 392.334 839.049 398.431 839.371 404.466C836.333 401.546 833.279 398.606 830.241 395.687C824.166 389.848 821.244 385.212 821.364 381.844C821.424 380.16 821.462 378.524 821.522 376.839C822.737 378.007 823.96 379.149 825.175 380.317C826.39 381.485 827.613 382.628 828.828 383.795C829.244 382.204 829.647 380.663 830.063 379.072C830.895 375.889 830.053 371.797 827.535 366.889C826.276 364.434 825.001 362.001 823.742 359.547ZM679.961 376.459C683.393 377.144 688.082 378.493 694.026 380.472C705.914 384.43 713.314 388.053 716.248 391.37C719.182 394.687 720.627 399.306 720.594 405.248C720.577 408.219 720.546 411.175 720.529 414.146C718.81 411.996 717.116 409.823 715.397 407.674C711.96 403.375 708.456 400.813 704.899 399.883C703.12 399.418 701.331 398.95 699.552 398.485C699.24 399.679 698.937 400.835 698.625 402.028C698.001 404.415 699.759 407.839 703.907 412.324C705.982 414.566 708.041 416.835 710.116 419.077C706.514 416.861 702.909 414.684 699.308 412.467C692.105 408.034 688.723 405.008 689.138 403.417C689.346 402.621 689.568 401.772 689.776 400.976C688.709 400.697 687.613 400.411 686.546 400.132C685.479 399.853 684.42 399.576 683.352 399.297C683.56 398.501 683.762 397.731 683.97 396.935C684.386 395.344 682.263 391.824 677.611 386.358C675.285 383.624 672.951 380.915 670.624 378.181C671.544 377.572 672.487 376.953 673.406 376.343C674.325 375.734 676.529 375.774 679.961 376.459ZM568.417 381.739C570.648 382.11 572.694 382.727 574.546 383.636C581.957 387.274 587.373 392.973 590.69 400.64C592.348 404.474 594.005 408.283 595.663 412.117C588.608 408.572 581.499 405.026 574.443 401.481C560.333 394.392 552.504 391.069 550.872 391.493C549.241 391.916 548.352 393.826 548.232 397.194C548.111 400.563 555.792 405.947 571.325 413.408C579.092 417.138 586.895 420.866 594.662 424.597C593.282 425.511 591.911 426.43 590.532 427.344C587.773 429.173 581.727 428.869 572.478 426.451C563.227 424.033 556.669 420.176 552.728 414.896C548.787 409.616 542.858 404.689 534.944 400.07C530.987 397.761 526.99 395.439 523.033 393.13C529.765 390.639 536.526 388.207 543.258 385.717C553.357 381.982 561.724 380.627 568.417 381.739ZM689.392 441.75C690.459 442.029 691.517 442.306 692.585 442.585C690.937 445.979 689.317 449.344 687.669 452.738C684.374 459.527 678.381 466.485 669.69 473.563C665.344 477.102 660.944 480.647 656.598 484.186C657.95 479.015 659.301 473.849 660.653 468.678C662.005 463.506 663.376 458.262 664.728 453.09C666.298 454.351 667.866 455.668 669.437 456.929C671.007 458.189 672.595 459.428 674.166 460.688C676.17 457.387 678.203 454.088 680.206 450.787C684.213 444.184 687.257 441.192 689.392 441.75ZM786.529 467.144C787.241 467.33 787.934 467.512 788.646 467.697C788.022 470.084 787.407 472.435 786.783 474.822C786.159 477.209 785.534 479.599 784.91 481.986C786.186 481.469 787.446 480.975 788.721 480.459C789.996 479.942 791.267 479.409 792.542 478.893C792.69 479.781 792.844 480.687 792.991 481.575C793.287 483.353 788.786 488.929 779.47 498.394C774.812 503.126 770.165 507.925 765.507 512.658C767.171 506.292 768.844 499.893 770.508 493.528C773.836 480.797 776.97 473.134 779.937 470.509C782.904 467.885 785.106 466.772 786.529 467.144ZM674.222 442.873C674.266 444.159 674.328 445.41 674.373 446.697C674.416 447.983 674.459 449.313 674.503 450.6C673.791 450.414 673.061 450.223 672.349 450.037C671.638 449.851 670.944 449.669 670.233 449.483C670.9 448.383 671.588 447.244 672.256 446.143C672.924 445.043 673.554 443.973 674.222 442.873ZM623.578 444.94C623.726 445.829 623.89 446.695 624.038 447.584C624.333 449.361 621.315 451.948 615.087 455.42C608.858 458.892 605.226 462.637 604.186 466.616C603.666 468.605 603.142 470.61 602.622 472.599C603.689 472.878 604.748 473.155 605.815 473.434C607.95 473.992 611.624 471.576 616.846 466.141C622.068 460.705 625.434 458.125 626.858 458.497C627.569 458.683 628.3 458.874 629.011 459.06C628.135 460.956 627.246 462.866 626.37 464.762C624.619 468.554 618.266 472.411 607.352 476.358C601.895 478.332 596.421 480.319 590.964 482.293C591.692 479.508 592.417 476.733 593.145 473.948C594.601 468.378 597.487 463.161 601.789 458.336C606.091 453.51 610.781 450.041 615.883 447.975C618.433 446.941 621.028 445.974 623.578 444.94ZM809.763 508.92C810.667 511.282 811.566 513.658 812.47 516.02C814.276 520.742 813.19 526.388 809.183 532.991C805.177 539.594 803.313 546.724 803.575 554.443C803.706 558.303 803.855 562.213 803.986 566.073C802.727 563.619 801.425 561.136 800.166 558.682C797.648 553.774 798.623 544.227 803.078 530.091C805.306 523.023 807.536 515.989 809.763 508.92ZM707.402 494.86C709.892 495.511 712.375 496.16 714.865 496.812C712.627 496.651 710.398 496.522 708.16 496.362C703.682 496.042 700.209 497.687 697.746 501.293C695.283 504.9 694.558 507.675 695.565 509.638C696.068 510.62 696.55 511.611 697.054 512.592C692.472 512.67 687.925 512.757 683.344 512.835C678.763 512.913 674.189 512.951 669.607 513.029C674.665 509.676 679.71 506.342 684.768 502.989C694.883 496.283 702.421 493.558 707.402 494.86ZM826.788 531.201C829.011 534.332 831.234 537.467 833.456 540.598C837.9 546.86 838.858 559.011 836.416 577.074C835.196 586.105 834.004 595.142 832.783 604.173C831.568 603.005 830.356 601.823 829.141 600.655C826.711 598.32 826.806 594.969 829.477 590.567C832.148 586.165 832.366 575.186 830.122 557.598C829.001 548.805 827.911 539.995 826.788 531.201ZM817.284 541.458C817.475 543.633 817.645 545.819 817.836 547.995C818.219 552.345 819.119 554.722 820.542 555.094C821.965 555.466 822.589 560.24 822.436 569.55C822.359 574.205 822.306 578.886 822.229 583.542C821.518 583.356 820.787 583.165 820.076 582.979C818.653 582.607 816.996 578.797 815.102 571.502C813.209 564.207 813.13 557.349 814.794 550.984C815.626 547.801 816.452 544.641 817.284 541.458ZM781.12 557.488C779.855 565.232 778.611 572.979 777.346 580.723C776.082 588.468 774.79 596.244 773.525 603.988C774.905 603.074 776.276 602.156 777.655 601.241C780.414 599.412 783.246 592.905 786.158 581.765C787.614 576.196 789.065 570.645 790.521 565.076C791.38 566.15 792.238 567.198 793.097 568.272C794.816 570.422 794.239 577.108 791.326 588.247C788.414 599.386 783.019 609.877 775.127 619.714C771.18 624.633 767.246 629.534 763.3 634.452C762.517 628.722 761.713 622.994 760.93 617.264C759.365 605.805 759.847 595.306 762.344 585.758C764.84 576.21 768.615 569.083 773.628 564.444C776.135 562.124 778.613 559.807 781.12 557.488ZM699.873 554.162C701.296 554.534 702.757 554.916 704.18 555.288C707.026 556.032 709.371 558.703 711.177 563.425C712.983 568.147 713.359 572.529 712.319 576.507C711.279 580.486 711.612 583.537 713.331 585.687C715.049 587.836 714.382 593.222 711.382 601.788C709.883 606.071 708.426 610.301 706.926 614.585C703.653 608.204 700.366 601.826 697.093 595.445C690.547 582.684 688.203 574.042 690.162 569.454C691.142 567.16 692.133 564.865 693.112 562.571C693.807 565.728 694.506 568.876 695.201 572.032C696.591 578.346 698.158 581.309 699.789 580.885C701.42 580.462 701.838 575.876 701.072 567.175C700.689 562.825 700.256 558.513 699.873 554.162ZM599.242 538.031C601.065 539.783 602.88 541.492 604.703 543.244C608.348 546.747 610.148 551.501 610.115 557.442C610.099 560.413 610.077 563.33 610.06 566.301C609.305 564.829 608.548 563.396 607.793 561.924C607.038 560.451 606.291 558.979 605.536 557.507C604.157 558.421 602.786 559.34 601.406 560.254C600.027 561.168 598.666 562.047 597.287 562.962C597.615 558.797 597.912 554.676 598.241 550.511C598.569 546.347 598.914 542.196 599.242 538.031ZM408.695 503.483C416.522 505.529 421.165 508.062 422.676 511.006C423.431 512.479 424.188 513.911 424.943 515.384C422.097 514.64 419.286 513.905 416.44 513.161C410.747 511.673 407.211 512.067 405.876 514.268C405.208 515.369 404.578 516.438 403.91 517.539C407.616 519.358 411.284 521.14 414.989 522.958C418.695 524.777 422.38 526.648 426.085 528.466C422.215 528.73 418.372 528.959 414.502 529.223C406.762 529.75 399.68 527.898 393.188 523.651C386.697 519.404 382.546 516.177 380.828 514.028C379.109 511.878 378.554 509.676 379.178 507.289C379.802 504.902 382.91 503.161 388.514 502.076C394.119 500.991 400.868 501.437 408.695 503.483ZM520.76 532.779C523.754 534.412 526.756 536.062 529.75 537.694C535.737 540.96 539.766 545.843 541.867 552.343C542.918 555.592 543.982 558.836 545.033 562.085C543.314 559.936 541.583 557.753 539.864 555.604C536.427 551.305 532.987 549.994 529.516 551.637C527.781 552.458 526.034 553.32 524.299 554.142C523.708 550.587 523.131 546.976 522.54 543.421C521.949 539.866 521.351 536.334 520.76 532.779ZM425.44 561.435C427.93 562.086 430.413 562.735 432.903 563.386C430.353 564.419 427.822 565.446 425.272 566.479C420.17 568.546 417.555 571.238 417.434 574.607C417.374 576.291 417.316 578.006 417.256 579.69C420.622 578.445 423.994 577.185 427.36 575.94C434.093 573.45 438.45 572.901 440.376 574.254C441.34 574.931 442.287 575.633 443.251 576.309C440.24 577.648 437.244 578.964 434.233 580.302C428.212 582.978 420.907 583.168 412.368 580.936C403.83 578.704 399.632 575.96 399.753 572.592C399.873 569.223 402.938 566.152 408.959 563.476C414.98 560.8 420.459 560.133 425.44 561.435ZM556.064 619.132C558.732 619.829 561.612 620.788 564.71 622.023C570.905 624.493 575.018 627.71 577.033 631.636C578.04 633.6 579.04 635.591 580.048 637.555C574.711 636.16 569.343 634.757 564.007 633.361C558.67 631.966 553.339 630.573 548.003 629.178C547.483 631.167 546.959 633.172 546.438 635.161C545.918 637.15 545.394 639.155 544.874 641.144C546.15 640.627 547.43 640.055 548.706 639.538C551.256 638.505 555.994 639.332 562.902 641.988C566.356 643.316 569.833 644.636 573.287 645.964C570.841 646.6 568.363 647.271 565.917 647.906C561.023 649.177 552.542 648.195 540.446 645.032C528.35 641.87 521.066 639.143 518.636 636.807C517.421 635.64 516.198 634.497 514.983 633.329C516.111 631.924 517.227 630.486 518.355 629.081C520.61 626.27 525.173 623.591 531.906 621.101C538.638 618.611 544.228 617.519 548.706 617.839C550.944 617.999 553.395 618.434 556.064 619.132ZM469.884 613.886C470.595 614.072 471.326 614.263 472.037 614.449C471.309 617.234 470.584 620.009 469.856 622.794C468.4 628.363 465.938 631.961 462.468 633.604C460.733 634.426 458.996 635.248 457.261 636.07C457.486 632.303 457.702 628.488 457.927 624.721C458.152 620.955 458.385 617.228 458.609 613.462C459.573 614.139 460.531 614.801 461.494 615.477C463.421 616.831 464.946 616.818 466.073 615.413C467.201 614.008 468.461 613.514 469.884 613.886ZM632.622 682.88C634.453 683.146 636.386 683.734 638.417 684.69C642.478 686.601 645.141 689.397 646.443 693.138C647.095 695.008 647.73 696.904 648.381 698.775C643.904 698.454 639.468 698.118 634.99 697.797C630.513 697.477 626.029 697.17 621.552 696.849C623.643 696.121 625.745 695.394 627.836 694.665C629.926 693.937 631.991 693.2 634.082 692.471C632.155 691.118 630.249 689.755 628.323 688.401C626.396 687.047 624.48 685.723 622.554 684.369C624.185 683.946 625.82 683.508 627.451 683.085C629.083 682.661 630.791 682.614 632.622 682.88ZM416.058 627.821C416.354 629.599 416.709 631.38 417.004 633.157C417.595 636.712 416.759 639.911 414.504 642.722C412.249 645.533 405.048 648.303 392.919 651.083C386.855 652.472 380.799 653.854 374.734 655.244C375.15 653.652 375.553 652.111 375.969 650.52C376.801 647.337 381.11 642.493 388.883 636.024C392.769 632.79 396.617 629.554 400.504 626.32C399.42 629.012 398.366 631.701 397.282 634.393C395.115 639.777 394.617 643.023 395.832 644.191C397.047 645.358 400.721 642.943 406.863 636.898C409.933 633.875 412.988 630.844 416.058 627.821ZM541.815 696.399C541.694 699.768 541.588 703.159 541.468 706.527C541.227 713.265 542.407 717.403 545.045 718.943C547.683 720.482 549.976 720.67 551.815 719.451C552.734 718.841 553.639 718.213 554.559 717.603C553.103 723.173 551.652 728.723 550.196 734.293C548.74 739.862 547.289 745.412 545.833 750.982C544.235 745.464 542.589 739.969 540.991 734.451C537.795 723.415 537.123 714.345 538.995 707.184C539.931 703.604 540.878 699.98 541.815 696.399ZM549.737 700.994C550.449 701.18 551.18 701.371 551.891 701.557C552.603 701.743 553.296 701.924 554.008 702.11C553.696 703.303 553.373 704.538 553.061 705.731C552.749 706.925 552.437 708.12 552.125 709.313C551.413 709.127 550.72 708.946 550.008 708.76C549.297 708.574 548.566 708.383 547.854 708.197C548.166 707.003 548.479 705.809 548.791 704.615C549.103 703.421 549.426 702.187 549.737 700.994ZM474.886 686.556C482.713 688.602 487.467 690.71 489.186 692.859C490.904 695.009 491.185 696.77 490.057 698.176C488.93 699.581 486.6 699.838 483.043 698.907C481.264 698.442 479.474 697.974 477.696 697.509C477.739 698.796 477.792 700.086 477.836 701.373C477.924 703.946 479.729 705.694 483.286 706.624C485.065 707.089 486.855 707.557 488.633 708.022C487.15 709.334 485.678 710.638 484.195 711.95C481.228 714.575 474.426 714.484 463.753 711.694C453.079 708.904 446.928 706.019 445.417 703.074C443.907 700.129 441.736 698.285 438.89 697.541C437.467 697.169 436.081 696.807 434.657 696.435C434.865 695.639 435.067 694.868 435.275 694.073C435.483 693.277 435.694 692.467 435.902 691.672C434.479 691.3 433.055 690.927 431.632 690.555C430.209 690.183 428.785 689.811 427.362 689.439C433.323 688.447 439.278 687.451 445.239 686.459C457.16 684.475 467.059 684.51 474.886 686.556ZM643.568 743.437C643.404 745.52 643.218 747.571 643.054 749.653C642.726 753.817 641.36 757.702 638.897 761.308C636.433 764.914 634.03 766.797 631.687 767.034C630.516 767.153 629.336 767.341 628.164 767.459C629.396 765.656 630.613 763.832 631.845 762.029C634.308 758.423 634.917 754.752 633.614 751.012C632.963 749.141 632.317 747.284 631.666 745.414C633.653 745.084 635.617 744.732 637.604 744.401C639.591 744.071 641.581 743.768 643.568 743.437ZM321.169 676.985C323.895 681.097 326.6 685.223 329.325 689.336C334.777 697.561 338.027 703.929 339.121 708.465C340.216 713.001 340.062 718.068 338.606 723.637C337.878 726.422 337.153 729.197 336.425 731.982C335.478 728.334 334.514 724.707 333.568 721.059C332.621 717.411 331.678 713.704 330.732 710.056C329.604 711.462 328.487 712.9 327.36 714.305C326.232 715.711 325.078 717.139 323.951 718.544C323.343 717.961 322.761 717.355 322.153 716.771C320.938 715.603 320.446 708.68 320.72 696.001C320.857 689.661 321.032 683.324 321.169 676.985ZM474.382 745.087C475.137 746.559 475.873 748.07 476.628 749.543C478.139 752.488 477.959 757.505 476.086 764.666C474.214 771.827 468.666 781.412 459.437 793.451C454.823 799.47 450.239 805.52 445.624 811.539C445.285 808.475 444.952 805.423 444.613 802.359C443.934 796.231 444.824 788.351 447.32 778.803C449.816 769.255 453.215 762.072 457.517 757.247C459.668 754.834 461.818 752.431 463.969 750.018C463.137 753.201 462.31 756.361 461.478 759.544C460.646 762.726 459.81 765.926 458.978 769.109C460.045 769.388 461.104 769.664 462.171 769.943C464.306 770.502 466.868 766.519 469.868 757.952C471.368 753.669 472.882 749.37 474.382 745.087ZM262.267 697.289C267.248 698.591 270.694 701.222 272.708 705.148C273.715 707.112 274.737 709.025 275.744 710.988C271.474 709.872 267.24 708.765 262.97 707.649C254.432 705.417 249.472 705.439 248.136 707.64C247.468 708.74 246.838 709.81 246.17 710.911C251.507 712.306 256.801 713.69 262.137 715.085C272.81 717.875 278.295 720.173 278.59 721.951C278.738 722.84 278.902 723.705 279.05 724.594C274.26 725.467 269.464 726.355 264.675 727.228C255.096 728.974 250.184 728.967 249.888 727.189C249.593 725.412 245.469 722.234 237.555 717.615C229.64 712.996 225.008 708.778 223.705 705.038C223.054 703.167 222.409 701.31 221.757 699.44C223.536 699.905 225.325 700.373 227.104 700.838C230.662 701.768 236.178 701.111 243.622 698.806C251.066 696.502 257.286 695.987 262.267 697.289ZM562.427 783.411C562.974 785.679 563.509 787.96 564.056 790.229C564.603 792.497 565.148 794.739 565.695 797.007C562.537 797.457 559.414 797.917 556.256 798.366C553.098 798.816 549.937 799.266 546.779 799.715C549.39 796.998 551.979 794.256 554.589 791.539C557.2 788.821 559.816 786.128 562.427 783.411ZM628.596 800.709C630.714 804.238 632.874 807.767 634.992 811.296C637.11 814.825 639.196 818.335 641.314 821.864C641.982 820.763 642.659 819.664 643.327 818.563C644.663 816.362 644.695 813.406 643.392 809.665C642.741 807.795 642.095 805.938 641.444 804.068C642.511 804.347 643.57 804.624 644.637 804.903C646.772 805.461 648.63 808.5 650.228 814.018C651.826 819.536 652.238 825.12 651.494 830.875C651.121 833.753 650.761 836.623 650.389 839.501C647.395 837.869 644.42 836.268 641.426 834.635C635.438 831.37 631.326 826.507 629.224 820.007C627.122 813.507 626.519 808.654 627.351 805.472C627.767 803.881 628.18 802.3 628.596 800.709ZM579.311 823.527C578.523 827.996 577.74 832.486 576.951 836.956C575.375 845.894 573.357 852.119 570.894 855.725C568.431 859.332 565.541 861.582 562.278 862.43C560.647 862.854 559.022 863.252 557.391 863.675C558.031 858.318 558.688 852.971 559.329 847.613C560.61 836.898 562.701 830.238 565.668 827.614C567.151 826.302 568.633 824.959 570.117 823.647C569.389 826.431 568.663 829.207 567.935 831.991C566.479 837.561 566.628 841.472 568.346 843.621C569.205 844.696 570.063 845.743 570.922 846.818C572.318 842.932 573.748 839.107 575.144 835.221C576.539 831.336 577.916 827.413 579.311 823.527ZM331.763 802.168C331.746 805.139 331.714 808.095 331.698 811.066C331.665 817.007 332.363 820.155 333.786 820.527C335.209 820.899 337.724 818.591 341.315 813.58C343.11 811.074 344.894 808.576 346.69 806.07C346.837 806.959 347.001 807.825 347.149 808.713C347.445 810.491 346.132 814.019 343.253 819.217C340.374 824.415 335.18 829.81 327.615 835.482C323.833 838.319 320.038 841.198 316.255 844.035C316.732 840.759 317.213 837.425 317.689 834.149C318.642 827.598 321.247 820.619 325.462 813.22C327.569 809.521 329.655 805.867 331.763 802.168ZM233.326 792.666C235.765 793.516 237.952 794.624 239.879 795.977C241.806 797.331 243.722 798.655 245.648 800.009C243.41 799.848 241.171 799.759 238.932 799.599C234.455 799.278 231.999 799.87 231.582 801.462C231.374 802.258 231.173 803.028 230.965 803.824C228.327 802.284 225.717 800.779 223.079 799.239C217.803 796.159 215.378 793.795 215.794 792.204C216.21 790.613 219.36 790.201 225.261 790.894C228.211 791.24 230.888 791.816 233.326 792.666ZM149.101 802.86C156.216 804.72 162.002 807.509 166.359 811.198C168.537 813.043 170.708 814.887 172.886 816.731C170.543 816.969 168.188 817.176 165.845 817.414C163.502 817.651 161.173 817.908 158.83 818.145C160.193 820.201 161.57 822.249 162.932 824.306C164.295 826.362 165.634 828.4 166.997 830.457C163.04 828.147 159.107 825.884 155.15 823.575C147.235 818.955 141.873 814.546 139.147 810.434C136.421 806.321 135.622 803.559 136.75 802.154C137.877 800.749 141.985 801 149.101 802.86ZM356.364 882.569C357.787 882.941 359.211 883.313 360.634 883.685C358.439 884.811 356.247 885.885 354.052 887.011C349.663 889.263 347.111 891.561 346.487 893.948C346.175 895.141 345.852 896.376 345.54 897.569C346.711 897.45 347.945 897.361 349.116 897.243C350.288 897.124 351.447 897.015 352.618 896.897C351.951 897.997 351.283 899.057 350.615 900.158C349.28 902.359 343.187 903.73 332.393 904.309C326.996 904.598 321.607 904.92 316.21 905.209C319.741 901.881 323.272 898.521 326.802 895.194C333.863 888.539 339.85 884.587 344.744 883.316C349.637 882.045 353.518 881.825 356.364 882.569ZM226.228 861.248C227.295 861.527 228.354 861.804 229.421 862.083C228.293 863.488 227.177 864.926 226.049 866.331C223.794 869.142 223.169 871.532 224.176 873.495C224.68 874.477 225.172 875.429 225.675 876.41C222.621 876.462 219.551 876.567 216.497 876.618C213.443 876.67 210.43 876.706 207.376 876.757C207.688 875.563 208.011 874.329 208.323 873.136C208.947 870.749 211.525 868.046 216.123 864.998C220.721 861.95 224.093 860.689 226.228 861.248ZM371.198 904.277C372.058 905.352 372.915 906.398 373.774 907.473C375.493 909.623 376.192 912.771 375.863 916.934C375.534 921.099 376.069 923.38 377.492 923.752C378.204 923.938 378.897 924.12 379.609 924.306C377.441 929.689 375.286 935.098 373.119 940.481C370.951 945.865 368.807 951.233 366.639 956.617C365.944 953.461 365.246 950.313 364.551 947.156C363.16 940.843 364.357 934.772 368.156 928.965C371.954 923.158 372.982 919.227 371.263 917.078C369.545 914.928 369.111 912.261 369.943 909.079C370.359 907.488 370.782 905.868 371.198 904.277ZM174.189 855.297C174.381 857.472 174.55 859.658 174.742 861.834C175.125 866.184 171.927 872.596 165.162 881.028C161.779 885.244 158.422 889.431 155.04 893.647C155.116 888.992 155.196 884.359 155.273 879.704C155.35 875.049 155.44 870.378 155.517 865.723C158.215 865.578 160.899 865.457 163.598 865.312C168.994 865.023 172.102 863.282 172.934 860.099C173.35 858.508 173.773 856.888 174.189 855.297ZM109.779 848.72C112.625 849.464 115.473 850.208 118.32 850.952C115.057 851.8 111.807 852.596 108.544 853.443C102.02 855.138 98.701 857.688 98.5804 861.057C98.5202 862.741 98.4724 864.417 98.4121 866.101C103.557 865.321 108.681 864.519 113.827 863.739C118.972 862.959 124.085 862.196 129.231 861.416C128.355 863.312 127.513 865.192 126.637 867.088C124.885 870.88 121.693 874.287 117.095 877.335C112.498 880.383 107.781 882.611 102.888 883.882C97.9946 885.153 87.6874 883.693 72.0333 879.6C64.2063 877.554 56.3929 875.512 48.5659 873.465C52.9119 869.926 57.2741 866.372 61.62 862.833C70.312 855.755 79.0572 851.246 87.9245 849.314C96.7916 847.382 104.087 847.232 109.779 848.72ZM214.205 911.637C214.605 913.017 214.975 914.432 215.375 915.812C216.174 918.571 215.348 921.731 212.885 925.337C211.653 927.14 210.436 928.964 209.204 930.767C210.731 930.741 212.219 930.718 213.746 930.693C216.8 930.641 219.315 928.334 221.274 923.746C223.234 919.158 224.917 917.045 226.34 917.417C227.052 917.603 227.783 917.794 228.494 917.98C227.202 921.467 225.91 924.917 224.618 928.405C222.035 935.38 218.673 940.926 214.579 944.956C212.532 946.971 210.493 948.95 208.446 950.964C207.335 949.399 206.261 947.841 205.15 946.276C202.927 943.145 202.854 937.607 204.934 929.651C207.014 921.694 209.058 916.71 211.105 914.695C212.128 913.688 213.181 912.645 214.205 911.637ZM335.063 981.5C334.795 983.98 334.525 986.504 334.257 988.984C333.989 991.464 333.692 993.94 333.424 996.42C332.712 996.234 332.019 996.053 331.307 995.867C329.884 995.495 326.94 998.101 322.43 1003.72C320.175 1006.53 317.851 1009.3 315.596 1012.11C314.84 1010.64 314.084 1009.21 313.328 1007.74C311.818 1004.79 312.273 1000.21 314.649 994.035C315.837 990.945 317.028 987.881 318.216 984.791C318.156 986.475 318.071 988.141 318.01 989.826C317.89 993.194 318.536 995.051 319.959 995.423C321.382 995.795 324.299 993.593 328.601 988.767C330.752 986.355 332.912 983.912 335.063 981.5Z" id="Fill_2"/>
</defs>
<clipPath id="ArtboardFrame">
<rect height="1024" width="1024" x="0" y="0"/>
</clipPath>
<g clip-path="url(#ArtboardFrame)" id="Layer-1" vectornator:layerName="Layer 1">
<g opacity="1" vectornator:layerName="Group 1">
<g opacity="1" vectornator:layerName="Curve 1">
<use fill="#2a1510" fill-rule="nonzero" stroke="none" xlink:href="#Fill"/>
<mask height="519.473" id="StrokeMask" maskUnits="userSpaceOnUse" width="350.313" x="161.687" y="151.707">
<rect fill="#000000" height="519.473" stroke="none" width="350.313" x="161.687" y="151.707"/>
<use fill="#ffffff" fill-rule="evenodd" stroke="none" xlink:href="#Fill"/>
</mask>
<use fill="none" mask="url(#StrokeMask)" stroke="#646460" stroke-linecap="round" stroke-linejoin="round" stroke-width="10" xlink:href="#Fill"/>
</g>
<g opacity="1" vectornator:layerName="Curve 1">
<use fill="#2a1510" fill-rule="nonzero" stroke="none" xlink:href="#Fill_2"/>
<mask height="1064.57" id="StrokeMask_2" maskUnits="userSpaceOnUse" width="955.254" x="34.373" y="-40.5731">
<rect fill="#000000" height="1064.57" stroke="none" width="955.254" x="34.373" y="-40.5731"/>
<use fill="#ffffff" fill-rule="evenodd" stroke="none" xlink:href="#Fill_2"/>
</mask>
<use fill="none" mask="url(#StrokeMask_2)" stroke="#646460" stroke-linecap="round" stroke-linejoin="round" stroke-width="6" xlink:href="#Fill_2"/>
</g>
</g>
</g>
</svg>
