<?xml version="1.0" encoding="UTF-8" standalone="no"?>
<!DOCTYPE svg PUBLIC "-//W3C//DTD SVG 1.1//EN" "http://www.w3.org/Graphics/SVG/1.1/DTD/svg11.dtd">
<!-- Created with Vectornator (http://vectornator.io/) -->
<svg styles="" height="100%" stroke-miterlimit="10" style="fill-rule:nonzero;clip-rule:evenodd;stroke-linecap:round;stroke-linejoin:round;" version="1.1" viewBox="0 0 1024 1024" width="100%" xml:space="preserve" xmlns="http://www.w3.org/2000/svg" xmlns:vectornator="http://vectornator.io" xmlns:xlink="http://www.w3.org/1999/xlink">
<defs>
<path d="M454.194 15.935C448.688 20.092 445.247 23.5562 443.871 26.3275C442.495 29.0988 441.806 33.9486 441.806 40.8769C441.806 47.8051 443.183 53.5787 445.935 58.1976C448.688 62.8164 451.67 66.0496 454.882 67.8972C458.093 69.7447 463.369 70.6685 470.71 70.6685C478.05 70.6685 484.244 68.8209 489.29 65.1258C494.337 61.4308 496.86 57.0429 496.86 51.9621C496.86 46.8814 496.172 43.8791 494.796 42.9553C493.419 42.0316 491.584 41.8006 489.29 42.2625C486.996 42.7244 486.308 45.7267 487.226 51.2693C488.143 56.8119 487.685 60.7379 485.849 63.0474C484.014 65.3568 480.344 66.5115 474.839 66.5115C469.333 66.5115 464.057 63.9711 459.011 58.8904C453.964 53.8097 451.211 47.3433 450.753 39.4912C450.294 31.6392 452.358 25.4037 456.946 20.7848C461.534 16.166 465.892 13.8566 470.022 13.8566C474.151 13.8566 477.821 15.4732 481.032 18.7064C484.244 21.9396 486.538 23.5562 487.914 23.5562C489.29 23.5562 490.208 22.1705 490.667 19.3992C491.125 16.6279 489.978 14.3184 487.226 12.4709C484.473 10.6234 479.656 9.69959 472.774 9.69959C465.892 9.69959 459.699 11.7781 454.194 15.935ZM523.699 37.4127C522.323 54.0406 520.946 63.5092 519.57 65.8187C518.882 66.9734 518.194 68.1281 517.505 69.2828C518.882 69.9756 520.258 70.6685 521.634 71.3613C524.387 72.747 526.452 73.2088 527.828 72.747C529.204 72.2851 530.122 67.4353 530.581 58.1976C531.039 48.9599 532.875 44.341 536.086 44.341C539.297 44.341 542.05 46.1885 544.344 49.8836C546.638 53.5787 548.473 58.4285 549.849 64.433C551.226 70.4375 552.602 74.1326 553.978 75.5183C555.355 76.9039 557.19 77.5968 559.484 77.5968C560.631 77.5968 561.778 77.5968 562.925 77.5968C562.007 75.7492 561.09 73.9017 560.172 72.0541C558.337 68.359 557.19 64.433 556.731 60.276C556.272 56.1191 555.125 52.8859 553.29 50.5765C551.455 48.267 550.538 46.4195 550.538 45.0338C550.538 43.6482 551.455 42.7244 553.29 42.2625C555.125 41.8006 556.731 40.6459 558.108 38.7984C559.484 36.9508 560.172 33.4867 560.172 28.406C560.172 23.3252 557.19 19.3992 551.226 16.6279C545.262 13.8566 539.527 12.4709 534.022 12.4709C528.516 12.4709 525.075 20.7848 523.699 37.4127ZM537.462 16.6279C539.756 16.6279 542.738 17.7826 546.409 20.092C550.079 22.4014 551.914 25.6346 551.914 29.7916C551.914 33.9486 551.455 36.4889 550.538 37.4127C549.62 38.3365 546.409 39.0293 540.903 39.4912C538.151 39.7221 535.398 39.9531 532.645 40.184C532.875 36.258 533.104 32.332 533.333 28.406C533.792 20.5539 535.168 16.6279 537.462 16.6279ZM375.742 21.4777C372.072 22.8633 368.401 25.4037 364.731 29.0988C361.061 32.7939 358.767 35.5652 357.849 37.4127C356.932 39.2603 356.473 43.4172 356.473 49.8836C356.473 56.35 358.538 62.5855 362.667 68.59C366.796 74.5945 370.237 78.2896 372.989 79.6752C375.742 81.0609 379.871 81.7537 385.376 81.7537C390.882 81.7537 397.075 79.4443 403.957 74.8254C410.839 70.2066 414.738 66.9734 415.656 65.1258C416.573 63.2783 417.032 59.1213 417.032 52.6549C417.032 46.1885 415.885 40.6459 413.591 36.0271C411.297 31.4082 409.004 28.175 406.71 26.3275C404.416 24.4799 401.663 22.8633 398.452 21.4777C395.24 20.092 391.57 19.3992 387.441 19.3992C383.312 19.3992 379.412 20.092 375.742 21.4777ZM388.817 26.3275C392.946 27.2512 397.305 30.4844 401.892 36.0271C406.48 41.5697 408.774 48.0361 408.774 55.4263C408.774 62.8164 406.939 68.1281 403.269 71.3613C399.599 74.5945 395.24 76.2111 390.194 76.2111C385.147 76.2111 381.247 75.2873 378.495 73.4398C375.742 71.5922 372.76 68.359 369.548 63.7402C366.337 59.1213 364.731 53.1168 364.731 45.7267C364.731 38.3365 365.878 33.4867 368.172 31.1773C370.466 28.8678 373.448 27.2512 377.118 26.3275C380.789 25.4037 384.688 25.4037 388.817 26.3275ZM610.409 37.4127C607.197 42.9553 605.133 45.7267 604.215 45.7267C603.297 45.7267 598.48 51.5002 589.763 63.0474C585.405 68.8209 581.047 74.5945 576.688 80.3681C578.065 80.599 579.441 80.83 580.817 81.0609C583.57 81.5228 586.552 78.7515 589.763 72.747C592.975 66.7424 596.416 63.7402 600.086 63.7402C603.756 63.7402 607.656 64.664 611.785 66.5115C615.914 68.359 617.978 72.9779 617.978 80.3681C617.978 87.7582 619.814 91.9152 623.484 92.839C625.319 93.3009 627.154 93.7627 628.989 94.2246C628.072 89.6058 627.154 84.9869 626.237 80.3681C624.401 71.1304 623.484 62.3545 623.484 54.0406C623.484 45.7267 623.025 39.7221 622.108 36.0271C621.19 32.332 619.814 30.2535 617.978 29.7916C616.143 29.3297 613.62 31.8701 610.409 37.4127ZM314.495 40.8769C313.118 42.2625 309.907 43.6482 304.86 45.0338C299.814 46.4195 297.29 47.5742 297.29 48.498C297.29 49.4217 295.226 50.3455 291.097 51.2693C286.968 52.1931 284.674 53.8097 284.215 56.1191C283.756 58.4285 284.674 60.0451 286.968 60.9689C288.115 61.4308 289.262 61.8926 290.409 62.3545C290.867 60.9689 291.326 59.5832 291.785 58.1976C292.703 55.4263 294.767 53.5787 297.978 52.6549C299.584 52.1931 301.19 51.7312 302.796 51.2693C302.796 52.424 302.796 53.5787 302.796 54.7334C302.796 57.0429 305.548 63.9711 311.054 75.5183C316.559 87.0654 319.312 94.2246 319.312 96.9959C319.312 99.7673 320 101.615 321.376 102.539C322.753 103.462 324.817 103 327.57 101.153C328.946 100.229 330.323 99.3054 331.699 98.3816C330.552 96.9959 329.405 95.6103 328.258 94.2246C325.964 91.4533 324.817 88.9129 324.817 86.6035C324.817 84.2941 323.67 81.5228 321.376 78.2896C319.082 75.0564 317.935 72.2851 317.935 69.9756C317.935 67.6662 316.33 63.2783 313.118 56.8119C311.513 53.5787 309.907 50.3455 308.301 47.1123C309.219 47.1123 310.136 47.1123 311.054 47.1123C311.971 47.1123 312.889 47.1123 313.806 47.1123C313.806 46.6504 313.806 46.1885 313.806 45.7267C313.806 45.2648 313.806 44.8029 313.806 44.341C316.1 44.8029 318.394 45.2648 320.688 45.7267C322.982 46.1885 325.276 46.6504 327.57 47.1123C327.57 46.4195 327.57 45.7267 327.57 45.0338C327.57 43.6482 327.111 42.2625 326.194 40.8769C325.276 39.4912 323.441 38.7984 320.688 38.7984C317.935 38.7984 315.871 39.4912 314.495 40.8769ZM613.849 41.5697C614.308 41.5697 614.767 41.5697 615.226 41.5697C615.226 45.2648 615.226 48.9599 615.226 52.6549C615.226 56.35 615.226 60.0451 615.226 63.7402C613.849 63.7402 612.473 63.7402 611.097 63.7402C608.344 63.7402 605.821 62.5855 603.527 60.276C601.233 57.9666 602.151 54.2715 606.28 49.1908C610.409 44.1101 612.932 41.5697 613.849 41.5697ZM668.215 52.6549C667.756 56.35 665.921 60.9689 662.71 66.5115C659.498 72.0541 657.892 75.7492 657.892 77.5968C657.892 79.4443 656.746 82.6775 654.452 87.2963C652.158 91.9152 650.093 94.9175 648.258 96.3031C646.423 97.6888 645.505 99.0744 645.505 100.46C645.505 101.846 646.882 103.231 649.634 104.617C651.011 105.31 652.387 106.003 653.763 106.696C655.369 103 656.975 99.3054 658.581 95.6103C660.186 91.9152 661.792 88.2201 663.398 84.525C665.462 85.6797 667.527 86.8345 669.591 87.9892C673.72 90.2986 677.62 91.4533 681.29 91.4533C684.961 91.4533 688.401 90.2986 691.613 87.9892C694.824 85.6797 697.118 83.1394 698.495 80.3681C699.871 77.5968 700.33 74.3636 699.871 70.6685C699.412 66.9734 698.036 63.7402 695.742 60.9689C693.448 58.1976 688.401 55.1953 680.602 51.9621C676.703 50.3455 672.803 48.7289 668.903 47.1123C668.674 48.9599 668.444 50.8074 668.215 52.6549ZM677.161 54.0406C679.455 55.8881 681.749 57.7357 684.043 59.5832C688.631 63.2783 690.925 67.2043 690.925 71.3613C690.925 75.5183 689.548 78.9824 686.796 81.7537C684.043 84.525 679.914 85.4488 674.409 84.525C671.656 84.0631 668.903 83.6013 666.151 83.1394C667.986 78.2896 669.821 73.4398 671.656 68.59C673.491 63.7402 675.326 58.8904 677.161 54.0406ZM236.043 78.2896C232.832 79.6752 229.391 82.2156 225.72 85.9107C222.05 89.6058 220.215 92.3771 220.215 94.2246C220.215 96.0722 219.527 97.6888 218.151 99.0744C216.774 100.46 216.086 103 216.086 106.696C216.086 110.391 216.774 114.086 218.151 117.781C219.527 121.476 221.821 125.171 225.032 128.866C228.244 132.561 231.226 135.101 233.978 136.487C236.731 137.873 241.319 138.566 247.742 138.566C254.165 138.566 258.753 137.873 261.505 136.487C264.258 135.101 267.699 131.868 271.828 126.788C275.957 121.707 278.022 115.702 278.022 108.774C278.022 101.846 277.333 96.9959 275.957 94.2246C274.581 91.4533 271.828 88.2201 267.699 84.525C263.57 80.83 258.065 78.5205 251.183 77.5968C244.301 76.673 239.254 76.9039 236.043 78.2896ZM718.452 101.153C709.276 115.933 704 123.323 702.624 123.323C701.247 123.323 700.33 124.478 699.871 126.788C699.412 129.097 700.789 130.945 704 132.33C707.211 133.716 710.652 130.714 714.323 123.323C717.993 115.933 721.204 112.007 723.957 111.545C726.71 111.083 728.774 111.776 730.151 113.624C731.527 115.471 734.738 117.781 739.785 120.552C742.308 121.938 744.832 123.323 747.355 124.709C745.749 127.711 744.143 130.714 742.538 133.716C739.326 139.72 736.573 143.415 734.28 144.801C731.986 146.187 730.839 147.572 730.839 148.958C730.839 150.344 732.674 151.729 736.344 153.115C738.179 153.808 740.014 154.501 741.849 155.194C742.079 153.808 742.308 152.422 742.538 151.037C742.996 148.265 747.125 141.106 754.925 129.559C762.724 118.012 767.541 111.776 769.376 110.853C771.211 109.929 772.129 108.774 772.129 107.388C772.129 106.003 770.523 104.386 767.312 102.539C765.706 101.615 764.1 100.691 762.495 99.7673C761.118 103 759.742 106.234 758.366 109.467C755.613 115.933 753.778 119.628 752.86 120.552C751.943 121.476 750.108 121.476 747.355 120.552C744.602 119.628 740.473 117.088 734.968 112.931C729.462 108.774 726.71 105.772 726.71 103.924C726.71 102.077 729.004 98.8435 733.591 94.2246C738.179 89.6058 740.473 86.6035 740.473 85.2179C740.473 83.8322 739.097 82.4465 736.344 81.0609C733.591 79.6752 727.627 86.3726 718.452 101.153ZM243.613 84.525C246.824 84.525 250.036 84.525 253.247 84.525C253.247 84.9869 253.247 85.4488 253.247 85.9107C253.247 86.8345 254.394 87.5273 256.688 87.9892C258.982 88.4511 261.735 90.2986 264.946 93.5318C268.158 96.765 270.452 101.846 271.828 108.774C273.204 115.702 272.746 120.552 270.452 123.323C268.158 126.095 264.029 128.404 258.065 130.252C252.1 132.099 246.595 131.868 241.548 129.559C236.502 127.249 232.602 124.478 229.849 121.245C227.097 118.012 225.032 115.009 223.656 112.238C222.28 109.467 221.591 106.465 221.591 103.231C221.591 99.9982 223.656 96.0722 227.785 91.4533C231.914 86.8345 237.19 84.525 243.613 84.525ZM176.172 123.323C174.337 126.095 176.172 129.79 181.677 134.409C187.183 139.028 189.935 142.261 189.935 144.108C189.935 145.956 186.724 149.882 180.301 155.886C173.878 161.891 168.143 162.815 163.097 158.658C158.05 154.501 155.297 151.267 154.839 148.958C154.609 147.803 154.38 146.649 154.151 145.494C153.233 145.725 152.315 145.956 151.398 146.187C149.563 146.649 147.957 148.034 146.581 150.344C145.204 152.653 150.48 159.581 162.409 171.129C174.337 182.676 180.53 189.604 180.989 191.913C181.448 194.223 182.595 195.378 184.43 195.378C186.265 195.378 188.1 194.223 189.935 191.913C191.771 189.604 189.247 184.985 182.366 178.057C178.925 174.593 175.484 171.129 172.043 167.664C175.484 164.431 178.925 161.198 182.366 157.965C189.247 151.498 194.982 150.344 199.57 154.501C204.158 158.658 207.14 162.353 208.516 165.586C209.892 168.819 211.269 170.436 212.645 170.436C214.022 170.436 215.627 168.819 217.462 165.586C218.38 163.969 219.297 162.353 220.215 160.736C219.297 160.505 218.38 160.274 217.462 160.043C215.627 159.581 209.892 154.039 200.258 143.415C190.624 132.792 185.577 126.557 185.118 124.709C184.659 122.862 183.513 121.476 181.677 120.552C179.842 119.628 178.007 120.552 176.172 123.323ZM788.645 142.723C785.892 155.655 782.91 163.969 779.699 167.664C776.487 171.359 773.505 173.9 770.753 175.286C769.376 175.978 768 176.671 766.624 177.364C767.312 178.75 768 180.135 768.688 181.521C770.065 184.292 771.441 185.678 772.817 185.678C774.194 185.678 777.634 182.214 783.14 175.286C788.645 168.357 797.362 163.507 809.29 160.736C815.254 159.35 821.219 157.965 827.183 156.579C826.953 155.655 826.724 154.732 826.495 153.808C826.036 151.96 824.659 150.806 822.366 150.344C820.072 149.882 817.548 150.806 814.796 153.115C812.043 155.424 807.914 157.272 802.409 158.658C799.656 159.35 796.903 160.043 794.151 160.736C794.609 157.503 795.068 154.27 795.527 151.037C796.444 144.57 797.821 139.72 799.656 136.487C801.491 133.254 800.803 130.252 797.591 127.48C795.986 126.095 794.38 124.709 792.774 123.323C791.398 129.79 790.022 136.256 788.645 142.723ZM121.806 181.521C119.513 182.445 116.072 185.216 111.484 189.835C106.896 194.454 103.914 198.38 102.538 201.613C101.849 203.23 101.161 204.846 100.473 206.463C101.62 206.694 102.767 206.925 103.914 207.156C106.208 207.618 113.548 213.391 125.935 224.476C138.323 235.562 145.204 241.104 146.581 241.104C147.957 241.104 149.333 239.488 150.71 236.254C151.398 234.638 152.086 233.021 152.774 231.405C151.627 231.174 150.48 230.943 149.333 230.712C147.039 230.25 144.057 228.402 140.387 225.169C136.717 221.936 136.029 218.241 138.323 214.084C140.616 209.927 142.222 207.848 143.14 207.848C144.057 207.848 144.746 205.539 145.204 200.92C145.663 196.301 144.975 192.606 143.14 189.835C141.305 187.064 137.864 184.754 132.817 182.907C127.771 181.059 124.1 180.597 121.806 181.521ZM128 189.835C131.67 190.759 134.652 192.606 136.946 195.378C139.24 198.149 139.928 201.613 139.011 205.77C138.093 209.927 136.946 212.698 135.57 214.084C134.194 215.47 132.588 216.162 130.753 216.162C129.835 216.162 128.918 216.162 128 216.162C128 215.7 128 215.239 128 214.777C128 213.853 124.789 211.082 118.366 206.463C115.154 204.153 111.943 201.844 108.731 199.535C109.878 198.149 111.025 196.763 112.172 195.378C114.466 192.606 116.76 190.759 119.054 189.835C121.348 188.911 124.33 188.911 128 189.835ZM59.1828 268.124C58.2652 269.51 58.0358 271.127 58.4946 272.974C58.9534 274.822 61.0179 275.746 64.6882 275.746C68.3584 275.746 74.7814 278.055 83.957 282.674C88.5448 284.983 93.1326 287.293 97.7204 289.602C96.3441 290.295 94.9677 290.988 93.5914 291.681C90.8387 293.066 87.6272 293.759 83.957 293.759C80.2867 293.759 78.2222 294.221 77.7634 295.145C77.3047 296.069 72.0287 297.223 61.9355 298.609C51.8423 299.995 46.1075 301.149 44.7312 302.073C43.3548 302.997 42.4373 304.613 41.9785 306.923C41.7491 308.078 41.5197 309.232 41.2903 310.387C44.7312 311.08 48.172 311.773 51.6129 312.465C58.4946 313.851 61.9355 315.006 61.9355 315.93C61.9355 316.392 61.9355 316.853 61.9355 317.315C62.853 317.315 63.7706 317.315 64.6882 317.315C66.5233 317.315 67.8996 318.008 68.8172 319.394C69.7348 320.779 71.1111 321.472 72.9462 321.472C74.7814 321.472 78.9104 323.551 85.3333 327.708C91.7563 331.865 95.6559 333.25 97.0323 331.865C98.4086 330.479 98.8674 328.862 98.4086 327.015C97.9498 325.167 95.6559 324.244 91.5269 324.244C87.3978 324.244 84.8746 323.551 83.957 322.165C83.0394 320.779 81.6631 320.087 79.828 320.087C77.9928 320.087 73.6344 318.239 66.7527 314.544C63.3118 312.696 59.871 310.849 56.4301 309.001C58.0358 308.309 59.6416 307.616 61.2473 306.923C64.4588 305.537 73.405 303.69 88.086 301.38C102.767 299.071 110.566 296.761 111.484 294.452C111.943 293.297 112.401 292.143 112.86 290.988C107.125 288.678 101.391 286.369 95.6559 284.06C84.1864 279.441 78.4516 276.669 78.4516 275.746C78.4516 275.284 78.4516 274.822 78.4516 274.36C77.5341 274.36 76.6165 274.36 75.6989 274.36C73.8638 274.36 71.5699 272.974 68.8172 270.203C66.0645 267.432 64 266.046 62.6237 266.046C61.2473 266.046 60.1004 266.739 59.1828 268.124ZM320 292.373C319.541 295.145 320.918 297.454 324.129 299.302C327.341 301.149 329.634 304.152 331.011 308.309C332.387 312.465 333.075 348.262 333.075 415.697C333.075 483.132 332.387 518.928 331.011 523.085C329.634 527.242 327.341 530.244 324.129 532.092C320.918 533.94 319.312 536.018 319.312 538.327C319.312 539.482 319.312 540.637 319.312 541.792C329.405 541.792 339.498 541.792 349.591 541.792C359.685 541.792 369.778 541.792 379.871 541.792C379.871 540.868 379.871 539.944 379.871 539.02C379.871 537.173 377.806 534.401 373.677 530.706C369.548 527.011 367.025 521.931 366.108 515.464C365.19 508.998 364.731 490.753 364.731 460.731C364.731 445.719 364.731 430.708 364.731 415.697C371.842 415.697 378.953 415.697 386.065 415.697C400.287 415.697 408.774 416.39 411.527 417.775C414.28 419.161 416.115 420.778 417.032 422.625C417.95 424.473 419.097 425.396 420.473 425.396C421.849 425.396 423.455 426.782 425.29 429.553C427.125 432.325 428.502 436.944 429.419 443.41C430.337 449.876 430.796 483.132 430.796 543.177C430.796 603.222 430.566 636.016 430.108 641.559C429.649 647.101 428.731 651.258 427.355 654.03C425.978 656.801 423.914 658.88 421.161 660.265C418.409 661.651 416.803 663.267 416.344 665.115C416.115 666.039 415.885 666.963 415.656 667.886C443.871 668.117 472.086 668.348 500.301 668.579C556.731 669.041 585.405 666.501 586.323 660.958C587.24 655.415 587.699 648.487 587.699 640.173C587.699 631.859 587.24 627.24 586.323 626.317C585.405 625.393 584.029 625.393 582.194 626.317C580.358 627.24 579.211 628.857 578.753 631.166C578.294 633.476 576 637.171 571.871 642.252C567.742 647.332 561.319 651.72 552.602 655.415C543.885 659.111 528.057 660.958 505.118 660.958C482.179 660.958 469.563 659.803 467.269 657.494C464.975 655.184 463.828 631.397 463.828 586.133C463.828 563.5 463.828 540.868 463.828 518.235C465.204 520.545 466.581 522.854 467.957 525.164C470.71 529.783 475.297 534.401 481.72 539.02C488.143 543.639 495.713 545.949 504.43 545.949C513.147 545.949 518.882 545.025 521.634 543.177C523.011 542.253 524.387 541.33 525.763 540.406C525.075 539.482 524.387 538.558 523.699 537.635C522.323 535.787 519.57 534.632 515.441 534.171C511.312 533.709 508.33 531.861 506.495 528.628C504.659 525.395 503.283 523.778 502.366 523.778C501.448 523.778 498.237 517.774 492.731 505.765C487.226 493.756 483.785 484.98 482.409 479.437C481.032 473.894 479.885 471.123 478.968 471.123C478.05 471.123 476.903 468.352 475.527 462.809C474.151 457.267 473.004 454.495 472.086 454.495C471.168 454.495 469.792 452.186 467.957 447.567C466.122 442.948 465.663 438.56 466.581 434.403C467.498 430.246 469.563 427.244 472.774 425.396C475.986 423.549 477.591 421.701 477.591 419.854C477.591 418.006 477.133 416.621 476.215 415.697C475.297 414.773 468.186 414.311 454.882 414.311C441.577 414.311 433.778 413.849 431.484 412.926C429.19 412.002 428.043 411.078 428.043 410.154C428.043 409.23 430.796 408.307 436.301 407.383C441.806 406.459 447.771 404.15 454.194 400.455C460.616 396.76 466.122 392.372 470.71 387.291C475.297 382.21 478.509 377.822 480.344 374.127C482.179 370.432 483.785 364.197 485.161 355.421C486.538 346.645 486.767 339.948 485.849 335.329C484.932 330.71 483.097 325.86 480.344 320.779C477.591 315.699 472.315 310.387 464.516 304.844C456.717 299.302 448.459 295.376 439.742 293.066C431.025 290.757 409.004 289.371 373.677 288.909C338.351 288.447 320.459 289.602 320 292.373ZM366.108 297.916C371.384 297.916 376.659 297.916 381.935 297.916C392.487 297.916 400.975 298.609 407.398 299.995C413.821 301.38 421.391 305.306 430.108 311.773C438.824 318.239 444.559 324.705 447.312 331.172C450.065 337.638 451.67 343.874 452.129 349.878C452.588 355.883 452.129 361.887 450.753 367.892C449.376 373.896 446.624 379.67 442.495 385.212C438.366 390.755 432.631 395.143 425.29 398.376C417.95 401.609 406.022 403.226 389.505 403.226C381.247 403.226 372.989 403.226 364.731 403.226C364.961 385.674 365.19 368.123 365.419 350.571C365.649 333.019 365.878 315.468 366.108 297.916ZM29.5914 355.421C23.6272 361.425 20.8746 368.816 21.3333 377.591C21.7921 386.367 23.6272 392.603 26.8387 396.298C30.0502 399.993 33.0323 402.533 35.7849 403.919C38.5376 405.304 43.8136 405.997 51.6129 405.997C59.4122 405.997 65.8351 403.688 70.8817 399.069C75.9283 394.45 78.9104 390.755 79.828 387.984C80.7455 385.212 80.7455 379.901 79.828 372.049C78.9104 364.197 75.6989 357.961 70.1935 353.342C64.6882 348.724 58.0358 346.414 50.2366 346.414C42.4373 346.414 35.5556 349.416 29.5914 355.421ZM53.6774 355.421C61.0179 355.883 66.9821 358.192 71.5699 362.349C76.1577 366.506 77.7634 371.587 76.3871 377.591C75.0108 383.596 72.4875 388.215 68.8172 391.448C65.147 394.681 58.9534 396.298 50.2366 396.298C41.5197 396.298 35.0968 394.681 30.9677 391.448C26.8387 388.215 25.0036 383.134 25.4624 376.206C25.9211 369.277 28.9032 363.966 34.4086 360.271C39.914 356.576 46.3369 354.959 53.6774 355.421ZM913.892 360.271C913.892 363.042 915.498 368.354 918.71 376.206C921.921 384.058 923.527 394.45 923.527 407.383C923.527 420.316 920.315 431.863 913.892 442.024C907.47 452.186 899.211 461.885 889.118 471.123C879.025 480.361 873.978 485.673 873.978 487.058C873.978 487.751 873.978 488.444 873.978 489.137C867.785 489.137 861.591 489.137 855.398 489.137C843.011 489.137 835.9 488.213 834.065 486.365C832.229 484.518 828.33 483.594 822.366 483.594C816.401 483.594 808.602 486.365 798.968 491.908C789.333 497.451 784.975 501.146 785.892 502.993C786.81 504.841 789.792 506.919 794.839 509.229C799.885 511.538 806.538 512.693 814.796 512.693C823.054 512.693 828.559 512 831.312 510.614C834.065 509.229 836.129 506.226 837.505 501.608C838.882 496.989 840.258 494.217 841.634 493.294C843.011 492.37 847.599 491.908 855.398 491.908C863.197 491.908 867.326 493.063 867.785 495.372C868.244 497.682 867.785 500.222 866.409 502.993C865.032 505.765 862.05 507.15 857.462 507.15C852.875 507.15 847.599 509.46 841.634 514.078C835.67 518.697 830.853 521.007 827.183 521.007C825.348 521.007 823.513 521.007 821.677 521.007C821.907 522.161 822.136 523.316 822.366 524.471C822.824 526.78 825.577 529.09 830.624 531.399C835.67 533.709 840.258 534.863 844.387 534.863C848.516 534.863 852.186 533.94 855.398 532.092C857.004 531.168 858.609 530.244 860.215 529.321C860.215 530.014 860.215 530.706 860.215 531.399C860.215 532.785 858.151 535.325 854.022 539.02C849.892 542.715 847.14 546.41 845.763 550.106C844.387 553.801 843.699 557.727 843.699 561.884C843.699 566.041 844.387 568.812 845.763 570.198C847.14 571.583 847.828 573.2 847.828 575.047C847.828 576.895 848.746 578.05 850.581 578.512C852.416 578.973 855.398 576.664 859.527 571.583C863.656 566.502 866.638 561.653 868.473 557.034C870.308 552.415 871.226 548.951 871.226 546.641C871.226 544.332 870.308 541.792 868.473 539.02C866.638 536.249 865.72 532.554 865.72 527.935C865.72 523.316 866.179 520.776 867.097 520.314C868.014 519.852 868.473 517.774 868.473 514.078C868.473 510.383 869.62 505.995 871.914 500.915C874.208 495.834 876.731 491.446 879.484 487.751C880.86 485.903 882.237 484.056 883.613 482.208C883.613 485.442 883.613 488.675 883.613 491.908C883.613 498.374 884.989 503.686 887.742 507.843C890.495 512 892.559 514.309 893.935 514.771C895.312 515.233 896.459 515.002 897.376 514.078C898.294 513.155 899.9 510.383 902.194 505.765C904.487 501.146 905.634 496.065 905.634 490.522C905.634 484.98 904.487 481.285 902.194 479.437C899.9 477.59 898.753 475.049 898.753 471.816C898.753 468.583 901.505 464.426 907.011 459.345C912.516 454.264 917.104 448.722 920.774 442.717C922.609 439.715 924.444 436.713 926.28 433.71C926.28 444.565 926.28 455.419 926.28 466.273C926.28 487.982 925.362 506.226 923.527 521.007C921.692 535.787 917.563 543.87 911.14 545.256C904.717 546.641 899.67 549.182 896 552.877C892.33 556.572 889.118 561.191 886.366 566.733C883.613 572.276 882.695 575.74 883.613 577.126C884.53 578.512 886.366 579.204 889.118 579.204C891.871 579.204 897.147 577.588 904.946 574.355C908.846 572.738 912.746 571.121 916.645 569.505C915.498 574.355 914.351 579.204 913.204 584.054C910.91 593.754 904.487 603.453 893.935 613.153C883.384 622.853 875.355 624.931 869.849 619.388C864.344 613.846 857.233 611.074 848.516 611.074C839.799 611.074 834.753 610.613 833.376 609.689C832 608.765 830.165 608.765 827.871 609.689C825.577 610.613 824.43 611.767 824.43 613.153C824.43 614.539 826.724 617.541 831.312 622.16C835.9 626.779 841.405 630.705 847.828 633.938C851.039 635.554 854.251 637.171 857.462 638.788C856.774 639.711 856.086 640.635 855.398 641.559C854.022 643.406 852.186 644.33 849.892 644.33C847.599 644.33 846.222 644.792 845.763 645.716C845.305 646.64 842.093 647.794 836.129 649.18C830.165 650.566 823.283 650.797 815.484 649.873C807.685 648.949 801.72 646.178 797.591 641.559C793.462 636.94 789.333 633.476 785.204 631.166C781.075 628.857 776.029 628.164 770.065 629.088C764.1 630.012 757.907 632.783 751.484 637.402C745.061 642.021 742.308 645.716 743.226 648.487C744.143 651.258 746.208 652.644 749.419 652.644C751.025 652.644 752.631 652.644 754.237 652.644C754.237 653.106 754.237 653.568 754.237 654.03C754.237 654.492 754.237 654.954 754.237 655.415C755.154 655.415 756.072 655.415 756.989 655.415C758.824 655.415 761.348 656.57 764.559 658.88C767.771 661.189 773.505 662.344 781.763 662.344C790.022 662.344 795.068 661.189 796.903 658.88C798.738 656.57 801.72 655.415 805.849 655.415C807.914 655.415 809.978 655.415 812.043 655.415C810.208 657.263 808.373 659.111 806.538 660.958C802.867 664.653 801.032 667.424 801.032 669.272C801.032 670.196 801.032 671.12 801.032 672.043C800.573 672.043 800.115 672.043 799.656 672.043C799.197 672.043 798.738 672.043 798.28 672.043C798.28 673.429 798.28 674.815 798.28 676.2C798.28 678.972 797.591 681.281 796.215 683.129C794.839 684.976 794.38 687.055 794.839 689.364C795.297 691.673 797.133 692.828 800.344 692.828C803.556 692.828 807.914 690.981 813.419 687.286C818.925 683.59 822.824 679.895 825.118 676.2C827.412 672.505 828.559 668.81 828.559 665.115C828.559 661.42 830.165 658.88 833.376 657.494C834.982 656.801 836.588 656.108 838.194 655.415C837.964 659.341 837.735 663.267 837.505 667.194C837.047 675.046 837.047 680.126 837.505 682.436C837.964 684.745 839.111 686.362 840.946 687.286C842.781 688.209 846.681 683.821 852.645 674.122C858.609 664.422 861.821 657.956 862.28 654.723C862.738 651.489 862.509 649.18 861.591 647.794C861.133 647.101 860.674 646.409 860.215 645.716C863.885 643.406 867.556 641.097 871.226 638.788C878.566 634.169 886.366 627.933 894.624 620.081C898.753 616.155 902.882 612.229 907.011 608.303C905.864 612.922 904.717 617.541 903.57 622.16C901.276 631.397 897.835 641.79 893.247 653.337C888.659 664.884 883.384 670.658 877.419 670.658C871.455 670.658 865.491 673.429 859.527 678.972C853.563 684.514 849.663 687.516 847.828 687.978C846.91 688.209 845.993 688.44 845.075 688.671C845.534 689.826 845.993 690.981 846.452 692.135C847.369 694.445 849.204 695.83 851.957 696.292C854.71 696.754 859.297 696.292 865.72 694.907C868.932 694.214 872.143 693.521 875.355 692.828C873.978 696.061 872.602 699.295 871.226 702.528C868.473 708.994 864.573 714.306 859.527 718.463C854.48 722.62 849.204 725.853 843.699 728.162C838.194 730.472 834.294 729.086 832 724.005C829.706 718.925 825.806 714.768 820.301 711.535C814.796 708.301 811.584 707.147 810.667 708.07C809.749 708.994 809.52 712.227 809.978 717.77C810.437 723.313 811.814 727.239 814.108 729.548C816.401 731.857 817.548 733.705 817.548 735.091C817.548 736.476 815.943 737.4 812.731 737.862C809.52 738.324 807.685 739.017 807.226 739.94C806.767 740.864 804.703 741.326 801.032 741.326C799.197 741.326 797.362 741.326 795.527 741.326C795.527 740.171 795.527 739.017 795.527 737.862C795.527 736.707 795.527 735.553 795.527 734.398C795.068 734.398 794.609 734.398 794.151 734.398C793.233 734.398 791.857 732.781 790.022 729.548C788.186 726.315 784.287 723.544 778.323 721.234C772.358 718.925 768.459 716.846 766.624 714.999C764.789 713.151 762.953 712.227 761.118 712.227C760.201 712.227 759.283 712.227 758.366 712.227C758.366 713.151 758.366 714.075 758.366 714.999C758.366 716.846 759.513 720.31 761.806 725.391C764.1 730.472 766.624 734.398 769.376 737.169C770.753 738.555 772.129 739.94 773.505 741.326C771.441 741.788 769.376 742.25 767.312 742.712C763.183 743.636 759.971 744.097 757.677 744.097C755.384 744.097 752.172 742.943 748.043 740.633C743.914 738.324 741.849 736.707 741.849 735.783C741.849 734.86 738.867 733.243 732.903 730.934C726.939 728.624 722.581 727.47 719.828 727.47C717.075 727.47 713.864 725.853 710.194 722.62C706.523 719.387 701.706 717.77 695.742 717.77C689.778 717.77 683.814 719.156 677.849 721.927C674.867 723.313 671.885 724.698 668.903 726.084C669.821 727.7 670.738 729.317 671.656 730.934C673.491 734.167 676.703 736.938 681.29 739.248C685.878 741.557 690.925 742.712 696.43 742.712C701.935 742.712 705.835 742.25 708.129 741.326C710.423 740.402 712.258 738.786 713.634 736.476C715.011 734.167 717.075 733.012 719.828 733.012C722.581 733.012 727.398 734.629 734.28 737.862C737.72 739.479 741.161 741.095 744.602 742.712C743.685 743.636 742.767 744.559 741.849 745.483C740.014 747.331 736.344 748.254 730.839 748.254C725.333 748.254 722.351 747.793 721.892 746.869C721.434 745.945 718.91 745.945 714.323 746.869C709.735 747.793 704.229 750.795 697.806 755.876C694.595 758.416 691.384 760.956 688.172 763.497C690.007 764.42 691.842 765.344 693.677 766.268C697.348 768.115 703.082 769.039 710.882 769.039C718.681 769.039 723.728 768.346 726.022 766.961C728.315 765.575 730.38 762.804 732.215 758.647C734.05 754.49 739.785 751.949 749.419 751.026C754.237 750.564 759.054 750.102 763.871 749.64C759.742 752.18 755.613 754.721 751.484 757.261C743.226 762.342 736.115 767.654 730.151 773.196C724.186 778.739 719.14 781.972 715.011 782.896C710.882 783.82 706.523 787.053 701.935 792.595C697.348 798.138 694.595 804.143 693.677 810.609C693.219 813.842 692.76 817.075 692.301 820.309C693.448 820.309 694.595 820.309 695.742 820.309C698.036 820.309 703.771 817.075 712.946 810.609C722.122 804.143 726.71 797.907 726.71 791.903C726.71 785.898 728.315 781.279 731.527 778.046C733.133 776.429 734.738 774.813 736.344 773.196C737.262 776.429 738.179 779.663 739.097 782.896C740.932 789.362 742.996 793.519 745.29 795.367C746.437 796.29 747.584 797.214 748.731 798.138C749.878 796.06 751.025 793.981 752.172 791.903C754.466 787.746 755.842 783.358 756.301 778.739C756.76 774.12 756.53 770.194 755.613 766.961C754.695 763.728 757.448 760.032 763.871 755.876C770.294 751.719 781.534 748.485 797.591 746.176C813.649 743.866 827.412 739.94 838.882 734.398C844.616 731.627 850.351 728.855 856.086 726.084C856.315 726.777 856.545 727.47 856.774 728.162C857.233 729.548 856.774 731.396 855.398 733.705C854.022 736.014 849.434 742.712 841.634 753.797C833.835 764.882 827.871 769.039 823.742 766.268C819.613 763.497 814.566 761.649 808.602 760.725C802.638 759.802 794.839 762.111 785.204 767.654C775.57 773.196 771.211 777.122 772.129 779.432C773.047 781.741 774.882 782.896 777.634 782.896C780.387 782.896 782.452 783.589 783.828 784.974C785.204 786.36 789.563 787.053 796.903 787.053C804.244 787.053 809.749 786.36 813.419 784.974C815.254 784.281 817.09 783.589 818.925 782.896C813.878 788.669 808.832 794.443 803.785 800.217C793.692 811.764 787.957 817.537 786.581 817.537C785.204 817.537 782.681 815.921 779.011 812.687C775.341 809.454 770.753 807.838 765.247 807.838C759.742 807.838 754.925 808.992 750.796 811.302C746.667 813.611 742.308 814.766 737.72 814.766C733.133 814.766 730.38 815.228 729.462 816.152C728.545 817.075 728.315 818.461 728.774 820.309C729.233 822.156 732.674 824.696 739.097 827.93C745.52 831.163 752.172 832.779 759.054 832.779C762.495 832.779 765.935 832.779 769.376 832.779C768.918 833.703 768.459 834.627 768 835.551C767.082 837.398 760.659 842.71 748.731 851.486C736.803 860.262 724.645 864.65 712.258 864.65C706.065 864.65 699.871 864.65 693.677 864.65C693.677 862.109 693.677 859.569 693.677 857.028C693.677 851.948 692.989 847.791 691.613 844.558C690.237 841.324 686.566 837.167 680.602 832.087C674.638 827.006 670.509 824.696 668.215 825.158C665.921 825.62 664.774 827.468 664.774 830.701C664.774 833.934 666.38 839.246 669.591 846.636C671.197 850.331 672.803 854.026 674.409 857.721C671.427 857.259 668.444 856.797 665.462 856.336C659.498 855.412 656.516 854.488 656.516 853.564C656.516 852.641 654.681 851.024 651.011 848.714C647.341 846.405 642.753 845.25 637.247 845.25C631.742 845.25 626.466 846.405 621.419 848.714C616.373 851.024 612.473 852.179 609.72 852.179C606.968 852.179 605.362 853.102 604.903 854.95C604.444 856.797 605.133 858.645 606.968 860.493C608.803 862.34 613.391 864.88 620.731 868.114C628.072 871.347 633.806 872.963 637.935 872.963C642.065 872.963 646.194 871.809 650.323 869.499C654.452 867.19 656.746 865.111 657.204 863.264C657.663 861.416 660.875 860.954 666.839 861.878C672.803 862.802 678.308 864.419 683.355 866.728C688.401 869.037 695.971 870.423 706.065 870.885C711.111 871.116 716.158 871.347 721.204 871.578C710.194 878.044 699.183 884.511 688.172 890.977C666.151 903.91 654.452 909.452 653.075 907.605C651.699 905.757 648.946 903.91 644.817 902.062C640.688 900.215 634.724 899.753 626.925 900.677C619.125 901.6 615.226 902.986 615.226 904.834C615.226 906.681 616.373 908.067 618.667 908.991C620.961 909.914 622.566 911.3 623.484 913.147C624.401 914.995 626.925 916.612 631.054 917.997C633.118 918.69 635.183 919.383 637.247 920.076C633.577 922.154 629.907 924.233 626.237 926.311C618.896 930.468 614.538 932.547 613.161 932.547C611.785 932.547 610.867 931.623 610.409 929.775C609.95 927.928 607.656 925.618 603.527 922.847C599.398 920.076 593.204 918.69 584.946 918.69C576.688 918.69 572.33 919.614 571.871 921.461C571.412 923.309 572.33 925.618 574.624 928.39C576.918 931.161 579.9 933.701 583.57 936.011C587.24 938.32 590.452 939.475 593.204 939.475C594.581 939.475 595.957 939.475 597.333 939.475C597.333 939.937 597.333 940.399 597.333 940.861C597.333 941.784 595.728 943.17 592.516 945.018C589.305 946.865 584.258 947.789 577.376 947.789C570.495 947.789 563.384 949.175 556.043 951.946C548.703 954.717 542.968 958.412 538.839 963.031C534.71 967.65 531.957 971.345 530.581 974.116C529.204 976.888 528.746 979.197 529.204 981.045C529.663 982.892 531.039 983.816 533.333 983.816C535.627 983.816 537.462 983.123 538.839 981.737C540.215 980.352 544.573 979.89 551.914 980.352C559.254 980.814 565.219 980.352 569.806 978.966C574.394 977.581 578.294 975.271 581.505 972.038C584.717 968.805 587.47 964.417 589.763 958.874C592.057 953.332 593.892 950.56 595.269 950.56C595.957 950.56 596.645 950.56 597.333 950.56C597.104 953.332 596.875 956.103 596.645 958.874C596.186 964.417 596.416 967.419 597.333 967.881C598.251 968.343 598.71 969.728 598.71 972.038C598.71 974.347 599.857 976.426 602.151 978.273C603.297 979.197 604.444 980.121 605.591 981.045C607.427 977.35 609.262 973.654 611.097 969.959C614.767 962.569 616.143 955.641 615.226 949.175C614.308 942.708 620.731 935.78 634.495 928.39C641.376 924.695 648.258 921 655.14 917.304C654.452 920.769 653.763 924.233 653.075 927.697C651.699 934.625 648.487 938.32 643.441 938.782C638.394 939.244 634.036 942.246 630.366 947.789C626.695 953.332 624.86 957.258 624.86 959.567C624.86 961.876 625.548 963.262 626.925 963.724C628.301 964.186 629.448 963.724 630.366 962.338C631.283 960.953 634.495 959.336 640 957.488C642.753 956.565 645.505 955.641 648.258 954.717C648.258 956.103 648.258 957.488 648.258 958.874C648.258 961.645 647.111 963.493 644.817 964.417C642.523 965.341 640.229 967.65 637.935 971.345C635.642 975.04 634.495 979.197 634.495 983.816C634.495 988.435 635.183 992.592 636.559 996.287C637.935 999.982 639.771 1002.29 642.065 1003.22C644.358 1004.14 647.799 1000.67 652.387 992.823C656.975 984.971 659.269 979.197 659.269 975.502C659.269 971.807 658.351 969.036 656.516 967.188C654.681 965.341 653.763 963.262 653.763 960.953C653.763 958.643 654.222 956.796 655.14 955.41C656.057 954.024 657.204 946.634 658.581 933.24C659.957 919.845 662.251 912.686 665.462 911.762C668.674 910.838 673.72 908.067 680.602 903.448C684.043 901.138 687.484 898.829 690.925 896.52C690.466 897.443 690.007 898.367 689.548 899.291C688.631 901.138 688.172 905.757 688.172 913.147C688.172 920.538 688.631 925.157 689.548 927.004C690.466 928.852 691.842 929.775 693.677 929.775C694.595 929.775 695.513 929.775 696.43 929.775C696.43 929.083 696.43 928.39 696.43 927.697C696.43 926.311 698.036 924.002 701.247 920.769C704.459 917.535 707.211 913.609 709.505 908.991C711.799 904.372 712.946 900.677 712.946 897.905C712.946 895.134 712.029 892.594 710.194 890.284C709.276 889.129 708.358 887.975 707.441 886.82C711.341 884.049 715.24 881.277 719.14 878.506C723.039 875.735 726.939 872.963 730.839 870.192C730.38 872.963 729.921 875.735 729.462 878.506C728.545 884.049 728.315 894.21 728.774 908.991C729.233 923.771 726.48 931.854 720.516 933.24C714.552 934.625 709.276 937.858 704.688 942.939C700.1 948.02 697.806 951.715 697.806 954.024C697.806 956.334 697.348 957.719 696.43 958.181C695.513 958.643 695.054 959.798 695.054 961.645C695.054 963.493 695.971 964.648 697.806 965.11C699.642 965.571 702.165 964.417 705.376 961.645C708.588 958.874 713.405 956.796 719.828 955.41C723.039 954.717 726.251 954.024 729.462 953.332C728.774 958.412 728.086 963.493 727.398 968.574C726.022 978.735 724.186 984.278 721.892 985.202C719.599 986.125 717.763 987.973 716.387 990.744C715.011 993.516 713.864 994.901 712.946 994.901C712.487 994.901 712.029 994.901 711.57 994.901C711.57 997.673 711.57 1000.44 711.57 1003.22C711.57 1008.76 712.029 1012.68 712.946 1014.99C713.864 1017.3 715.47 1018.92 717.763 1019.84C720.057 1020.77 723.269 1017.76 727.398 1010.84C731.527 1003.91 733.362 998.596 732.903 994.901C732.444 991.206 731.756 989.128 730.839 988.666C729.921 988.204 730.151 985.202 731.527 979.659C732.215 976.888 732.903 974.116 733.591 971.345C734.968 973.885 736.344 976.426 737.72 978.966C740.473 984.047 742.996 986.818 745.29 987.28C746.437 987.511 747.584 987.742 748.731 987.973C748.961 986.818 749.19 985.664 749.419 984.509C749.878 982.199 749.878 976.195 749.419 966.495C748.961 956.796 747.355 950.329 744.602 947.096C741.849 943.863 739.785 942.246 738.409 942.246C737.032 942.246 736.115 941.092 735.656 938.782C735.197 936.473 734.509 928.39 733.591 914.533C732.674 900.677 732.674 893.517 733.591 893.055C734.509 892.594 735.197 888.668 735.656 881.277C736.115 873.887 737.032 869.037 738.409 866.728C739.785 864.419 743.914 860.954 750.796 856.336C754.237 854.026 757.677 851.717 761.118 849.407C760.43 852.179 759.742 854.95 759.054 857.721C757.677 863.264 757.219 868.114 757.677 872.271C758.136 876.428 759.513 881.046 761.806 886.127C764.1 891.208 766.165 893.748 768 893.748C769.835 893.748 772.129 889.36 774.882 880.585C777.634 871.809 779.699 866.728 781.075 865.342C782.452 863.957 783.14 860.724 783.14 855.643C783.14 850.562 781.763 846.174 779.011 842.479C776.258 838.784 779.011 833.01 787.269 825.158C791.398 821.232 795.527 817.306 799.656 813.38C799.885 814.997 800.115 816.613 800.344 818.23C800.803 821.463 802.638 825.851 805.849 831.394C809.061 836.936 812.043 840.862 814.796 843.172C817.548 845.481 819.613 846.174 820.989 845.25C822.366 844.327 823.054 839.708 823.054 831.394C823.054 823.08 822.366 817.999 820.989 816.152C819.613 814.304 818.925 812.226 818.925 809.916C818.925 807.607 817.778 805.297 815.484 802.988C814.337 801.833 813.19 800.678 812.043 799.524C814.796 796.752 817.548 793.981 820.301 791.21C825.806 785.667 830.394 779.894 834.065 773.889C837.735 767.885 840.029 765.113 840.946 765.575C841.864 766.037 842.552 779.432 843.011 805.759C843.24 818.923 843.47 832.087 843.699 845.25C842.552 845.25 841.405 845.25 840.258 845.25C837.964 845.25 834.753 846.867 830.624 850.1C826.495 853.333 823.283 856.797 820.989 860.493C818.695 864.188 817.548 867.19 817.548 869.499C817.548 871.809 818.237 873.194 819.613 873.656C820.989 874.118 823.513 872.963 827.183 870.192C830.853 867.421 833.835 866.035 836.129 866.035C838.423 866.035 840.258 865.111 841.634 863.264C842.323 862.34 843.011 861.416 843.699 860.493C843.699 861.647 843.699 862.802 843.699 863.957C843.699 866.266 842.093 869.268 838.882 872.963C835.67 876.659 834.065 880.354 834.065 884.049C834.065 887.744 834.753 891.439 836.129 895.134C837.505 898.829 838.652 900.677 839.57 900.677C840.029 900.677 840.487 900.677 840.946 900.677C840.946 901.6 840.946 902.524 840.946 903.448C840.946 904.372 840.946 905.295 840.946 906.219C842.323 905.988 843.699 905.757 845.075 905.526C847.828 905.065 849.204 903.91 849.204 902.062C849.204 900.215 850.351 897.674 852.645 894.441C854.939 891.208 856.086 886.82 856.086 881.277C856.086 875.735 854.939 871.809 852.645 869.499C850.351 867.19 849.204 860.954 849.204 850.793C849.204 845.712 849.204 840.631 849.204 835.551C849.663 835.551 850.122 835.551 850.581 835.551C851.498 835.551 855.398 837.398 862.28 841.093C869.161 844.788 872.373 849.407 871.914 854.95C871.685 857.721 871.455 860.493 871.226 863.264C871.685 863.264 872.143 863.264 872.602 863.264C873.52 863.264 874.896 864.88 876.731 868.114C878.566 871.347 881.09 873.656 884.301 875.042C887.513 876.428 891.183 877.12 895.312 877.12C897.376 877.12 899.441 877.12 901.505 877.12C900.358 872.963 899.211 868.806 898.065 864.65C895.771 856.336 890.953 850.331 883.613 846.636C879.943 844.788 876.272 842.941 872.602 841.093C874.208 839.015 875.814 836.936 877.419 834.858C880.631 830.701 882.466 825.851 882.925 820.309C883.154 817.537 883.384 814.766 883.613 811.995C880.631 813.149 877.649 814.304 874.667 815.459C868.703 817.768 864.344 821.001 861.591 825.158C858.839 829.315 856.086 830.932 853.333 830.008C850.581 829.084 849.204 824.235 849.204 815.459C849.204 811.071 849.204 806.683 849.204 802.295C851.728 802.526 854.251 802.757 856.774 802.988C861.821 803.45 865.262 802.988 867.097 801.602C868.932 800.217 871.455 799.524 874.667 799.524C877.878 799.524 879.943 798.369 880.86 796.06C881.778 793.75 879.025 790.979 872.602 787.746C866.179 784.512 860.444 783.589 855.398 784.974C852.875 785.667 850.351 786.36 847.828 787.053C847.828 781.741 847.828 776.429 847.828 771.118C847.828 760.494 851.269 749.409 858.151 737.862C861.591 732.088 865.032 726.315 868.473 720.541C869.391 722.389 870.308 724.236 871.226 726.084C873.061 729.779 876.272 733.936 880.86 738.555C885.448 743.174 889.577 746.176 893.247 747.562C895.082 748.254 896.918 748.947 898.753 749.64C898.753 745.252 898.753 740.864 898.753 736.476C898.753 727.7 898.294 723.082 897.376 722.62C896.459 722.158 896 720.772 896 718.463C896 716.153 895.312 713.844 893.935 711.535C892.559 709.225 889.806 707.147 885.677 705.299C881.548 703.452 879.484 701.604 879.484 699.756C879.484 697.909 881.09 694.445 884.301 689.364C887.513 684.283 889.577 679.433 890.495 674.815C891.412 670.196 892.559 667.424 893.935 666.501C895.312 665.577 898.294 657.725 902.882 642.945C905.176 635.554 907.47 628.164 909.763 620.774C911.599 623.776 913.434 626.779 915.269 629.781C918.939 635.785 918.48 641.328 913.892 646.409C909.305 651.489 907.011 658.649 907.011 667.886C907.011 677.124 907.47 682.436 908.387 683.821C909.305 685.207 910.681 685.9 912.516 685.9C914.351 685.9 917.563 682.436 922.151 675.507C926.738 668.579 929.262 663.96 929.72 661.651C929.95 660.496 930.179 659.341 930.409 658.187C930.409 664.191 930.409 670.196 930.409 676.2C930.409 688.209 928.115 696.523 923.527 701.142C918.939 705.761 916.645 710.842 916.645 716.384C916.645 721.927 918.022 729.086 920.774 737.862C923.527 746.638 925.821 751.026 927.656 751.026C929.491 751.026 931.326 750.102 933.161 748.254C934.996 746.407 937.52 742.25 940.731 735.783C943.943 729.317 945.548 721.927 945.548 713.613C945.548 709.456 945.548 705.299 945.548 701.142C948.53 704.837 951.513 708.532 954.495 712.227C960.459 719.618 964.129 723.774 965.505 724.698C966.882 725.622 968.717 725.622 971.011 724.698C973.305 723.774 973.534 717.077 971.699 704.606C969.864 692.135 967.799 684.514 965.505 681.743C963.211 678.972 959.312 676.662 953.806 674.815C948.301 672.967 945.548 671.35 945.548 669.965C945.548 668.579 944.401 666.732 942.108 664.422C939.814 662.113 935.914 655.415 930.409 644.33C924.903 633.245 920.545 625.624 917.333 621.467C914.122 617.31 913.204 611.998 914.581 605.532C915.269 602.299 915.957 599.065 916.645 595.832C919.168 598.604 921.692 601.375 924.215 604.146C929.262 609.689 934.767 613.153 940.731 614.539C943.713 615.231 946.695 615.924 949.677 616.617C947.842 611.767 946.007 606.917 944.172 602.068C940.502 592.368 937.29 586.364 934.538 584.054C931.785 581.745 928.573 580.59 924.903 580.59C923.068 580.59 921.233 580.59 919.398 580.59C921.004 572.507 922.609 564.424 924.215 556.341C925.821 548.258 927.427 540.175 929.032 532.092C930.409 533.709 931.785 535.325 933.161 536.942C935.914 540.175 939.584 542.946 944.172 545.256C948.76 547.565 951.742 548.72 953.118 548.72C954.495 548.72 955.642 548.027 956.559 546.641C957.477 545.256 957.477 541.33 956.559 534.863C955.642 528.397 954.036 523.316 951.742 519.621C949.448 515.926 945.548 513.386 940.043 512C934.538 510.614 931.785 502.069 931.785 486.365C931.785 478.513 931.785 470.661 931.785 462.809C936.602 469.045 941.419 475.28 946.237 481.516C955.871 493.986 962.294 503.686 965.505 510.614C968.717 517.543 971.24 525.395 973.075 534.171C974.91 542.946 974.91 548.027 973.075 549.413C971.24 550.798 969.864 554.032 968.946 559.112C968.029 564.193 968.487 569.043 970.323 573.662C972.158 578.281 975.14 582.668 979.269 586.825C983.398 590.982 986.38 593.292 988.215 593.754C990.05 594.216 991.656 593.985 993.032 593.061C994.409 592.137 995.097 586.594 995.097 576.433C995.097 566.272 994.409 559.805 993.032 557.034C992.344 555.648 991.656 554.263 990.968 552.877C993.262 553.339 995.556 553.801 997.849 554.263C1002.44 555.186 1005.42 556.341 1006.8 557.727C1008.17 559.112 1009.55 559.574 1010.92 559.112C1012.3 558.65 1013.22 558.881 1013.68 559.805C1014.14 560.729 1015.51 560.96 1017.81 560.498C1018.95 560.267 1020.1 560.036 1021.25 559.805C1020.79 557.496 1020.33 555.186 1019.87 552.877C1018.95 548.258 1016.2 542.253 1011.61 534.863C1007.03 527.473 1003.13 523.085 999.914 521.7C996.703 520.314 992.803 519.852 988.215 520.314C983.627 520.776 979.269 518.466 975.14 513.386C971.011 508.305 968.946 505.303 968.946 504.379C968.946 503.917 968.946 503.455 968.946 502.993C970.323 503.455 971.699 503.917 973.075 504.379C975.828 505.303 981.104 505.303 988.903 504.379C996.703 503.455 1001.29 502.762 1002.67 502.3C1004.04 501.839 1004.73 500.453 1004.73 498.143C1004.73 495.834 1003.35 494.448 1000.6 493.986C997.849 493.525 993.95 491.215 988.903 487.058C983.857 482.901 979.039 480.823 974.452 480.823C969.864 480.823 966.423 481.977 964.129 484.287C961.835 486.596 959.771 487.751 957.935 487.751C956.1 487.751 952.43 483.825 946.925 475.973C941.419 468.121 937.52 461.193 935.226 455.188C932.932 449.184 931.785 444.796 931.785 442.024C931.785 440.639 931.785 439.253 931.785 437.867C935.914 440.177 940.043 442.486 944.172 444.796C952.43 449.415 957.477 451.493 959.312 451.031C961.147 450.569 962.065 449.184 962.065 446.874C962.065 444.565 959.312 439.715 953.806 432.325C948.301 424.935 943.254 421.009 938.667 420.547C934.079 420.085 931.326 414.08 930.409 402.533C929.491 390.986 927.427 380.594 924.215 371.356C921.004 362.118 918.48 357.268 916.645 356.806C915.728 356.576 914.81 356.345 913.892 356.114C913.892 357.499 913.892 358.885 913.892 360.271ZM935.914 425.396C937.061 425.396 938.208 425.396 939.355 425.396C941.649 425.396 943.484 426.089 944.86 427.475C946.237 428.861 948.072 431.863 950.366 436.482C951.513 438.791 952.659 441.101 953.806 443.41C951.513 442.255 949.219 441.101 946.925 439.946C942.337 437.636 940.272 435.096 940.731 432.325C941.19 429.553 940.502 427.706 938.667 426.782C937.749 426.32 936.832 425.858 935.914 425.396ZM9.63441 428.168C8.71685 429.092 8.25806 434.634 8.25806 444.796C8.25806 454.957 7.79928 460.731 6.88172 462.116C5.96416 463.502 6.19355 465.581 7.56989 468.352C8.94624 471.123 10.552 472.278 12.3871 471.816C14.2222 471.354 14.681 468.121 13.7634 462.116C13.3047 459.114 12.8459 456.112 12.3871 453.11C21.5627 454.033 30.7384 454.957 39.914 455.881C49.0896 456.805 58.2652 457.728 67.4409 458.652C67.4409 456.805 67.4409 454.957 67.4409 453.11C67.4409 451.262 67.4409 449.415 67.4409 447.567C62.1649 447.567 56.8889 447.567 51.6129 447.567C41.0609 447.567 31.6559 446.874 23.3978 445.488C19.2688 444.796 15.1398 444.103 11.0108 443.41C11.2401 442.024 11.4695 440.639 11.6989 439.253C12.1577 436.482 13.5341 434.403 15.828 433.018C18.1219 431.632 19.0394 430.246 18.5806 428.861C18.1219 427.475 16.7455 426.782 14.4516 426.782C12.1577 426.782 10.552 427.244 9.63441 428.168ZM889.118 475.28C889.577 475.511 890.036 475.742 890.495 475.973C890.953 476.204 891.412 476.435 891.871 476.666C891.412 476.435 890.953 476.204 890.495 475.973C890.036 475.742 889.577 475.511 889.118 475.28ZM898.753 482.208C898.982 484.749 899.211 487.289 899.441 489.829C899.9 494.91 899.441 498.836 898.065 501.608C896.688 504.379 895.312 505.765 893.935 505.765C892.559 505.765 891.412 502.3 890.495 495.372C890.036 491.908 889.577 488.444 889.118 484.98C889.577 484.98 890.036 484.98 890.495 484.98C890.953 484.98 891.412 484.98 891.871 484.98C891.642 486.134 891.412 487.289 891.183 488.444C890.724 490.753 890.953 492.37 891.871 493.294C892.33 493.756 892.789 494.217 893.247 494.679C894.165 492.601 895.082 490.522 896 488.444C896.918 486.365 897.835 484.287 898.753 482.208ZM974.452 486.365C978.122 486.365 982.251 488.213 986.839 491.908C989.133 493.756 991.427 495.603 993.72 497.451C991.197 497.912 988.674 498.374 986.151 498.836C981.104 499.76 976.746 499.76 973.075 498.836C971.24 498.374 969.405 497.912 967.57 497.451C969.405 496.989 971.24 496.527 973.075 496.065C974.91 495.603 976.746 495.141 978.581 494.679C978.351 493.986 978.122 493.294 977.892 492.601C977.434 491.215 975.14 490.522 971.011 490.522C968.946 490.522 966.882 490.522 964.817 490.522C965.505 489.829 966.194 489.137 966.882 488.444C968.258 487.058 970.781 486.365 974.452 486.365ZM822.366 489.137C824.889 489.137 827.412 489.137 829.935 489.137C829.706 489.829 829.477 490.522 829.247 491.215C828.789 492.601 825.806 493.986 820.301 495.372C817.548 496.065 814.796 496.758 812.043 497.451C812.272 498.374 812.502 499.298 812.731 500.222C813.19 502.069 814.108 502.993 815.484 502.993C816.86 502.993 818.237 502.3 819.613 500.915C820.989 499.529 823.742 498.374 827.871 497.451C829.935 496.989 832 496.527 834.065 496.065C834.065 496.758 834.065 497.451 834.065 498.143C834.065 499.529 832.918 501.377 830.624 503.686C828.33 505.995 823.283 507.15 815.484 507.15C807.685 507.15 801.95 506.457 798.28 505.072C796.444 504.379 794.609 503.686 792.774 502.993C796.444 500.684 800.115 498.374 803.785 496.065C811.125 491.446 817.319 489.137 822.366 489.137ZM6.19355 498.836C6.65233 501.608 8.25806 502.993 11.0108 502.993C13.7634 502.993 18.3513 504.61 24.7742 507.843C27.9857 509.46 31.1971 511.076 34.4086 512.693C31.4265 515.002 28.4444 517.312 25.4624 519.621C19.4982 524.24 15.1398 526.78 12.3871 527.242C9.63441 527.704 8.02867 529.552 7.56989 532.785C7.11111 536.018 7.3405 538.097 8.25806 539.02C9.17563 539.944 14.681 536.942 24.7742 530.014C34.8674 523.085 44.5018 519.39 53.6774 518.928C58.2652 518.697 62.853 518.466 67.4409 518.235C67.2115 516.619 66.9821 515.002 66.7527 513.386C66.2939 510.152 61.0179 508.998 50.9247 509.922C45.8781 510.383 40.8315 510.845 35.7849 511.307C35.7849 510.845 35.7849 510.383 35.7849 509.922C35.7849 508.998 32.5735 507.381 26.1505 505.072C19.7276 502.762 15.5986 500.453 13.7634 498.143C11.9283 495.834 10.0932 494.679 8.25806 494.679C7.3405 494.679 6.42294 494.679 5.50538 494.679C5.73477 496.065 5.96416 497.451 6.19355 498.836ZM856.774 512.693C858.38 512.693 859.986 512.693 861.591 512.693C861.591 513.386 861.591 514.078 861.591 514.771C861.591 516.157 859.756 517.081 856.086 517.543C854.251 517.774 852.416 518.005 850.581 518.235C850.81 518.928 851.039 519.621 851.269 520.314C851.728 521.7 853.104 522.623 855.398 523.085C856.545 523.316 857.692 523.547 858.839 523.778C856.774 524.933 854.71 526.088 852.645 527.242C848.516 529.552 844.387 530.014 840.258 528.628C838.194 527.935 836.129 527.242 834.065 526.549C834.294 525.857 834.523 525.164 834.753 524.471C835.211 523.085 836.358 522.392 838.194 522.392C840.029 522.392 842.781 520.776 846.452 517.543C850.122 514.309 853.563 512.693 856.774 512.693ZM935.914 515.464C936.832 515.464 937.749 515.464 938.667 515.464C940.502 515.464 942.337 516.388 944.172 518.235C946.007 520.083 947.613 524.24 948.989 530.706C949.677 533.94 950.366 537.173 951.054 540.406C949.448 539.944 947.842 539.482 946.237 539.02C943.025 538.097 939.814 535.787 936.602 532.092C933.391 528.397 931.785 525.857 931.785 524.471C931.785 523.778 931.785 523.085 931.785 522.392C932.932 522.392 934.079 522.392 935.226 522.392C936.373 522.392 937.52 522.392 938.667 522.392C938.208 521.238 937.749 520.083 937.29 518.928C936.832 517.774 936.373 516.619 935.914 515.464ZM975.828 522.392C976.516 522.854 977.204 523.316 977.892 523.778C979.269 524.702 979.957 528.166 979.957 534.171C979.957 537.173 979.957 540.175 979.957 543.177C979.269 539.713 978.581 536.249 977.892 532.785C977.204 529.321 976.516 525.857 975.828 522.392ZM989.591 525.164C991.885 525.857 994.179 526.549 996.473 527.242C1001.06 528.628 1004.5 531.168 1006.8 534.863C1009.09 538.558 1010.7 542.715 1011.61 547.334C1012.07 549.644 1012.53 551.953 1012.99 554.263C1008.86 552.415 1004.73 550.567 1000.6 548.72C992.344 545.025 987.756 541.099 986.839 536.942C986.38 534.863 985.921 532.785 985.462 530.706C987.068 532.554 988.674 534.401 990.28 536.249C993.491 539.944 996.014 541.792 997.849 541.792C998.767 541.792 999.685 541.792 1000.6 541.792C998.767 539.02 996.932 536.249 995.097 533.478C993.262 530.706 991.427 527.935 989.591 525.164ZM856.086 541.792C856.315 544.101 856.545 546.41 856.774 548.72C857.004 551.029 857.233 553.339 857.462 555.648C858.38 555.417 859.297 555.186 860.215 554.955C861.133 554.724 862.05 554.493 862.968 554.263C862.738 553.57 862.509 552.877 862.28 552.184C861.821 550.798 862.05 549.875 862.968 549.413C863.427 549.182 863.885 548.951 864.344 548.72C864.344 549.875 864.344 551.029 864.344 552.184C864.344 554.493 862.28 558.189 858.151 563.269C856.086 565.81 854.022 568.35 851.957 570.89C851.498 570.429 851.039 569.967 850.581 569.505C849.663 568.581 849.204 565.81 849.204 561.191C849.204 556.572 850.351 552.184 852.645 548.027C853.792 545.949 854.939 543.87 856.086 541.792ZM981.333 541.792C982.251 542.715 983.168 543.639 984.086 544.563C985.004 545.487 985.921 546.41 986.839 547.334C985.921 547.334 985.004 547.334 984.086 547.334C983.168 547.334 982.251 547.334 981.333 547.334C981.333 546.41 981.333 545.487 981.333 544.563C981.333 543.639 981.333 542.715 981.333 541.792ZM914.581 548.72C916.186 548.72 917.792 548.72 919.398 548.72C919.398 549.182 919.398 549.644 919.398 550.106C919.398 551.029 917.104 552.646 912.516 554.955C907.928 557.265 905.634 559.112 905.634 560.498C905.634 561.191 905.634 561.884 905.634 562.576C907.47 562.115 909.305 561.653 911.14 561.191C912.975 560.729 914.81 560.267 916.645 559.805C916.645 560.267 916.645 560.729 916.645 561.191C916.645 562.115 914.581 563.962 910.452 566.733C906.323 569.505 901.735 571.352 896.688 572.276C894.165 572.738 891.642 573.2 889.118 573.662C890.265 571.352 891.412 569.043 892.559 566.733C894.853 562.115 898.294 557.958 902.882 554.263C907.47 550.567 911.369 548.72 914.581 548.72ZM988.215 548.72C988.444 549.182 988.674 549.644 988.903 550.106C989.133 550.567 989.362 551.029 989.591 551.491C989.362 551.029 989.133 550.567 988.903 550.106C988.674 549.644 988.444 549.182 988.215 548.72ZM58.4946 557.034C53.448 561.653 50.2366 563.962 48.8602 563.962C48.172 563.962 47.4839 563.962 46.7957 563.962C46.7957 564.424 46.7957 564.886 46.7957 565.348C46.7957 566.272 41.7491 569.736 31.6559 575.74C21.5627 581.745 16.2867 585.671 15.828 587.518C15.3692 589.366 15.5986 590.751 16.5161 591.675C17.4337 592.599 20.1864 592.83 24.7742 592.368C29.362 591.906 32.3441 592.368 33.7204 593.754C35.0968 595.139 38.3082 595.832 43.3548 595.832C48.4014 595.832 51.1541 596.294 51.6129 597.218C52.0717 598.142 54.8244 598.604 59.871 598.604C64.9176 598.604 69.276 599.527 72.9462 601.375C74.7814 602.299 76.6165 603.222 78.4516 604.146C78.4516 602.53 78.4516 600.913 78.4516 599.296C78.4516 597.68 78.4516 596.063 78.4516 594.447C74.552 594.447 70.6523 594.447 66.7527 594.447C62.853 594.447 58.9534 594.447 55.0538 594.447C55.0538 592.83 55.0538 591.213 55.0538 589.597C55.0538 586.364 54.595 584.516 53.6774 584.054C52.7599 583.592 52.3011 581.283 52.3011 577.126C52.3011 572.969 54.1362 569.505 57.8065 566.733C61.4767 563.962 64.6882 562.346 67.4409 561.884C68.8172 561.653 70.1935 561.422 71.5699 561.191C70.6523 559.343 69.7348 557.496 68.8172 555.648C67.8996 553.801 66.9821 551.953 66.0645 550.106C63.5412 552.415 61.0179 554.724 58.4946 557.034ZM981.333 552.877C982.48 553.801 983.627 554.724 984.774 555.648C987.068 557.496 988.215 562.807 988.215 571.583C988.215 575.971 988.215 580.359 988.215 584.747C986.609 583.823 985.004 582.899 983.398 581.976C980.186 580.128 977.892 577.588 976.516 574.355C975.14 571.121 974.681 566.964 975.14 561.884C975.369 559.343 975.599 556.803 975.828 554.263C976.516 556.341 977.204 558.419 977.892 560.498C979.269 564.655 980.645 566.964 982.022 567.426C983.398 567.888 984.315 567.657 984.774 566.733C985.233 565.81 984.774 563.269 983.398 559.112C982.71 557.034 982.022 554.955 981.333 552.877ZM46.1075 576.433C47.4839 576.433 48.6308 578.973 49.5484 584.054C50.0072 586.594 50.4659 589.135 50.9247 591.675C48.172 591.675 45.4194 591.675 42.6667 591.675C37.1613 591.675 33.491 590.982 31.6559 589.597C30.7384 588.904 29.8208 588.211 28.9032 587.518C31.4265 585.671 33.9498 583.823 36.4731 581.976C41.5197 578.281 44.7312 576.433 46.1075 576.433ZM923.527 586.133C925.133 586.594 926.738 587.056 928.344 587.518C931.556 588.442 934.308 592.137 936.602 598.604C937.749 601.837 938.896 605.07 940.043 608.303C937.749 607.148 935.455 605.994 933.161 604.839C928.573 602.53 926.05 600.451 925.591 598.604C925.362 597.68 925.133 596.756 924.903 595.832C925.821 596.294 926.738 596.756 927.656 597.218C928.573 597.68 929.491 598.142 930.409 598.604C930.409 597.68 930.409 596.756 930.409 595.832C930.409 593.985 929.262 591.906 926.968 589.597C925.821 588.442 924.674 587.287 923.527 586.133ZM922.151 593.061C922.38 593.523 922.609 593.985 922.839 594.447C923.068 594.908 923.297 595.37 923.527 595.832C923.297 595.37 923.068 594.908 922.839 594.447C922.609 593.985 922.38 593.523 922.151 593.061ZM848.516 615.924C856.315 616.386 861.362 617.31 863.656 618.696C865.95 620.081 867.556 622.391 868.473 625.624C868.932 627.24 869.391 628.857 869.849 630.474C868.473 629.55 867.097 628.626 865.72 627.702C862.968 625.855 860.444 624.931 858.151 624.931C857.004 624.931 855.857 624.931 854.71 624.931C854.71 625.624 854.71 626.317 854.71 627.009C854.71 628.395 856.315 630.012 859.527 631.859C861.133 632.783 862.738 633.707 864.344 634.631C861.821 633.938 859.297 633.245 856.774 632.552C851.728 631.166 849.204 630.012 849.204 629.088C849.204 628.626 849.204 628.164 849.204 627.702C848.516 627.702 847.828 627.702 847.14 627.702C846.452 627.702 845.763 627.702 845.075 627.702C845.075 627.24 845.075 626.779 845.075 626.317C845.075 625.393 843.24 623.776 839.57 621.467C837.735 620.312 835.9 619.157 834.065 618.003C834.523 617.541 834.982 617.079 835.441 616.617C836.358 615.693 840.717 615.462 848.516 615.924ZM77.0753 620.774C76.1577 622.622 77.7634 625.162 81.8925 628.395C86.0215 631.628 88.5448 635.323 89.4624 639.48C90.3799 643.637 84.6452 648.256 72.2581 653.337C59.871 658.418 51.1541 661.189 46.1075 661.651C41.0609 662.113 38.5376 663.498 38.5376 665.808C38.5376 668.117 39.2258 670.196 40.6022 672.043C41.9785 673.891 47.9427 672.274 58.4946 667.194C69.0466 662.113 78.2222 658.88 86.0215 657.494C89.9211 656.801 93.8208 656.108 97.7204 655.415C95.6559 649.18 93.5914 642.945 91.5269 636.709C87.3978 624.238 84.1864 618.003 81.8925 618.003C79.5986 618.003 77.9928 618.926 77.0753 620.774ZM776.946 634.631C781.993 635.554 786.122 637.864 789.333 641.559C790.939 643.406 792.545 645.254 794.151 647.101C789.333 646.178 784.516 645.254 779.699 644.33C770.065 642.483 764.789 641.79 763.871 642.252C762.953 642.714 762.724 643.868 763.183 645.716C763.642 647.563 769.147 649.411 779.699 651.258C784.975 652.182 790.251 653.106 795.527 654.03C794.839 654.723 794.151 655.415 793.462 656.108C792.086 657.494 788.416 658.187 782.452 658.187C776.487 658.187 771.9 657.032 768.688 654.723C765.477 652.413 761.118 650.566 755.613 649.18C752.86 648.487 750.108 647.794 747.355 647.101C751.025 644.792 754.695 642.483 758.366 640.173C765.706 635.554 771.9 633.707 776.946 634.631ZM855.398 649.873C856.086 649.873 856.774 649.873 857.462 649.873C857.004 651.951 856.545 654.03 856.086 656.108C855.168 660.265 852.645 664.884 848.516 669.965C846.452 672.505 844.387 675.046 842.323 677.586C842.323 674.584 842.323 671.581 842.323 668.579C842.323 665.577 842.323 662.575 842.323 659.572C843.47 660.034 844.616 660.496 845.763 660.958C846.91 661.42 848.057 661.882 849.204 662.344C849.892 660.265 850.581 658.187 851.269 656.108C852.645 651.951 854.022 649.873 855.398 649.873ZM918.022 649.873C918.48 649.873 918.939 649.873 919.398 649.873C919.398 651.258 919.398 652.644 919.398 654.03C919.398 655.415 919.398 656.801 919.398 658.187C920.086 657.725 920.774 657.263 921.462 656.801C922.151 656.339 922.839 655.877 923.527 655.415C923.756 655.877 923.986 656.339 924.215 656.801C924.674 657.725 922.839 661.42 918.71 667.886C916.645 671.12 914.581 674.353 912.516 677.586C912.516 673.891 912.516 670.196 912.516 666.501C912.516 659.111 913.204 654.492 914.581 652.644C915.957 650.797 917.104 649.873 918.022 649.873ZM838.194 652.644C838.652 652.875 839.111 653.106 839.57 653.337C840.029 653.568 840.487 653.799 840.946 654.03C840.487 653.799 840.029 653.568 839.57 653.337C839.111 653.106 838.652 652.875 838.194 652.644ZM846.452 652.644C846.681 653.337 846.91 654.03 847.14 654.723C847.369 655.415 847.599 656.108 847.828 656.801C847.369 656.801 846.91 656.801 846.452 656.801C845.993 656.801 845.534 656.801 845.075 656.801C845.305 656.108 845.534 655.415 845.763 654.723C845.993 654.03 846.222 653.337 846.452 652.644ZM816.172 660.958C816.401 661.42 816.631 661.882 816.86 662.344C817.319 663.267 815.943 665.115 812.731 667.886C809.52 670.658 807.914 673.198 807.914 675.507C807.914 676.662 807.914 677.817 807.914 678.972C808.602 678.972 809.29 678.972 809.978 678.972C811.355 678.972 813.19 677.124 815.484 673.429C817.778 669.734 819.384 667.886 820.301 667.886C820.76 667.886 821.219 667.886 821.677 667.886C821.448 669.041 821.219 670.196 820.989 671.35C820.53 673.66 817.319 676.662 811.355 680.357C808.373 682.205 805.391 684.052 802.409 685.9C802.409 684.283 802.409 682.667 802.409 681.05C802.409 677.817 803.326 674.584 805.161 671.35C806.996 668.117 809.29 665.577 812.043 663.729C813.419 662.806 814.796 661.882 816.172 660.958ZM938.667 669.272C939.584 670.427 940.502 671.581 941.419 672.736C943.254 675.046 943.484 678.279 942.108 682.436C940.731 686.593 940.731 690.75 942.108 694.907C942.796 696.985 943.484 699.064 944.172 701.142C943.025 699.987 941.878 698.833 940.731 697.678C938.437 695.369 937.52 690.057 937.978 681.743C938.208 677.586 938.437 673.429 938.667 669.272ZM874.667 676.2C876.272 676.2 877.878 676.2 879.484 676.2C878.108 676.431 876.731 676.662 875.355 676.893C872.602 677.355 870.767 678.741 869.849 681.05C868.932 683.359 868.932 684.976 869.849 685.9C870.308 686.362 870.767 686.824 871.226 687.286C868.473 687.978 865.72 688.671 862.968 689.364C860.215 690.057 857.462 690.75 854.71 691.442C857.233 688.902 859.756 686.362 862.28 683.821C867.326 678.741 871.455 676.2 874.667 676.2ZM952.43 678.972C954.265 680.357 956.1 681.743 957.935 683.129C961.606 685.9 964.129 692.366 965.505 702.528C966.194 707.608 966.882 712.689 967.57 717.77C966.652 717.308 965.735 716.846 964.817 716.384C962.982 715.461 962.523 713.613 963.441 710.842C964.358 708.07 962.753 702.066 958.624 692.828C956.559 688.209 954.495 683.59 952.43 678.972ZM948.301 685.9C948.76 687.055 949.219 688.209 949.677 689.364C950.595 691.673 951.513 692.828 952.43 692.828C953.348 692.828 954.495 695.369 955.871 700.449C956.559 702.99 957.247 705.53 957.935 708.07C957.477 708.07 957.018 708.07 956.559 708.07C955.642 708.07 954.036 706.223 951.742 702.528C949.448 698.833 948.301 695.138 948.301 691.442C948.301 689.595 948.301 687.747 948.301 685.9ZM875.355 690.057C875.584 690.519 875.814 690.981 876.043 691.442C876.272 691.904 876.502 692.366 876.731 692.828C876.502 692.366 876.272 691.904 876.043 691.442C875.814 690.981 875.584 690.519 875.355 690.057ZM929.032 699.756C929.491 704.144 929.95 708.532 930.409 712.92C930.867 717.308 931.326 721.696 931.785 726.084C932.473 725.391 933.161 724.698 933.849 724.005C935.226 722.62 935.914 718.694 935.914 712.227C935.914 708.994 935.914 705.761 935.914 702.528C936.602 702.99 937.29 703.452 937.978 703.913C939.355 704.837 940.043 708.532 940.043 714.999C940.043 721.465 938.437 727.931 935.226 734.398C933.62 737.631 932.014 740.864 930.409 744.097C929.032 741.095 927.656 738.093 926.28 735.091C923.527 729.086 922.151 723.313 922.151 717.77C922.151 712.227 923.297 707.839 925.591 704.606C926.738 702.99 927.885 701.373 929.032 699.756ZM116.301 709.456C115.613 710.38 114.925 711.304 114.237 712.227C116.989 713.844 119.742 715.461 122.495 717.077C128 720.31 130.753 722.62 130.753 724.005C130.753 725.391 131.441 726.546 132.817 727.47C134.194 728.393 134.423 730.241 133.505 733.012C132.588 735.783 129.147 738.786 123.183 742.019C117.219 745.252 112.86 744.79 110.108 740.633C107.355 736.476 105.749 732.781 105.29 729.548C104.832 726.315 104.143 724.698 103.226 724.698C102.308 724.698 100.932 725.391 99.0968 726.777C97.2616 728.162 96.3441 729.548 96.3441 730.934C96.3441 732.319 98.638 735.091 103.226 739.248C107.814 743.405 110.108 746.407 110.108 748.254C110.108 750.102 107.814 752.642 103.226 755.876C98.638 759.109 95.4265 760.725 93.5914 760.725C91.7563 760.725 89.9211 759.34 88.086 756.568C86.2509 753.797 84.8746 751.257 83.957 748.947C83.0394 746.638 82.81 743.636 83.2688 739.94C83.4982 738.093 83.7276 736.245 83.957 734.398C82.3513 735.322 80.7455 736.245 79.1398 737.169C77.5341 738.093 75.9283 739.017 74.3226 739.94C77.7634 745.252 81.2043 750.564 84.6452 755.876C88.086 761.187 91.5269 766.499 94.9677 771.811C101.62 766.961 108.272 762.111 114.925 757.261C128.229 747.562 136.487 742.481 139.699 742.019C141.305 741.788 142.91 741.557 144.516 741.326C144.057 739.71 143.599 738.093 143.14 736.476C142.222 733.243 141.075 731.396 139.699 730.934C138.323 730.472 135.57 726.315 131.441 718.463C127.312 710.611 124.1 706.685 121.806 706.685C119.513 706.685 117.677 707.608 116.301 709.456ZM879.484 709.456C880.401 709.456 881.319 709.456 882.237 709.456C884.072 709.456 885.907 710.611 887.742 712.92C889.577 715.23 890.495 717.539 890.495 719.848C890.495 722.158 891.183 723.774 892.559 724.698C893.935 725.622 894.394 728.624 893.935 733.705C893.706 736.245 893.477 738.786 893.247 741.326C890.265 738.324 887.283 735.322 884.301 732.319C878.337 726.315 875.584 721.927 876.043 719.156C876.272 717.77 876.502 716.384 876.731 714.999C877.649 716.615 878.566 718.232 879.484 719.848C881.319 723.082 882.695 724.467 883.613 724.005C884.53 723.544 884.072 721.003 882.237 716.384C881.319 714.075 880.401 711.765 879.484 709.456ZM816.172 714.999C817.548 715.691 818.925 716.384 820.301 717.077C823.054 718.463 824.889 720.772 825.806 724.005C826.265 725.622 826.724 727.239 827.183 728.855C826.495 728.162 825.806 727.47 825.118 726.777C824.43 726.084 823.742 725.391 823.054 724.698C822.366 725.391 821.677 726.084 820.989 726.777C820.301 727.47 819.613 728.162 818.925 728.855C818.466 726.546 818.007 724.236 817.548 721.927C817.09 719.618 816.631 717.308 816.172 714.999ZM695.742 723.313C700.789 723.313 704 724.005 705.376 725.391C706.065 726.084 706.753 726.777 707.441 727.47C705.606 727.47 703.771 727.47 701.935 727.47C698.265 727.47 696.201 728.162 695.742 729.548C695.513 730.241 695.283 730.934 695.054 731.627C697.577 732.088 700.1 732.55 702.624 733.012C705.147 733.474 707.67 733.936 710.194 734.398C707.9 735.091 705.606 735.783 703.312 736.476C698.724 737.862 694.136 737.862 689.548 736.476C684.961 735.091 681.978 733.936 680.602 733.012C679.226 732.088 678.538 730.934 678.538 729.548C678.538 728.162 680.143 726.777 683.355 725.391C686.566 724.005 690.695 723.313 695.742 723.313ZM768 723.313C770.065 723.774 772.129 724.236 774.194 724.698C778.323 725.622 781.534 727.7 783.828 730.934C784.975 732.55 786.122 734.167 787.269 735.783C785.892 734.86 784.516 733.936 783.14 733.012C780.387 731.165 778.093 730.934 776.258 732.319C775.341 733.012 774.423 733.705 773.505 734.398C772.588 732.55 771.67 730.703 770.753 728.855C769.835 727.008 768.918 725.16 768 723.313ZM715.011 752.411C716.616 752.411 718.222 752.411 719.828 752.411C718.452 753.335 717.075 754.259 715.699 755.183C712.946 757.03 711.799 758.878 712.258 760.725C712.487 761.649 712.717 762.573 712.946 763.497C714.781 762.342 716.616 761.187 718.452 760.032C722.122 757.723 724.645 756.799 726.022 757.261C726.71 757.492 727.398 757.723 728.086 757.954C726.48 759.109 724.875 760.263 723.269 761.418C720.057 763.728 715.699 764.882 710.194 764.882C704.688 764.882 701.706 763.959 701.247 762.111C700.789 760.263 702.165 758.185 705.376 755.876C708.588 753.566 711.799 752.411 715.011 752.411ZM152.086 761.418C151.398 762.573 150.71 763.728 150.022 764.882C151.857 765.113 153.692 765.344 155.527 765.575C159.197 766.037 163.097 768.346 167.226 772.503C171.355 776.66 173.419 779.894 173.419 782.203C173.419 784.512 171.814 786.591 168.602 788.438C165.391 790.286 163.097 792.364 161.72 794.674C160.344 796.983 158.738 798.138 156.903 798.138C155.068 798.138 152.774 796.521 150.022 793.288C147.269 790.055 145.663 787.053 145.204 784.281C144.975 782.896 144.746 781.51 144.516 780.124C143.369 780.355 142.222 780.586 141.075 780.817C138.781 781.279 137.176 782.665 136.258 784.974C135.799 786.129 135.341 787.284 134.882 788.438C136.258 788.669 137.634 788.9 139.011 789.131C141.763 789.593 144.516 791.441 147.269 794.674C150.022 797.907 151.398 800.447 151.398 802.295C151.398 804.143 149.104 806.914 144.516 810.609C139.928 814.304 135.57 814.304 131.441 810.609C127.312 806.914 125.247 802.988 125.247 798.831C125.247 794.674 124.559 792.364 123.183 791.903C121.806 791.441 120.43 791.903 119.054 793.288C117.677 794.674 116.989 796.521 116.989 798.831C116.989 801.14 119.283 804.373 123.871 808.53C128.459 812.687 131.9 816.613 134.194 820.309C136.487 824.004 138.552 825.851 140.387 825.851C142.222 825.851 144.057 824.235 145.892 821.001C147.728 817.768 153.692 811.764 163.785 802.988C173.878 794.212 179.842 789.593 181.677 789.131C182.595 788.9 183.513 788.669 184.43 788.438C180.53 783.358 176.631 778.277 172.731 773.196C164.932 763.035 159.885 757.954 157.591 757.954C155.297 757.954 153.462 759.109 152.086 761.418ZM808.602 765.575C812.731 766.037 815.713 767.192 817.548 769.039C818.466 769.963 819.384 770.887 820.301 771.811C816.86 771.811 813.419 771.811 809.978 771.811C806.538 771.811 803.097 771.811 799.656 771.811C799.656 772.965 799.656 774.12 799.656 775.275C799.656 776.429 799.656 777.584 799.656 778.739C800.344 778.277 801.032 777.815 801.72 777.353C803.097 776.429 806.079 776.198 810.667 776.66C812.961 776.891 815.254 777.122 817.548 777.353C816.172 778.046 814.796 778.739 813.419 779.432C810.667 780.817 805.391 781.51 797.591 781.51C789.792 781.51 784.975 781.048 783.14 780.124C782.222 779.663 781.305 779.201 780.387 778.739C780.846 777.815 781.305 776.891 781.763 775.968C782.681 774.12 784.975 772.041 788.645 769.732C792.315 767.423 795.527 766.037 798.28 765.575C801.032 765.113 804.473 765.113 808.602 765.575ZM750.108 774.582C750.566 774.582 751.025 774.582 751.484 774.582C751.484 776.198 751.484 777.815 751.484 779.432C751.484 782.665 750.566 784.974 748.731 786.36C747.814 787.053 746.896 787.746 745.978 788.438C745.52 786.36 745.061 784.281 744.602 782.203C744.143 780.124 743.685 778.046 743.226 775.968C743.914 776.198 744.602 776.429 745.29 776.66C746.667 777.122 747.584 776.891 748.043 775.968C748.502 775.044 749.19 774.582 750.108 774.582ZM862.968 789.131C865.72 789.593 867.785 790.748 869.161 792.595C869.849 793.519 870.538 794.443 871.226 795.367C868.473 795.829 865.72 796.29 862.968 796.752C860.215 797.214 857.462 797.676 854.71 798.138C855.857 797.445 857.004 796.752 858.151 796.06C859.297 795.367 860.444 794.674 861.591 793.981C860.215 793.519 858.839 793.057 857.462 792.595C856.086 792.134 854.71 791.672 853.333 791.21C854.251 790.748 855.168 790.286 856.086 789.824C857.921 788.9 860.215 788.669 862.968 789.131ZM719.828 789.824C720.287 790.748 720.746 791.672 721.204 792.595C722.122 794.443 722.122 796.29 721.204 798.138C720.287 799.986 716.387 802.526 709.505 805.759C706.065 807.376 702.624 808.992 699.183 810.609C699.183 809.685 699.183 808.761 699.183 807.838C699.183 805.99 701.018 802.757 704.688 798.138C706.523 795.829 708.358 793.519 710.194 791.21C709.964 792.826 709.735 794.443 709.505 796.06C709.047 799.293 709.276 801.14 710.194 801.602C711.111 802.064 712.946 800.217 715.699 796.06C717.075 793.981 718.452 791.903 719.828 789.824ZM195.441 807.145C194.982 808.3 194.523 809.454 194.065 810.609C195.67 810.609 197.276 810.609 198.882 810.609C202.093 810.609 204.846 811.302 207.14 812.687C209.434 814.073 211.728 815.69 214.022 817.537C216.315 819.385 217.462 821.232 217.462 823.08C217.462 824.927 215.168 828.853 210.581 834.858C205.993 840.862 203.011 844.096 201.634 844.558C200.258 845.019 199.111 846.405 198.194 848.714C197.276 851.024 194.523 854.026 189.935 857.721C185.348 861.416 183.971 864.65 185.806 867.421C187.642 870.192 189.477 871.347 191.312 870.885C193.147 870.423 194.294 869.037 194.753 866.728C195.211 864.419 195.9 863.264 196.817 863.264C197.735 863.264 201.634 858.645 208.516 849.407C215.398 840.17 220.444 834.396 223.656 832.087C225.262 830.932 226.867 829.777 228.473 828.622C224.573 824.696 220.674 820.77 216.774 816.844C208.975 808.992 203.699 804.835 200.946 804.373C198.194 803.912 196.358 804.835 195.441 807.145ZM806.538 809.223C806.996 811.071 807.455 812.918 807.914 814.766C808.832 818.461 810.208 820.539 812.043 821.001C813.878 821.463 815.254 821.232 816.172 820.309C816.631 819.847 817.09 819.385 817.548 818.923C817.548 822.156 817.548 825.389 817.548 828.622C817.548 831.856 817.548 835.089 817.548 838.322C815.713 835.551 813.878 832.779 812.043 830.008C808.373 824.465 806.538 819.616 806.538 815.459C806.538 813.38 806.538 811.302 806.538 809.223ZM812.043 810.609C812.502 810.609 812.961 810.609 813.419 810.609C813.878 810.609 814.337 810.609 814.796 810.609C814.796 811.302 814.796 811.995 814.796 812.687C814.796 813.38 814.796 814.073 814.796 814.766C814.337 814.766 813.878 814.766 813.419 814.766C812.961 814.766 812.502 814.766 812.043 814.766C812.043 814.073 812.043 813.38 812.043 812.687C812.043 811.995 812.043 811.302 812.043 810.609ZM764.559 813.38C769.606 813.38 772.817 813.842 774.194 814.766C775.57 815.69 776.029 816.613 775.57 817.537C775.111 818.461 773.735 818.923 771.441 818.923C770.294 818.923 769.147 818.923 768 818.923C768.229 819.616 768.459 820.309 768.688 821.001C769.147 822.387 770.523 823.08 772.817 823.08C773.964 823.08 775.111 823.08 776.258 823.08C775.57 824.004 774.882 824.927 774.194 825.851C772.817 827.699 768.688 828.622 761.806 828.622C754.925 828.622 750.796 827.93 749.419 826.544C748.043 825.158 746.437 824.465 744.602 824.465C743.685 824.465 742.767 824.465 741.849 824.465C741.849 824.004 741.849 823.542 741.849 823.08C741.849 822.618 741.849 822.156 741.849 821.694C740.932 821.694 740.014 821.694 739.097 821.694C738.179 821.694 737.262 821.694 736.344 821.694C739.785 820.309 743.226 818.923 746.667 817.537C753.548 814.766 759.513 813.38 764.559 813.38ZM875.355 820.309C875.584 821.463 875.814 822.618 876.043 823.773C876.502 826.082 876.272 828.392 875.355 830.701C874.437 833.01 873.29 834.396 871.914 834.858C871.226 835.089 870.538 835.32 869.849 835.551C870.308 834.396 870.767 833.241 871.226 832.087C872.143 829.777 871.914 827.699 870.538 825.851C869.849 824.927 869.161 824.004 868.473 823.08C869.62 822.618 870.767 822.156 871.914 821.694C873.061 821.232 874.208 820.77 875.355 820.309ZM865.72 825.851C865.95 826.544 866.179 827.237 866.409 827.93C866.638 828.622 866.867 829.315 867.097 830.008C866.867 829.315 866.638 828.622 866.409 827.93C866.179 827.237 865.95 826.544 865.72 825.851ZM670.28 830.008C672.573 831.856 674.867 833.703 677.161 835.551C681.749 839.246 684.731 842.248 686.108 844.558C687.484 846.867 688.172 849.638 688.172 852.871C688.172 854.488 688.172 856.105 688.172 857.721C687.025 855.874 685.878 854.026 684.731 852.179C683.584 850.331 682.437 848.484 681.29 846.636C680.832 847.56 680.373 848.484 679.914 849.407C679.455 850.331 678.996 851.255 678.538 852.179C678.079 851.948 677.62 851.717 677.161 851.486C676.244 851.024 674.867 847.329 673.032 840.401C672.115 836.936 671.197 833.472 670.28 830.008ZM773.505 845.25C774.194 845.943 774.882 846.636 775.57 847.329C776.946 848.714 777.634 851.486 777.634 855.643C777.634 859.8 775.799 865.804 772.129 873.656C770.294 877.582 768.459 881.508 766.624 885.434C765.935 883.818 765.247 882.201 764.559 880.585C763.183 877.351 762.495 872.963 762.495 867.421C762.495 861.878 763.412 857.49 765.247 854.257C766.165 852.641 767.082 851.024 768 849.407C768 851.255 768 853.102 768 854.95C768 856.797 768 858.645 768 860.493C768.688 860.493 769.376 860.493 770.065 860.493C771.441 860.493 772.358 857.952 772.817 852.871C773.047 850.331 773.276 847.791 773.505 845.25ZM256.688 852.179C256.229 854.95 254.394 858.876 251.183 863.957C247.971 869.037 242.466 873.656 234.667 877.813C226.867 881.97 221.362 884.28 218.151 884.742C214.939 885.203 213.333 886.127 213.333 887.513C213.333 888.899 214.48 890.284 216.774 891.67C217.921 892.363 219.068 893.055 220.215 893.748C220.903 892.594 221.591 891.439 222.28 890.284C223.656 887.975 228.014 884.972 235.355 881.277C239.025 879.43 242.695 877.582 246.366 875.735C245.907 881.277 245.448 886.82 244.989 892.363C244.072 903.448 244.53 909.452 246.366 910.376C248.201 911.3 249.806 911.762 251.183 911.762C251.871 911.762 252.559 911.762 253.247 911.762C253.018 907.836 252.789 903.91 252.559 899.984C252.1 892.132 252.33 885.434 253.247 879.892C254.165 874.349 256.918 868.806 261.505 863.264C266.093 857.721 267.699 853.795 266.323 851.486C264.946 849.176 263.111 848.022 260.817 848.022C258.523 848.022 257.147 849.407 256.688 852.179ZM637.935 849.407C641.147 849.407 643.67 850.331 645.505 852.179C646.423 853.102 647.341 854.026 648.258 854.95C645.505 854.95 642.753 854.95 640 854.95C634.495 854.95 631.513 855.643 631.054 857.028C630.824 857.721 630.595 858.414 630.366 859.107C633.806 859.107 637.247 859.107 640.688 859.107C647.57 859.107 651.24 859.569 651.699 860.493C651.928 860.954 652.158 861.416 652.387 861.878C649.634 863.033 646.882 864.188 644.129 865.342C638.624 867.652 635.642 868.345 635.183 867.421C634.724 866.497 631.742 865.342 626.237 863.957C620.731 862.571 617.29 860.954 615.914 859.107C615.226 858.183 614.538 857.259 613.849 856.336C614.996 856.336 616.143 856.336 617.29 856.336C619.584 856.336 622.796 855.181 626.925 852.871C631.054 850.562 634.724 849.407 637.935 849.407ZM832.688 853.564C833.376 854.719 834.065 855.874 834.753 857.028C835.441 858.183 836.129 859.338 836.817 860.493C834.982 861.185 833.147 861.878 831.312 862.571C829.477 863.264 827.642 863.957 825.806 864.65C826.953 862.802 828.1 860.954 829.247 859.107C830.394 857.259 831.541 855.412 832.688 853.564ZM875.355 853.564C877.19 855.181 879.025 856.797 880.86 858.414C882.695 860.031 884.53 861.647 886.366 863.264C886.595 862.571 886.824 861.878 887.054 861.185C887.513 859.8 887.054 858.183 885.677 856.336C884.989 855.412 884.301 854.488 883.613 853.564C884.301 853.564 884.989 853.564 885.677 853.564C887.054 853.564 888.659 854.95 890.495 857.721C892.33 860.493 893.477 863.495 893.935 866.728C894.165 868.345 894.394 869.961 894.624 871.578C892.559 871.116 890.495 870.654 888.43 870.192C884.301 869.268 881.09 867.19 878.796 863.957C876.502 860.724 875.355 858.183 875.355 856.336C875.355 855.412 875.355 854.488 875.355 853.564ZM679.914 854.95C680.143 855.412 680.373 855.874 680.602 856.336C680.832 856.797 681.061 857.259 681.29 857.721C681.061 857.259 680.832 856.797 680.602 856.336C680.373 855.874 680.143 855.412 679.914 854.95ZM295.226 884.049C295.685 894.21 296.602 900.215 297.978 902.062C298.667 902.986 299.355 903.91 300.043 904.834C298.667 904.834 297.29 904.834 295.914 904.834C293.161 904.834 290.867 905.526 289.032 906.912C287.197 908.298 285.591 911.069 284.215 915.226C282.839 919.383 283.756 923.54 286.968 927.697C290.179 931.854 295.455 935.318 302.796 938.089C306.466 939.475 310.136 940.861 313.806 942.246C315.642 936.473 317.477 930.699 319.312 924.926C322.982 913.378 326.882 904.141 331.011 897.212C333.075 893.748 335.14 890.284 337.204 886.82C335.369 886.127 333.534 885.434 331.699 884.742C329.864 884.049 328.029 883.356 326.194 882.663C325.047 886.589 323.9 890.515 322.753 894.441C320.459 902.293 317.935 906.681 315.183 907.605C312.43 908.529 309.907 907.374 307.613 904.141C305.319 900.908 304.172 894.903 304.172 886.127C304.172 877.351 303.484 872.271 302.108 870.885C300.731 869.499 299.125 868.806 297.29 868.806C296.373 868.806 295.455 868.806 294.538 868.806C294.767 873.887 294.996 878.968 295.226 884.049ZM849.204 872.963C849.434 875.504 849.663 878.044 849.892 880.585C850.351 885.665 850.122 889.36 849.204 891.67C848.287 893.979 846.91 895.596 845.075 896.52C844.158 896.982 843.24 897.443 842.323 897.905C841.864 894.903 841.405 891.901 840.946 888.899C840.029 882.894 840.258 878.968 841.634 877.12C842.323 876.197 843.011 875.273 843.699 874.349C843.699 875.966 843.699 877.582 843.699 879.199C843.699 882.432 844.387 884.511 845.763 885.434C846.452 885.896 847.14 886.358 847.828 886.82C848.057 884.511 848.287 882.201 848.516 879.892C848.746 877.582 848.975 875.273 849.204 872.963ZM696.43 896.52C696.889 898.136 697.348 899.753 697.806 901.369C698.724 904.603 699.642 906.219 700.559 906.219C701.477 906.219 702.624 904.603 704 901.369C704.688 899.753 705.376 898.136 706.065 896.52C706.294 896.982 706.523 897.443 706.753 897.905C707.211 898.829 706.982 900.908 706.065 904.141C705.147 907.374 702.853 911.069 699.183 915.226C697.348 917.304 695.513 919.383 693.677 921.461C693.448 919.614 693.219 917.766 692.989 915.919C692.53 912.224 692.989 908.067 694.366 903.448C695.054 901.138 695.742 898.829 696.43 896.52ZM640 906.219C641.376 906.681 642.753 907.143 644.129 907.605C642.753 907.836 641.376 908.067 640 908.298C637.247 908.76 635.871 909.452 635.871 910.376C635.871 910.838 635.871 911.3 635.871 911.762C634.036 911.3 632.201 910.838 630.366 910.376C626.695 909.452 624.86 908.529 624.86 907.605C624.86 906.681 626.695 905.988 630.366 905.526C634.036 905.065 637.247 905.295 640 906.219ZM304.86 911.762C307.842 912.224 310.824 912.686 313.806 913.147C312.43 916.843 311.054 920.538 309.677 924.233C308.301 927.928 306.925 931.623 305.548 935.318C303.254 933.701 300.961 932.085 298.667 930.468C294.079 927.235 291.785 923.771 291.785 920.076C291.785 916.381 292.473 913.84 293.849 912.455C295.226 911.069 298.896 910.838 304.86 911.762ZM586.323 922.847C590.91 922.847 594.81 923.54 598.022 924.926C599.627 925.618 601.233 926.311 602.839 927.004C601.462 927.466 600.086 927.928 598.71 928.39C597.333 928.852 595.957 929.313 594.581 929.775C595.728 930.699 596.875 931.623 598.022 932.547C599.168 933.47 600.315 934.394 601.462 935.318C598.71 934.625 595.957 933.932 593.204 933.24C587.699 931.854 583.799 930.237 581.505 928.39C579.211 926.542 578.294 925.157 578.753 924.233C579.211 923.309 581.735 922.847 586.323 922.847ZM723.957 936.704C724.875 936.704 725.792 936.704 726.71 936.704C725.563 937.627 724.416 938.551 723.269 939.475C720.975 941.323 719.828 942.939 719.828 944.325C719.828 945.018 719.828 945.71 719.828 946.403C720.516 946.172 721.204 945.941 721.892 945.71C722.581 945.479 723.269 945.249 723.957 945.018C723.728 945.71 723.498 946.403 723.269 947.096C722.81 948.482 719.369 950.098 712.946 951.946C709.735 952.87 706.523 953.793 703.312 954.717C704.918 952.408 706.523 950.098 708.129 947.789C711.341 943.17 714.323 940.168 717.075 938.782C719.828 937.396 722.122 936.704 723.957 936.704ZM642.065 943.632C642.753 943.632 643.441 943.632 644.129 943.632C643.67 944.556 643.211 945.479 642.753 946.403C641.835 948.251 641.835 949.636 642.753 950.56C643.211 951.022 643.67 951.484 644.129 951.946C642.294 952.408 640.459 952.87 638.624 953.332C636.789 953.793 634.953 954.255 633.118 954.717C633.118 954.024 633.118 953.332 633.118 952.639C633.118 951.253 634.265 949.406 636.559 947.096C638.853 944.787 640.688 943.632 642.065 943.632ZM725.333 943.632C725.792 943.863 726.251 944.094 726.71 944.325C727.168 944.556 727.627 944.787 728.086 945.018C727.627 944.787 727.168 944.556 726.71 944.325C726.251 944.094 725.792 943.863 725.333 943.632ZM736.344 946.403C737.032 946.865 737.72 947.327 738.409 947.789C739.785 948.713 740.703 950.329 741.161 952.639C741.62 954.948 742.308 956.103 743.226 956.103C743.685 956.103 744.143 956.103 744.602 956.103C744.143 959.336 743.685 962.569 743.226 965.802C742.767 969.036 742.308 972.269 741.849 975.502C740.932 973.885 740.014 972.269 739.097 970.652C737.262 967.419 737.032 963.955 738.409 960.26C739.785 956.565 739.785 954.255 738.409 953.332C737.032 952.408 736.344 951.022 736.344 949.175C736.344 948.251 736.344 947.327 736.344 946.403ZM609.72 947.789C610.179 948.944 610.638 950.098 611.097 951.253C612.014 953.562 611.097 957.488 608.344 963.031C606.968 965.802 605.591 968.574 604.215 971.345C603.527 968.805 602.839 966.264 602.151 963.724C601.462 961.184 600.774 958.643 600.086 956.103C601.692 955.641 603.297 955.179 604.903 954.717C608.115 953.793 609.72 952.408 609.72 950.56C609.72 949.636 609.72 948.713 609.72 947.789ZM569.806 953.332C571.642 953.332 573.477 953.332 575.312 953.332C573.477 954.255 571.642 955.179 569.806 956.103C566.136 957.95 564.53 959.798 564.989 961.645C565.219 962.569 565.448 963.493 565.677 964.417C568.659 963.262 571.642 962.107 574.624 960.953C577.606 959.798 580.588 958.643 583.57 957.488C583.341 958.643 583.111 959.798 582.882 960.953C582.423 963.262 581.047 965.571 578.753 967.881C576.459 970.19 573.935 972.038 571.183 973.424C568.43 974.809 562.007 975.502 551.914 975.502C546.867 975.502 541.821 975.502 536.774 975.502C538.839 972.962 540.903 970.421 542.968 967.881C547.097 962.8 551.685 959.105 556.731 956.796C561.778 954.486 566.136 953.332 569.806 953.332ZM642.753 972.731C643.211 973.424 643.67 974.116 644.129 974.809C645.047 976.195 645.047 978.042 644.129 980.352C643.67 981.507 643.211 982.661 642.753 983.816C643.67 983.585 644.588 983.354 645.505 983.123C647.341 982.661 648.487 981.045 648.946 978.273C649.405 975.502 650.093 974.116 651.011 974.116C651.47 974.116 651.928 974.116 652.387 974.116C652.158 976.195 651.928 978.273 651.699 980.352C651.24 984.509 650.093 987.973 648.258 990.744C647.341 992.13 646.423 993.516 645.505 994.901C644.588 994.208 643.67 993.516 642.753 992.823C640.918 991.437 640 988.435 640 983.816C640 979.197 640.459 976.195 641.376 974.809C641.835 974.116 642.294 973.424 642.753 972.731ZM719.828 993.516C720.057 993.977 720.287 994.439 720.516 994.901C720.746 995.363 720.975 995.825 721.204 996.287C720.975 995.825 720.746 995.363 720.516 994.901C720.287 994.439 720.057 993.977 719.828 993.516ZM726.71 993.516C726.939 994.901 727.168 996.287 727.398 997.673C727.627 999.058 727.857 1000.44 728.086 1001.83C727.627 1001.83 727.168 1001.83 726.71 1001.83C725.792 1001.83 724.416 1003.68 722.581 1007.37C721.663 1009.22 720.746 1011.07 719.828 1012.91C719.14 1012.22 718.452 1011.53 717.763 1010.84C716.387 1009.45 715.928 1006.91 716.387 1003.22C716.616 1001.37 716.846 999.52 717.075 997.673C717.305 998.596 717.534 999.52 717.763 1000.44C718.222 1002.29 718.91 1003.22 719.828 1003.22C720.746 1003.22 722.122 1001.6 723.957 998.365C724.875 996.749 725.792 995.132 726.71 993.516Z" id="Fill"/>
</defs>
<g id="Layer-1" vectornator:layerName="Layer 1">
<g opacity="1" vectornator:layerName="Curve 1">
<use fill="#2a1510" fill-rule="nonzero" stroke="none" xlink:href="#Fill"/>
<mask height="1010.31" id="StrokeMask" maskUnits="userSpaceOnUse" width="1015.74" x="5.50538" y="9.69959">
<rect fill="#000000" height="1010.31" stroke="none" width="1015.74" x="5.50538" y="9.69959"/>
<use fill="#ffffff" fill-rule="evenodd" stroke="none" xlink:href="#Fill"/>
</mask>
<use fill="none" mask="url(#StrokeMask)" stroke="#646460" stroke-linecap="round" stroke-linejoin="round" stroke-width="4" xlink:href="#Fill"/>
</g>
</g>
</svg>
