<?xml version="1.0" encoding="UTF-8" standalone="no"?>
<!DOCTYPE svg PUBLIC "-//W3C//DTD SVG 1.1//EN" "http://www.w3.org/Graphics/SVG/1.1/DTD/svg11.dtd">
<!-- Created with Vectornator (http://vectornator.io/) -->
<svg height="100%" stroke-miterlimit="10" style="fill-rule:nonzero;clip-rule:evenodd;stroke-linecap:round;stroke-linejoin:round;" version="1.1" viewBox="0 0 1024 1024" width="100%" xml:space="preserve" xmlns="http://www.w3.org/2000/svg" xmlns:vectornator="http://vectornator.io" xmlns:xlink="http://www.w3.org/1999/xlink">
<defs>
<path d="M453.734 26.1718C448.314 30.2864 444.927 33.7152 443.572 36.4582C442.217 39.2013 441.539 44.0016 441.539 50.8592C441.539 57.7168 442.894 63.4315 445.604 68.0032C448.314 72.575 451.25 75.7752 454.412 77.6039C457.574 79.4326 462.768 80.3469 469.995 80.3469C477.221 80.3469 483.319 78.5182 488.287 74.8608C493.256 71.2034 495.74 66.8603 495.74 61.8314C495.74 56.8025 495.062 53.8308 493.707 52.9165C492.352 52.0022 490.546 51.7736 488.287 52.2307C486.029 52.6879 485.351 55.6595 486.255 61.1456C487.158 66.6317 486.706 70.5177 484.9 72.8035C483.093 75.0894 479.48 76.2324 474.06 76.2324C468.64 76.2324 463.445 73.7179 458.477 68.689C453.509 63.6601 450.799 57.2596 450.347 49.4877C449.895 41.7157 451.928 35.5439 456.444 30.9722C460.961 26.4004 465.252 24.1146 469.317 24.1146C473.382 24.1146 476.995 25.7147 480.157 28.9149C483.319 32.1151 485.577 33.7152 486.932 33.7152C488.287 33.7152 489.191 32.3437 489.642 29.6006C490.094 26.8576 488.965 24.5717 486.255 22.743C483.545 20.9143 478.802 20 472.027 20C465.252 20 459.154 22.0573 453.734 26.1718ZM522.163 47.4304C520.808 63.8887 519.453 73.2607 518.098 75.5466C517.42 76.6895 516.743 77.8325 516.065 78.9754C517.42 79.6612 518.775 80.3469 520.13 81.0327C522.84 82.4042 524.873 82.8614 526.228 82.4042C527.583 81.947 528.486 77.1467 528.938 68.0032C529.389 58.8598 531.196 54.288 534.358 54.288C537.519 54.288 540.229 56.1167 542.488 59.7741C544.746 63.4315 546.553 68.2318 547.908 74.1751C549.263 80.1183 550.618 83.7757 551.973 85.1472C553.328 86.5188 555.135 87.2045 557.393 87.2045C558.522 87.2045 559.651 87.2045 560.78 87.2045C559.877 85.3758 558.974 83.5471 558.07 81.7184C556.264 78.061 555.135 74.1751 554.683 70.0605C554.231 65.9459 553.102 62.7457 551.295 60.4599C549.489 58.174 548.585 56.3453 548.585 54.9738C548.585 53.6023 549.489 52.6879 551.295 52.2307C553.102 51.7736 554.683 50.6306 556.038 48.8019C557.393 46.9732 558.07 43.5444 558.07 38.5155C558.07 33.4866 555.135 29.6006 549.263 26.8576C543.391 24.1146 537.745 22.743 532.325 22.743C526.905 22.743 523.518 30.9722 522.163 47.4304ZM535.713 26.8576C537.971 26.8576 540.907 28.0005 544.52 30.2864C548.134 32.5723 549.94 35.7725 549.94 39.8871C549.94 44.0016 549.489 46.5161 548.585 47.4304C547.682 48.3448 544.52 49.0305 539.1 49.4877C536.39 49.7163 533.68 49.9449 530.97 50.1735C531.196 46.2875 531.422 42.4015 531.648 38.5155C532.099 30.7436 533.454 26.8576 535.713 26.8576ZM376.499 31.6579C372.885 33.0294 369.272 35.5439 365.659 39.2013C362.045 42.8587 359.787 45.6017 358.883 47.4304C357.98 49.2591 357.528 53.3737 357.528 59.7741C357.528 66.1745 359.561 72.3464 363.626 78.2896C367.691 84.2329 371.079 87.8903 373.789 89.2618C376.499 90.6333 380.564 91.3191 385.984 91.3191C391.404 91.3191 397.501 89.0332 404.276 84.4615C411.051 79.8897 414.891 76.6895 415.794 74.8608C416.697 73.0321 417.149 68.9176 417.149 62.5171C417.149 56.1167 416.02 50.6306 413.762 46.0589C411.503 41.4872 409.245 38.2869 406.986 36.4582C404.728 34.6296 402.018 33.0294 398.856 31.6579C395.695 30.2864 392.081 29.6006 388.016 29.6006C383.951 29.6006 380.112 30.2864 376.499 31.6579ZM389.371 36.4582C393.436 37.3726 397.727 40.5728 402.244 46.0589C406.761 51.545 409.019 57.9454 409.019 65.2602C409.019 72.575 407.212 77.8325 403.599 81.0327C399.986 84.2329 395.695 85.833 390.726 85.833C385.758 85.833 381.919 84.9186 379.209 83.09C376.499 81.2613 373.563 78.061 370.401 73.4893C367.239 68.9176 365.659 62.9743 365.659 55.6595C365.659 48.3448 366.788 43.5444 369.046 41.2586C371.304 38.9727 374.24 37.3726 377.854 36.4582C381.467 35.5439 385.306 35.5439 389.371 36.4582ZM607.528 47.4304C604.367 52.9165 602.334 55.6595 601.431 55.6595C600.528 55.6595 595.785 61.3742 587.203 72.8035C582.912 78.5182 578.621 84.2329 574.331 89.9476C575.686 90.1761 577.041 90.4047 578.396 90.6333C581.106 91.0905 584.042 88.3475 587.203 82.4042C590.365 76.4609 593.752 73.4893 597.366 73.4893C600.979 73.4893 604.818 74.4037 608.883 76.2324C612.949 78.061 614.981 82.6328 614.981 89.9476C614.981 97.2623 616.788 101.377 620.401 102.291C622.208 102.748 624.014 103.206 625.821 103.663C624.918 99.091 624.014 94.5193 623.111 89.9476C621.304 80.8041 620.401 72.1178 620.401 63.8887C620.401 55.6595 619.949 49.7163 619.046 46.0589C618.143 42.4015 616.788 40.3442 614.981 39.8871C613.174 39.4299 610.69 41.9443 607.528 47.4304ZM316.201 50.8592C314.846 52.2307 311.684 53.6023 306.715 54.9738C301.747 56.3453 299.263 57.4882 299.263 58.4026C299.263 59.3169 297.23 60.2313 293.165 61.1456C289.1 62.06 286.842 63.6601 286.39 65.9459C285.939 68.2318 286.842 69.8319 289.1 70.7463C290.229 71.2034 291.359 71.6606 292.488 72.1178C292.939 70.7463 293.391 69.3747 293.843 68.0032C294.746 65.2602 296.779 63.4315 299.94 62.5171C301.521 62.06 303.102 61.6028 304.683 61.1456C304.683 62.2886 304.683 63.4315 304.683 64.5744C304.683 66.8603 307.393 73.7179 312.813 85.1472C318.233 96.5766 320.943 103.663 320.943 106.406C320.943 109.149 321.621 110.978 322.976 111.892C324.331 112.806 326.363 112.349 329.073 110.52C330.428 109.606 331.783 108.692 333.138 107.777C332.009 106.406 330.88 105.034 329.751 103.663C327.492 100.92 326.363 98.4053 326.363 96.1194C326.363 93.8335 325.234 91.0905 322.976 87.8903C320.717 84.6901 319.588 81.947 319.588 79.6612C319.588 77.3753 318.007 73.0321 314.846 66.6317C313.265 63.4315 311.684 60.2313 310.103 57.0311C311.006 57.0311 311.91 57.0311 312.813 57.0311C313.716 57.0311 314.62 57.0311 315.523 57.0311C315.523 56.5739 315.523 56.1167 315.523 55.6595C315.523 55.2024 315.523 54.7452 315.523 54.288C317.781 54.7452 320.04 55.2024 322.298 55.6595C324.556 56.1167 326.815 56.5739 329.073 57.0311C329.073 56.3453 329.073 55.6595 329.073 54.9738C329.073 53.6023 328.621 52.2307 327.718 50.8592C326.815 49.4877 325.008 48.8019 322.298 48.8019C319.588 48.8019 317.556 49.4877 316.201 50.8592ZM610.916 51.545C611.368 51.545 611.819 51.545 612.271 51.545C612.271 55.2024 612.271 58.8598 612.271 62.5171C612.271 66.1745 612.271 69.8319 612.271 73.4893C610.916 73.4893 609.561 73.4893 608.206 73.4893C605.496 73.4893 603.012 72.3464 600.753 70.0605C598.495 67.7746 599.398 64.1173 603.463 59.0883C607.528 54.0594 610.013 51.545 610.916 51.545ZM664.439 62.5171C663.987 66.1745 662.181 70.7463 659.019 76.2324C655.857 81.7184 654.276 85.3758 654.276 87.2045C654.276 89.0332 653.147 92.2334 650.889 96.8052C648.631 101.377 646.598 104.349 644.791 105.72C642.985 107.092 642.081 108.463 642.081 109.835C642.081 111.206 643.436 112.578 646.146 113.949C647.501 114.635 648.856 115.321 650.211 116.006C651.792 112.349 653.373 108.692 654.954 105.034C656.535 101.377 658.116 97.7195 659.696 94.0621C661.729 95.2051 663.762 96.348 665.794 97.4909C669.859 99.7768 673.698 100.92 677.312 100.92C680.925 100.92 684.313 99.7768 687.474 97.4909C690.636 95.2051 692.894 92.6906 694.249 89.9476C695.604 87.2045 696.056 84.0043 695.604 80.3469C695.153 76.6895 693.798 73.4893 691.539 70.7463C689.281 68.0032 684.313 65.0316 676.634 61.8314C672.795 60.2313 668.956 58.6312 665.117 57.0311C664.891 58.8598 664.665 60.6884 664.439 62.5171ZM673.247 63.8887C675.505 65.7174 677.763 67.5461 680.022 69.3747C684.538 73.0321 686.797 76.9181 686.797 81.0327C686.797 85.1472 685.442 88.576 682.732 91.3191C680.022 94.0621 675.957 94.9765 670.537 94.0621C667.827 93.6049 665.117 93.1478 662.407 92.6906C664.213 87.8903 666.02 83.09 667.827 78.2896C669.633 73.4893 671.44 68.689 673.247 63.8887ZM238.965 87.8903C235.803 89.2618 232.416 91.7763 228.802 95.4336C225.189 99.091 223.382 101.834 223.382 103.663C223.382 105.491 222.705 107.092 221.35 108.463C219.995 109.835 219.317 112.349 219.317 116.006C219.317 119.664 219.995 123.321 221.35 126.979C222.705 130.636 224.963 134.293 228.125 137.951C231.286 141.608 234.222 144.123 236.932 145.494C239.642 146.866 244.159 147.551 250.482 147.551C256.806 147.551 261.322 146.866 264.033 145.494C266.743 144.123 270.13 140.922 274.195 135.894C278.26 130.865 280.293 124.921 280.293 118.064C280.293 111.206 279.615 106.406 278.26 103.663C276.905 100.92 274.195 97.7195 270.13 94.0621C266.065 90.4047 260.645 88.1189 253.87 87.2045C247.095 86.2902 242.126 86.5188 238.965 87.8903ZM713.897 110.52C704.864 125.15 699.669 132.465 698.314 132.465C696.959 132.465 696.056 133.608 695.604 135.894C695.153 138.179 696.508 140.008 699.669 141.38C702.831 142.751 706.219 139.779 709.832 132.465C713.445 125.15 716.607 121.264 719.317 120.807C722.027 120.35 724.06 121.035 725.415 122.864C726.77 124.693 729.931 126.979 734.9 129.722C737.384 131.093 739.868 132.465 742.352 133.836C740.771 136.808 739.191 139.779 737.61 142.751C734.448 148.694 731.738 152.352 729.48 153.723C727.221 155.095 726.092 156.466 726.092 157.838C726.092 159.209 727.899 160.581 731.512 161.952C733.319 162.638 735.126 163.324 736.932 164.01C737.158 162.638 737.384 161.267 737.61 159.895C738.061 157.152 742.126 150.066 749.805 138.637C757.483 127.207 762.226 121.035 764.033 120.121C765.839 119.207 766.743 118.064 766.743 116.692C766.743 115.321 765.162 113.721 762 111.892C760.419 110.978 758.838 110.063 757.257 109.149C755.902 112.349 754.547 115.549 753.192 118.749C750.482 125.15 748.676 128.807 747.772 129.722C746.869 130.636 745.062 130.636 742.352 129.722C739.642 128.807 735.577 126.293 730.157 122.178C724.737 118.064 722.027 115.092 722.027 113.263C722.027 111.435 724.285 108.235 728.802 103.663C733.319 99.091 735.577 96.1194 735.577 94.7479C735.577 93.3764 734.222 92.0048 731.512 90.6333C728.802 89.2618 722.93 95.8908 713.897 110.52ZM246.417 94.0621C249.579 94.0621 252.741 94.0621 255.902 94.0621C255.902 94.5193 255.902 94.9765 255.902 95.4336C255.902 96.348 257.032 97.0338 259.29 97.4909C261.548 97.9481 264.258 99.7768 267.42 102.977C270.582 106.177 272.84 111.206 274.195 118.064C275.55 124.921 275.098 129.722 272.84 132.465C270.582 135.208 266.517 137.494 260.645 139.322C254.773 141.151 249.353 140.922 244.385 138.637C239.416 136.351 235.577 133.608 232.867 130.407C230.157 127.207 228.125 124.236 226.77 121.493C225.415 118.749 224.737 115.778 224.737 112.578C224.737 109.377 226.77 105.491 230.835 100.92C234.9 96.348 240.094 94.0621 246.417 94.0621ZM180.022 132.465C178.215 135.208 180.022 138.865 185.442 143.437C190.862 148.009 193.572 151.209 193.572 153.038C193.572 154.866 190.41 158.752 184.087 164.695C177.763 170.639 172.117 171.553 167.149 167.438C162.181 163.324 159.471 160.124 159.019 157.838C158.793 156.695 158.567 155.552 158.341 154.409C157.438 154.638 156.535 154.866 155.631 155.095C153.825 155.552 152.244 156.923 150.889 159.209C149.534 161.495 154.728 168.353 166.472 179.782C178.215 191.212 184.313 198.069 184.764 200.355C185.216 202.641 186.345 203.784 188.152 203.784C189.958 203.784 191.765 202.641 193.572 200.355C195.379 198.069 192.894 193.497 186.119 186.64C182.732 183.211 179.344 179.782 175.957 176.353C179.344 173.153 182.732 169.953 186.119 166.753C192.894 160.352 198.54 159.209 203.057 163.324C207.574 167.438 210.509 171.096 211.864 174.296C213.22 177.496 214.575 179.096 215.93 179.096C217.285 179.096 218.865 177.496 220.672 174.296C221.575 172.696 222.479 171.096 223.382 169.496C222.479 169.267 221.575 169.039 220.672 168.81C218.865 168.353 213.22 162.867 203.734 152.352C194.249 141.837 189.281 135.665 188.829 133.836C188.378 132.008 187.248 130.636 185.442 129.722C183.635 128.807 181.828 129.722 180.022 132.465ZM783.003 151.666C780.293 164.467 777.357 172.696 774.195 176.353C771.033 180.011 768.098 182.525 765.388 183.897C764.033 184.582 762.678 185.268 761.322 185.954C762 187.326 762.678 188.697 763.355 190.069C764.71 192.812 766.065 194.183 767.42 194.183C768.775 194.183 772.163 190.754 777.583 183.897C783.003 177.039 791.584 172.239 803.328 169.496C809.2 168.124 815.071 166.753 820.943 165.381C820.717 164.467 820.491 163.553 820.266 162.638C819.814 160.809 818.459 159.667 816.201 159.209C813.942 158.752 811.458 159.667 808.748 161.952C806.038 164.238 801.973 166.067 796.553 167.438C793.843 168.124 791.133 168.81 788.423 169.496C788.874 166.296 789.326 163.095 789.778 159.895C790.681 153.495 792.036 148.694 793.843 145.494C795.65 142.294 794.972 139.322 791.81 136.579C790.229 135.208 788.649 133.836 787.068 132.465C785.713 138.865 784.358 145.266 783.003 151.666ZM126.499 190.069C124.24 190.983 120.853 193.726 116.336 198.298C111.819 202.869 108.883 206.755 107.528 209.956C106.851 211.556 106.173 213.156 105.496 214.756C106.625 214.985 107.754 215.213 108.883 215.442C111.142 215.899 118.369 221.614 130.564 232.586C142.759 243.558 149.534 249.044 150.889 249.044C152.244 249.044 153.599 247.444 154.954 244.244C155.631 242.644 156.309 241.043 156.986 239.443C155.857 239.215 154.728 238.986 153.599 238.758C151.341 238.3 148.405 236.472 144.791 233.271C141.178 230.071 140.5 226.414 142.759 222.299C145.017 218.185 146.598 216.127 147.501 216.127C148.405 216.127 149.082 213.842 149.534 209.27C149.986 204.698 149.308 201.041 147.501 198.298C145.695 195.555 142.307 193.269 137.339 191.44C132.37 189.611 128.757 189.154 126.499 190.069ZM132.596 198.298C136.21 199.212 139.145 201.041 141.404 203.784C143.662 206.527 144.34 209.956 143.436 214.07C142.533 218.185 141.404 220.928 140.049 222.299C138.694 223.671 137.113 224.357 135.306 224.357C134.403 224.357 133.5 224.357 132.596 224.357C132.596 223.899 132.596 223.442 132.596 222.985C132.596 222.071 129.435 219.328 123.111 214.756C119.949 212.47 116.788 210.184 113.626 207.898C114.755 206.527 115.884 205.155 117.014 203.784C119.272 201.041 121.53 199.212 123.789 198.298C126.047 197.383 128.983 197.383 132.596 198.298ZM64.8455 275.789C63.9422 277.16 63.7164 278.76 64.168 280.589C64.6197 282.418 66.6522 283.332 70.2656 283.332C73.879 283.332 80.2023 285.618 89.2358 290.19C93.7525 292.475 98.2692 294.761 102.786 297.047C101.431 297.733 100.076 298.419 98.7209 299.104C96.0108 300.476 92.8491 301.162 89.2358 301.162C85.6224 301.162 83.5899 301.619 83.1382 302.533C82.6865 303.448 77.4923 304.591 67.5556 305.962C57.6188 307.334 51.9729 308.477 50.6179 309.391C49.2629 310.305 48.3595 311.905 47.9079 314.191C47.682 315.334 47.4562 316.477 47.2304 317.62C50.6179 318.306 54.0054 318.992 57.393 319.677C64.168 321.049 67.5556 322.192 67.5556 323.106C67.5556 323.563 67.5556 324.02 67.5556 324.478C68.4589 324.478 69.3622 324.478 70.2656 324.478C72.0723 324.478 73.4273 325.163 74.3306 326.535C75.234 327.906 76.589 328.592 78.3957 328.592C80.2023 328.592 84.2674 330.649 90.5908 334.764C96.9142 338.879 100.753 340.25 102.108 338.879C103.463 337.507 103.915 335.907 103.463 334.078C103.012 332.25 100.753 331.335 96.6883 331.335C92.6233 331.335 90.1391 330.649 89.2358 329.278C88.3324 327.906 86.9774 327.221 85.1707 327.221C83.364 327.221 79.0732 325.392 72.2981 321.735C68.9106 319.906 65.523 318.077 62.1355 316.248C63.7164 315.563 65.2972 314.877 66.878 314.191C70.0397 312.82 78.8473 310.991 93.3008 308.705C107.754 306.419 115.433 304.133 116.336 301.848C116.788 300.705 117.239 299.562 117.691 298.419C112.045 296.133 106.399 293.847 100.753 291.561C89.4616 286.989 83.8157 284.246 83.8157 283.332C83.8157 282.875 83.8157 282.418 83.8157 281.96C82.9124 281.96 82.009 281.96 81.1057 281.96C79.299 281.96 77.0407 280.589 74.3306 277.846C71.6206 275.103 69.5881 273.731 68.2331 273.731C66.878 273.731 65.7489 274.417 64.8455 275.789ZM321.621 299.79C321.169 302.533 322.524 304.819 325.686 306.648C328.847 308.477 331.106 311.448 332.461 315.563C333.816 319.677 334.493 355.108 334.493 421.856C334.493 488.603 333.816 524.034 332.461 528.148C331.106 532.263 328.847 535.235 325.686 537.063C322.524 538.892 320.943 540.949 320.943 543.235C320.943 544.378 320.943 545.521 320.943 546.664C330.88 546.664 340.817 546.664 350.753 546.664C360.69 546.664 370.627 546.664 380.564 546.664C380.564 545.75 380.564 544.835 380.564 543.921C380.564 542.092 378.531 539.349 374.466 535.692C370.401 532.034 367.917 527.006 367.014 520.605C366.11 514.205 365.659 496.146 365.659 466.43C365.659 451.572 365.659 436.714 365.659 421.856C372.659 421.856 379.66 421.856 386.661 421.856C400.663 421.856 409.019 422.541 411.729 423.913C414.439 425.284 416.246 426.884 417.149 428.713C418.052 430.542 419.182 431.456 420.537 431.456C421.892 431.456 423.472 432.828 425.279 435.571C427.086 438.314 428.441 442.886 429.344 449.286C430.248 455.686 430.699 488.603 430.699 548.035C430.699 607.468 430.473 639.927 430.022 645.413C429.57 650.9 428.667 655.014 427.312 657.757C425.957 660.5 423.924 662.557 421.214 663.929C418.504 665.301 416.923 666.901 416.472 668.729C416.246 669.644 416.02 670.558 415.794 671.472C443.572 671.701 471.35 671.93 499.127 672.158C554.683 672.615 582.912 670.101 583.816 664.615C584.719 659.129 585.171 652.271 585.171 644.042C585.171 635.813 584.719 631.241 583.816 630.327C582.912 629.412 581.557 629.412 579.751 630.327C577.944 631.241 576.815 632.841 576.363 635.127C575.911 637.413 573.653 641.07 569.588 646.099C565.523 651.128 559.2 655.471 550.618 659.129C542.036 662.786 526.453 664.615 503.87 664.615C481.286 664.615 468.865 663.472 466.607 661.186C464.349 658.9 463.22 635.356 463.22 590.553C463.22 568.151 463.22 545.75 463.22 523.348C464.575 525.634 465.93 527.92 467.285 530.206C469.995 534.777 474.511 539.349 480.835 543.921C487.158 548.493 494.611 550.779 503.192 550.779C511.774 550.779 517.42 549.864 520.13 548.035C521.485 547.121 522.84 546.207 524.195 545.292C523.518 544.378 522.84 543.464 522.163 542.549C520.808 540.721 518.098 539.578 514.033 539.121C509.967 538.663 507.032 536.835 505.225 533.635C503.418 530.434 502.063 528.834 501.16 528.834C500.257 528.834 497.095 522.891 491.675 511.004C486.255 499.118 482.867 490.432 481.512 484.946C480.157 479.459 479.028 476.716 478.125 476.716C477.221 476.716 476.092 473.973 474.737 468.487C473.382 463.001 472.253 460.258 471.35 460.258C470.446 460.258 469.091 457.972 467.285 453.401C465.478 448.829 465.026 444.486 465.93 440.371C466.833 436.257 468.865 433.285 472.027 431.456C475.189 429.628 476.77 427.799 476.77 425.97C476.77 424.141 476.318 422.77 475.415 421.856C474.511 420.941 467.51 420.484 454.412 420.484C441.313 420.484 433.635 420.027 431.377 419.113C429.118 418.198 427.989 417.284 427.989 416.37C427.989 415.455 430.699 414.541 436.119 413.626C441.539 412.712 447.411 410.426 453.734 406.769C460.058 403.111 465.478 398.768 469.995 393.739C474.511 388.711 477.673 384.367 479.48 380.71C481.286 377.053 482.867 370.881 484.222 362.194C485.577 353.508 485.803 346.879 484.9 342.307C483.996 337.736 482.19 332.935 479.48 327.906C476.77 322.878 471.575 317.62 463.897 312.134C456.219 306.648 448.089 302.762 439.507 300.476C430.925 298.19 409.245 296.819 374.466 296.361C339.687 295.904 322.072 297.047 321.621 299.79ZM367.014 305.276C372.208 305.276 377.402 305.276 382.596 305.276C392.985 305.276 401.341 305.962 407.664 307.334C413.987 308.705 421.44 312.591 430.022 318.992C438.603 325.392 444.249 331.792 446.959 338.193C449.669 344.593 451.25 350.765 451.702 356.708C452.154 362.652 451.702 368.595 450.347 374.538C448.992 380.481 446.282 386.196 442.217 391.682C438.152 397.168 432.506 401.511 425.279 404.712C418.052 407.912 406.309 409.512 390.049 409.512C381.919 409.512 373.789 409.512 365.659 409.512C365.884 392.139 366.11 374.767 366.336 357.394C366.562 340.022 366.788 322.649 367.014 305.276ZM35.7127 362.194C29.841 368.138 27.131 375.452 27.5827 384.139C28.0343 392.825 29.841 398.997 33.0027 402.654C36.1644 406.312 39.1003 408.826 41.8103 410.198C44.5203 411.569 49.7145 412.255 57.393 412.255C65.0714 412.255 71.3948 409.969 76.3631 405.397C81.3315 400.826 84.2674 397.168 85.1707 394.425C86.0741 391.682 86.0741 386.425 85.1707 378.653C84.2674 370.881 81.1057 364.709 75.6856 360.137C70.2656 355.565 63.7164 353.28 56.0379 353.28C48.3595 353.28 41.5845 356.251 35.7127 362.194ZM59.4255 362.194C66.6522 362.652 72.5239 364.937 77.0407 369.052C81.5574 373.167 83.1382 378.196 81.7832 384.139C80.4282 390.082 77.944 394.654 74.3306 397.854C70.7173 401.054 64.6197 402.654 56.0379 402.654C47.4562 402.654 41.1328 401.054 37.0678 397.854C33.0027 394.654 31.196 389.625 31.6477 382.767C32.0994 375.91 35.0352 370.652 40.4553 366.995C45.8753 363.337 52.1987 361.737 59.4255 362.194ZM906.309 366.995C906.309 369.738 907.89 374.995 911.051 382.767C914.213 390.539 915.794 400.826 915.794 413.626C915.794 426.427 912.632 437.857 906.309 447.914C899.986 457.972 891.855 467.573 881.919 476.716C871.982 485.86 867.014 491.117 867.014 492.489C867.014 493.175 867.014 493.86 867.014 494.546C860.916 494.546 854.818 494.546 848.721 494.546C836.526 494.546 829.525 493.632 827.718 491.803C825.911 489.974 822.072 489.06 816.201 489.06C810.329 489.06 802.65 491.803 793.165 497.289C783.68 502.775 779.389 506.433 780.293 508.261C781.196 510.09 784.132 512.147 789.1 514.433C794.069 516.719 800.618 517.862 808.748 517.862C816.878 517.862 822.298 517.176 825.008 515.805C827.718 514.433 829.751 511.462 831.106 506.89C832.461 502.318 833.816 499.575 835.171 498.661C836.526 497.746 841.042 497.289 848.721 497.289C856.399 497.289 860.464 498.432 860.916 500.718C861.368 503.004 860.916 505.518 859.561 508.261C858.206 511.004 855.27 512.376 850.753 512.376C846.237 512.376 841.042 514.662 835.171 519.234C829.299 523.805 824.556 526.091 820.943 526.091C819.136 526.091 817.33 526.091 815.523 526.091C815.749 527.234 815.975 528.377 816.201 529.52C816.652 531.806 819.362 534.092 824.331 536.378C829.299 538.663 833.816 539.806 837.881 539.806C841.946 539.806 845.559 538.892 848.721 537.063C850.302 536.149 851.883 535.235 853.463 534.32C853.463 535.006 853.463 535.692 853.463 536.378C853.463 537.749 851.431 540.264 847.366 543.921C843.301 547.578 840.591 551.236 839.236 554.893C837.881 558.55 837.203 562.436 837.203 566.551C837.203 570.666 837.881 573.409 839.236 574.78C840.591 576.152 841.268 577.752 841.268 579.58C841.268 581.409 842.172 582.552 843.978 583.009C845.785 583.466 848.721 581.181 852.786 576.152C856.851 571.123 859.787 566.322 861.593 561.751C863.4 557.179 864.304 553.75 864.304 551.464C864.304 549.178 863.4 546.664 861.593 543.921C859.787 541.178 858.883 537.521 858.883 532.949C858.883 528.377 859.335 525.863 860.238 525.405C861.142 524.948 861.593 522.891 861.593 519.234C861.593 515.576 862.723 511.233 864.981 506.204C867.239 501.175 869.724 496.832 872.434 493.175C873.789 491.346 875.144 489.517 876.499 487.689C876.499 490.889 876.499 494.089 876.499 497.289C876.499 503.69 877.854 508.947 880.564 513.062C883.274 517.176 885.306 519.462 886.661 519.919C888.016 520.376 889.145 520.148 890.049 519.234C890.952 518.319 892.533 515.576 894.791 511.004C897.05 506.433 898.179 501.404 898.179 495.918C898.179 490.432 897.05 486.774 894.791 484.946C892.533 483.117 891.404 480.602 891.404 477.402C891.404 474.202 894.114 470.087 899.534 465.058C904.954 460.03 909.471 454.543 913.084 448.6C914.891 445.629 916.697 442.657 918.504 439.685C918.504 450.429 918.504 461.173 918.504 471.916C918.504 493.403 917.601 511.462 915.794 526.091C913.987 540.721 909.922 548.721 903.599 550.093C897.276 551.464 892.307 553.979 888.694 557.636C885.08 561.294 881.919 565.865 879.209 571.351C876.499 576.837 875.595 580.266 876.499 581.638C877.402 583.009 879.209 583.695 881.919 583.695C884.629 583.695 889.823 582.095 897.501 578.895C901.341 577.295 905.18 575.695 909.019 574.094C907.89 578.895 906.761 583.695 905.631 588.495C903.373 598.096 897.05 607.697 886.661 617.297C876.273 626.898 868.369 628.955 862.949 623.469C857.528 617.983 850.528 615.24 841.946 615.24C833.364 615.24 828.396 614.783 827.041 613.868C825.686 612.954 823.879 612.954 821.621 613.868C819.362 614.783 818.233 615.926 818.233 617.297C818.233 618.669 820.491 621.64 825.008 626.212C829.525 630.784 834.945 634.67 841.268 637.87C844.43 639.47 847.592 641.07 850.753 642.67C850.076 643.585 849.398 644.499 848.721 645.413C847.366 647.242 845.559 648.157 843.301 648.157C841.042 648.157 839.687 648.614 839.236 649.528C838.784 650.442 835.622 651.585 829.751 652.957C823.879 654.328 817.104 654.557 809.425 653.643C801.747 652.728 795.875 649.985 791.81 645.413C787.745 640.842 783.68 637.413 779.615 635.127C775.55 632.841 770.582 632.155 764.71 633.07C758.838 633.984 752.741 636.727 746.417 641.299C740.094 645.871 737.384 649.528 738.287 652.271C739.191 655.014 741.223 656.386 744.385 656.386C745.966 656.386 747.547 656.386 749.127 656.386C749.127 656.843 749.127 657.3 749.127 657.757C749.127 658.214 749.127 658.672 749.127 659.129C750.031 659.129 750.934 659.129 751.837 659.129C753.644 659.129 756.128 660.272 759.29 662.557C762.452 664.843 768.098 665.986 776.228 665.986C784.358 665.986 789.326 664.843 791.133 662.557C792.939 660.272 795.875 659.129 799.94 659.129C801.973 659.129 804.005 659.129 806.038 659.129C804.231 660.957 802.425 662.786 800.618 664.615C797.005 668.272 795.198 671.015 795.198 672.844C795.198 673.758 795.198 674.673 795.198 675.587C794.746 675.587 794.294 675.587 793.843 675.587C793.391 675.587 792.939 675.587 792.488 675.587C792.488 676.958 792.488 678.33 792.488 679.701C792.488 682.445 791.81 684.73 790.455 686.559C789.1 688.388 788.649 690.445 789.1 692.731C789.552 695.017 791.359 696.16 794.52 696.16C797.682 696.16 801.973 694.331 807.393 690.674C812.813 687.016 816.652 683.359 818.911 679.701C821.169 676.044 822.298 672.387 822.298 668.729C822.298 665.072 823.879 662.557 827.041 661.186C828.621 660.5 830.202 659.814 831.783 659.129C831.557 663.015 831.332 666.901 831.106 670.787C830.654 678.559 830.654 683.587 831.106 685.873C831.557 688.159 832.687 689.759 834.493 690.674C836.3 691.588 840.139 687.245 846.011 677.644C851.883 668.044 855.044 661.643 855.496 658.443C855.948 655.243 855.722 652.957 854.818 651.585C854.367 650.9 853.915 650.214 853.463 649.528C857.077 647.242 860.69 644.956 864.304 642.67C871.53 638.099 879.209 631.927 887.339 624.155C891.404 620.269 895.469 616.383 899.534 612.497C898.405 617.069 897.276 621.64 896.146 626.212C893.888 635.356 890.5 645.642 885.984 657.071C881.467 668.501 876.273 674.215 870.401 674.215C864.529 674.215 858.658 676.958 852.786 682.445C846.914 687.931 843.075 690.902 841.268 691.359C840.365 691.588 839.462 691.817 838.558 692.045C839.01 693.188 839.462 694.331 839.913 695.474C840.817 697.76 842.623 699.131 845.333 699.589C848.043 700.046 852.56 699.589 858.883 698.217C862.045 697.531 865.207 696.846 868.369 696.16C867.014 699.36 865.659 702.56 864.304 705.76C861.593 712.161 857.754 717.418 852.786 721.533C847.818 725.647 842.623 728.848 837.203 731.134C831.783 733.419 827.944 732.048 825.686 727.019C823.427 721.99 819.588 717.875 814.168 714.675C808.748 711.475 805.586 710.332 804.683 711.246C803.78 712.161 803.554 715.361 804.005 720.847C804.457 726.333 805.812 730.219 808.07 732.505C810.329 734.791 811.458 736.62 811.458 737.991C811.458 739.363 809.877 740.277 806.715 740.734C803.554 741.191 801.747 741.877 801.295 742.791C800.844 743.706 798.811 744.163 795.198 744.163C793.391 744.163 791.584 744.163 789.778 744.163C789.778 743.02 789.778 741.877 789.778 740.734C789.778 739.591 789.778 738.448 789.778 737.305C789.326 737.305 788.874 737.305 788.423 737.305C787.519 737.305 786.164 735.705 784.358 732.505C782.551 729.305 778.712 726.562 772.84 724.276C766.968 721.99 763.129 719.933 761.322 718.104C759.516 716.275 757.709 715.361 755.902 715.361C754.999 715.361 754.096 715.361 753.192 715.361C753.192 716.275 753.192 717.19 753.192 718.104C753.192 719.933 754.322 723.362 756.58 728.39C758.838 733.419 761.322 737.305 764.033 740.048C765.388 741.42 766.743 742.791 768.098 744.163C766.065 744.62 764.033 745.077 762 745.534C757.935 746.449 754.773 746.906 752.515 746.906C750.257 746.906 747.095 745.763 743.03 743.477C738.965 741.191 736.932 739.591 736.932 738.677C736.932 737.763 733.996 736.162 728.125 733.877C722.253 731.591 717.962 730.448 715.252 730.448C712.542 730.448 709.38 728.848 705.767 725.647C702.154 722.447 697.411 720.847 691.539 720.847C685.668 720.847 679.796 722.219 673.924 724.962C670.988 726.333 668.052 727.705 665.117 729.076C666.02 730.676 666.923 732.276 667.827 733.877C669.633 737.077 672.795 739.82 677.312 742.106C681.828 744.392 686.797 745.534 692.217 745.534C697.637 745.534 701.476 745.077 703.734 744.163C705.993 743.249 707.799 741.649 709.154 739.363C710.509 737.077 712.542 735.934 715.252 735.934C717.962 735.934 722.705 737.534 729.48 740.734C732.867 742.334 736.255 743.934 739.642 745.534C738.739 746.449 737.836 747.363 736.932 748.278C735.126 750.106 731.512 751.021 726.092 751.021C720.672 751.021 717.736 750.563 717.285 749.649C716.833 748.735 714.349 748.735 709.832 749.649C705.315 750.563 699.895 753.535 693.572 758.564C690.41 761.078 687.248 763.593 684.087 766.107C685.893 767.022 687.7 767.936 689.507 768.85C693.12 770.679 698.766 771.593 706.444 771.593C714.123 771.593 719.091 770.908 721.35 769.536C723.608 768.165 725.64 765.422 727.447 761.307C729.254 757.192 734.9 754.678 744.385 753.764C749.127 753.306 753.87 752.849 758.612 752.392C754.547 754.907 750.482 757.421 746.417 759.935C738.287 764.964 731.286 770.222 725.415 775.708C719.543 781.194 714.575 784.394 710.509 785.309C706.444 786.223 702.154 789.423 697.637 794.909C693.12 800.395 690.41 806.339 689.507 812.739C689.055 815.939 688.603 819.139 688.152 822.34C689.281 822.34 690.41 822.34 691.539 822.34C693.798 822.34 699.444 819.139 708.477 812.739C717.51 806.339 722.027 800.167 722.027 794.223C722.027 788.28 723.608 783.708 726.77 780.508C728.35 778.908 729.931 777.308 731.512 775.708C732.416 778.908 733.319 782.108 734.222 785.309C736.029 791.709 738.061 795.824 740.32 797.652C741.449 798.567 742.578 799.481 743.707 800.395C744.836 798.338 745.966 796.281 747.095 794.223C749.353 790.109 750.708 785.766 751.16 781.194C751.612 776.622 751.386 772.736 750.482 769.536C749.579 766.336 752.289 762.678 758.612 758.564C764.936 754.449 776.002 751.249 791.81 748.963C807.619 746.677 821.169 742.791 832.461 737.305C838.107 734.562 843.752 731.819 849.398 729.076C849.624 729.762 849.85 730.448 850.076 731.134C850.528 732.505 850.076 734.334 848.721 736.62C847.366 738.905 842.849 745.534 835.171 756.507C827.492 767.479 821.621 771.593 817.556 768.85C813.491 766.107 808.522 764.279 802.65 763.364C796.779 762.45 789.1 764.736 779.615 770.222C770.13 775.708 765.839 779.594 766.743 781.88C767.646 784.166 769.453 785.309 772.163 785.309C774.873 785.309 776.905 785.994 778.26 787.366C779.615 788.737 783.906 789.423 791.133 789.423C798.36 789.423 803.78 788.737 807.393 787.366C809.2 786.68 811.006 785.994 812.813 785.309C807.845 791.023 802.876 796.738 797.908 802.453C787.971 813.882 782.325 819.597 780.97 819.597C779.615 819.597 777.131 817.997 773.518 814.796C769.904 811.596 765.388 809.996 759.967 809.996C754.547 809.996 749.805 811.139 745.74 813.425C741.675 815.711 737.384 816.854 732.867 816.854C728.35 816.854 725.64 817.311 724.737 818.225C723.834 819.139 723.608 820.511 724.06 822.34C724.511 824.168 727.899 826.683 734.222 829.883C740.546 833.083 747.095 834.683 753.87 834.683C757.257 834.683 760.645 834.683 764.033 834.683C763.581 835.598 763.129 836.512 762.678 837.426C761.774 839.255 755.451 844.513 743.707 853.199C731.964 861.885 719.995 866.228 707.799 866.228C701.702 866.228 695.604 866.228 689.507 866.228C689.507 863.714 689.507 861.199 689.507 858.685C689.507 853.656 688.829 849.541 687.474 846.341C686.119 843.141 682.506 839.026 676.634 833.998C670.762 828.969 666.697 826.683 664.439 827.14C662.181 827.597 661.051 829.426 661.051 832.626C661.051 835.826 662.632 841.084 665.794 848.399C667.375 852.056 668.956 855.713 670.537 859.371C667.601 858.914 664.665 858.456 661.729 857.999C655.857 857.085 652.921 856.17 652.921 855.256C652.921 854.342 651.115 852.742 647.501 850.456C643.888 848.17 639.371 847.027 633.951 847.027C628.531 847.027 623.337 848.17 618.369 850.456C613.4 852.742 609.561 853.885 606.851 853.885C604.141 853.885 602.56 854.799 602.108 856.628C601.657 858.456 602.334 860.285 604.141 862.114C605.948 863.942 610.464 866.457 617.691 869.657C624.918 872.857 630.564 874.457 634.629 874.457C638.694 874.457 642.759 873.315 646.824 871.029C650.889 868.743 653.147 866.685 653.599 864.857C654.051 863.028 657.212 862.571 663.084 863.485C668.956 864.4 674.376 866 679.344 868.286C684.313 870.571 691.765 871.943 701.702 872.4C706.67 872.629 711.639 872.857 716.607 873.086C705.767 879.486 694.927 885.887 684.087 892.287C662.407 905.088 650.889 910.574 649.534 908.745C648.179 906.917 645.469 905.088 641.404 903.259C637.339 901.431 631.467 900.974 623.789 901.888C616.11 902.802 612.271 904.174 612.271 906.002C612.271 907.831 613.4 909.203 615.659 910.117C617.917 911.031 619.498 912.403 620.401 914.232C621.304 916.06 623.789 917.66 627.854 919.032C629.886 919.718 631.919 920.403 633.951 921.089C630.338 923.146 626.724 925.204 623.111 927.261C615.884 931.376 611.593 933.433 610.238 933.433C608.883 933.433 607.98 932.518 607.528 930.69C607.077 928.861 604.818 926.575 600.753 923.832C596.688 921.089 590.591 919.718 582.461 919.718C574.331 919.718 570.04 920.632 569.588 922.461C569.136 924.289 570.04 926.575 572.298 929.318C574.556 932.061 577.492 934.576 581.106 936.862C584.719 939.148 587.881 940.29 590.591 940.29C591.946 940.29 593.301 940.29 594.656 940.29C594.656 940.748 594.656 941.205 594.656 941.662C594.656 942.576 593.075 943.948 589.913 945.777C586.752 947.605 581.783 948.52 575.008 948.52C568.233 948.52 561.232 949.891 554.005 952.634C546.779 955.377 541.133 959.035 537.068 963.606C533.003 968.178 530.293 971.835 528.938 974.578C527.583 977.322 527.131 979.607 527.583 981.436C528.034 983.265 529.389 984.179 531.648 984.179C533.906 984.179 535.713 983.493 537.068 982.122C538.423 980.75 542.714 980.293 549.94 980.75C557.167 981.207 563.039 980.75 567.556 979.379C572.072 978.007 575.911 975.721 579.073 972.521C582.235 969.321 584.945 964.978 587.203 959.492C589.462 954.006 591.268 951.263 592.623 951.263C593.301 951.263 593.978 951.263 594.656 951.263C594.43 954.006 594.204 956.749 593.978 959.492C593.527 964.978 593.752 967.949 594.656 968.407C595.559 968.864 596.011 970.235 596.011 972.521C596.011 974.807 597.14 976.864 599.398 978.693C600.528 979.607 601.657 980.522 602.786 981.436C604.593 977.779 606.399 974.121 608.206 970.464C611.819 963.149 613.174 956.292 612.271 949.891C611.368 943.491 617.691 936.633 631.241 929.318C638.016 925.661 644.791 922.003 651.566 918.346C650.889 921.775 650.211 925.204 649.534 928.633C648.179 935.49 645.017 939.148 640.049 939.605C635.08 940.062 630.79 943.033 627.176 948.52C623.563 954.006 621.756 957.892 621.756 960.177C621.756 962.463 622.434 963.835 623.789 964.292C625.144 964.749 626.273 964.292 627.176 962.921C628.079 961.549 631.241 959.949 636.661 958.12C639.371 957.206 642.081 956.292 644.791 955.377C644.791 956.749 644.791 958.12 644.791 959.492C644.791 962.235 643.662 964.063 641.404 964.978C639.145 965.892 636.887 968.178 634.629 971.835C632.37 975.493 631.241 979.607 631.241 984.179C631.241 988.751 631.919 992.865 633.274 996.523C634.629 1000.18 636.435 1002.47 638.694 1003.38C640.952 1004.29 644.34 1000.87 648.856 993.094C653.373 985.322 655.631 979.607 655.631 975.95C655.631 972.293 654.728 969.55 652.921 967.721C651.115 965.892 650.211 963.835 650.211 961.549C650.211 959.263 650.663 957.434 651.566 956.063C652.47 954.691 653.599 947.377 654.954 934.119C656.309 920.861 658.567 913.774 661.729 912.86C664.891 911.946 669.859 909.203 676.634 904.631C680.022 902.345 683.409 900.059 686.797 897.773C686.345 898.688 685.893 899.602 685.442 900.516C684.538 902.345 684.087 906.917 684.087 914.232C684.087 921.546 684.538 926.118 685.442 927.947C686.345 929.775 687.7 930.69 689.507 930.69C690.41 930.69 691.313 930.69 692.217 930.69C692.217 930.004 692.217 929.318 692.217 928.633C692.217 927.261 693.798 924.975 696.959 921.775C700.121 918.575 702.831 914.689 705.089 910.117C707.348 905.545 708.477 901.888 708.477 899.145C708.477 896.402 707.574 893.887 705.767 891.601C704.864 890.459 703.96 889.316 703.057 888.173C706.896 885.43 710.735 882.687 714.575 879.944C718.414 877.2 722.253 874.457 726.092 871.714C725.64 874.457 725.189 877.2 724.737 879.944C723.834 885.43 723.608 895.487 724.06 910.117C724.511 924.747 721.801 932.747 715.93 934.119C710.058 935.49 704.864 938.69 700.347 943.719C695.83 948.748 693.572 952.406 693.572 954.691C693.572 956.977 693.12 958.349 692.217 958.806C691.313 959.263 690.862 960.406 690.862 962.235C690.862 964.063 691.765 965.206 693.572 965.664C695.379 966.121 697.863 964.978 701.024 962.235C704.186 959.492 708.929 957.434 715.252 956.063C718.414 955.377 721.575 954.691 724.737 954.006C724.06 959.035 723.382 964.063 722.705 969.092C721.35 979.15 719.543 984.636 717.285 985.551C715.026 986.465 713.22 988.294 711.864 991.037C710.509 993.78 709.38 995.151 708.477 995.151C708.025 995.151 707.574 995.151 707.122 995.151C707.122 997.894 707.122 1000.64 707.122 1003.38C707.122 1008.87 707.574 1012.75 708.477 1015.04C709.38 1017.32 710.961 1018.92 713.22 1019.84C715.478 1020.75 718.64 1017.78 722.705 1010.92C726.77 1004.07 728.576 998.809 728.125 995.151C727.673 991.494 726.995 989.437 726.092 988.979C725.189 988.522 725.415 985.551 726.77 980.065C727.447 977.322 728.125 974.578 728.802 971.835C730.157 974.35 731.512 976.864 732.867 979.379C735.577 984.408 738.061 987.151 740.32 987.608C741.449 987.836 742.578 988.065 743.707 988.294C743.933 987.151 744.159 986.008 744.385 984.865C744.836 982.579 744.836 976.636 744.385 967.035C743.933 957.434 742.352 951.034 739.642 947.834C736.932 944.634 734.9 943.033 733.545 943.033C732.19 943.033 731.286 941.891 730.835 939.605C730.383 937.319 729.706 929.318 728.802 915.603C727.899 901.888 727.899 894.802 728.802 894.344C729.706 893.887 730.383 890.001 730.835 882.687C731.286 875.372 732.19 870.571 733.545 868.286C734.9 866 738.965 862.571 745.74 857.999C749.127 855.713 752.515 853.427 755.902 851.142C755.225 853.885 754.547 856.628 753.87 859.371C752.515 864.857 752.063 869.657 752.515 873.772C752.967 877.886 754.322 882.458 756.58 887.487C758.838 892.516 760.871 895.03 762.678 895.03C764.484 895.03 766.743 890.687 769.453 882.001C772.163 873.315 774.195 868.286 775.55 866.914C776.905 865.543 777.583 862.342 777.583 857.313C777.583 852.285 776.228 847.941 773.518 844.284C770.808 840.627 773.518 834.912 781.648 827.14C785.713 823.254 789.778 819.368 793.843 815.482C794.069 817.082 794.294 818.682 794.52 820.282C794.972 823.483 796.779 827.826 799.94 833.312C803.102 838.798 806.038 842.684 808.748 844.97C811.458 847.256 813.491 847.941 814.846 847.027C816.201 846.113 816.878 841.541 816.878 833.312C816.878 825.083 816.201 820.054 814.846 818.225C813.491 816.396 812.813 814.339 812.813 812.053C812.813 809.767 811.684 807.482 809.425 805.196C808.296 804.053 807.167 802.91 806.038 801.767C808.748 799.024 811.458 796.281 814.168 793.538C819.588 788.052 824.105 782.337 827.718 776.394C831.332 770.45 833.59 767.707 834.493 768.165C835.397 768.622 836.074 781.88 836.526 807.939C836.752 820.968 836.977 833.998 837.203 847.027C836.074 847.027 834.945 847.027 833.816 847.027C831.557 847.027 828.396 848.627 824.331 851.827C820.266 855.028 817.104 858.456 814.846 862.114C812.587 865.771 811.458 868.743 811.458 871.029C811.458 873.315 812.136 874.686 813.491 875.143C814.846 875.6 817.33 874.457 820.943 871.714C824.556 868.971 827.492 867.6 829.751 867.6C832.009 867.6 833.816 866.685 835.171 864.857C835.848 863.942 836.526 863.028 837.203 862.114C837.203 863.257 837.203 864.4 837.203 865.543C837.203 867.828 835.622 870.8 832.461 874.457C829.299 878.115 827.718 881.772 827.718 885.43C827.718 889.087 828.396 892.744 829.751 896.402C831.106 900.059 832.235 901.888 833.138 901.888C833.59 901.888 834.042 901.888 834.493 901.888C834.493 902.802 834.493 903.717 834.493 904.631C834.493 905.545 834.493 906.46 834.493 907.374C835.848 907.145 837.203 906.917 838.558 906.688C841.268 906.231 842.623 905.088 842.623 903.259C842.623 901.431 843.752 898.916 846.011 895.716C848.269 892.516 849.398 888.173 849.398 882.687C849.398 877.2 848.269 873.315 846.011 871.029C843.752 868.743 842.623 862.571 842.623 852.513C842.623 847.484 842.623 842.455 842.623 837.426C843.075 837.426 843.527 837.426 843.978 837.426C844.882 837.426 848.721 839.255 855.496 842.912C862.271 846.57 865.433 851.142 864.981 856.628C864.755 859.371 864.529 862.114 864.304 864.857C864.755 864.857 865.207 864.857 865.659 864.857C866.562 864.857 867.917 866.457 869.724 869.657C871.53 872.857 874.014 875.143 877.176 876.515C880.338 877.886 883.951 878.572 888.016 878.572C890.049 878.572 892.081 878.572 894.114 878.572C892.985 874.457 891.855 870.343 890.726 866.228C888.468 857.999 883.725 852.056 876.499 848.399C872.885 846.57 869.272 844.741 865.659 842.912C867.239 840.855 868.82 838.798 870.401 836.741C873.563 832.626 875.369 827.826 875.821 822.34C876.047 819.597 876.273 816.854 876.499 814.111C873.563 815.253 870.627 816.396 867.691 817.539C861.819 819.825 857.528 823.025 854.818 827.14C852.108 831.255 849.398 832.855 846.688 831.94C843.978 831.026 842.623 826.226 842.623 817.539C842.623 813.196 842.623 808.853 842.623 804.51C845.107 804.738 847.592 804.967 850.076 805.196C855.044 805.653 858.432 805.196 860.238 803.824C862.045 802.453 864.529 801.767 867.691 801.767C870.853 801.767 872.885 800.624 873.789 798.338C874.692 796.052 871.982 793.309 865.659 790.109C859.335 786.909 853.689 785.994 848.721 787.366C846.237 788.052 843.752 788.737 841.268 789.423C841.268 784.166 841.268 778.908 841.268 773.651C841.268 763.136 844.656 752.164 851.431 740.734C854.818 735.019 858.206 729.305 861.593 723.59C862.497 725.419 863.4 727.248 864.304 729.076C866.11 732.734 869.272 736.848 873.789 741.42C878.305 745.992 882.37 748.963 885.984 750.335C887.79 751.021 889.597 751.706 891.404 752.392C891.404 748.049 891.404 743.706 891.404 739.363C891.404 730.676 890.952 726.105 890.049 725.647C889.145 725.19 888.694 723.819 888.694 721.533C888.694 719.247 888.016 716.961 886.661 714.675C885.306 712.389 882.596 710.332 878.531 708.503C874.466 706.675 872.434 704.846 872.434 703.017C872.434 701.189 874.014 697.76 877.176 692.731C880.338 687.702 882.37 682.902 883.274 678.33C884.177 673.758 885.306 671.015 886.661 670.101C888.016 669.186 890.952 661.415 895.469 646.785C897.727 639.47 899.986 632.155 902.244 624.841C904.051 627.812 905.857 630.784 907.664 633.756C911.277 639.699 910.826 645.185 906.309 650.214C901.792 655.243 899.534 662.329 899.534 671.472C899.534 680.616 899.986 685.873 900.889 687.245C901.792 688.616 903.147 689.302 904.954 689.302C906.761 689.302 909.922 685.873 914.439 679.016C918.956 672.158 921.44 667.586 921.892 665.301C922.117 664.158 922.343 663.015 922.569 661.872C922.569 667.815 922.569 673.758 922.569 679.701C922.569 691.588 920.311 699.817 915.794 704.389C911.277 708.961 909.019 713.99 909.019 719.476C909.019 724.962 910.374 732.048 913.084 740.734C915.794 749.42 918.052 753.764 919.859 753.764C921.666 753.764 923.472 752.849 925.279 751.021C927.086 749.192 929.57 745.077 932.732 738.677C935.893 732.276 937.474 724.962 937.474 716.733C937.474 712.618 937.474 708.503 937.474 704.389C940.41 708.046 943.346 711.704 946.282 715.361C952.154 722.676 955.767 726.79 957.122 727.705C958.477 728.619 960.284 728.619 962.542 727.705C964.8 726.79 965.026 720.161 963.22 707.818C961.413 695.474 959.38 687.931 957.122 685.188C954.864 682.445 951.024 680.159 945.604 678.33C940.184 676.501 937.474 674.901 937.474 673.53C937.474 672.158 936.345 670.329 934.087 668.044C931.828 665.758 927.989 659.129 922.569 648.157C917.149 637.184 912.858 629.641 909.696 625.526C906.535 621.412 905.631 616.154 906.986 609.754C907.664 606.554 908.341 603.354 909.019 600.153C911.503 602.896 913.987 605.639 916.472 608.382C921.44 613.868 926.86 617.297 932.732 618.669C935.668 619.355 938.603 620.04 941.539 620.726C939.733 615.926 937.926 611.125 936.119 606.325C932.506 596.724 929.344 590.781 926.634 588.495C923.924 586.209 920.762 585.067 917.149 585.067C915.342 585.067 913.536 585.067 911.729 585.067C913.31 577.066 914.891 569.065 916.472 561.065C918.052 553.064 919.633 545.064 921.214 537.063C922.569 538.663 923.924 540.264 925.279 541.864C927.989 545.064 931.603 547.807 936.119 550.093C940.636 552.379 943.572 553.522 944.927 553.522C946.282 553.522 947.411 552.836 948.314 551.464C949.218 550.093 949.218 546.207 948.314 539.806C947.411 533.406 945.83 528.377 943.572 524.72C941.313 521.062 937.474 518.548 932.054 517.176C926.634 515.805 923.924 507.347 923.924 491.803C923.924 484.031 923.924 476.259 923.924 468.487C928.667 474.659 933.409 480.831 938.152 487.003C947.637 499.347 953.96 508.947 957.122 515.805C960.284 522.662 962.768 530.434 964.575 539.121C966.381 547.807 966.381 552.836 964.575 554.207C962.768 555.579 961.413 558.779 960.509 563.808C959.606 568.837 960.058 573.637 961.864 578.209C963.671 582.781 966.607 587.124 970.672 591.238C974.737 595.353 977.673 597.639 979.48 598.096C981.286 598.553 982.867 598.325 984.222 597.41C985.577 596.496 986.255 591.01 986.255 580.952C986.255 570.894 985.577 564.494 984.222 561.751C983.545 560.379 982.867 559.008 982.19 557.636C984.448 558.093 986.706 558.55 988.965 559.008C993.481 559.922 996.417 561.065 997.772 562.436C999.127 563.808 1000.48 564.265 1001.84 563.808C1003.19 563.351 1004.1 563.579 1004.55 564.494C1005 565.408 1006.35 565.637 1008.61 565.18C1009.74 564.951 1010.87 564.722 1012 564.494C1011.55 562.208 1011.1 559.922 1010.64 557.636C1009.74 553.064 1007.03 547.121 1002.51 539.806C997.998 532.492 994.159 528.148 990.997 526.777C987.836 525.405 983.996 524.948 979.48 525.405C974.963 525.863 970.672 523.577 966.607 518.548C962.542 513.519 960.509 510.547 960.509 509.633C960.509 509.176 960.509 508.719 960.509 508.261C961.864 508.719 963.22 509.176 964.575 509.633C967.285 510.547 972.479 510.547 980.157 509.633C987.836 508.719 992.352 508.033 993.707 507.576C995.062 507.118 995.74 505.747 995.74 503.461C995.74 501.175 994.385 499.804 991.675 499.347C988.965 498.889 985.126 496.603 980.157 492.489C975.189 488.374 970.446 486.317 965.93 486.317C961.413 486.317 958.025 487.46 955.767 489.746C953.509 492.032 951.476 493.175 949.669 493.175C947.863 493.175 944.249 489.289 938.829 481.517C933.409 473.745 929.57 466.887 927.312 460.944C925.053 455.001 923.924 450.658 923.924 447.914C923.924 446.543 923.924 445.171 923.924 443.8C927.989 446.086 932.054 448.372 936.119 450.658C944.249 455.229 949.218 457.287 951.024 456.829C952.831 456.372 953.734 455.001 953.734 452.715C953.734 450.429 951.024 445.629 945.604 438.314C940.184 430.999 935.216 427.113 930.699 426.656C926.182 426.199 923.472 420.255 922.569 408.826C921.666 397.397 919.633 387.11 916.472 377.967C913.31 368.823 910.826 364.023 909.019 363.566C908.116 363.337 907.212 363.109 906.309 362.88C906.309 364.252 906.309 365.623 906.309 366.995ZM927.989 431.456C929.118 431.456 930.248 431.456 931.377 431.456C933.635 431.456 935.442 432.142 936.797 433.514C938.152 434.885 939.958 437.857 942.217 442.428C943.346 444.714 944.475 447 945.604 449.286C943.346 448.143 941.088 447 938.829 445.857C934.313 443.571 932.28 441.057 932.732 438.314C933.183 435.571 932.506 433.742 930.699 432.828C929.796 432.371 928.893 431.913 927.989 431.456ZM16.065 434.199C15.1617 435.114 14.71 440.6 14.71 450.658C14.71 460.715 14.2584 466.43 13.355 467.802C12.4517 469.173 12.6775 471.23 14.0325 473.973C15.3875 476.716 16.9684 477.859 18.7751 477.402C20.5818 476.945 21.0334 473.745 20.1301 467.802C19.6784 464.83 19.2267 461.858 18.7751 458.887C27.8085 459.801 36.8419 460.715 45.8753 461.63C54.9088 462.544 63.9422 463.458 72.9756 464.373C72.9756 462.544 72.9756 460.715 72.9756 458.887C72.9756 457.058 72.9756 455.229 72.9756 453.401C67.7814 453.401 62.5872 453.401 57.393 453.401C47.0045 453.401 37.7453 452.715 29.6152 451.343C25.5501 450.658 21.4851 449.972 17.4201 449.286C17.6459 447.914 17.8717 446.543 18.0976 445.171C18.5492 442.428 19.9042 440.371 22.1626 439C24.421 437.628 25.3243 436.257 24.8726 434.885C24.421 433.514 23.0659 432.828 20.8076 432.828C18.5492 432.828 16.9684 433.285 16.065 434.199ZM881.919 480.831C882.37 481.06 882.822 481.288 883.274 481.517C883.725 481.745 884.177 481.974 884.629 482.203C884.177 481.974 883.725 481.745 883.274 481.517C882.822 481.288 882.37 481.06 881.919 480.831ZM891.404 487.689C891.63 490.203 891.855 492.717 892.081 495.232C892.533 500.261 892.081 504.147 890.726 506.89C889.371 509.633 888.016 511.004 886.661 511.004C885.306 511.004 884.177 507.576 883.274 500.718C882.822 497.289 882.37 493.86 881.919 490.432C882.37 490.432 882.822 490.432 883.274 490.432C883.725 490.432 884.177 490.432 884.629 490.432C884.403 491.575 884.177 492.717 883.951 493.86C883.5 496.146 883.725 497.746 884.629 498.661C885.08 499.118 885.532 499.575 885.984 500.032C886.887 497.975 887.79 495.918 888.694 493.86C889.597 491.803 890.5 489.746 891.404 487.689ZM965.93 491.803C969.543 491.803 973.608 493.632 978.125 497.289C980.383 499.118 982.641 500.947 984.9 502.775C982.416 503.232 979.931 503.69 977.447 504.147C972.479 505.061 968.188 505.061 964.575 504.147C962.768 503.69 960.961 503.232 959.154 502.775C960.961 502.318 962.768 501.861 964.575 501.404C966.381 500.947 968.188 500.489 969.995 500.032C969.769 499.347 969.543 498.661 969.317 497.975C968.865 496.603 966.607 495.918 962.542 495.918C960.509 495.918 958.477 495.918 956.444 495.918C957.122 495.232 957.799 494.546 958.477 493.86C959.832 492.489 962.316 491.803 965.93 491.803ZM816.201 494.546C818.685 494.546 821.169 494.546 823.653 494.546C823.427 495.232 823.201 495.918 822.976 496.603C822.524 497.975 819.588 499.347 814.168 500.718C811.458 501.404 808.748 502.09 806.038 502.775C806.264 503.69 806.49 504.604 806.715 505.518C807.167 507.347 808.07 508.261 809.425 508.261C810.78 508.261 812.136 507.576 813.491 506.204C814.846 504.833 817.556 503.69 821.621 502.775C823.653 502.318 825.686 501.861 827.718 501.404C827.718 502.09 827.718 502.775 827.718 503.461C827.718 504.833 826.589 506.661 824.331 508.947C822.072 511.233 817.104 512.376 809.425 512.376C801.747 512.376 796.101 511.69 792.488 510.319C790.681 509.633 788.874 508.947 787.068 508.261C790.681 505.976 794.294 503.69 797.908 501.404C805.135 496.832 811.232 494.546 816.201 494.546ZM12.6775 504.147C13.1292 506.89 14.71 508.261 17.4201 508.261C20.1301 508.261 24.6468 509.862 30.9702 513.062C34.1319 514.662 37.2936 516.262 40.4553 517.862C37.5194 520.148 34.5836 522.434 31.6477 524.72C25.776 529.291 21.4851 531.806 18.7751 532.263C16.065 532.72 14.4842 534.549 14.0325 537.749C13.5808 540.949 13.8067 543.007 14.71 543.921C15.6134 544.835 21.0334 541.864 30.9702 535.006C40.907 528.148 50.3921 524.491 59.4255 524.034C63.9422 523.805 68.4589 523.577 72.9756 523.348C72.7498 521.748 72.5239 520.148 72.2981 518.548C71.8464 515.348 66.6522 514.205 56.7154 515.119C51.7471 515.576 46.7787 516.033 41.8103 516.491C41.8103 516.033 41.8103 515.576 41.8103 515.119C41.8103 514.205 38.6486 512.605 32.3252 510.319C26.0018 508.033 21.9368 505.747 20.1301 503.461C18.3234 501.175 16.5167 500.032 14.71 500.032C13.8067 500.032 12.9033 500.032 12 500.032C12.2258 501.404 12.4517 502.775 12.6775 504.147ZM850.076 517.862C851.657 517.862 853.238 517.862 854.818 517.862C854.818 518.548 854.818 519.234 854.818 519.919C854.818 521.291 853.012 522.205 849.398 522.662C847.592 522.891 845.785 523.12 843.978 523.348C844.204 524.034 844.43 524.72 844.656 525.405C845.107 526.777 846.463 527.691 848.721 528.148C849.85 528.377 850.979 528.606 852.108 528.834C850.076 529.977 848.043 531.12 846.011 532.263C841.946 534.549 837.881 535.006 833.816 533.635C831.783 532.949 829.751 532.263 827.718 531.577C827.944 530.891 828.17 530.206 828.396 529.52C828.847 528.148 829.977 527.463 831.783 527.463C833.59 527.463 836.3 525.863 839.913 522.662C843.527 519.462 846.914 517.862 850.076 517.862ZM927.989 520.605C928.893 520.605 929.796 520.605 930.699 520.605C932.506 520.605 934.313 521.519 936.119 523.348C937.926 525.177 939.507 529.291 940.862 535.692C941.539 538.892 942.217 542.092 942.894 545.292C941.313 544.835 939.733 544.378 938.152 543.921C934.99 543.007 931.828 540.721 928.667 537.063C925.505 533.406 923.924 530.891 923.924 529.52C923.924 528.834 923.924 528.148 923.924 527.463C925.053 527.463 926.182 527.463 927.312 527.463C928.441 527.463 929.57 527.463 930.699 527.463C930.248 526.32 929.796 525.177 929.344 524.034C928.893 522.891 928.441 521.748 927.989 520.605ZM967.285 527.463C967.962 527.92 968.64 528.377 969.317 528.834C970.672 529.749 971.35 533.177 971.35 539.121C971.35 542.092 971.35 545.064 971.35 548.035C970.672 544.607 969.995 541.178 969.317 537.749C968.64 534.32 967.962 530.891 967.285 527.463ZM980.835 530.206C983.093 530.891 985.351 531.577 987.61 532.263C992.126 533.635 995.514 536.149 997.772 539.806C1000.03 543.464 1001.61 547.578 1002.51 552.15C1002.97 554.436 1003.42 556.722 1003.87 559.008C999.805 557.179 995.74 555.35 991.675 553.522C983.545 549.864 979.028 545.978 978.125 541.864C977.673 539.806 977.221 537.749 976.77 535.692C978.35 537.521 979.931 539.349 981.512 541.178C984.674 544.835 987.158 546.664 988.965 546.664C989.868 546.664 990.771 546.664 991.675 546.664C989.868 543.921 988.061 541.178 986.255 538.435C984.448 535.692 982.641 532.949 980.835 530.206ZM849.398 546.664C849.624 548.95 849.85 551.236 850.076 553.522C850.302 555.807 850.528 558.093 850.753 560.379C851.657 560.151 852.56 559.922 853.463 559.693C854.367 559.465 855.27 559.236 856.173 559.008C855.948 558.322 855.722 557.636 855.496 556.95C855.044 555.579 855.27 554.665 856.173 554.207C856.625 553.979 857.077 553.75 857.528 553.522C857.528 554.665 857.528 555.807 857.528 556.95C857.528 559.236 855.496 562.894 851.431 567.923C849.398 570.437 847.366 572.951 845.333 575.466C844.882 575.009 844.43 574.552 843.978 574.094C843.075 573.18 842.623 570.437 842.623 565.865C842.623 561.294 843.752 556.95 846.011 552.836C847.14 550.779 848.269 548.721 849.398 546.664ZM972.705 546.664C973.608 547.578 974.511 548.493 975.415 549.407C976.318 550.321 977.221 551.236 978.125 552.15C977.221 552.15 976.318 552.15 975.415 552.15C974.511 552.15 973.608 552.15 972.705 552.15C972.705 551.236 972.705 550.321 972.705 549.407C972.705 548.493 972.705 547.578 972.705 546.664ZM906.986 553.522C908.567 553.522 910.148 553.522 911.729 553.522C911.729 553.979 911.729 554.436 911.729 554.893C911.729 555.807 909.471 557.408 904.954 559.693C900.437 561.979 898.179 563.808 898.179 565.18C898.179 565.865 898.179 566.551 898.179 567.237C899.986 566.78 901.792 566.322 903.599 565.865C905.406 565.408 907.212 564.951 909.019 564.494C909.019 564.951 909.019 565.408 909.019 565.865C909.019 566.78 906.986 568.608 902.921 571.351C898.856 574.094 894.34 575.923 889.371 576.837C886.887 577.295 884.403 577.752 881.919 578.209C883.048 575.923 884.177 573.637 885.306 571.351C887.565 566.78 890.952 562.665 895.469 559.008C899.986 555.35 903.825 553.522 906.986 553.522ZM979.48 553.522C979.706 553.979 979.931 554.436 980.157 554.893C980.383 555.35 980.609 555.807 980.835 556.265C980.609 555.807 980.383 555.35 980.157 554.893C979.931 554.436 979.706 553.979 979.48 553.522ZM64.168 561.751C59.1996 566.322 56.0379 568.608 54.6829 568.608C54.0054 568.608 53.3279 568.608 52.6504 568.608C52.6504 569.065 52.6504 569.523 52.6504 569.98C52.6504 570.894 47.682 574.323 37.7453 580.266C27.8085 586.209 22.6143 590.095 22.1626 591.924C21.7109 593.753 21.9368 595.124 22.8401 596.039C23.7435 596.953 26.4535 597.182 30.9702 596.724C35.4869 596.267 38.4228 596.724 39.7778 598.096C41.1328 599.468 44.2945 600.153 49.2629 600.153C54.2313 600.153 56.9413 600.61 57.393 601.525C57.8446 602.439 60.5547 602.896 65.523 602.896C70.4914 602.896 74.7823 603.811 78.3957 605.639C80.2023 606.554 82.009 607.468 83.8157 608.382C83.8157 606.782 83.8157 605.182 83.8157 603.582C83.8157 601.982 83.8157 600.382 83.8157 598.782C79.9765 598.782 76.1373 598.782 72.2981 598.782C68.4589 598.782 64.6197 598.782 60.7805 598.782C60.7805 597.182 60.7805 595.582 60.7805 593.981C60.7805 590.781 60.3288 588.953 59.4255 588.495C58.5221 588.038 58.0705 585.752 58.0705 581.638C58.0705 577.523 59.8771 574.094 63.4905 571.351C67.1039 568.608 70.2656 567.008 72.9756 566.551C74.3306 566.322 75.6856 566.094 77.0407 565.865C76.1373 564.037 75.234 562.208 74.3306 560.379C73.4273 558.55 72.5239 556.722 71.6206 554.893C69.1364 557.179 66.6522 559.465 64.168 561.751ZM972.705 557.636C973.834 558.55 974.963 559.465 976.092 560.379C978.35 562.208 979.48 567.465 979.48 576.152C979.48 580.495 979.48 584.838 979.48 589.181C977.899 588.267 976.318 587.352 974.737 586.438C971.575 584.609 969.317 582.095 967.962 578.895C966.607 575.695 966.155 571.58 966.607 566.551C966.833 564.037 967.059 561.522 967.285 559.008C967.962 561.065 968.64 563.122 969.317 565.18C970.672 569.294 972.027 571.58 973.382 572.037C974.737 572.494 975.64 572.266 976.092 571.351C976.544 570.437 976.092 567.923 974.737 563.808C974.06 561.751 973.382 559.693 972.705 557.636ZM51.9729 580.952C53.3279 580.952 54.4571 583.466 55.3604 588.495C55.8121 591.01 56.2638 593.524 56.7154 596.039C54.0054 596.039 51.2954 596.039 48.5854 596.039C43.1653 596.039 39.5519 595.353 37.7453 593.981C36.8419 593.296 35.9386 592.61 35.0352 591.924C37.5194 590.095 40.0036 588.267 42.4878 586.438C47.4562 582.781 50.6179 580.952 51.9729 580.952ZM915.794 590.553C917.375 591.01 918.956 591.467 920.537 591.924C923.698 592.839 926.408 596.496 928.667 602.896C929.796 606.097 930.925 609.297 932.054 612.497C929.796 611.354 927.537 610.211 925.279 609.068C920.762 606.782 918.278 604.725 917.827 602.896C917.601 601.982 917.375 601.068 917.149 600.153C918.052 600.61 918.956 601.068 919.859 601.525C920.762 601.982 921.666 602.439 922.569 602.896C922.569 601.982 922.569 601.068 922.569 600.153C922.569 598.325 921.44 596.267 919.182 593.981C918.052 592.839 916.923 591.696 915.794 590.553ZM914.439 597.41C914.665 597.867 914.891 598.325 915.117 598.782C915.342 599.239 915.568 599.696 915.794 600.153C915.568 599.696 915.342 599.239 915.117 598.782C914.891 598.325 914.665 597.867 914.439 597.41ZM841.946 620.04C849.624 620.498 854.593 621.412 856.851 622.783C859.109 624.155 860.69 626.441 861.593 629.641C862.045 631.241 862.497 632.841 862.949 634.441C861.593 633.527 860.238 632.613 858.883 631.698C856.173 629.87 853.689 628.955 851.431 628.955C850.302 628.955 849.173 628.955 848.043 628.955C848.043 629.641 848.043 630.327 848.043 631.013C848.043 632.384 849.624 633.984 852.786 635.813C854.367 636.727 855.948 637.642 857.528 638.556C855.044 637.87 852.56 637.184 850.076 636.499C845.107 635.127 842.623 633.984 842.623 633.07C842.623 632.613 842.623 632.155 842.623 631.698C841.946 631.698 841.268 631.698 840.591 631.698C839.913 631.698 839.236 631.698 838.558 631.698C838.558 631.241 838.558 630.784 838.558 630.327C838.558 629.412 836.752 627.812 833.138 625.526C831.332 624.383 829.525 623.241 827.718 622.098C828.17 621.64 828.621 621.183 829.073 620.726C829.977 619.812 834.267 619.583 841.946 620.04ZM82.4607 624.841C81.5574 626.669 83.1382 629.184 87.2033 632.384C91.2683 635.584 93.7525 639.242 94.6558 643.356C95.5592 647.471 89.9133 652.042 77.7182 657.071C65.523 662.1 56.9413 664.843 51.9729 665.301C47.0045 665.758 44.5203 667.129 44.5203 669.415C44.5203 671.701 45.1978 673.758 46.5528 675.587C47.9079 677.416 53.7796 675.816 64.168 670.787C74.5565 665.758 83.5899 662.557 91.2683 661.186C95.1075 660.5 98.9467 659.814 102.786 659.129C100.753 652.957 98.7209 646.785 96.6883 640.613C92.6233 628.269 89.4616 622.098 87.2033 622.098C84.9449 622.098 83.364 623.012 82.4607 624.841ZM771.485 638.556C776.453 639.47 780.519 641.756 783.68 645.413C785.261 647.242 786.842 649.071 788.423 650.9C783.68 649.985 778.938 649.071 774.195 648.157C764.71 646.328 759.516 645.642 758.612 646.099C757.709 646.556 757.483 647.699 757.935 649.528C758.387 651.357 763.807 653.185 774.195 655.014C779.389 655.928 784.584 656.843 789.778 657.757C789.1 658.443 788.423 659.129 787.745 659.814C786.39 661.186 782.777 661.872 776.905 661.872C771.033 661.872 766.517 660.729 763.355 658.443C760.193 656.157 755.902 654.328 750.482 652.957C747.772 652.271 745.062 651.585 742.352 650.9C745.966 648.614 749.579 646.328 753.192 644.042C760.419 639.47 766.517 637.642 771.485 638.556ZM848.721 653.643C849.398 653.643 850.076 653.643 850.753 653.643C850.302 655.7 849.85 657.757 849.398 659.814C848.495 663.929 846.011 668.501 841.946 673.53C839.913 676.044 837.881 678.559 835.848 681.073C835.848 678.101 835.848 675.13 835.848 672.158C835.848 669.186 835.848 666.215 835.848 663.243C836.977 663.7 838.107 664.158 839.236 664.615C840.365 665.072 841.494 665.529 842.623 665.986C843.301 663.929 843.978 661.872 844.656 659.814C846.011 655.7 847.366 653.643 848.721 653.643ZM910.374 653.643C910.826 653.643 911.277 653.643 911.729 653.643C911.729 655.014 911.729 656.386 911.729 657.757C911.729 659.129 911.729 660.5 911.729 661.872C912.407 661.415 913.084 660.957 913.762 660.5C914.439 660.043 915.117 659.586 915.794 659.129C916.02 659.586 916.246 660.043 916.472 660.5C916.923 661.415 915.117 665.072 911.051 671.472C909.019 674.673 906.986 677.873 904.954 681.073C904.954 677.416 904.954 673.758 904.954 670.101C904.954 662.786 905.631 658.214 906.986 656.386C908.341 654.557 909.471 653.643 910.374 653.643ZM831.783 656.386C832.235 656.614 832.687 656.843 833.138 657.071C833.59 657.3 834.042 657.529 834.493 657.757C834.042 657.529 833.59 657.3 833.138 657.071C832.687 656.843 832.235 656.614 831.783 656.386ZM839.913 656.386C840.139 657.071 840.365 657.757 840.591 658.443C840.817 659.129 841.042 659.814 841.268 660.5C840.817 660.5 840.365 660.5 839.913 660.5C839.462 660.5 839.01 660.5 838.558 660.5C838.784 659.814 839.01 659.129 839.236 658.443C839.462 657.757 839.687 657.071 839.913 656.386ZM810.103 664.615C810.329 665.072 810.555 665.529 810.78 665.986C811.232 666.901 809.877 668.729 806.715 671.472C803.554 674.215 801.973 676.73 801.973 679.016C801.973 680.159 801.973 681.302 801.973 682.445C802.65 682.445 803.328 682.445 804.005 682.445C805.36 682.445 807.167 680.616 809.425 676.958C811.684 673.301 813.265 671.472 814.168 671.472C814.62 671.472 815.071 671.472 815.523 671.472C815.297 672.615 815.071 673.758 814.846 674.901C814.394 677.187 811.232 680.159 805.36 683.816C802.425 685.645 799.489 687.473 796.553 689.302C796.553 687.702 796.553 686.102 796.553 684.502C796.553 681.302 797.456 678.101 799.263 674.901C801.07 671.701 803.328 669.186 806.038 667.358C807.393 666.443 808.748 665.529 810.103 664.615ZM930.699 672.844C931.603 673.987 932.506 675.13 933.409 676.273C935.216 678.559 935.442 681.759 934.087 685.873C932.732 689.988 932.732 694.102 934.087 698.217C934.764 700.274 935.442 702.332 936.119 704.389C934.99 703.246 933.861 702.103 932.732 700.96C930.473 698.674 929.57 693.417 930.022 685.188C930.248 681.073 930.473 676.958 930.699 672.844ZM867.691 679.701C869.272 679.701 870.853 679.701 872.434 679.701C871.079 679.93 869.724 680.159 868.369 680.387C865.659 680.844 863.852 682.216 862.949 684.502C862.045 686.788 862.045 688.388 862.949 689.302C863.4 689.759 863.852 690.216 864.304 690.674C861.593 691.359 858.883 692.045 856.173 692.731C853.463 693.417 850.753 694.102 848.043 694.788C850.528 692.274 853.012 689.759 855.496 687.245C860.464 682.216 864.529 679.701 867.691 679.701ZM944.249 682.445C946.056 683.816 947.863 685.188 949.669 686.559C953.283 689.302 955.767 695.703 957.122 705.76C957.799 710.789 958.477 715.818 959.154 720.847C958.251 720.39 957.348 719.933 956.444 719.476C954.638 718.561 954.186 716.733 955.089 713.99C955.993 711.246 954.412 705.303 950.347 696.16C948.314 691.588 946.282 687.016 944.249 682.445ZM940.184 689.302C940.636 690.445 941.088 691.588 941.539 692.731C942.443 695.017 943.346 696.16 944.249 696.16C945.153 696.16 946.282 698.674 947.637 703.703C948.314 706.218 948.992 708.732 949.669 711.246C949.218 711.246 948.766 711.246 948.314 711.246C947.411 711.246 945.83 709.418 943.572 705.76C941.313 702.103 940.184 698.446 940.184 694.788C940.184 692.96 940.184 691.131 940.184 689.302ZM868.369 693.417C868.594 693.874 868.82 694.331 869.046 694.788C869.272 695.245 869.498 695.703 869.724 696.16C869.498 695.703 869.272 695.245 869.046 694.788C868.82 694.331 868.594 693.874 868.369 693.417ZM921.214 703.017C921.666 707.36 922.117 711.704 922.569 716.047C923.021 720.39 923.472 724.733 923.924 729.076C924.602 728.39 925.279 727.705 925.957 727.019C927.312 725.647 927.989 721.761 927.989 715.361C927.989 712.161 927.989 708.961 927.989 705.76C928.667 706.218 929.344 706.675 930.022 707.132C931.377 708.046 932.054 711.704 932.054 718.104C932.054 724.505 930.473 730.905 927.312 737.305C925.731 740.506 924.15 743.706 922.569 746.906C921.214 743.934 919.859 740.963 918.504 737.991C915.794 732.048 914.439 726.333 914.439 720.847C914.439 715.361 915.568 711.018 917.827 707.818C918.956 706.218 920.085 704.617 921.214 703.017ZM121.079 712.618C120.401 713.532 119.724 714.447 119.046 715.361C121.756 716.961 124.466 718.561 127.176 720.161C132.596 723.362 135.306 725.647 135.306 727.019C135.306 728.39 135.984 729.533 137.339 730.448C138.694 731.362 138.92 733.191 138.016 735.934C137.113 738.677 133.725 741.649 127.854 744.849C121.982 748.049 117.691 747.592 114.981 743.477C112.271 739.363 110.69 735.705 110.238 732.505C109.787 729.305 109.109 727.705 108.206 727.705C107.303 727.705 105.948 728.39 104.141 729.762C102.334 731.134 101.431 732.505 101.431 733.877C101.431 735.248 103.689 737.991 108.206 742.106C112.723 746.22 114.981 749.192 114.981 751.021C114.981 752.849 112.723 755.364 108.206 758.564C103.689 761.764 100.528 763.364 98.7209 763.364C96.9142 763.364 95.1075 761.993 93.3008 759.25C91.4941 756.507 90.1391 753.992 89.2358 751.706C88.3324 749.42 88.1066 746.449 88.5583 742.791C88.7841 740.963 89.0099 739.134 89.2358 737.305C87.6549 738.22 86.0741 739.134 84.4932 740.048C82.9124 740.963 81.3315 741.877 79.7507 742.791C83.1382 748.049 86.5257 753.306 89.9133 758.564C93.3008 763.821 96.6883 769.079 100.076 774.336C106.625 769.536 113.174 764.736 119.724 759.935C132.822 750.335 140.952 745.306 144.114 744.849C145.695 744.62 147.276 744.392 148.856 744.163C148.405 742.563 147.953 740.963 147.501 739.363C146.598 736.162 145.469 734.334 144.114 733.877C142.759 733.419 140.049 729.305 135.984 721.533C131.919 713.761 128.757 709.875 126.499 709.875C124.24 709.875 122.434 710.789 121.079 712.618ZM872.434 712.618C873.337 712.618 874.24 712.618 875.144 712.618C876.95 712.618 878.757 713.761 880.564 716.047C882.37 718.333 883.274 720.619 883.274 722.904C883.274 725.19 883.951 726.79 885.306 727.705C886.661 728.619 887.113 731.591 886.661 736.62C886.435 739.134 886.21 741.649 885.984 744.163C883.048 741.191 880.112 738.22 877.176 735.248C871.304 729.305 868.594 724.962 869.046 722.219C869.272 720.847 869.498 719.476 869.724 718.104C870.627 719.704 871.53 721.304 872.434 722.904C874.24 726.105 875.595 727.476 876.499 727.019C877.402 726.562 876.95 724.047 875.144 719.476C874.24 717.19 873.337 714.904 872.434 712.618ZM810.103 718.104C811.458 718.79 812.813 719.476 814.168 720.161C816.878 721.533 818.685 723.819 819.588 727.019C820.04 728.619 820.491 730.219 820.943 731.819C820.266 731.134 819.588 730.448 818.911 729.762C818.233 729.076 817.556 728.39 816.878 727.705C816.201 728.39 815.523 729.076 814.846 729.762C814.168 730.448 813.491 731.134 812.813 731.819C812.361 729.533 811.91 727.248 811.458 724.962C811.006 722.676 810.555 720.39 810.103 718.104ZM691.539 726.333C696.508 726.333 699.669 727.019 701.024 728.39C701.702 729.076 702.379 729.762 703.057 730.448C701.25 730.448 699.444 730.448 697.637 730.448C694.023 730.448 691.991 731.134 691.539 732.505C691.313 733.191 691.088 733.877 690.862 734.562C693.346 735.019 695.83 735.477 698.314 735.934C700.799 736.391 703.283 736.848 705.767 737.305C703.509 737.991 701.25 738.677 698.992 739.363C694.475 740.734 689.958 740.734 685.442 739.363C680.925 737.991 677.989 736.848 676.634 735.934C675.279 735.019 674.602 733.877 674.602 732.505C674.602 731.134 676.182 729.762 679.344 728.39C682.506 727.019 686.571 726.333 691.539 726.333ZM762.678 726.333C764.71 726.79 766.743 727.248 768.775 727.705C772.84 728.619 776.002 730.676 778.26 733.877C779.389 735.477 780.519 737.077 781.648 738.677C780.293 737.763 778.938 736.848 777.583 735.934C774.873 734.105 772.614 733.877 770.808 735.248C769.904 735.934 769.001 736.62 768.098 737.305C767.194 735.477 766.291 733.648 765.388 731.819C764.484 729.991 763.581 728.162 762.678 726.333ZM710.509 755.135C712.09 755.135 713.671 755.135 715.252 755.135C713.897 756.049 712.542 756.964 711.187 757.878C708.477 759.707 707.348 761.536 707.799 763.364C708.025 764.279 708.251 765.193 708.477 766.107C710.284 764.964 712.09 763.821 713.897 762.678C717.51 760.393 719.995 759.478 721.35 759.935C722.027 760.164 722.705 760.393 723.382 760.621C721.801 761.764 720.22 762.907 718.64 764.05C715.478 766.336 711.187 767.479 705.767 767.479C700.347 767.479 697.411 766.564 696.959 764.736C696.508 762.907 697.863 760.85 701.024 758.564C704.186 756.278 707.348 755.135 710.509 755.135ZM156.309 764.05C155.631 765.193 154.954 766.336 154.276 767.479C156.083 767.707 157.89 767.936 159.696 768.165C163.31 768.622 167.149 770.908 171.214 775.022C175.279 779.137 177.312 782.337 177.312 784.623C177.312 786.909 175.731 788.966 172.569 790.795C169.407 792.623 167.149 794.681 165.794 796.967C164.439 799.252 162.858 800.395 161.051 800.395C159.245 800.395 156.986 798.795 154.276 795.595C151.566 792.395 149.986 789.423 149.534 786.68C149.308 785.309 149.082 783.937 148.856 782.566C147.727 782.794 146.598 783.023 145.469 783.251C143.21 783.708 141.63 785.08 140.726 787.366C140.275 788.509 139.823 789.652 139.371 790.795C140.726 791.023 142.081 791.252 143.436 791.48C146.146 791.938 148.856 793.766 151.566 796.967C154.276 800.167 155.631 802.681 155.631 804.51C155.631 806.339 153.373 809.082 148.856 812.739C144.34 816.396 140.049 816.396 135.984 812.739C131.919 809.082 129.886 805.196 129.886 801.081C129.886 796.967 129.209 794.681 127.854 794.223C126.499 793.766 125.144 794.223 123.789 795.595C122.434 796.967 121.756 798.795 121.756 801.081C121.756 803.367 124.014 806.567 128.531 810.682C133.048 814.796 136.435 818.682 138.694 822.34C140.952 825.997 142.985 827.826 144.791 827.826C146.598 827.826 148.405 826.226 150.211 823.025C152.018 819.825 157.89 813.882 167.827 805.196C177.763 796.509 183.635 791.938 185.442 791.48C186.345 791.252 187.248 791.023 188.152 790.795C184.313 785.766 180.473 780.737 176.634 775.708C168.956 765.65 163.987 760.621 161.729 760.621C159.471 760.621 157.664 761.764 156.309 764.05ZM802.65 768.165C806.715 768.622 809.651 769.765 811.458 771.593C812.361 772.508 813.265 773.422 814.168 774.336C810.78 774.336 807.393 774.336 804.005 774.336C800.618 774.336 797.23 774.336 793.843 774.336C793.843 775.479 793.843 776.622 793.843 777.765C793.843 778.908 793.843 780.051 793.843 781.194C794.52 780.737 795.198 780.28 795.875 779.823C797.23 778.908 800.166 778.68 804.683 779.137C806.941 779.365 809.2 779.594 811.458 779.823C810.103 780.508 808.748 781.194 807.393 781.88C804.683 783.251 799.489 783.937 791.81 783.937C784.132 783.937 779.389 783.48 777.583 782.566C776.679 782.108 775.776 781.651 774.873 781.194C775.324 780.28 775.776 779.365 776.228 778.451C777.131 776.622 779.389 774.565 783.003 772.279C786.616 769.993 789.778 768.622 792.488 768.165C795.198 767.707 798.585 767.707 802.65 768.165ZM745.062 777.079C745.514 777.079 745.966 777.079 746.417 777.079C746.417 778.68 746.417 780.28 746.417 781.88C746.417 785.08 745.514 787.366 743.707 788.737C742.804 789.423 741.901 790.109 740.997 790.795C740.546 788.737 740.094 786.68 739.642 784.623C739.191 782.566 738.739 780.508 738.287 778.451C738.965 778.68 739.642 778.908 740.32 779.137C741.675 779.594 742.578 779.365 743.03 778.451C743.481 777.537 744.159 777.079 745.062 777.079ZM856.173 791.48C858.883 791.938 860.916 793.081 862.271 794.909C862.949 795.824 863.626 796.738 864.304 797.652C861.593 798.109 858.883 798.567 856.173 799.024C853.463 799.481 850.753 799.938 848.043 800.395C849.173 799.71 850.302 799.024 851.431 798.338C852.56 797.652 853.689 796.967 854.818 796.281C853.463 795.824 852.108 795.366 850.753 794.909C849.398 794.452 848.043 793.995 846.688 793.538C847.592 793.081 848.495 792.623 849.398 792.166C851.205 791.252 853.463 791.023 856.173 791.48ZM715.252 792.166C715.704 793.081 716.155 793.995 716.607 794.909C717.51 796.738 717.51 798.567 716.607 800.395C715.704 802.224 711.864 804.738 705.089 807.939C701.702 809.539 698.314 811.139 694.927 812.739C694.927 811.825 694.927 810.91 694.927 809.996C694.927 808.167 696.734 804.967 700.347 800.395C702.154 798.109 703.96 795.824 705.767 793.538C705.541 795.138 705.315 796.738 705.089 798.338C704.638 801.538 704.864 803.367 705.767 803.824C706.67 804.281 708.477 802.453 711.187 798.338C712.542 796.281 713.897 794.223 715.252 792.166ZM198.992 809.31C198.54 810.453 198.089 811.596 197.637 812.739C199.218 812.739 200.799 812.739 202.379 812.739C205.541 812.739 208.251 813.425 210.509 814.796C212.768 816.168 215.026 817.768 217.285 819.597C219.543 821.425 220.672 823.254 220.672 825.083C220.672 826.911 218.414 830.797 213.897 836.741C209.38 842.684 206.444 845.884 205.089 846.341C203.734 846.798 202.605 848.17 201.702 850.456C200.799 852.742 198.089 855.713 193.572 859.371C189.055 863.028 187.7 866.228 189.507 868.971C191.313 871.714 193.12 872.857 194.927 872.4C196.734 871.943 197.863 870.571 198.314 868.286C198.766 866 199.444 864.857 200.347 864.857C201.25 864.857 205.089 860.285 211.864 851.142C218.64 841.998 223.608 836.283 226.77 833.998C228.35 832.855 229.931 831.712 231.512 830.569C227.673 826.683 223.834 822.797 219.995 818.911C212.316 811.139 207.122 807.024 204.412 806.567C201.702 806.11 199.895 807.024 198.992 809.31ZM800.618 811.367C801.07 813.196 801.521 815.025 801.973 816.854C802.876 820.511 804.231 822.568 806.038 823.025C807.845 823.483 809.2 823.254 810.103 822.34C810.555 821.882 811.006 821.425 811.458 820.968C811.458 824.168 811.458 827.369 811.458 830.569C811.458 833.769 811.458 836.969 811.458 840.169C809.651 837.426 807.845 834.683 806.038 831.94C802.425 826.454 800.618 821.654 800.618 817.539C800.618 815.482 800.618 813.425 800.618 811.367ZM806.038 812.739C806.49 812.739 806.941 812.739 807.393 812.739C807.845 812.739 808.296 812.739 808.748 812.739C808.748 813.425 808.748 814.111 808.748 814.796C808.748 815.482 808.748 816.168 808.748 816.854C808.296 816.854 807.845 816.854 807.393 816.854C806.941 816.854 806.49 816.854 806.038 816.854C806.038 816.168 806.038 815.482 806.038 814.796C806.038 814.111 806.038 813.425 806.038 812.739ZM759.29 815.482C764.258 815.482 767.42 815.939 768.775 816.854C770.13 817.768 770.582 818.682 770.13 819.597C769.678 820.511 768.323 820.968 766.065 820.968C764.936 820.968 763.807 820.968 762.678 820.968C762.903 821.654 763.129 822.34 763.355 823.025C763.807 824.397 765.162 825.083 767.42 825.083C768.549 825.083 769.678 825.083 770.808 825.083C770.13 825.997 769.453 826.911 768.775 827.826C767.42 829.654 763.355 830.569 756.58 830.569C749.805 830.569 745.74 829.883 744.385 828.511C743.03 827.14 741.449 826.454 739.642 826.454C738.739 826.454 737.836 826.454 736.932 826.454C736.932 825.997 736.932 825.54 736.932 825.083C736.932 824.626 736.932 824.168 736.932 823.711C736.029 823.711 735.126 823.711 734.222 823.711C733.319 823.711 732.416 823.711 731.512 823.711C734.9 822.34 738.287 820.968 741.675 819.597C748.45 816.854 754.322 815.482 759.29 815.482ZM868.369 822.34C868.594 823.483 868.82 824.626 869.046 825.768C869.498 828.054 869.272 830.34 868.369 832.626C867.465 834.912 866.336 836.283 864.981 836.741C864.304 836.969 863.626 837.198 862.949 837.426C863.4 836.283 863.852 835.141 864.304 833.998C865.207 831.712 864.981 829.654 863.626 827.826C862.949 826.911 862.271 825.997 861.593 825.083C862.723 824.626 863.852 824.168 864.981 823.711C866.11 823.254 867.239 822.797 868.369 822.34ZM858.883 827.826C859.109 828.511 859.335 829.197 859.561 829.883C859.787 830.569 860.013 831.255 860.238 831.94C860.013 831.255 859.787 830.569 859.561 829.883C859.335 829.197 859.109 828.511 858.883 827.826ZM666.472 831.94C668.73 833.769 670.988 835.598 673.247 837.426C677.763 841.084 680.699 844.055 682.054 846.341C683.409 848.627 684.087 851.37 684.087 854.57C684.087 856.17 684.087 857.771 684.087 859.371C682.958 857.542 681.828 855.713 680.699 853.885C679.57 852.056 678.441 850.227 677.312 848.399C676.86 849.313 676.408 850.227 675.957 851.142C675.505 852.056 675.053 852.97 674.602 853.885C674.15 853.656 673.698 853.427 673.247 853.199C672.343 852.742 670.988 849.084 669.182 842.227C668.278 838.798 667.375 835.369 666.472 831.94ZM768.098 847.027C768.775 847.713 769.453 848.399 770.13 849.084C771.485 850.456 772.163 853.199 772.163 857.313C772.163 861.428 770.356 867.371 766.743 875.143C764.936 879.029 763.129 882.915 761.322 886.801C760.645 885.201 759.967 883.601 759.29 882.001C757.935 878.801 757.257 874.457 757.257 868.971C757.257 863.485 758.161 859.142 759.967 855.942C760.871 854.342 761.774 852.742 762.678 851.142C762.678 852.97 762.678 854.799 762.678 856.628C762.678 858.456 762.678 860.285 762.678 862.114C763.355 862.114 764.033 862.114 764.71 862.114C766.065 862.114 766.968 859.599 767.42 854.57C767.646 852.056 767.872 849.541 768.098 847.027ZM259.29 853.885C258.838 856.628 257.032 860.514 253.87 865.543C250.708 870.571 245.288 875.143 237.61 879.258C229.931 883.372 224.511 885.658 221.35 886.115C218.188 886.573 216.607 887.487 216.607 888.858C216.607 890.23 217.736 891.601 219.995 892.973C221.124 893.659 222.253 894.344 223.382 895.03C224.06 893.887 224.737 892.744 225.415 891.601C226.77 889.316 231.061 886.344 238.287 882.687C241.901 880.858 245.514 879.029 249.127 877.2C248.676 882.687 248.224 888.173 247.772 893.659C246.869 904.631 247.321 910.574 249.127 911.489C250.934 912.403 252.515 912.86 253.87 912.86C254.547 912.86 255.225 912.86 255.902 912.86C255.677 908.974 255.451 905.088 255.225 901.202C254.773 893.43 254.999 886.801 255.902 881.315C256.806 875.829 259.516 870.343 264.033 864.857C268.549 859.371 270.13 855.485 268.775 853.199C267.42 850.913 265.613 849.77 263.355 849.77C261.097 849.77 259.742 851.142 259.29 853.885ZM634.629 851.142C637.79 851.142 640.275 852.056 642.081 853.885C642.985 854.799 643.888 855.713 644.791 856.628C642.081 856.628 639.371 856.628 636.661 856.628C631.241 856.628 628.305 857.313 627.854 858.685C627.628 859.371 627.402 860.056 627.176 860.742C630.564 860.742 633.951 860.742 637.339 860.742C644.114 860.742 647.727 861.199 648.179 862.114C648.405 862.571 648.631 863.028 648.856 863.485C646.146 864.628 643.436 865.771 640.726 866.914C635.306 869.2 632.37 869.886 631.919 868.971C631.467 868.057 628.531 866.914 623.111 865.543C617.691 864.171 614.304 862.571 612.949 860.742C612.271 859.828 611.593 858.914 610.916 857.999C612.045 857.999 613.174 857.999 614.304 857.999C616.562 857.999 619.724 856.856 623.789 854.57C627.854 852.285 631.467 851.142 634.629 851.142ZM826.363 855.256C827.041 856.399 827.718 857.542 828.396 858.685C829.073 859.828 829.751 860.971 830.428 862.114C828.621 862.8 826.815 863.485 825.008 864.171C823.201 864.857 821.395 865.543 819.588 866.228C820.717 864.4 821.846 862.571 822.976 860.742C824.105 858.914 825.234 857.085 826.363 855.256ZM868.369 855.256C870.175 856.856 871.982 858.456 873.789 860.056C875.595 861.657 877.402 863.257 879.209 864.857C879.435 864.171 879.66 863.485 879.886 862.8C880.338 861.428 879.886 859.828 878.531 857.999C877.854 857.085 877.176 856.17 876.499 855.256C877.176 855.256 877.854 855.256 878.531 855.256C879.886 855.256 881.467 856.628 883.274 859.371C885.08 862.114 886.21 865.085 886.661 868.286C886.887 869.886 887.113 871.486 887.339 873.086C885.306 872.629 883.274 872.172 881.241 871.714C877.176 870.8 874.014 868.743 871.756 865.543C869.498 862.342 868.369 859.828 868.369 857.999C868.369 857.085 868.369 856.17 868.369 855.256ZM675.957 856.628C676.182 857.085 676.408 857.542 676.634 857.999C676.86 858.456 677.086 858.914 677.312 859.371C677.086 858.914 676.86 858.456 676.634 857.999C676.408 857.542 676.182 857.085 675.957 856.628ZM297.23 885.43C297.682 895.487 298.585 901.431 299.94 903.259C300.618 904.174 301.295 905.088 301.973 906.002C300.618 906.002 299.263 906.002 297.908 906.002C295.198 906.002 292.939 906.688 291.133 908.06C289.326 909.431 287.745 912.174 286.39 916.289C285.035 920.403 285.939 924.518 289.1 928.633C292.262 932.747 297.456 936.176 304.683 938.919C308.296 940.29 311.91 941.662 315.523 943.033C317.33 937.319 319.136 931.604 320.943 925.889C324.556 914.46 328.396 905.317 332.461 898.459C334.493 895.03 336.526 891.601 338.558 888.173C336.752 887.487 334.945 886.801 333.138 886.115C331.332 885.43 329.525 884.744 327.718 884.058C326.589 887.944 325.46 891.83 324.331 895.716C322.072 903.488 319.588 907.831 316.878 908.745C314.168 909.66 311.684 908.517 309.425 905.317C307.167 902.116 306.038 896.173 306.038 887.487C306.038 878.801 305.36 873.772 304.005 872.4C302.65 871.029 301.07 870.343 299.263 870.343C298.36 870.343 297.456 870.343 296.553 870.343C296.779 875.372 297.005 880.401 297.23 885.43ZM842.623 874.457C842.849 876.972 843.075 879.486 843.301 882.001C843.752 887.03 843.527 890.687 842.623 892.973C841.72 895.259 840.365 896.859 838.558 897.773C837.655 898.23 836.752 898.688 835.848 899.145C835.397 896.173 834.945 893.202 834.493 890.23C833.59 884.287 833.816 880.401 835.171 878.572C835.848 877.658 836.526 876.743 837.203 875.829C837.203 877.429 837.203 879.029 837.203 880.629C837.203 883.83 837.881 885.887 839.236 886.801C839.913 887.258 840.591 887.715 841.268 888.173C841.494 885.887 841.72 883.601 841.946 881.315C842.172 879.029 842.397 876.743 842.623 874.457ZM692.217 897.773C692.668 899.373 693.12 900.974 693.572 902.574C694.475 905.774 695.379 907.374 696.282 907.374C697.185 907.374 698.314 905.774 699.669 902.574C700.347 900.974 701.024 899.373 701.702 897.773C701.928 898.23 702.154 898.688 702.379 899.145C702.831 900.059 702.605 902.116 701.702 905.317C700.799 908.517 698.54 912.174 694.927 916.289C693.12 918.346 691.313 920.403 689.507 922.461C689.281 920.632 689.055 918.803 688.829 916.975C688.378 913.317 688.829 909.203 690.184 904.631C690.862 902.345 691.539 900.059 692.217 897.773ZM636.661 907.374C638.016 907.831 639.371 908.288 640.726 908.745C639.371 908.974 638.016 909.203 636.661 909.431C633.951 909.888 632.596 910.574 632.596 911.489C632.596 911.946 632.596 912.403 632.596 912.86C630.79 912.403 628.983 911.946 627.176 911.489C623.563 910.574 621.756 909.66 621.756 908.745C621.756 907.831 623.563 907.145 627.176 906.688C630.79 906.231 633.951 906.46 636.661 907.374ZM306.715 912.86C309.651 913.317 312.587 913.774 315.523 914.232C314.168 917.889 312.813 921.546 311.458 925.204C310.103 928.861 308.748 932.518 307.393 936.176C305.135 934.576 302.876 932.976 300.618 931.376C296.101 928.175 293.843 924.747 293.843 921.089C293.843 917.432 294.52 914.917 295.875 913.546C297.23 912.174 300.844 911.946 306.715 912.86ZM583.816 923.832C588.332 923.832 592.172 924.518 595.333 925.889C596.914 926.575 598.495 927.261 600.076 927.947C598.721 928.404 597.366 928.861 596.011 929.318C594.656 929.775 593.301 930.233 591.946 930.69C593.075 931.604 594.204 932.518 595.333 933.433C596.463 934.347 597.592 935.262 598.721 936.176C596.011 935.49 593.301 934.804 590.591 934.119C585.171 932.747 581.332 931.147 579.073 929.318C576.815 927.49 575.911 926.118 576.363 925.204C576.815 924.289 579.299 923.832 583.816 923.832ZM719.317 937.547C720.22 937.547 721.124 937.547 722.027 937.547C720.898 938.462 719.769 939.376 718.64 940.29C716.381 942.119 715.252 943.719 715.252 945.091C715.252 945.777 715.252 946.462 715.252 947.148C715.93 946.919 716.607 946.691 717.285 946.462C717.962 946.234 718.64 946.005 719.317 945.777C719.091 946.462 718.865 947.148 718.64 947.834C718.188 949.205 714.8 950.805 708.477 952.634C705.315 953.548 702.154 954.463 698.992 955.377C700.573 953.091 702.154 950.805 703.734 948.52C706.896 943.948 709.832 940.976 712.542 939.605C715.252 938.233 717.51 937.547 719.317 937.547ZM638.694 944.405C639.371 944.405 640.049 944.405 640.726 944.405C640.275 945.319 639.823 946.234 639.371 947.148C638.468 948.977 638.468 950.348 639.371 951.263C639.823 951.72 640.275 952.177 640.726 952.634C638.92 953.091 637.113 953.548 635.306 954.006C633.5 954.463 631.693 954.92 629.886 955.377C629.886 954.691 629.886 954.006 629.886 953.32C629.886 951.948 631.015 950.12 633.274 947.834C635.532 945.548 637.339 944.405 638.694 944.405ZM720.672 944.405C721.124 944.634 721.575 944.862 722.027 945.091C722.479 945.319 722.93 945.548 723.382 945.777C722.93 945.548 722.479 945.319 722.027 945.091C721.575 944.862 721.124 944.634 720.672 944.405ZM731.512 947.148C732.19 947.605 732.867 948.062 733.545 948.52C734.9 949.434 735.803 951.034 736.255 953.32C736.706 955.606 737.384 956.749 738.287 956.749C738.739 956.749 739.191 956.749 739.642 956.749C739.191 959.949 738.739 963.149 738.287 966.349C737.836 969.55 737.384 972.75 736.932 975.95C736.029 974.35 735.126 972.75 734.222 971.15C732.416 967.949 732.19 964.521 733.545 960.863C734.9 957.206 734.9 954.92 733.545 954.006C732.19 953.091 731.512 951.72 731.512 949.891C731.512 948.977 731.512 948.062 731.512 947.148ZM606.851 948.52C607.303 949.662 607.754 950.805 608.206 951.948C609.109 954.234 608.206 958.12 605.496 963.606C604.141 966.349 602.786 969.092 601.431 971.835C600.753 969.321 600.076 966.807 599.398 964.292C598.721 961.778 598.043 959.263 597.366 956.749C598.947 956.292 600.528 955.834 602.108 955.377C605.27 954.463 606.851 953.091 606.851 951.263C606.851 950.348 606.851 949.434 606.851 948.52ZM567.556 954.006C569.362 954.006 571.169 954.006 572.976 954.006C571.169 954.92 569.362 955.834 567.556 956.749C563.942 958.577 562.361 960.406 562.813 962.235C563.039 963.149 563.265 964.063 563.491 964.978C566.426 963.835 569.362 962.692 572.298 961.549C575.234 960.406 578.17 959.263 581.106 958.12C580.88 959.263 580.654 960.406 580.428 961.549C579.977 963.835 578.621 966.121 576.363 968.407C574.105 970.692 571.621 972.521 568.911 973.893C566.201 975.264 559.877 975.95 549.94 975.95C544.972 975.95 540.004 975.95 535.035 975.95C537.068 973.436 539.1 970.921 541.133 968.407C545.198 963.378 549.715 959.72 554.683 957.434C559.651 955.149 563.942 954.006 567.556 954.006ZM639.371 973.207C639.823 973.893 640.275 974.578 640.726 975.264C641.63 976.636 641.63 978.464 640.726 980.75C640.275 981.893 639.823 983.036 639.371 984.179C640.275 983.951 641.178 983.722 642.081 983.493C643.888 983.036 645.017 981.436 645.469 978.693C645.921 975.95 646.598 974.578 647.501 974.578C647.953 974.578 648.405 974.578 648.856 974.578C648.631 976.636 648.405 978.693 648.179 980.75C647.727 984.865 646.598 988.294 644.791 991.037C643.888 992.408 642.985 993.78 642.081 995.151C641.178 994.466 640.275 993.78 639.371 993.094C637.565 991.722 636.661 988.751 636.661 984.179C636.661 979.607 637.113 976.636 638.016 975.264C638.468 974.578 638.92 973.893 639.371 973.207ZM715.252 993.78C715.478 994.237 715.704 994.694 715.93 995.151C716.155 995.608 716.381 996.066 716.607 996.523C716.381 996.066 716.155 995.608 715.93 995.151C715.704 994.694 715.478 994.237 715.252 993.78ZM722.027 993.78C722.253 995.151 722.479 996.523 722.705 997.894C722.93 999.266 723.156 1000.64 723.382 1002.01C722.93 1002.01 722.479 1002.01 722.027 1002.01C721.124 1002.01 719.769 1003.84 717.962 1007.49C717.059 1009.32 716.155 1011.15 715.252 1012.98C714.575 1012.3 713.897 1011.61 713.22 1010.92C711.864 1009.55 711.413 1007.04 711.864 1003.38C712.09 1001.55 712.316 999.723 712.542 997.894C712.768 998.809 712.994 999.723 713.22 1000.64C713.671 1002.47 714.349 1003.38 715.252 1003.38C716.155 1003.38 717.51 1001.78 719.317 998.58C720.22 996.98 721.124 995.38 722.027 993.78Z" id="Fill"/>
</defs>
<clipPath id="ArtboardFrame">
<rect height="1024" width="1024" x="0" y="0"/>
</clipPath>
<g clip-path="url(#ArtboardFrame)" id="Layer-2" vectornator:layerName="Layer 2">
<path d="M-7.10543e-15 512C-7.10543e-15 229.23 229.23 0 512 0C794.77 0 1024 229.23 1024 512C1024 794.77 794.77 1024 512 1024C229.23 1024-7.10543e-15 794.77-7.10543e-15 512Z" fill="#f7efe7" fill-rule="nonzero" opacity="1" stroke="none" vectornator:layerName="Oval 1"/>
</g>
<g id="Layer-1" vectornator:layerName="Layer 1">
<g opacity="1" vectornator:layerName="Curve 1">
<use fill="#2a1510" fill-rule="nonzero" stroke="none" xlink:href="#Fill"/>
<mask height="1000" id="StrokeMask" maskUnits="userSpaceOnUse" width="1000" x="12" y="20">
<rect fill="#000000" height="1000" stroke="none" width="1000" x="12" y="20"/>
<use fill="#ffffff" fill-rule="evenodd" stroke="none" xlink:href="#Fill"/>
</mask>
<use fill="none" mask="url(#StrokeMask)" stroke="#646460" stroke-linecap="round" stroke-linejoin="round" stroke-width="4" xlink:href="#Fill"/>
</g>
</g>
</svg>
