<?xml version="1.0" encoding="UTF-8" standalone="no"?>
<!DOCTYPE svg PUBLIC "-//W3C//DTD SVG 1.1//EN" "http://www.w3.org/Graphics/SVG/1.1/DTD/svg11.dtd">
<!-- Created with Vectornator (http://vectornator.io/) -->
<svg height="100%" stroke-miterlimit="10" style="fill-rule:nonzero;clip-rule:evenodd;stroke-linecap:round;stroke-linejoin:round;" version="1.1" viewBox="0 0 1024 1024" width="100%" xml:space="preserve" xmlns="http://www.w3.org/2000/svg" xmlns:vectornator="http://vectornator.io" xmlns:xlink="http://www.w3.org/1999/xlink">
<defs>
<path d="M463.734 28.1718C458.314 32.2864 454.927 35.7152 453.572 38.4582C452.217 41.2013 451.539 46.0016 451.539 52.8592C451.539 59.7168 452.894 65.4315 455.604 70.0032C458.314 74.575 461.25 77.7752 464.412 79.6039C467.574 81.4326 472.768 82.3469 479.995 82.3469C487.221 82.3469 493.319 80.5182 498.287 76.8608C503.256 73.2034 505.74 68.8603 505.74 63.8314C505.74 58.8025 505.062 55.8308 503.707 54.9165C502.352 54.0022 500.546 53.7736 498.287 54.2307C496.029 54.6879 495.351 57.6595 496.255 63.1456C497.158 68.6317 496.706 72.5177 494.9 74.8035C493.093 77.0894 489.48 78.2324 484.06 78.2324C478.64 78.2324 473.445 75.7179 468.477 70.689C463.509 65.6601 460.799 59.2596 460.347 51.4877C459.895 43.7157 461.928 37.5439 466.444 32.9722C470.961 28.4004 475.252 26.1146 479.317 26.1146C483.382 26.1146 486.995 27.7147 490.157 30.9149C493.319 34.1151 495.577 35.7152 496.932 35.7152C498.287 35.7152 499.191 34.3437 499.642 31.6006C500.094 28.8576 498.965 26.5717 496.255 24.743C493.545 22.9143 488.802 22 482.027 22C475.252 22 469.154 24.0573 463.734 28.1718ZM532.163 49.4304C530.808 65.8887 529.453 75.2607 528.098 77.5466C527.42 78.6895 526.743 79.8325 526.065 80.9754C527.42 81.6612 528.775 82.3469 530.13 83.0327C532.84 84.4042 534.873 84.8614 536.228 84.4042C537.583 83.947 538.486 79.1467 538.938 70.0032C539.389 60.8598 541.196 56.288 544.358 56.288C547.519 56.288 550.229 58.1167 552.488 61.7741C554.746 65.4315 556.553 70.2318 557.908 76.1751C559.263 82.1183 560.618 85.7757 561.973 87.1472C563.328 88.5188 565.135 89.2045 567.393 89.2045C568.522 89.2045 569.651 89.2045 570.78 89.2045C569.877 87.3758 568.974 85.5471 568.07 83.7184C566.264 80.061 565.135 76.1751 564.683 72.0605C564.231 67.9459 563.102 64.7457 561.295 62.4599C559.489 60.174 558.585 58.3453 558.585 56.9738C558.585 55.6023 559.489 54.6879 561.295 54.2307C563.102 53.7736 564.683 52.6306 566.038 50.8019C567.393 48.9732 568.07 45.5444 568.07 40.5155C568.07 35.4866 565.135 31.6006 559.263 28.8576C553.391 26.1146 547.745 24.743 542.325 24.743C536.905 24.743 533.518 32.9722 532.163 49.4304ZM545.713 28.8576C547.971 28.8576 550.907 30.0005 554.52 32.2864C558.134 34.5723 559.94 37.7725 559.94 41.8871C559.94 46.0016 559.489 48.5161 558.585 49.4304C557.682 50.3448 554.52 51.0305 549.1 51.4877C546.39 51.7163 543.68 51.9449 540.97 52.1735C541.196 48.2875 541.422 44.4015 541.648 40.5155C542.099 32.7436 543.454 28.8576 545.713 28.8576ZM386.499 33.6579C382.885 35.0294 379.272 37.5439 375.659 41.2013C372.045 44.8587 369.787 47.6017 368.883 49.4304C367.98 51.2591 367.528 55.3737 367.528 61.7741C367.528 68.1745 369.561 74.3464 373.626 80.2896C377.691 86.2329 381.079 89.8903 383.789 91.2618C386.499 92.6333 390.564 93.3191 395.984 93.3191C401.404 93.3191 407.501 91.0332 414.276 86.4615C421.051 81.8897 424.891 78.6895 425.794 76.8608C426.697 75.0321 427.149 70.9176 427.149 64.5171C427.149 58.1167 426.02 52.6306 423.762 48.0589C421.503 43.4872 419.245 40.2869 416.986 38.4582C414.728 36.6296 412.018 35.0294 408.856 33.6579C405.695 32.2864 402.081 31.6006 398.016 31.6006C393.951 31.6006 390.112 32.2864 386.499 33.6579ZM399.371 38.4582C403.436 39.3726 407.727 42.5728 412.244 48.0589C416.761 53.545 419.019 59.9454 419.019 67.2602C419.019 74.575 417.212 79.8325 413.599 83.0327C409.986 86.2329 405.695 87.833 400.726 87.833C395.758 87.833 391.919 86.9186 389.209 85.09C386.499 83.2613 383.563 80.061 380.401 75.4893C377.239 70.9176 375.659 64.9743 375.659 57.6595C375.659 50.3448 376.788 45.5444 379.046 43.2586C381.304 40.9727 384.24 39.3726 387.854 38.4582C391.467 37.5439 395.306 37.5439 399.371 38.4582ZM617.528 49.4304C614.367 54.9165 612.334 57.6595 611.431 57.6595C610.528 57.6595 605.785 63.3742 597.203 74.8035C592.912 80.5182 588.621 86.2329 584.331 91.9476C585.686 92.1761 587.041 92.4047 588.396 92.6333C591.106 93.0905 594.042 90.3475 597.203 84.4042C600.365 78.4609 603.752 75.4893 607.366 75.4893C610.979 75.4893 614.818 76.4037 618.883 78.2324C622.949 80.061 624.981 84.6328 624.981 91.9476C624.981 99.2623 626.788 103.377 630.401 104.291C632.208 104.748 634.014 105.206 635.821 105.663C634.918 101.091 634.014 96.5193 633.111 91.9476C631.304 82.8041 630.401 74.1178 630.401 65.8887C630.401 57.6595 629.949 51.7163 629.046 48.0589C628.143 44.4015 626.788 42.3442 624.981 41.8871C623.174 41.4299 620.69 43.9443 617.528 49.4304ZM326.201 52.8592C324.846 54.2307 321.684 55.6023 316.715 56.9738C311.747 58.3453 309.263 59.4882 309.263 60.4026C309.263 61.3169 307.23 62.2313 303.165 63.1456C299.1 64.06 296.842 65.6601 296.39 67.9459C295.939 70.2318 296.842 71.8319 299.1 72.7463C300.229 73.2034 301.359 73.6606 302.488 74.1178C302.939 72.7463 303.391 71.3747 303.843 70.0032C304.746 67.2602 306.779 65.4315 309.94 64.5171C311.521 64.06 313.102 63.6028 314.683 63.1456C314.683 64.2886 314.683 65.4315 314.683 66.5744C314.683 68.8603 317.393 75.7179 322.813 87.1472C328.233 98.5766 330.943 105.663 330.943 108.406C330.943 111.149 331.621 112.978 332.976 113.892C334.331 114.806 336.363 114.349 339.073 112.52C340.428 111.606 341.783 110.692 343.138 109.777C342.009 108.406 340.88 107.034 339.751 105.663C337.492 102.92 336.363 100.405 336.363 98.1194C336.363 95.8335 335.234 93.0905 332.976 89.8903C330.717 86.6901 329.588 83.947 329.588 81.6612C329.588 79.3753 328.007 75.0321 324.846 68.6317C323.265 65.4315 321.684 62.2313 320.103 59.0311C321.006 59.0311 321.91 59.0311 322.813 59.0311C323.716 59.0311 324.62 59.0311 325.523 59.0311C325.523 58.5739 325.523 58.1167 325.523 57.6595C325.523 57.2024 325.523 56.7452 325.523 56.288C327.781 56.7452 330.04 57.2024 332.298 57.6595C334.556 58.1167 336.815 58.5739 339.073 59.0311C339.073 58.3453 339.073 57.6595 339.073 56.9738C339.073 55.6023 338.621 54.2307 337.718 52.8592C336.815 51.4877 335.008 50.8019 332.298 50.8019C329.588 50.8019 327.556 51.4877 326.201 52.8592ZM620.916 53.545C621.368 53.545 621.819 53.545 622.271 53.545C622.271 57.2024 622.271 60.8598 622.271 64.5171C622.271 68.1745 622.271 71.8319 622.271 75.4893C620.916 75.4893 619.561 75.4893 618.206 75.4893C615.496 75.4893 613.012 74.3464 610.753 72.0605C608.495 69.7746 609.398 66.1173 613.463 61.0883C617.528 56.0594 620.013 53.545 620.916 53.545ZM674.439 64.5171C673.987 68.1745 672.181 72.7463 669.019 78.2324C665.857 83.7184 664.276 87.3758 664.276 89.2045C664.276 91.0332 663.147 94.2334 660.889 98.8052C658.631 103.377 656.598 106.349 654.791 107.72C652.985 109.092 652.081 110.463 652.081 111.835C652.081 113.206 653.436 114.578 656.146 115.949C657.501 116.635 658.856 117.321 660.211 118.006C661.792 114.349 663.373 110.692 664.954 107.034C666.535 103.377 668.116 99.7195 669.696 96.0621C671.729 97.2051 673.762 98.348 675.794 99.4909C679.859 101.777 683.698 102.92 687.312 102.92C690.925 102.92 694.313 101.777 697.474 99.4909C700.636 97.2051 702.894 94.6906 704.249 91.9476C705.604 89.2045 706.056 86.0043 705.604 82.3469C705.153 78.6895 703.798 75.4893 701.539 72.7463C699.281 70.0032 694.313 67.0316 686.634 63.8314C682.795 62.2313 678.956 60.6312 675.117 59.0311C674.891 60.8598 674.665 62.6884 674.439 64.5171ZM683.247 65.8887C685.505 67.7174 687.763 69.5461 690.022 71.3747C694.538 75.0321 696.797 78.9181 696.797 83.0327C696.797 87.1472 695.442 90.576 692.732 93.3191C690.022 96.0621 685.957 96.9765 680.537 96.0621C677.827 95.6049 675.117 95.1478 672.407 94.6906C674.213 89.8903 676.02 85.09 677.827 80.2896C679.633 75.4893 681.44 70.689 683.247 65.8887ZM248.965 89.8903C245.803 91.2618 242.416 93.7763 238.802 97.4336C235.189 101.091 233.382 103.834 233.382 105.663C233.382 107.491 232.705 109.092 231.35 110.463C229.995 111.835 229.317 114.349 229.317 118.006C229.317 121.664 229.995 125.321 231.35 128.979C232.705 132.636 234.963 136.293 238.125 139.951C241.286 143.608 244.222 146.123 246.932 147.494C249.642 148.866 254.159 149.551 260.482 149.551C266.806 149.551 271.322 148.866 274.033 147.494C276.743 146.123 280.13 142.922 284.195 137.894C288.26 132.865 290.293 126.921 290.293 120.064C290.293 113.206 289.615 108.406 288.26 105.663C286.905 102.92 284.195 99.7195 280.13 96.0621C276.065 92.4047 270.645 90.1189 263.87 89.2045C257.095 88.2902 252.126 88.5188 248.965 89.8903ZM723.897 112.52C714.864 127.15 709.669 134.465 708.314 134.465C706.959 134.465 706.056 135.608 705.604 137.894C705.153 140.179 706.508 142.008 709.669 143.38C712.831 144.751 716.219 141.779 719.832 134.465C723.445 127.15 726.607 123.264 729.317 122.807C732.027 122.35 734.06 123.035 735.415 124.864C736.77 126.693 739.931 128.979 744.9 131.722C747.384 133.093 749.868 134.465 752.352 135.836C750.771 138.808 749.191 141.779 747.61 144.751C744.448 150.694 741.738 154.352 739.48 155.723C737.221 157.095 736.092 158.466 736.092 159.838C736.092 161.209 737.899 162.581 741.512 163.952C743.319 164.638 745.126 165.324 746.932 166.01C747.158 164.638 747.384 163.267 747.61 161.895C748.061 159.152 752.126 152.066 759.805 140.637C767.483 129.207 772.226 123.035 774.033 122.121C775.839 121.207 776.743 120.064 776.743 118.692C776.743 117.321 775.162 115.721 772 113.892C770.419 112.978 768.838 112.063 767.257 111.149C765.902 114.349 764.547 117.549 763.192 120.749C760.482 127.15 758.676 130.807 757.772 131.722C756.869 132.636 755.062 132.636 752.352 131.722C749.642 130.807 745.577 128.293 740.157 124.178C734.737 120.064 732.027 117.092 732.027 115.263C732.027 113.435 734.285 110.235 738.802 105.663C743.319 101.091 745.577 98.1194 745.577 96.7479C745.577 95.3764 744.222 94.0048 741.512 92.6333C738.802 91.2618 732.93 97.8908 723.897 112.52ZM256.417 96.0621C259.579 96.0621 262.741 96.0621 265.902 96.0621C265.902 96.5193 265.902 96.9765 265.902 97.4336C265.902 98.348 267.032 99.0338 269.29 99.4909C271.548 99.9481 274.258 101.777 277.42 104.977C280.582 108.177 282.84 113.206 284.195 120.064C285.55 126.921 285.098 131.722 282.84 134.465C280.582 137.208 276.517 139.494 270.645 141.322C264.773 143.151 259.353 142.922 254.385 140.637C249.416 138.351 245.577 135.608 242.867 132.407C240.157 129.207 238.125 126.236 236.77 123.493C235.415 120.749 234.737 117.778 234.737 114.578C234.737 111.377 236.77 107.491 240.835 102.92C244.9 98.348 250.094 96.0621 256.417 96.0621ZM190.022 134.465C188.215 137.208 190.022 140.865 195.442 145.437C200.862 150.009 203.572 153.209 203.572 155.038C203.572 156.866 200.41 160.752 194.087 166.695C187.763 172.639 182.117 173.553 177.149 169.438C172.181 165.324 169.471 162.124 169.019 159.838C168.793 158.695 168.567 157.552 168.341 156.409C167.438 156.638 166.535 156.866 165.631 157.095C163.825 157.552 162.244 158.923 160.889 161.209C159.534 163.495 164.728 170.353 176.472 181.782C188.215 193.212 194.313 200.069 194.764 202.355C195.216 204.641 196.345 205.784 198.152 205.784C199.958 205.784 201.765 204.641 203.572 202.355C205.379 200.069 202.894 195.497 196.119 188.64C192.732 185.211 189.344 181.782 185.957 178.353C189.344 175.153 192.732 171.953 196.119 168.753C202.894 162.352 208.54 161.209 213.057 165.324C217.574 169.438 220.509 173.096 221.864 176.296C223.22 179.496 224.575 181.096 225.93 181.096C227.285 181.096 228.865 179.496 230.672 176.296C231.575 174.696 232.479 173.096 233.382 171.496C232.479 171.267 231.575 171.039 230.672 170.81C228.865 170.353 223.22 164.867 213.734 154.352C204.249 143.837 199.281 137.665 198.829 135.836C198.378 134.008 197.248 132.636 195.442 131.722C193.635 130.807 191.828 131.722 190.022 134.465ZM793.003 153.666C790.293 166.467 787.357 174.696 784.195 178.353C781.033 182.011 778.098 184.525 775.388 185.897C774.033 186.582 772.678 187.268 771.322 187.954C772 189.326 772.678 190.697 773.355 192.069C774.71 194.812 776.065 196.183 777.42 196.183C778.775 196.183 782.163 192.754 787.583 185.897C793.003 179.039 801.584 174.239 813.328 171.496C819.2 170.124 825.071 168.753 830.943 167.381C830.717 166.467 830.491 165.553 830.266 164.638C829.814 162.809 828.459 161.667 826.201 161.209C823.942 160.752 821.458 161.667 818.748 163.952C816.038 166.238 811.973 168.067 806.553 169.438C803.843 170.124 801.133 170.81 798.423 171.496C798.874 168.296 799.326 165.095 799.778 161.895C800.681 155.495 802.036 150.694 803.843 147.494C805.65 144.294 804.972 141.322 801.81 138.579C800.229 137.208 798.649 135.836 797.068 134.465C795.713 140.865 794.358 147.266 793.003 153.666ZM136.499 192.069C134.24 192.983 130.853 195.726 126.336 200.298C121.819 204.869 118.883 208.755 117.528 211.956C116.851 213.556 116.173 215.156 115.496 216.756C116.625 216.985 117.754 217.213 118.883 217.442C121.142 217.899 128.369 223.614 140.564 234.586C152.759 245.558 159.534 251.044 160.889 251.044C162.244 251.044 163.599 249.444 164.954 246.244C165.631 244.644 166.309 243.043 166.986 241.443C165.857 241.215 164.728 240.986 163.599 240.758C161.341 240.3 158.405 238.472 154.791 235.271C151.178 232.071 150.5 228.414 152.759 224.299C155.017 220.185 156.598 218.127 157.501 218.127C158.405 218.127 159.082 215.842 159.534 211.27C159.986 206.698 159.308 203.041 157.501 200.298C155.695 197.555 152.307 195.269 147.339 193.44C142.37 191.611 138.757 191.154 136.499 192.069ZM142.596 200.298C146.21 201.212 149.145 203.041 151.404 205.784C153.662 208.527 154.34 211.956 153.436 216.07C152.533 220.185 151.404 222.928 150.049 224.299C148.694 225.671 147.113 226.357 145.306 226.357C144.403 226.357 143.5 226.357 142.596 226.357C142.596 225.899 142.596 225.442 142.596 224.985C142.596 224.071 139.435 221.328 133.111 216.756C129.949 214.47 126.788 212.184 123.626 209.898C124.755 208.527 125.884 207.155 127.014 205.784C129.272 203.041 131.53 201.212 133.789 200.298C136.047 199.383 138.983 199.383 142.596 200.298ZM74.8455 277.789C73.9422 279.16 73.7164 280.76 74.168 282.589C74.6197 284.418 76.6522 285.332 80.2656 285.332C83.879 285.332 90.2023 287.618 99.2358 292.19C103.752 294.475 108.269 296.761 112.786 299.047C111.431 299.733 110.076 300.419 108.721 301.104C106.011 302.476 102.849 303.162 99.2358 303.162C95.6224 303.162 93.5899 303.619 93.1382 304.533C92.6865 305.448 87.4923 306.591 77.5556 307.962C67.6188 309.334 61.9729 310.477 60.6179 311.391C59.2629 312.305 58.3595 313.905 57.9079 316.191C57.682 317.334 57.4562 318.477 57.2304 319.62C60.6179 320.306 64.0054 320.992 67.393 321.677C74.168 323.049 77.5556 324.192 77.5556 325.106C77.5556 325.563 77.5556 326.02 77.5556 326.478C78.4589 326.478 79.3622 326.478 80.2656 326.478C82.0723 326.478 83.4273 327.163 84.3306 328.535C85.234 329.906 86.589 330.592 88.3957 330.592C90.2023 330.592 94.2674 332.649 100.591 336.764C106.914 340.879 110.753 342.25 112.108 340.879C113.463 339.507 113.915 337.907 113.463 336.078C113.012 334.25 110.753 333.335 106.688 333.335C102.623 333.335 100.139 332.649 99.2358 331.278C98.3324 329.906 96.9774 329.221 95.1707 329.221C93.364 329.221 89.0732 327.392 82.2981 323.735C78.9106 321.906 75.523 320.077 72.1355 318.248C73.7164 317.563 75.2972 316.877 76.878 316.191C80.0397 314.82 88.8473 312.991 103.301 310.705C117.754 308.419 125.433 306.133 126.336 303.848C126.788 302.705 127.239 301.562 127.691 300.419C122.045 298.133 116.399 295.847 110.753 293.561C99.4616 288.989 93.8157 286.246 93.8157 285.332C93.8157 284.875 93.8157 284.418 93.8157 283.96C92.9124 283.96 92.009 283.96 91.1057 283.96C89.299 283.96 87.0407 282.589 84.3306 279.846C81.6206 277.103 79.5881 275.731 78.2331 275.731C76.878 275.731 75.7489 276.417 74.8455 277.789ZM331.621 301.79C331.169 304.533 332.524 306.819 335.686 308.648C338.847 310.477 341.106 313.448 342.461 317.563C343.816 321.677 344.493 357.108 344.493 423.856C344.493 490.603 343.816 526.034 342.461 530.148C341.106 534.263 338.847 537.235 335.686 539.063C332.524 540.892 330.943 542.949 330.943 545.235C330.943 546.378 330.943 547.521 330.943 548.664C340.88 548.664 350.817 548.664 360.753 548.664C370.69 548.664 380.627 548.664 390.564 548.664C390.564 547.75 390.564 546.835 390.564 545.921C390.564 544.092 388.531 541.349 384.466 537.692C380.401 534.034 377.917 529.006 377.014 522.605C376.11 516.205 375.659 498.146 375.659 468.43C375.659 453.572 375.659 438.714 375.659 423.856C382.659 423.856 389.66 423.856 396.661 423.856C410.663 423.856 419.019 424.541 421.729 425.913C424.439 427.284 426.246 428.884 427.149 430.713C428.052 432.542 429.182 433.456 430.537 433.456C431.892 433.456 433.472 434.828 435.279 437.571C437.086 440.314 438.441 444.886 439.344 451.286C440.248 457.686 440.699 490.603 440.699 550.035C440.699 609.468 440.473 641.927 440.022 647.413C439.57 652.9 438.667 657.014 437.312 659.757C435.957 662.5 433.924 664.557 431.214 665.929C428.504 667.301 426.923 668.901 426.472 670.729C426.246 671.644 426.02 672.558 425.794 673.472C453.572 673.701 481.35 673.93 509.127 674.158C564.683 674.615 592.912 672.101 593.816 666.615C594.719 661.129 595.171 654.271 595.171 646.042C595.171 637.813 594.719 633.241 593.816 632.327C592.912 631.412 591.557 631.412 589.751 632.327C587.944 633.241 586.815 634.841 586.363 637.127C585.911 639.413 583.653 643.07 579.588 648.099C575.523 653.128 569.2 657.471 560.618 661.129C552.036 664.786 536.453 666.615 513.87 666.615C491.286 666.615 478.865 665.472 476.607 663.186C474.349 660.9 473.22 637.356 473.22 592.553C473.22 570.151 473.22 547.75 473.22 525.348C474.575 527.634 475.93 529.92 477.285 532.206C479.995 536.777 484.511 541.349 490.835 545.921C497.158 550.493 504.611 552.779 513.192 552.779C521.774 552.779 527.42 551.864 530.13 550.035C531.485 549.121 532.84 548.207 534.195 547.292C533.518 546.378 532.84 545.464 532.163 544.549C530.808 542.721 528.098 541.578 524.033 541.121C519.967 540.663 517.032 538.835 515.225 535.635C513.418 532.434 512.063 530.834 511.16 530.834C510.257 530.834 507.095 524.891 501.675 513.004C496.255 501.118 492.867 492.432 491.512 486.946C490.157 481.459 489.028 478.716 488.125 478.716C487.221 478.716 486.092 475.973 484.737 470.487C483.382 465.001 482.253 462.258 481.35 462.258C480.446 462.258 479.091 459.972 477.285 455.401C475.478 450.829 475.026 446.486 475.93 442.371C476.833 438.257 478.865 435.285 482.027 433.456C485.189 431.628 486.77 429.799 486.77 427.97C486.77 426.141 486.318 424.77 485.415 423.856C484.511 422.941 477.51 422.484 464.412 422.484C451.313 422.484 443.635 422.027 441.377 421.113C439.118 420.198 437.989 419.284 437.989 418.37C437.989 417.455 440.699 416.541 446.119 415.626C451.539 414.712 457.411 412.426 463.734 408.769C470.058 405.111 475.478 400.768 479.995 395.739C484.511 390.711 487.673 386.367 489.48 382.71C491.286 379.053 492.867 372.881 494.222 364.194C495.577 355.508 495.803 348.879 494.9 344.307C493.996 339.736 492.19 334.935 489.48 329.906C486.77 324.878 481.575 319.62 473.897 314.134C466.219 308.648 458.089 304.762 449.507 302.476C440.925 300.19 419.245 298.819 384.466 298.361C349.687 297.904 332.072 299.047 331.621 301.79ZM377.014 307.276C382.208 307.276 387.402 307.276 392.596 307.276C402.985 307.276 411.341 307.962 417.664 309.334C423.987 310.705 431.44 314.591 440.022 320.992C448.603 327.392 454.249 333.792 456.959 340.193C459.669 346.593 461.25 352.765 461.702 358.708C462.154 364.652 461.702 370.595 460.347 376.538C458.992 382.481 456.282 388.196 452.217 393.682C448.152 399.168 442.506 403.511 435.279 406.712C428.052 409.912 416.309 411.512 400.049 411.512C391.919 411.512 383.789 411.512 375.659 411.512C375.884 394.139 376.11 376.767 376.336 359.394C376.562 342.022 376.788 324.649 377.014 307.276ZM45.7127 364.194C39.841 370.138 37.131 377.452 37.5827 386.139C38.0343 394.825 39.841 400.997 43.0027 404.654C46.1644 408.312 49.1003 410.826 51.8103 412.198C54.5203 413.569 59.7145 414.255 67.393 414.255C75.0714 414.255 81.3948 411.969 86.3631 407.397C91.3315 402.826 94.2674 399.168 95.1707 396.425C96.0741 393.682 96.0741 388.425 95.1707 380.653C94.2674 372.881 91.1057 366.709 85.6856 362.137C80.2656 357.565 73.7164 355.28 66.0379 355.28C58.3595 355.28 51.5845 358.251 45.7127 364.194ZM69.4255 364.194C76.6522 364.652 82.5239 366.937 87.0407 371.052C91.5574 375.167 93.1382 380.196 91.7832 386.139C90.4282 392.082 87.944 396.654 84.3306 399.854C80.7173 403.054 74.6197 404.654 66.0379 404.654C57.4562 404.654 51.1328 403.054 47.0678 399.854C43.0027 396.654 41.196 391.625 41.6477 384.767C42.0994 377.91 45.0352 372.652 50.4553 368.995C55.8753 365.337 62.1987 363.737 69.4255 364.194ZM916.309 368.995C916.309 371.738 917.89 376.995 921.051 384.767C924.213 392.539 925.794 402.826 925.794 415.626C925.794 428.427 922.632 439.857 916.309 449.914C909.986 459.972 901.855 469.573 891.919 478.716C881.982 487.86 877.014 493.117 877.014 494.489C877.014 495.175 877.014 495.86 877.014 496.546C870.916 496.546 864.818 496.546 858.721 496.546C846.526 496.546 839.525 495.632 837.718 493.803C835.911 491.974 832.072 491.06 826.201 491.06C820.329 491.06 812.65 493.803 803.165 499.289C793.68 504.775 789.389 508.433 790.293 510.261C791.196 512.09 794.132 514.147 799.1 516.433C804.069 518.719 810.618 519.862 818.748 519.862C826.878 519.862 832.298 519.176 835.008 517.805C837.718 516.433 839.751 513.462 841.106 508.89C842.461 504.318 843.816 501.575 845.171 500.661C846.526 499.746 851.042 499.289 858.721 499.289C866.399 499.289 870.464 500.432 870.916 502.718C871.368 505.004 870.916 507.518 869.561 510.261C868.206 513.004 865.27 514.376 860.753 514.376C856.237 514.376 851.042 516.662 845.171 521.234C839.299 525.805 834.556 528.091 830.943 528.091C829.136 528.091 827.33 528.091 825.523 528.091C825.749 529.234 825.975 530.377 826.201 531.52C826.652 533.806 829.362 536.092 834.331 538.378C839.299 540.663 843.816 541.806 847.881 541.806C851.946 541.806 855.559 540.892 858.721 539.063C860.302 538.149 861.883 537.235 863.463 536.32C863.463 537.006 863.463 537.692 863.463 538.378C863.463 539.749 861.431 542.264 857.366 545.921C853.301 549.578 850.591 553.236 849.236 556.893C847.881 560.55 847.203 564.436 847.203 568.551C847.203 572.666 847.881 575.409 849.236 576.78C850.591 578.152 851.268 579.752 851.268 581.58C851.268 583.409 852.172 584.552 853.978 585.009C855.785 585.466 858.721 583.181 862.786 578.152C866.851 573.123 869.787 568.322 871.593 563.751C873.4 559.179 874.304 555.75 874.304 553.464C874.304 551.178 873.4 548.664 871.593 545.921C869.787 543.178 868.883 539.521 868.883 534.949C868.883 530.377 869.335 527.863 870.238 527.405C871.142 526.948 871.593 524.891 871.593 521.234C871.593 517.576 872.723 513.233 874.981 508.204C877.239 503.175 879.724 498.832 882.434 495.175C883.789 493.346 885.144 491.517 886.499 489.689C886.499 492.889 886.499 496.089 886.499 499.289C886.499 505.69 887.854 510.947 890.564 515.062C893.274 519.176 895.306 521.462 896.661 521.919C898.016 522.376 899.145 522.148 900.049 521.234C900.952 520.319 902.533 517.576 904.791 513.004C907.05 508.433 908.179 503.404 908.179 497.918C908.179 492.432 907.05 488.774 904.791 486.946C902.533 485.117 901.404 482.602 901.404 479.402C901.404 476.202 904.114 472.087 909.534 467.058C914.954 462.03 919.471 456.543 923.084 450.6C924.891 447.629 926.697 444.657 928.504 441.685C928.504 452.429 928.504 463.173 928.504 473.916C928.504 495.403 927.601 513.462 925.794 528.091C923.987 542.721 919.922 550.721 913.599 552.093C907.276 553.464 902.307 555.979 898.694 559.636C895.08 563.294 891.919 567.865 889.209 573.351C886.499 578.837 885.595 582.266 886.499 583.638C887.402 585.009 889.209 585.695 891.919 585.695C894.629 585.695 899.823 584.095 907.501 580.895C911.341 579.295 915.18 577.695 919.019 576.094C917.89 580.895 916.761 585.695 915.631 590.495C913.373 600.096 907.05 609.697 896.661 619.297C886.273 628.898 878.369 630.955 872.949 625.469C867.528 619.983 860.528 617.24 851.946 617.24C843.364 617.24 838.396 616.783 837.041 615.868C835.686 614.954 833.879 614.954 831.621 615.868C829.362 616.783 828.233 617.926 828.233 619.297C828.233 620.669 830.491 623.64 835.008 628.212C839.525 632.784 844.945 636.67 851.268 639.87C854.43 641.47 857.592 643.07 860.753 644.67C860.076 645.585 859.398 646.499 858.721 647.413C857.366 649.242 855.559 650.157 853.301 650.157C851.042 650.157 849.687 650.614 849.236 651.528C848.784 652.442 845.622 653.585 839.751 654.957C833.879 656.328 827.104 656.557 819.425 655.643C811.747 654.728 805.875 651.985 801.81 647.413C797.745 642.842 793.68 639.413 789.615 637.127C785.55 634.841 780.582 634.155 774.71 635.07C768.838 635.984 762.741 638.727 756.417 643.299C750.094 647.871 747.384 651.528 748.287 654.271C749.191 657.014 751.223 658.386 754.385 658.386C755.966 658.386 757.547 658.386 759.127 658.386C759.127 658.843 759.127 659.3 759.127 659.757C759.127 660.214 759.127 660.672 759.127 661.129C760.031 661.129 760.934 661.129 761.837 661.129C763.644 661.129 766.128 662.272 769.29 664.557C772.452 666.843 778.098 667.986 786.228 667.986C794.358 667.986 799.326 666.843 801.133 664.557C802.939 662.272 805.875 661.129 809.94 661.129C811.973 661.129 814.005 661.129 816.038 661.129C814.231 662.957 812.425 664.786 810.618 666.615C807.005 670.272 805.198 673.015 805.198 674.844C805.198 675.758 805.198 676.673 805.198 677.587C804.746 677.587 804.294 677.587 803.843 677.587C803.391 677.587 802.939 677.587 802.488 677.587C802.488 678.958 802.488 680.33 802.488 681.701C802.488 684.445 801.81 686.73 800.455 688.559C799.1 690.388 798.649 692.445 799.1 694.731C799.552 697.017 801.359 698.16 804.52 698.16C807.682 698.16 811.973 696.331 817.393 692.674C822.813 689.016 826.652 685.359 828.911 681.701C831.169 678.044 832.298 674.387 832.298 670.729C832.298 667.072 833.879 664.557 837.041 663.186C838.621 662.5 840.202 661.814 841.783 661.129C841.557 665.015 841.332 668.901 841.106 672.787C840.654 680.559 840.654 685.587 841.106 687.873C841.557 690.159 842.687 691.759 844.493 692.674C846.3 693.588 850.139 689.245 856.011 679.644C861.883 670.044 865.044 663.643 865.496 660.443C865.948 657.243 865.722 654.957 864.818 653.585C864.367 652.9 863.915 652.214 863.463 651.528C867.077 649.242 870.69 646.956 874.304 644.67C881.53 640.099 889.209 633.927 897.339 626.155C901.404 622.269 905.469 618.383 909.534 614.497C908.405 619.069 907.276 623.64 906.146 628.212C903.888 637.356 900.5 647.642 895.984 659.071C891.467 670.501 886.273 676.215 880.401 676.215C874.529 676.215 868.658 678.958 862.786 684.445C856.914 689.931 853.075 692.902 851.268 693.359C850.365 693.588 849.462 693.817 848.558 694.045C849.01 695.188 849.462 696.331 849.913 697.474C850.817 699.76 852.623 701.131 855.333 701.589C858.043 702.046 862.56 701.589 868.883 700.217C872.045 699.531 875.207 698.846 878.369 698.16C877.014 701.36 875.659 704.56 874.304 707.76C871.593 714.161 867.754 719.418 862.786 723.533C857.818 727.647 852.623 730.848 847.203 733.134C841.783 735.419 837.944 734.048 835.686 729.019C833.427 723.99 829.588 719.875 824.168 716.675C818.748 713.475 815.586 712.332 814.683 713.246C813.78 714.161 813.554 717.361 814.005 722.847C814.457 728.333 815.812 732.219 818.07 734.505C820.329 736.791 821.458 738.62 821.458 739.991C821.458 741.363 819.877 742.277 816.715 742.734C813.554 743.191 811.747 743.877 811.295 744.791C810.844 745.706 808.811 746.163 805.198 746.163C803.391 746.163 801.584 746.163 799.778 746.163C799.778 745.02 799.778 743.877 799.778 742.734C799.778 741.591 799.778 740.448 799.778 739.305C799.326 739.305 798.874 739.305 798.423 739.305C797.519 739.305 796.164 737.705 794.358 734.505C792.551 731.305 788.712 728.562 782.84 726.276C776.968 723.99 773.129 721.933 771.322 720.104C769.516 718.275 767.709 717.361 765.902 717.361C764.999 717.361 764.096 717.361 763.192 717.361C763.192 718.275 763.192 719.19 763.192 720.104C763.192 721.933 764.322 725.362 766.58 730.39C768.838 735.419 771.322 739.305 774.033 742.048C775.388 743.42 776.743 744.791 778.098 746.163C776.065 746.62 774.033 747.077 772 747.534C767.935 748.449 764.773 748.906 762.515 748.906C760.257 748.906 757.095 747.763 753.03 745.477C748.965 743.191 746.932 741.591 746.932 740.677C746.932 739.763 743.996 738.162 738.125 735.877C732.253 733.591 727.962 732.448 725.252 732.448C722.542 732.448 719.38 730.848 715.767 727.647C712.154 724.447 707.411 722.847 701.539 722.847C695.668 722.847 689.796 724.219 683.924 726.962C680.988 728.333 678.052 729.705 675.117 731.076C676.02 732.676 676.923 734.276 677.827 735.877C679.633 739.077 682.795 741.82 687.312 744.106C691.828 746.392 696.797 747.534 702.217 747.534C707.637 747.534 711.476 747.077 713.734 746.163C715.993 745.249 717.799 743.649 719.154 741.363C720.509 739.077 722.542 737.934 725.252 737.934C727.962 737.934 732.705 739.534 739.48 742.734C742.867 744.334 746.255 745.934 749.642 747.534C748.739 748.449 747.836 749.363 746.932 750.278C745.126 752.106 741.512 753.021 736.092 753.021C730.672 753.021 727.736 752.563 727.285 751.649C726.833 750.735 724.349 750.735 719.832 751.649C715.315 752.563 709.895 755.535 703.572 760.564C700.41 763.078 697.248 765.593 694.087 768.107C695.893 769.022 697.7 769.936 699.507 770.85C703.12 772.679 708.766 773.593 716.444 773.593C724.123 773.593 729.091 772.908 731.35 771.536C733.608 770.165 735.64 767.422 737.447 763.307C739.254 759.192 744.9 756.678 754.385 755.764C759.127 755.306 763.87 754.849 768.612 754.392C764.547 756.907 760.482 759.421 756.417 761.935C748.287 766.964 741.286 772.222 735.415 777.708C729.543 783.194 724.575 786.394 720.509 787.309C716.444 788.223 712.154 791.423 707.637 796.909C703.12 802.395 700.41 808.339 699.507 814.739C699.055 817.939 698.603 821.139 698.152 824.34C699.281 824.34 700.41 824.34 701.539 824.34C703.798 824.34 709.444 821.139 718.477 814.739C727.51 808.339 732.027 802.167 732.027 796.223C732.027 790.28 733.608 785.708 736.77 782.508C738.35 780.908 739.931 779.308 741.512 777.708C742.416 780.908 743.319 784.108 744.222 787.309C746.029 793.709 748.061 797.824 750.32 799.652C751.449 800.567 752.578 801.481 753.707 802.395C754.836 800.338 755.966 798.281 757.095 796.223C759.353 792.109 760.708 787.766 761.16 783.194C761.612 778.622 761.386 774.736 760.482 771.536C759.579 768.336 762.289 764.678 768.612 760.564C774.936 756.449 786.002 753.249 801.81 750.963C817.619 748.677 831.169 744.791 842.461 739.305C848.107 736.562 853.752 733.819 859.398 731.076C859.624 731.762 859.85 732.448 860.076 733.134C860.528 734.505 860.076 736.334 858.721 738.62C857.366 740.905 852.849 747.534 845.171 758.507C837.492 769.479 831.621 773.593 827.556 770.85C823.491 768.107 818.522 766.279 812.65 765.364C806.779 764.45 799.1 766.736 789.615 772.222C780.13 777.708 775.839 781.594 776.743 783.88C777.646 786.166 779.453 787.309 782.163 787.309C784.873 787.309 786.905 787.994 788.26 789.366C789.615 790.737 793.906 791.423 801.133 791.423C808.36 791.423 813.78 790.737 817.393 789.366C819.2 788.68 821.006 787.994 822.813 787.309C817.845 793.023 812.876 798.738 807.908 804.453C797.971 815.882 792.325 821.597 790.97 821.597C789.615 821.597 787.131 819.997 783.518 816.796C779.904 813.596 775.388 811.996 769.967 811.996C764.547 811.996 759.805 813.139 755.74 815.425C751.675 817.711 747.384 818.854 742.867 818.854C738.35 818.854 735.64 819.311 734.737 820.225C733.834 821.139 733.608 822.511 734.06 824.34C734.511 826.168 737.899 828.683 744.222 831.883C750.546 835.083 757.095 836.683 763.87 836.683C767.257 836.683 770.645 836.683 774.033 836.683C773.581 837.598 773.129 838.512 772.678 839.426C771.774 841.255 765.451 846.513 753.707 855.199C741.964 863.885 729.995 868.228 717.799 868.228C711.702 868.228 705.604 868.228 699.507 868.228C699.507 865.714 699.507 863.199 699.507 860.685C699.507 855.656 698.829 851.541 697.474 848.341C696.119 845.141 692.506 841.026 686.634 835.998C680.762 830.969 676.697 828.683 674.439 829.14C672.181 829.597 671.051 831.426 671.051 834.626C671.051 837.826 672.632 843.084 675.794 850.399C677.375 854.056 678.956 857.713 680.537 861.371C677.601 860.914 674.665 860.456 671.729 859.999C665.857 859.085 662.921 858.17 662.921 857.256C662.921 856.342 661.115 854.742 657.501 852.456C653.888 850.17 649.371 849.027 643.951 849.027C638.531 849.027 633.337 850.17 628.369 852.456C623.4 854.742 619.561 855.885 616.851 855.885C614.141 855.885 612.56 856.799 612.108 858.628C611.657 860.456 612.334 862.285 614.141 864.114C615.948 865.942 620.464 868.457 627.691 871.657C634.918 874.857 640.564 876.457 644.629 876.457C648.694 876.457 652.759 875.315 656.824 873.029C660.889 870.743 663.147 868.685 663.599 866.857C664.051 865.028 667.212 864.571 673.084 865.485C678.956 866.4 684.376 868 689.344 870.286C694.313 872.571 701.765 873.943 711.702 874.4C716.67 874.629 721.639 874.857 726.607 875.086C715.767 881.486 704.927 887.887 694.087 894.287C672.407 907.088 660.889 912.574 659.534 910.745C658.179 908.917 655.469 907.088 651.404 905.259C647.339 903.431 641.467 902.974 633.789 903.888C626.11 904.802 622.271 906.174 622.271 908.002C622.271 909.831 623.4 911.203 625.659 912.117C627.917 913.031 629.498 914.403 630.401 916.232C631.304 918.06 633.789 919.66 637.854 921.032C639.886 921.718 641.919 922.403 643.951 923.089C640.338 925.146 636.724 927.204 633.111 929.261C625.884 933.376 621.593 935.433 620.238 935.433C618.883 935.433 617.98 934.518 617.528 932.69C617.077 930.861 614.818 928.575 610.753 925.832C606.688 923.089 600.591 921.718 592.461 921.718C584.331 921.718 580.04 922.632 579.588 924.461C579.136 926.289 580.04 928.575 582.298 931.318C584.556 934.061 587.492 936.576 591.106 938.862C594.719 941.148 597.881 942.29 600.591 942.29C601.946 942.29 603.301 942.29 604.656 942.29C604.656 942.748 604.656 943.205 604.656 943.662C604.656 944.576 603.075 945.948 599.913 947.777C596.752 949.605 591.783 950.52 585.008 950.52C578.233 950.52 571.232 951.891 564.005 954.634C556.779 957.377 551.133 961.035 547.068 965.606C543.003 970.178 540.293 973.835 538.938 976.578C537.583 979.322 537.131 981.607 537.583 983.436C538.034 985.265 539.389 986.179 541.648 986.179C543.906 986.179 545.713 985.493 547.068 984.122C548.423 982.75 552.714 982.293 559.94 982.75C567.167 983.207 573.039 982.75 577.556 981.379C582.072 980.007 585.911 977.721 589.073 974.521C592.235 971.321 594.945 966.978 597.203 961.492C599.462 956.006 601.268 953.263 602.623 953.263C603.301 953.263 603.978 953.263 604.656 953.263C604.43 956.006 604.204 958.749 603.978 961.492C603.527 966.978 603.752 969.949 604.656 970.407C605.559 970.864 606.011 972.235 606.011 974.521C606.011 976.807 607.14 978.864 609.398 980.693C610.528 981.607 611.657 982.522 612.786 983.436C614.593 979.779 616.399 976.121 618.206 972.464C621.819 965.149 623.174 958.292 622.271 951.891C621.368 945.491 627.691 938.633 641.241 931.318C648.016 927.661 654.791 924.003 661.566 920.346C660.889 923.775 660.211 927.204 659.534 930.633C658.179 937.49 655.017 941.148 650.049 941.605C645.08 942.062 640.79 945.033 637.176 950.52C633.563 956.006 631.756 959.892 631.756 962.177C631.756 964.463 632.434 965.835 633.789 966.292C635.144 966.749 636.273 966.292 637.176 964.921C638.079 963.549 641.241 961.949 646.661 960.12C649.371 959.206 652.081 958.292 654.791 957.377C654.791 958.749 654.791 960.12 654.791 961.492C654.791 964.235 653.662 966.063 651.404 966.978C649.145 967.892 646.887 970.178 644.629 973.835C642.37 977.493 641.241 981.607 641.241 986.179C641.241 990.751 641.919 994.865 643.274 998.523C644.629 1002.18 646.435 1004.47 648.694 1005.38C650.952 1006.29 654.34 1002.87 658.856 995.094C663.373 987.322 665.631 981.607 665.631 977.95C665.631 974.293 664.728 971.55 662.921 969.721C661.115 967.892 660.211 965.835 660.211 963.549C660.211 961.263 660.663 959.434 661.566 958.063C662.47 956.691 663.599 949.377 664.954 936.119C666.309 922.861 668.567 915.774 671.729 914.86C674.891 913.946 679.859 911.203 686.634 906.631C690.022 904.345 693.409 902.059 696.797 899.773C696.345 900.688 695.893 901.602 695.442 902.516C694.538 904.345 694.087 908.917 694.087 916.232C694.087 923.546 694.538 928.118 695.442 929.947C696.345 931.775 697.7 932.69 699.507 932.69C700.41 932.69 701.313 932.69 702.217 932.69C702.217 932.004 702.217 931.318 702.217 930.633C702.217 929.261 703.798 926.975 706.959 923.775C710.121 920.575 712.831 916.689 715.089 912.117C717.348 907.545 718.477 903.888 718.477 901.145C718.477 898.402 717.574 895.887 715.767 893.601C714.864 892.459 713.96 891.316 713.057 890.173C716.896 887.43 720.735 884.687 724.575 881.944C728.414 879.2 732.253 876.457 736.092 873.714C735.64 876.457 735.189 879.2 734.737 881.944C733.834 887.43 733.608 897.487 734.06 912.117C734.511 926.747 731.801 934.747 725.93 936.119C720.058 937.49 714.864 940.69 710.347 945.719C705.83 950.748 703.572 954.406 703.572 956.691C703.572 958.977 703.12 960.349 702.217 960.806C701.313 961.263 700.862 962.406 700.862 964.235C700.862 966.063 701.765 967.206 703.572 967.664C705.379 968.121 707.863 966.978 711.024 964.235C714.186 961.492 718.929 959.434 725.252 958.063C728.414 957.377 731.575 956.691 734.737 956.006C734.06 961.035 733.382 966.063 732.705 971.092C731.35 981.15 729.543 986.636 727.285 987.551C725.026 988.465 723.22 990.294 721.864 993.037C720.509 995.78 719.38 997.151 718.477 997.151C718.025 997.151 717.574 997.151 717.122 997.151C717.122 999.894 717.122 1002.64 717.122 1005.38C717.122 1010.87 717.574 1014.75 718.477 1017.04C719.38 1019.32 720.961 1020.92 723.22 1021.84C725.478 1022.75 728.64 1019.78 732.705 1012.92C736.77 1006.07 738.576 1000.81 738.125 997.151C737.673 993.494 736.995 991.437 736.092 990.979C735.189 990.522 735.415 987.551 736.77 982.065C737.447 979.322 738.125 976.578 738.802 973.835C740.157 976.35 741.512 978.864 742.867 981.379C745.577 986.408 748.061 989.151 750.32 989.608C751.449 989.836 752.578 990.065 753.707 990.294C753.933 989.151 754.159 988.008 754.385 986.865C754.836 984.579 754.836 978.636 754.385 969.035C753.933 959.434 752.352 953.034 749.642 949.834C746.932 946.634 744.9 945.033 743.545 945.033C742.19 945.033 741.286 943.891 740.835 941.605C740.383 939.319 739.706 931.318 738.802 917.603C737.899 903.888 737.899 896.802 738.802 896.344C739.706 895.887 740.383 892.001 740.835 884.687C741.286 877.372 742.19 872.571 743.545 870.286C744.9 868 748.965 864.571 755.74 859.999C759.127 857.713 762.515 855.427 765.902 853.142C765.225 855.885 764.547 858.628 763.87 861.371C762.515 866.857 762.063 871.657 762.515 875.772C762.967 879.886 764.322 884.458 766.58 889.487C768.838 894.516 770.871 897.03 772.678 897.03C774.484 897.03 776.743 892.687 779.453 884.001C782.163 875.315 784.195 870.286 785.55 868.914C786.905 867.543 787.583 864.342 787.583 859.313C787.583 854.285 786.228 849.941 783.518 846.284C780.808 842.627 783.518 836.912 791.648 829.14C795.713 825.254 799.778 821.368 803.843 817.482C804.069 819.082 804.294 820.682 804.52 822.282C804.972 825.483 806.779 829.826 809.94 835.312C813.102 840.798 816.038 844.684 818.748 846.97C821.458 849.256 823.491 849.941 824.846 849.027C826.201 848.113 826.878 843.541 826.878 835.312C826.878 827.083 826.201 822.054 824.846 820.225C823.491 818.396 822.813 816.339 822.813 814.053C822.813 811.767 821.684 809.482 819.425 807.196C818.296 806.053 817.167 804.91 816.038 803.767C818.748 801.024 821.458 798.281 824.168 795.538C829.588 790.052 834.105 784.337 837.718 778.394C841.332 772.45 843.59 769.707 844.493 770.165C845.397 770.622 846.074 783.88 846.526 809.939C846.752 822.968 846.977 835.998 847.203 849.027C846.074 849.027 844.945 849.027 843.816 849.027C841.557 849.027 838.396 850.627 834.331 853.827C830.266 857.028 827.104 860.456 824.846 864.114C822.587 867.771 821.458 870.743 821.458 873.029C821.458 875.315 822.136 876.686 823.491 877.143C824.846 877.6 827.33 876.457 830.943 873.714C834.556 870.971 837.492 869.6 839.751 869.6C842.009 869.6 843.816 868.685 845.171 866.857C845.848 865.942 846.526 865.028 847.203 864.114C847.203 865.257 847.203 866.4 847.203 867.543C847.203 869.828 845.622 872.8 842.461 876.457C839.299 880.115 837.718 883.772 837.718 887.43C837.718 891.087 838.396 894.744 839.751 898.402C841.106 902.059 842.235 903.888 843.138 903.888C843.59 903.888 844.042 903.888 844.493 903.888C844.493 904.802 844.493 905.717 844.493 906.631C844.493 907.545 844.493 908.46 844.493 909.374C845.848 909.145 847.203 908.917 848.558 908.688C851.268 908.231 852.623 907.088 852.623 905.259C852.623 903.431 853.752 900.916 856.011 897.716C858.269 894.516 859.398 890.173 859.398 884.687C859.398 879.2 858.269 875.315 856.011 873.029C853.752 870.743 852.623 864.571 852.623 854.513C852.623 849.484 852.623 844.455 852.623 839.426C853.075 839.426 853.527 839.426 853.978 839.426C854.882 839.426 858.721 841.255 865.496 844.912C872.271 848.57 875.433 853.142 874.981 858.628C874.755 861.371 874.529 864.114 874.304 866.857C874.755 866.857 875.207 866.857 875.659 866.857C876.562 866.857 877.917 868.457 879.724 871.657C881.53 874.857 884.014 877.143 887.176 878.515C890.338 879.886 893.951 880.572 898.016 880.572C900.049 880.572 902.081 880.572 904.114 880.572C902.985 876.457 901.855 872.343 900.726 868.228C898.468 859.999 893.725 854.056 886.499 850.399C882.885 848.57 879.272 846.741 875.659 844.912C877.239 842.855 878.82 840.798 880.401 838.741C883.563 834.626 885.369 829.826 885.821 824.34C886.047 821.597 886.273 818.854 886.499 816.111C883.563 817.253 880.627 818.396 877.691 819.539C871.819 821.825 867.528 825.025 864.818 829.14C862.108 833.255 859.398 834.855 856.688 833.94C853.978 833.026 852.623 828.226 852.623 819.539C852.623 815.196 852.623 810.853 852.623 806.51C855.107 806.738 857.592 806.967 860.076 807.196C865.044 807.653 868.432 807.196 870.238 805.824C872.045 804.453 874.529 803.767 877.691 803.767C880.853 803.767 882.885 802.624 883.789 800.338C884.692 798.052 881.982 795.309 875.659 792.109C869.335 788.909 863.689 787.994 858.721 789.366C856.237 790.052 853.752 790.737 851.268 791.423C851.268 786.166 851.268 780.908 851.268 775.651C851.268 765.136 854.656 754.164 861.431 742.734C864.818 737.019 868.206 731.305 871.593 725.59C872.497 727.419 873.4 729.248 874.304 731.076C876.11 734.734 879.272 738.848 883.789 743.42C888.305 747.992 892.37 750.963 895.984 752.335C897.79 753.021 899.597 753.706 901.404 754.392C901.404 750.049 901.404 745.706 901.404 741.363C901.404 732.676 900.952 728.105 900.049 727.647C899.145 727.19 898.694 725.819 898.694 723.533C898.694 721.247 898.016 718.961 896.661 716.675C895.306 714.389 892.596 712.332 888.531 710.503C884.466 708.675 882.434 706.846 882.434 705.017C882.434 703.189 884.014 699.76 887.176 694.731C890.338 689.702 892.37 684.902 893.274 680.33C894.177 675.758 895.306 673.015 896.661 672.101C898.016 671.186 900.952 663.415 905.469 648.785C907.727 641.47 909.986 634.155 912.244 626.841C914.051 629.812 915.857 632.784 917.664 635.756C921.277 641.699 920.826 647.185 916.309 652.214C911.792 657.243 909.534 664.329 909.534 673.472C909.534 682.616 909.986 687.873 910.889 689.245C911.792 690.616 913.147 691.302 914.954 691.302C916.761 691.302 919.922 687.873 924.439 681.016C928.956 674.158 931.44 669.586 931.892 667.301C932.117 666.158 932.343 665.015 932.569 663.872C932.569 669.815 932.569 675.758 932.569 681.701C932.569 693.588 930.311 701.817 925.794 706.389C921.277 710.961 919.019 715.99 919.019 721.476C919.019 726.962 920.374 734.048 923.084 742.734C925.794 751.42 928.052 755.764 929.859 755.764C931.666 755.764 933.472 754.849 935.279 753.021C937.086 751.192 939.57 747.077 942.732 740.677C945.893 734.276 947.474 726.962 947.474 718.733C947.474 714.618 947.474 710.503 947.474 706.389C950.41 710.046 953.346 713.704 956.282 717.361C962.154 724.676 965.767 728.79 967.122 729.705C968.477 730.619 970.284 730.619 972.542 729.705C974.8 728.79 975.026 722.161 973.22 709.818C971.413 697.474 969.38 689.931 967.122 687.188C964.864 684.445 961.024 682.159 955.604 680.33C950.184 678.501 947.474 676.901 947.474 675.53C947.474 674.158 946.345 672.329 944.087 670.044C941.828 667.758 937.989 661.129 932.569 650.157C927.149 639.184 922.858 631.641 919.696 627.526C916.535 623.412 915.631 618.154 916.986 611.754C917.664 608.554 918.341 605.354 919.019 602.153C921.503 604.896 923.987 607.639 926.472 610.382C931.44 615.868 936.86 619.297 942.732 620.669C945.668 621.355 948.603 622.04 951.539 622.726C949.733 617.926 947.926 613.125 946.119 608.325C942.506 598.724 939.344 592.781 936.634 590.495C933.924 588.209 930.762 587.067 927.149 587.067C925.342 587.067 923.536 587.067 921.729 587.067C923.31 579.066 924.891 571.065 926.472 563.065C928.052 555.064 929.633 547.064 931.214 539.063C932.569 540.663 933.924 542.264 935.279 543.864C937.989 547.064 941.603 549.807 946.119 552.093C950.636 554.379 953.572 555.522 954.927 555.522C956.282 555.522 957.411 554.836 958.314 553.464C959.218 552.093 959.218 548.207 958.314 541.806C957.411 535.406 955.83 530.377 953.572 526.72C951.313 523.062 947.474 520.548 942.054 519.176C936.634 517.805 933.924 509.347 933.924 493.803C933.924 486.031 933.924 478.259 933.924 470.487C938.667 476.659 943.409 482.831 948.152 489.003C957.637 501.347 963.96 510.947 967.122 517.805C970.284 524.662 972.768 532.434 974.575 541.121C976.381 549.807 976.381 554.836 974.575 556.207C972.768 557.579 971.413 560.779 970.509 565.808C969.606 570.837 970.058 575.637 971.864 580.209C973.671 584.781 976.607 589.124 980.672 593.238C984.737 597.353 987.673 599.639 989.48 600.096C991.286 600.553 992.867 600.325 994.222 599.41C995.577 598.496 996.255 593.01 996.255 582.952C996.255 572.894 995.577 566.494 994.222 563.751C993.545 562.379 992.867 561.008 992.19 559.636C994.448 560.093 996.706 560.55 998.965 561.008C1003.48 561.922 1006.42 563.065 1007.77 564.436C1009.13 565.808 1010.48 566.265 1011.84 565.808C1013.19 565.351 1014.1 565.579 1014.55 566.494C1015 567.408 1016.35 567.637 1018.61 567.18C1019.74 566.951 1020.87 566.722 1022 566.494C1021.55 564.208 1021.1 561.922 1020.64 559.636C1019.74 555.064 1017.03 549.121 1012.51 541.806C1008 534.492 1004.16 530.148 1001 528.777C997.836 527.405 993.996 526.948 989.48 527.405C984.963 527.863 980.672 525.577 976.607 520.548C972.542 515.519 970.509 512.547 970.509 511.633C970.509 511.176 970.509 510.719 970.509 510.261C971.864 510.719 973.22 511.176 974.575 511.633C977.285 512.547 982.479 512.547 990.157 511.633C997.836 510.719 1002.35 510.033 1003.71 509.576C1005.06 509.118 1005.74 507.747 1005.74 505.461C1005.74 503.175 1004.38 501.804 1001.67 501.347C998.965 500.889 995.126 498.603 990.157 494.489C985.189 490.374 980.446 488.317 975.93 488.317C971.413 488.317 968.025 489.46 965.767 491.746C963.509 494.032 961.476 495.175 959.669 495.175C957.863 495.175 954.249 491.289 948.829 483.517C943.409 475.745 939.57 468.887 937.312 462.944C935.053 457.001 933.924 452.658 933.924 449.914C933.924 448.543 933.924 447.171 933.924 445.8C937.989 448.086 942.054 450.372 946.119 452.658C954.249 457.229 959.218 459.287 961.024 458.829C962.831 458.372 963.734 457.001 963.734 454.715C963.734 452.429 961.024 447.629 955.604 440.314C950.184 432.999 945.216 429.113 940.699 428.656C936.182 428.199 933.472 422.255 932.569 410.826C931.666 399.397 929.633 389.11 926.472 379.967C923.31 370.823 920.826 366.023 919.019 365.566C918.116 365.337 917.212 365.109 916.309 364.88C916.309 366.252 916.309 367.623 916.309 368.995ZM937.989 433.456C939.118 433.456 940.248 433.456 941.377 433.456C943.635 433.456 945.442 434.142 946.797 435.514C948.152 436.885 949.958 439.857 952.217 444.428C953.346 446.714 954.475 449 955.604 451.286C953.346 450.143 951.088 449 948.829 447.857C944.313 445.571 942.28 443.057 942.732 440.314C943.183 437.571 942.506 435.742 940.699 434.828C939.796 434.371 938.893 433.913 937.989 433.456ZM26.065 436.199C25.1617 437.114 24.71 442.6 24.71 452.658C24.71 462.715 24.2584 468.43 23.355 469.802C22.4517 471.173 22.6775 473.23 24.0325 475.973C25.3875 478.716 26.9684 479.859 28.7751 479.402C30.5818 478.945 31.0334 475.745 30.1301 469.802C29.6784 466.83 29.2267 463.858 28.7751 460.887C37.8085 461.801 46.8419 462.715 55.8753 463.63C64.9088 464.544 73.9422 465.458 82.9756 466.373C82.9756 464.544 82.9756 462.715 82.9756 460.887C82.9756 459.058 82.9756 457.229 82.9756 455.401C77.7814 455.401 72.5872 455.401 67.393 455.401C57.0045 455.401 47.7453 454.715 39.6152 453.343C35.5501 452.658 31.4851 451.972 27.4201 451.286C27.6459 449.914 27.8717 448.543 28.0976 447.171C28.5492 444.428 29.9042 442.371 32.1626 441C34.421 439.628 35.3243 438.257 34.8726 436.885C34.421 435.514 33.0659 434.828 30.8076 434.828C28.5492 434.828 26.9684 435.285 26.065 436.199ZM891.919 482.831C892.37 483.06 892.822 483.288 893.274 483.517C893.725 483.745 894.177 483.974 894.629 484.203C894.177 483.974 893.725 483.745 893.274 483.517C892.822 483.288 892.37 483.06 891.919 482.831ZM901.404 489.689C901.63 492.203 901.855 494.717 902.081 497.232C902.533 502.261 902.081 506.147 900.726 508.89C899.371 511.633 898.016 513.004 896.661 513.004C895.306 513.004 894.177 509.576 893.274 502.718C892.822 499.289 892.37 495.86 891.919 492.432C892.37 492.432 892.822 492.432 893.274 492.432C893.725 492.432 894.177 492.432 894.629 492.432C894.403 493.575 894.177 494.717 893.951 495.86C893.5 498.146 893.725 499.746 894.629 500.661C895.08 501.118 895.532 501.575 895.984 502.032C896.887 499.975 897.79 497.918 898.694 495.86C899.597 493.803 900.5 491.746 901.404 489.689ZM975.93 493.803C979.543 493.803 983.608 495.632 988.125 499.289C990.383 501.118 992.641 502.947 994.9 504.775C992.416 505.232 989.931 505.69 987.447 506.147C982.479 507.061 978.188 507.061 974.575 506.147C972.768 505.69 970.961 505.232 969.154 504.775C970.961 504.318 972.768 503.861 974.575 503.404C976.381 502.947 978.188 502.489 979.995 502.032C979.769 501.347 979.543 500.661 979.317 499.975C978.865 498.603 976.607 497.918 972.542 497.918C970.509 497.918 968.477 497.918 966.444 497.918C967.122 497.232 967.799 496.546 968.477 495.86C969.832 494.489 972.316 493.803 975.93 493.803ZM826.201 496.546C828.685 496.546 831.169 496.546 833.653 496.546C833.427 497.232 833.201 497.918 832.976 498.603C832.524 499.975 829.588 501.347 824.168 502.718C821.458 503.404 818.748 504.09 816.038 504.775C816.264 505.69 816.49 506.604 816.715 507.518C817.167 509.347 818.07 510.261 819.425 510.261C820.78 510.261 822.136 509.576 823.491 508.204C824.846 506.833 827.556 505.69 831.621 504.775C833.653 504.318 835.686 503.861 837.718 503.404C837.718 504.09 837.718 504.775 837.718 505.461C837.718 506.833 836.589 508.661 834.331 510.947C832.072 513.233 827.104 514.376 819.425 514.376C811.747 514.376 806.101 513.69 802.488 512.319C800.681 511.633 798.874 510.947 797.068 510.261C800.681 507.976 804.294 505.69 807.908 503.404C815.135 498.832 821.232 496.546 826.201 496.546ZM22.6775 506.147C23.1292 508.89 24.71 510.261 27.4201 510.261C30.1301 510.261 34.6468 511.862 40.9702 515.062C44.1319 516.662 47.2936 518.262 50.4553 519.862C47.5194 522.148 44.5836 524.434 41.6477 526.72C35.776 531.291 31.4851 533.806 28.7751 534.263C26.065 534.72 24.4842 536.549 24.0325 539.749C23.5808 542.949 23.8067 545.007 24.71 545.921C25.6134 546.835 31.0334 543.864 40.9702 537.006C50.907 530.148 60.3921 526.491 69.4255 526.034C73.9422 525.805 78.4589 525.577 82.9756 525.348C82.7498 523.748 82.5239 522.148 82.2981 520.548C81.8464 517.348 76.6522 516.205 66.7154 517.119C61.7471 517.576 56.7787 518.033 51.8103 518.491C51.8103 518.033 51.8103 517.576 51.8103 517.119C51.8103 516.205 48.6486 514.605 42.3252 512.319C36.0018 510.033 31.9368 507.747 30.1301 505.461C28.3234 503.175 26.5167 502.032 24.71 502.032C23.8067 502.032 22.9033 502.032 22 502.032C22.2258 503.404 22.4517 504.775 22.6775 506.147ZM860.076 519.862C861.657 519.862 863.238 519.862 864.818 519.862C864.818 520.548 864.818 521.234 864.818 521.919C864.818 523.291 863.012 524.205 859.398 524.662C857.592 524.891 855.785 525.12 853.978 525.348C854.204 526.034 854.43 526.72 854.656 527.405C855.107 528.777 856.463 529.691 858.721 530.148C859.85 530.377 860.979 530.606 862.108 530.834C860.076 531.977 858.043 533.12 856.011 534.263C851.946 536.549 847.881 537.006 843.816 535.635C841.783 534.949 839.751 534.263 837.718 533.577C837.944 532.891 838.17 532.206 838.396 531.52C838.847 530.148 839.977 529.463 841.783 529.463C843.59 529.463 846.3 527.863 849.913 524.662C853.527 521.462 856.914 519.862 860.076 519.862ZM937.989 522.605C938.893 522.605 939.796 522.605 940.699 522.605C942.506 522.605 944.313 523.519 946.119 525.348C947.926 527.177 949.507 531.291 950.862 537.692C951.539 540.892 952.217 544.092 952.894 547.292C951.313 546.835 949.733 546.378 948.152 545.921C944.99 545.007 941.828 542.721 938.667 539.063C935.505 535.406 933.924 532.891 933.924 531.52C933.924 530.834 933.924 530.148 933.924 529.463C935.053 529.463 936.182 529.463 937.312 529.463C938.441 529.463 939.57 529.463 940.699 529.463C940.248 528.32 939.796 527.177 939.344 526.034C938.893 524.891 938.441 523.748 937.989 522.605ZM977.285 529.463C977.962 529.92 978.64 530.377 979.317 530.834C980.672 531.749 981.35 535.177 981.35 541.121C981.35 544.092 981.35 547.064 981.35 550.035C980.672 546.607 979.995 543.178 979.317 539.749C978.64 536.32 977.962 532.891 977.285 529.463ZM990.835 532.206C993.093 532.891 995.351 533.577 997.61 534.263C1002.13 535.635 1005.51 538.149 1007.77 541.806C1010.03 545.464 1011.61 549.578 1012.51 554.15C1012.97 556.436 1013.42 558.722 1013.87 561.008C1009.8 559.179 1005.74 557.35 1001.67 555.522C993.545 551.864 989.028 547.978 988.125 543.864C987.673 541.806 987.221 539.749 986.77 537.692C988.35 539.521 989.931 541.349 991.512 543.178C994.674 546.835 997.158 548.664 998.965 548.664C999.868 548.664 1000.77 548.664 1001.67 548.664C999.868 545.921 998.061 543.178 996.255 540.435C994.448 537.692 992.641 534.949 990.835 532.206ZM859.398 548.664C859.624 550.95 859.85 553.236 860.076 555.522C860.302 557.807 860.528 560.093 860.753 562.379C861.657 562.151 862.56 561.922 863.463 561.693C864.367 561.465 865.27 561.236 866.173 561.008C865.948 560.322 865.722 559.636 865.496 558.95C865.044 557.579 865.27 556.665 866.173 556.207C866.625 555.979 867.077 555.75 867.528 555.522C867.528 556.665 867.528 557.807 867.528 558.95C867.528 561.236 865.496 564.894 861.431 569.923C859.398 572.437 857.366 574.951 855.333 577.466C854.882 577.009 854.43 576.552 853.978 576.094C853.075 575.18 852.623 572.437 852.623 567.865C852.623 563.294 853.752 558.95 856.011 554.836C857.14 552.779 858.269 550.721 859.398 548.664ZM982.705 548.664C983.608 549.578 984.511 550.493 985.415 551.407C986.318 552.321 987.221 553.236 988.125 554.15C987.221 554.15 986.318 554.15 985.415 554.15C984.511 554.15 983.608 554.15 982.705 554.15C982.705 553.236 982.705 552.321 982.705 551.407C982.705 550.493 982.705 549.578 982.705 548.664ZM916.986 555.522C918.567 555.522 920.148 555.522 921.729 555.522C921.729 555.979 921.729 556.436 921.729 556.893C921.729 557.807 919.471 559.408 914.954 561.693C910.437 563.979 908.179 565.808 908.179 567.18C908.179 567.865 908.179 568.551 908.179 569.237C909.986 568.78 911.792 568.322 913.599 567.865C915.406 567.408 917.212 566.951 919.019 566.494C919.019 566.951 919.019 567.408 919.019 567.865C919.019 568.78 916.986 570.608 912.921 573.351C908.856 576.094 904.34 577.923 899.371 578.837C896.887 579.295 894.403 579.752 891.919 580.209C893.048 577.923 894.177 575.637 895.306 573.351C897.565 568.78 900.952 564.665 905.469 561.008C909.986 557.35 913.825 555.522 916.986 555.522ZM989.48 555.522C989.706 555.979 989.931 556.436 990.157 556.893C990.383 557.35 990.609 557.807 990.835 558.265C990.609 557.807 990.383 557.35 990.157 556.893C989.931 556.436 989.706 555.979 989.48 555.522ZM74.168 563.751C69.1996 568.322 66.0379 570.608 64.6829 570.608C64.0054 570.608 63.3279 570.608 62.6504 570.608C62.6504 571.065 62.6504 571.523 62.6504 571.98C62.6504 572.894 57.682 576.323 47.7453 582.266C37.8085 588.209 32.6143 592.095 32.1626 593.924C31.7109 595.753 31.9368 597.124 32.8401 598.039C33.7435 598.953 36.4535 599.182 40.9702 598.724C45.4869 598.267 48.4228 598.724 49.7778 600.096C51.1328 601.468 54.2945 602.153 59.2629 602.153C64.2313 602.153 66.9413 602.61 67.393 603.525C67.8446 604.439 70.5547 604.896 75.523 604.896C80.4914 604.896 84.7823 605.811 88.3957 607.639C90.2023 608.554 92.009 609.468 93.8157 610.382C93.8157 608.782 93.8157 607.182 93.8157 605.582C93.8157 603.982 93.8157 602.382 93.8157 600.782C89.9765 600.782 86.1373 600.782 82.2981 600.782C78.4589 600.782 74.6197 600.782 70.7805 600.782C70.7805 599.182 70.7805 597.582 70.7805 595.981C70.7805 592.781 70.3288 590.953 69.4255 590.495C68.5221 590.038 68.0705 587.752 68.0705 583.638C68.0705 579.523 69.8771 576.094 73.4905 573.351C77.1039 570.608 80.2656 569.008 82.9756 568.551C84.3306 568.322 85.6856 568.094 87.0407 567.865C86.1373 566.037 85.234 564.208 84.3306 562.379C83.4273 560.55 82.5239 558.722 81.6206 556.893C79.1364 559.179 76.6522 561.465 74.168 563.751ZM982.705 559.636C983.834 560.55 984.963 561.465 986.092 562.379C988.35 564.208 989.48 569.465 989.48 578.152C989.48 582.495 989.48 586.838 989.48 591.181C987.899 590.267 986.318 589.352 984.737 588.438C981.575 586.609 979.317 584.095 977.962 580.895C976.607 577.695 976.155 573.58 976.607 568.551C976.833 566.037 977.059 563.522 977.285 561.008C977.962 563.065 978.64 565.122 979.317 567.18C980.672 571.294 982.027 573.58 983.382 574.037C984.737 574.494 985.64 574.266 986.092 573.351C986.544 572.437 986.092 569.923 984.737 565.808C984.06 563.751 983.382 561.693 982.705 559.636ZM61.9729 582.952C63.3279 582.952 64.4571 585.466 65.3604 590.495C65.8121 593.01 66.2638 595.524 66.7154 598.039C64.0054 598.039 61.2954 598.039 58.5854 598.039C53.1653 598.039 49.5519 597.353 47.7453 595.981C46.8419 595.296 45.9386 594.61 45.0352 593.924C47.5194 592.095 50.0036 590.267 52.4878 588.438C57.4562 584.781 60.6179 582.952 61.9729 582.952ZM925.794 592.553C927.375 593.01 928.956 593.467 930.537 593.924C933.698 594.839 936.408 598.496 938.667 604.896C939.796 608.097 940.925 611.297 942.054 614.497C939.796 613.354 937.537 612.211 935.279 611.068C930.762 608.782 928.278 606.725 927.827 604.896C927.601 603.982 927.375 603.068 927.149 602.153C928.052 602.61 928.956 603.068 929.859 603.525C930.762 603.982 931.666 604.439 932.569 604.896C932.569 603.982 932.569 603.068 932.569 602.153C932.569 600.325 931.44 598.267 929.182 595.981C928.052 594.839 926.923 593.696 925.794 592.553ZM924.439 599.41C924.665 599.867 924.891 600.325 925.117 600.782C925.342 601.239 925.568 601.696 925.794 602.153C925.568 601.696 925.342 601.239 925.117 600.782C924.891 600.325 924.665 599.867 924.439 599.41ZM851.946 622.04C859.624 622.498 864.593 623.412 866.851 624.783C869.109 626.155 870.69 628.441 871.593 631.641C872.045 633.241 872.497 634.841 872.949 636.441C871.593 635.527 870.238 634.613 868.883 633.698C866.173 631.87 863.689 630.955 861.431 630.955C860.302 630.955 859.173 630.955 858.043 630.955C858.043 631.641 858.043 632.327 858.043 633.013C858.043 634.384 859.624 635.984 862.786 637.813C864.367 638.727 865.948 639.642 867.528 640.556C865.044 639.87 862.56 639.184 860.076 638.499C855.107 637.127 852.623 635.984 852.623 635.07C852.623 634.613 852.623 634.155 852.623 633.698C851.946 633.698 851.268 633.698 850.591 633.698C849.913 633.698 849.236 633.698 848.558 633.698C848.558 633.241 848.558 632.784 848.558 632.327C848.558 631.412 846.752 629.812 843.138 627.526C841.332 626.383 839.525 625.241 837.718 624.098C838.17 623.64 838.621 623.183 839.073 622.726C839.977 621.812 844.267 621.583 851.946 622.04ZM92.4607 626.841C91.5574 628.669 93.1382 631.184 97.2033 634.384C101.268 637.584 103.752 641.242 104.656 645.356C105.559 649.471 99.9133 654.042 87.7182 659.071C75.523 664.1 66.9413 666.843 61.9729 667.301C57.0045 667.758 54.5203 669.129 54.5203 671.415C54.5203 673.701 55.1978 675.758 56.5528 677.587C57.9079 679.416 63.7796 677.816 74.168 672.787C84.5565 667.758 93.5899 664.557 101.268 663.186C105.107 662.5 108.947 661.814 112.786 661.129C110.753 654.957 108.721 648.785 106.688 642.613C102.623 630.269 99.4616 624.098 97.2033 624.098C94.9449 624.098 93.364 625.012 92.4607 626.841ZM781.485 640.556C786.453 641.47 790.519 643.756 793.68 647.413C795.261 649.242 796.842 651.071 798.423 652.9C793.68 651.985 788.938 651.071 784.195 650.157C774.71 648.328 769.516 647.642 768.612 648.099C767.709 648.556 767.483 649.699 767.935 651.528C768.387 653.357 773.807 655.185 784.195 657.014C789.389 657.928 794.584 658.843 799.778 659.757C799.1 660.443 798.423 661.129 797.745 661.814C796.39 663.186 792.777 663.872 786.905 663.872C781.033 663.872 776.517 662.729 773.355 660.443C770.193 658.157 765.902 656.328 760.482 654.957C757.772 654.271 755.062 653.585 752.352 652.9C755.966 650.614 759.579 648.328 763.192 646.042C770.419 641.47 776.517 639.642 781.485 640.556ZM858.721 655.643C859.398 655.643 860.076 655.643 860.753 655.643C860.302 657.7 859.85 659.757 859.398 661.814C858.495 665.929 856.011 670.501 851.946 675.53C849.913 678.044 847.881 680.559 845.848 683.073C845.848 680.101 845.848 677.13 845.848 674.158C845.848 671.186 845.848 668.215 845.848 665.243C846.977 665.7 848.107 666.158 849.236 666.615C850.365 667.072 851.494 667.529 852.623 667.986C853.301 665.929 853.978 663.872 854.656 661.814C856.011 657.7 857.366 655.643 858.721 655.643ZM920.374 655.643C920.826 655.643 921.277 655.643 921.729 655.643C921.729 657.014 921.729 658.386 921.729 659.757C921.729 661.129 921.729 662.5 921.729 663.872C922.407 663.415 923.084 662.957 923.762 662.5C924.439 662.043 925.117 661.586 925.794 661.129C926.02 661.586 926.246 662.043 926.472 662.5C926.923 663.415 925.117 667.072 921.051 673.472C919.019 676.673 916.986 679.873 914.954 683.073C914.954 679.416 914.954 675.758 914.954 672.101C914.954 664.786 915.631 660.214 916.986 658.386C918.341 656.557 919.471 655.643 920.374 655.643ZM841.783 658.386C842.235 658.614 842.687 658.843 843.138 659.071C843.59 659.3 844.042 659.529 844.493 659.757C844.042 659.529 843.59 659.3 843.138 659.071C842.687 658.843 842.235 658.614 841.783 658.386ZM849.913 658.386C850.139 659.071 850.365 659.757 850.591 660.443C850.817 661.129 851.042 661.814 851.268 662.5C850.817 662.5 850.365 662.5 849.913 662.5C849.462 662.5 849.01 662.5 848.558 662.5C848.784 661.814 849.01 661.129 849.236 660.443C849.462 659.757 849.687 659.071 849.913 658.386ZM820.103 666.615C820.329 667.072 820.555 667.529 820.78 667.986C821.232 668.901 819.877 670.729 816.715 673.472C813.554 676.215 811.973 678.73 811.973 681.016C811.973 682.159 811.973 683.302 811.973 684.445C812.65 684.445 813.328 684.445 814.005 684.445C815.36 684.445 817.167 682.616 819.425 678.958C821.684 675.301 823.265 673.472 824.168 673.472C824.62 673.472 825.071 673.472 825.523 673.472C825.297 674.615 825.071 675.758 824.846 676.901C824.394 679.187 821.232 682.159 815.36 685.816C812.425 687.645 809.489 689.473 806.553 691.302C806.553 689.702 806.553 688.102 806.553 686.502C806.553 683.302 807.456 680.101 809.263 676.901C811.07 673.701 813.328 671.186 816.038 669.358C817.393 668.443 818.748 667.529 820.103 666.615ZM940.699 674.844C941.603 675.987 942.506 677.13 943.409 678.273C945.216 680.559 945.442 683.759 944.087 687.873C942.732 691.988 942.732 696.102 944.087 700.217C944.764 702.274 945.442 704.332 946.119 706.389C944.99 705.246 943.861 704.103 942.732 702.96C940.473 700.674 939.57 695.417 940.022 687.188C940.248 683.073 940.473 678.958 940.699 674.844ZM877.691 681.701C879.272 681.701 880.853 681.701 882.434 681.701C881.079 681.93 879.724 682.159 878.369 682.387C875.659 682.844 873.852 684.216 872.949 686.502C872.045 688.788 872.045 690.388 872.949 691.302C873.4 691.759 873.852 692.216 874.304 692.674C871.593 693.359 868.883 694.045 866.173 694.731C863.463 695.417 860.753 696.102 858.043 696.788C860.528 694.274 863.012 691.759 865.496 689.245C870.464 684.216 874.529 681.701 877.691 681.701ZM954.249 684.445C956.056 685.816 957.863 687.188 959.669 688.559C963.283 691.302 965.767 697.703 967.122 707.76C967.799 712.789 968.477 717.818 969.154 722.847C968.251 722.39 967.348 721.933 966.444 721.476C964.638 720.561 964.186 718.733 965.089 715.99C965.993 713.246 964.412 707.303 960.347 698.16C958.314 693.588 956.282 689.016 954.249 684.445ZM950.184 691.302C950.636 692.445 951.088 693.588 951.539 694.731C952.443 697.017 953.346 698.16 954.249 698.16C955.153 698.16 956.282 700.674 957.637 705.703C958.314 708.218 958.992 710.732 959.669 713.246C959.218 713.246 958.766 713.246 958.314 713.246C957.411 713.246 955.83 711.418 953.572 707.76C951.313 704.103 950.184 700.446 950.184 696.788C950.184 694.96 950.184 693.131 950.184 691.302ZM878.369 695.417C878.594 695.874 878.82 696.331 879.046 696.788C879.272 697.245 879.498 697.703 879.724 698.16C879.498 697.703 879.272 697.245 879.046 696.788C878.82 696.331 878.594 695.874 878.369 695.417ZM931.214 705.017C931.666 709.36 932.117 713.704 932.569 718.047C933.021 722.39 933.472 726.733 933.924 731.076C934.602 730.39 935.279 729.705 935.957 729.019C937.312 727.647 937.989 723.761 937.989 717.361C937.989 714.161 937.989 710.961 937.989 707.76C938.667 708.218 939.344 708.675 940.022 709.132C941.377 710.046 942.054 713.704 942.054 720.104C942.054 726.505 940.473 732.905 937.312 739.305C935.731 742.506 934.15 745.706 932.569 748.906C931.214 745.934 929.859 742.963 928.504 739.991C925.794 734.048 924.439 728.333 924.439 722.847C924.439 717.361 925.568 713.018 927.827 709.818C928.956 708.218 930.085 706.617 931.214 705.017ZM131.079 714.618C130.401 715.532 129.724 716.447 129.046 717.361C131.756 718.961 134.466 720.561 137.176 722.161C142.596 725.362 145.306 727.647 145.306 729.019C145.306 730.39 145.984 731.533 147.339 732.448C148.694 733.362 148.92 735.191 148.016 737.934C147.113 740.677 143.725 743.649 137.854 746.849C131.982 750.049 127.691 749.592 124.981 745.477C122.271 741.363 120.69 737.705 120.238 734.505C119.787 731.305 119.109 729.705 118.206 729.705C117.303 729.705 115.948 730.39 114.141 731.762C112.334 733.134 111.431 734.505 111.431 735.877C111.431 737.248 113.689 739.991 118.206 744.106C122.723 748.22 124.981 751.192 124.981 753.021C124.981 754.849 122.723 757.364 118.206 760.564C113.689 763.764 110.528 765.364 108.721 765.364C106.914 765.364 105.107 763.993 103.301 761.25C101.494 758.507 100.139 755.992 99.2358 753.706C98.3324 751.42 98.1066 748.449 98.5583 744.791C98.7841 742.963 99.0099 741.134 99.2358 739.305C97.6549 740.22 96.0741 741.134 94.4932 742.048C92.9124 742.963 91.3315 743.877 89.7507 744.791C93.1382 750.049 96.5257 755.306 99.9133 760.564C103.301 765.821 106.688 771.079 110.076 776.336C116.625 771.536 123.174 766.736 129.724 761.935C142.822 752.335 150.952 747.306 154.114 746.849C155.695 746.62 157.276 746.392 158.856 746.163C158.405 744.563 157.953 742.963 157.501 741.363C156.598 738.162 155.469 736.334 154.114 735.877C152.759 735.419 150.049 731.305 145.984 723.533C141.919 715.761 138.757 711.875 136.499 711.875C134.24 711.875 132.434 712.789 131.079 714.618ZM882.434 714.618C883.337 714.618 884.24 714.618 885.144 714.618C886.95 714.618 888.757 715.761 890.564 718.047C892.37 720.333 893.274 722.619 893.274 724.904C893.274 727.19 893.951 728.79 895.306 729.705C896.661 730.619 897.113 733.591 896.661 738.62C896.435 741.134 896.21 743.649 895.984 746.163C893.048 743.191 890.112 740.22 887.176 737.248C881.304 731.305 878.594 726.962 879.046 724.219C879.272 722.847 879.498 721.476 879.724 720.104C880.627 721.704 881.53 723.304 882.434 724.904C884.24 728.105 885.595 729.476 886.499 729.019C887.402 728.562 886.95 726.047 885.144 721.476C884.24 719.19 883.337 716.904 882.434 714.618ZM820.103 720.104C821.458 720.79 822.813 721.476 824.168 722.161C826.878 723.533 828.685 725.819 829.588 729.019C830.04 730.619 830.491 732.219 830.943 733.819C830.266 733.134 829.588 732.448 828.911 731.762C828.233 731.076 827.556 730.39 826.878 729.705C826.201 730.39 825.523 731.076 824.846 731.762C824.168 732.448 823.491 733.134 822.813 733.819C822.361 731.533 821.91 729.248 821.458 726.962C821.006 724.676 820.555 722.39 820.103 720.104ZM701.539 728.333C706.508 728.333 709.669 729.019 711.024 730.39C711.702 731.076 712.379 731.762 713.057 732.448C711.25 732.448 709.444 732.448 707.637 732.448C704.023 732.448 701.991 733.134 701.539 734.505C701.313 735.191 701.088 735.877 700.862 736.562C703.346 737.019 705.83 737.477 708.314 737.934C710.799 738.391 713.283 738.848 715.767 739.305C713.509 739.991 711.25 740.677 708.992 741.363C704.475 742.734 699.958 742.734 695.442 741.363C690.925 739.991 687.989 738.848 686.634 737.934C685.279 737.019 684.602 735.877 684.602 734.505C684.602 733.134 686.182 731.762 689.344 730.39C692.506 729.019 696.571 728.333 701.539 728.333ZM772.678 728.333C774.71 728.79 776.743 729.248 778.775 729.705C782.84 730.619 786.002 732.676 788.26 735.877C789.389 737.477 790.519 739.077 791.648 740.677C790.293 739.763 788.938 738.848 787.583 737.934C784.873 736.105 782.614 735.877 780.808 737.248C779.904 737.934 779.001 738.62 778.098 739.305C777.194 737.477 776.291 735.648 775.388 733.819C774.484 731.991 773.581 730.162 772.678 728.333ZM720.509 757.135C722.09 757.135 723.671 757.135 725.252 757.135C723.897 758.049 722.542 758.964 721.187 759.878C718.477 761.707 717.348 763.536 717.799 765.364C718.025 766.279 718.251 767.193 718.477 768.107C720.284 766.964 722.09 765.821 723.897 764.678C727.51 762.393 729.995 761.478 731.35 761.935C732.027 762.164 732.705 762.393 733.382 762.621C731.801 763.764 730.22 764.907 728.64 766.05C725.478 768.336 721.187 769.479 715.767 769.479C710.347 769.479 707.411 768.564 706.959 766.736C706.508 764.907 707.863 762.85 711.024 760.564C714.186 758.278 717.348 757.135 720.509 757.135ZM166.309 766.05C165.631 767.193 164.954 768.336 164.276 769.479C166.083 769.707 167.89 769.936 169.696 770.165C173.31 770.622 177.149 772.908 181.214 777.022C185.279 781.137 187.312 784.337 187.312 786.623C187.312 788.909 185.731 790.966 182.569 792.795C179.407 794.623 177.149 796.681 175.794 798.967C174.439 801.252 172.858 802.395 171.051 802.395C169.245 802.395 166.986 800.795 164.276 797.595C161.566 794.395 159.986 791.423 159.534 788.68C159.308 787.309 159.082 785.937 158.856 784.566C157.727 784.794 156.598 785.023 155.469 785.251C153.21 785.708 151.63 787.08 150.726 789.366C150.275 790.509 149.823 791.652 149.371 792.795C150.726 793.023 152.081 793.252 153.436 793.48C156.146 793.938 158.856 795.766 161.566 798.967C164.276 802.167 165.631 804.681 165.631 806.51C165.631 808.339 163.373 811.082 158.856 814.739C154.34 818.396 150.049 818.396 145.984 814.739C141.919 811.082 139.886 807.196 139.886 803.081C139.886 798.967 139.209 796.681 137.854 796.223C136.499 795.766 135.144 796.223 133.789 797.595C132.434 798.967 131.756 800.795 131.756 803.081C131.756 805.367 134.014 808.567 138.531 812.682C143.048 816.796 146.435 820.682 148.694 824.34C150.952 827.997 152.985 829.826 154.791 829.826C156.598 829.826 158.405 828.226 160.211 825.025C162.018 821.825 167.89 815.882 177.827 807.196C187.763 798.509 193.635 793.938 195.442 793.48C196.345 793.252 197.248 793.023 198.152 792.795C194.313 787.766 190.473 782.737 186.634 777.708C178.956 767.65 173.987 762.621 171.729 762.621C169.471 762.621 167.664 763.764 166.309 766.05ZM812.65 770.165C816.715 770.622 819.651 771.765 821.458 773.593C822.361 774.508 823.265 775.422 824.168 776.336C820.78 776.336 817.393 776.336 814.005 776.336C810.618 776.336 807.23 776.336 803.843 776.336C803.843 777.479 803.843 778.622 803.843 779.765C803.843 780.908 803.843 782.051 803.843 783.194C804.52 782.737 805.198 782.28 805.875 781.823C807.23 780.908 810.166 780.68 814.683 781.137C816.941 781.365 819.2 781.594 821.458 781.823C820.103 782.508 818.748 783.194 817.393 783.88C814.683 785.251 809.489 785.937 801.81 785.937C794.132 785.937 789.389 785.48 787.583 784.566C786.679 784.108 785.776 783.651 784.873 783.194C785.324 782.28 785.776 781.365 786.228 780.451C787.131 778.622 789.389 776.565 793.003 774.279C796.616 771.993 799.778 770.622 802.488 770.165C805.198 769.707 808.585 769.707 812.65 770.165ZM755.062 779.079C755.514 779.079 755.966 779.079 756.417 779.079C756.417 780.68 756.417 782.28 756.417 783.88C756.417 787.08 755.514 789.366 753.707 790.737C752.804 791.423 751.901 792.109 750.997 792.795C750.546 790.737 750.094 788.68 749.642 786.623C749.191 784.566 748.739 782.508 748.287 780.451C748.965 780.68 749.642 780.908 750.32 781.137C751.675 781.594 752.578 781.365 753.03 780.451C753.481 779.537 754.159 779.079 755.062 779.079ZM866.173 793.48C868.883 793.938 870.916 795.081 872.271 796.909C872.949 797.824 873.626 798.738 874.304 799.652C871.593 800.109 868.883 800.567 866.173 801.024C863.463 801.481 860.753 801.938 858.043 802.395C859.173 801.71 860.302 801.024 861.431 800.338C862.56 799.652 863.689 798.967 864.818 798.281C863.463 797.824 862.108 797.366 860.753 796.909C859.398 796.452 858.043 795.995 856.688 795.538C857.592 795.081 858.495 794.623 859.398 794.166C861.205 793.252 863.463 793.023 866.173 793.48ZM725.252 794.166C725.704 795.081 726.155 795.995 726.607 796.909C727.51 798.738 727.51 800.567 726.607 802.395C725.704 804.224 721.864 806.738 715.089 809.939C711.702 811.539 708.314 813.139 704.927 814.739C704.927 813.825 704.927 812.91 704.927 811.996C704.927 810.167 706.734 806.967 710.347 802.395C712.154 800.109 713.96 797.824 715.767 795.538C715.541 797.138 715.315 798.738 715.089 800.338C714.638 803.538 714.864 805.367 715.767 805.824C716.67 806.281 718.477 804.453 721.187 800.338C722.542 798.281 723.897 796.223 725.252 794.166ZM208.992 811.31C208.54 812.453 208.089 813.596 207.637 814.739C209.218 814.739 210.799 814.739 212.379 814.739C215.541 814.739 218.251 815.425 220.509 816.796C222.768 818.168 225.026 819.768 227.285 821.597C229.543 823.425 230.672 825.254 230.672 827.083C230.672 828.911 228.414 832.797 223.897 838.741C219.38 844.684 216.444 847.884 215.089 848.341C213.734 848.798 212.605 850.17 211.702 852.456C210.799 854.742 208.089 857.713 203.572 861.371C199.055 865.028 197.7 868.228 199.507 870.971C201.313 873.714 203.12 874.857 204.927 874.4C206.734 873.943 207.863 872.571 208.314 870.286C208.766 868 209.444 866.857 210.347 866.857C211.25 866.857 215.089 862.285 221.864 853.142C228.64 843.998 233.608 838.283 236.77 835.998C238.35 834.855 239.931 833.712 241.512 832.569C237.673 828.683 233.834 824.797 229.995 820.911C222.316 813.139 217.122 809.024 214.412 808.567C211.702 808.11 209.895 809.024 208.992 811.31ZM810.618 813.367C811.07 815.196 811.521 817.025 811.973 818.854C812.876 822.511 814.231 824.568 816.038 825.025C817.845 825.483 819.2 825.254 820.103 824.34C820.555 823.882 821.006 823.425 821.458 822.968C821.458 826.168 821.458 829.369 821.458 832.569C821.458 835.769 821.458 838.969 821.458 842.169C819.651 839.426 817.845 836.683 816.038 833.94C812.425 828.454 810.618 823.654 810.618 819.539C810.618 817.482 810.618 815.425 810.618 813.367ZM816.038 814.739C816.49 814.739 816.941 814.739 817.393 814.739C817.845 814.739 818.296 814.739 818.748 814.739C818.748 815.425 818.748 816.111 818.748 816.796C818.748 817.482 818.748 818.168 818.748 818.854C818.296 818.854 817.845 818.854 817.393 818.854C816.941 818.854 816.49 818.854 816.038 818.854C816.038 818.168 816.038 817.482 816.038 816.796C816.038 816.111 816.038 815.425 816.038 814.739ZM769.29 817.482C774.258 817.482 777.42 817.939 778.775 818.854C780.13 819.768 780.582 820.682 780.13 821.597C779.678 822.511 778.323 822.968 776.065 822.968C774.936 822.968 773.807 822.968 772.678 822.968C772.903 823.654 773.129 824.34 773.355 825.025C773.807 826.397 775.162 827.083 777.42 827.083C778.549 827.083 779.678 827.083 780.808 827.083C780.13 827.997 779.453 828.911 778.775 829.826C777.42 831.654 773.355 832.569 766.58 832.569C759.805 832.569 755.74 831.883 754.385 830.511C753.03 829.14 751.449 828.454 749.642 828.454C748.739 828.454 747.836 828.454 746.932 828.454C746.932 827.997 746.932 827.54 746.932 827.083C746.932 826.626 746.932 826.168 746.932 825.711C746.029 825.711 745.126 825.711 744.222 825.711C743.319 825.711 742.416 825.711 741.512 825.711C744.9 824.34 748.287 822.968 751.675 821.597C758.45 818.854 764.322 817.482 769.29 817.482ZM878.369 824.34C878.594 825.483 878.82 826.626 879.046 827.768C879.498 830.054 879.272 832.34 878.369 834.626C877.465 836.912 876.336 838.283 874.981 838.741C874.304 838.969 873.626 839.198 872.949 839.426C873.4 838.283 873.852 837.141 874.304 835.998C875.207 833.712 874.981 831.654 873.626 829.826C872.949 828.911 872.271 827.997 871.593 827.083C872.723 826.626 873.852 826.168 874.981 825.711C876.11 825.254 877.239 824.797 878.369 824.34ZM868.883 829.826C869.109 830.511 869.335 831.197 869.561 831.883C869.787 832.569 870.013 833.255 870.238 833.94C870.013 833.255 869.787 832.569 869.561 831.883C869.335 831.197 869.109 830.511 868.883 829.826ZM676.472 833.94C678.73 835.769 680.988 837.598 683.247 839.426C687.763 843.084 690.699 846.055 692.054 848.341C693.409 850.627 694.087 853.37 694.087 856.57C694.087 858.17 694.087 859.771 694.087 861.371C692.958 859.542 691.828 857.713 690.699 855.885C689.57 854.056 688.441 852.227 687.312 850.399C686.86 851.313 686.408 852.227 685.957 853.142C685.505 854.056 685.053 854.97 684.602 855.885C684.15 855.656 683.698 855.427 683.247 855.199C682.343 854.742 680.988 851.084 679.182 844.227C678.278 840.798 677.375 837.369 676.472 833.94ZM778.098 849.027C778.775 849.713 779.453 850.399 780.13 851.084C781.485 852.456 782.163 855.199 782.163 859.313C782.163 863.428 780.356 869.371 776.743 877.143C774.936 881.029 773.129 884.915 771.322 888.801C770.645 887.201 769.967 885.601 769.29 884.001C767.935 880.801 767.257 876.457 767.257 870.971C767.257 865.485 768.161 861.142 769.967 857.942C770.871 856.342 771.774 854.742 772.678 853.142C772.678 854.97 772.678 856.799 772.678 858.628C772.678 860.456 772.678 862.285 772.678 864.114C773.355 864.114 774.033 864.114 774.71 864.114C776.065 864.114 776.968 861.599 777.42 856.57C777.646 854.056 777.872 851.541 778.098 849.027ZM269.29 855.885C268.838 858.628 267.032 862.514 263.87 867.543C260.708 872.571 255.288 877.143 247.61 881.258C239.931 885.372 234.511 887.658 231.35 888.115C228.188 888.573 226.607 889.487 226.607 890.858C226.607 892.23 227.736 893.601 229.995 894.973C231.124 895.659 232.253 896.344 233.382 897.03C234.06 895.887 234.737 894.744 235.415 893.601C236.77 891.316 241.061 888.344 248.287 884.687C251.901 882.858 255.514 881.029 259.127 879.2C258.676 884.687 258.224 890.173 257.772 895.659C256.869 906.631 257.321 912.574 259.127 913.489C260.934 914.403 262.515 914.86 263.87 914.86C264.547 914.86 265.225 914.86 265.902 914.86C265.677 910.974 265.451 907.088 265.225 903.202C264.773 895.43 264.999 888.801 265.902 883.315C266.806 877.829 269.516 872.343 274.033 866.857C278.549 861.371 280.13 857.485 278.775 855.199C277.42 852.913 275.613 851.77 273.355 851.77C271.097 851.77 269.742 853.142 269.29 855.885ZM644.629 853.142C647.79 853.142 650.275 854.056 652.081 855.885C652.985 856.799 653.888 857.713 654.791 858.628C652.081 858.628 649.371 858.628 646.661 858.628C641.241 858.628 638.305 859.313 637.854 860.685C637.628 861.371 637.402 862.056 637.176 862.742C640.564 862.742 643.951 862.742 647.339 862.742C654.114 862.742 657.727 863.199 658.179 864.114C658.405 864.571 658.631 865.028 658.856 865.485C656.146 866.628 653.436 867.771 650.726 868.914C645.306 871.2 642.37 871.886 641.919 870.971C641.467 870.057 638.531 868.914 633.111 867.543C627.691 866.171 624.304 864.571 622.949 862.742C622.271 861.828 621.593 860.914 620.916 859.999C622.045 859.999 623.174 859.999 624.304 859.999C626.562 859.999 629.724 858.856 633.789 856.57C637.854 854.285 641.467 853.142 644.629 853.142ZM836.363 857.256C837.041 858.399 837.718 859.542 838.396 860.685C839.073 861.828 839.751 862.971 840.428 864.114C838.621 864.8 836.815 865.485 835.008 866.171C833.201 866.857 831.395 867.543 829.588 868.228C830.717 866.4 831.846 864.571 832.976 862.742C834.105 860.914 835.234 859.085 836.363 857.256ZM878.369 857.256C880.175 858.856 881.982 860.456 883.789 862.056C885.595 863.657 887.402 865.257 889.209 866.857C889.435 866.171 889.66 865.485 889.886 864.8C890.338 863.428 889.886 861.828 888.531 859.999C887.854 859.085 887.176 858.17 886.499 857.256C887.176 857.256 887.854 857.256 888.531 857.256C889.886 857.256 891.467 858.628 893.274 861.371C895.08 864.114 896.21 867.085 896.661 870.286C896.887 871.886 897.113 873.486 897.339 875.086C895.306 874.629 893.274 874.172 891.241 873.714C887.176 872.8 884.014 870.743 881.756 867.543C879.498 864.342 878.369 861.828 878.369 859.999C878.369 859.085 878.369 858.17 878.369 857.256ZM685.957 858.628C686.182 859.085 686.408 859.542 686.634 859.999C686.86 860.456 687.086 860.914 687.312 861.371C687.086 860.914 686.86 860.456 686.634 859.999C686.408 859.542 686.182 859.085 685.957 858.628ZM307.23 887.43C307.682 897.487 308.585 903.431 309.94 905.259C310.618 906.174 311.295 907.088 311.973 908.002C310.618 908.002 309.263 908.002 307.908 908.002C305.198 908.002 302.939 908.688 301.133 910.06C299.326 911.431 297.745 914.174 296.39 918.289C295.035 922.403 295.939 926.518 299.1 930.633C302.262 934.747 307.456 938.176 314.683 940.919C318.296 942.29 321.91 943.662 325.523 945.033C327.33 939.319 329.136 933.604 330.943 927.889C334.556 916.46 338.396 907.317 342.461 900.459C344.493 897.03 346.526 893.601 348.558 890.173C346.752 889.487 344.945 888.801 343.138 888.115C341.332 887.43 339.525 886.744 337.718 886.058C336.589 889.944 335.46 893.83 334.331 897.716C332.072 905.488 329.588 909.831 326.878 910.745C324.168 911.66 321.684 910.517 319.425 907.317C317.167 904.116 316.038 898.173 316.038 889.487C316.038 880.801 315.36 875.772 314.005 874.4C312.65 873.029 311.07 872.343 309.263 872.343C308.36 872.343 307.456 872.343 306.553 872.343C306.779 877.372 307.005 882.401 307.23 887.43ZM852.623 876.457C852.849 878.972 853.075 881.486 853.301 884.001C853.752 889.03 853.527 892.687 852.623 894.973C851.72 897.259 850.365 898.859 848.558 899.773C847.655 900.23 846.752 900.688 845.848 901.145C845.397 898.173 844.945 895.202 844.493 892.23C843.59 886.287 843.816 882.401 845.171 880.572C845.848 879.658 846.526 878.743 847.203 877.829C847.203 879.429 847.203 881.029 847.203 882.629C847.203 885.83 847.881 887.887 849.236 888.801C849.913 889.258 850.591 889.715 851.268 890.173C851.494 887.887 851.72 885.601 851.946 883.315C852.172 881.029 852.397 878.743 852.623 876.457ZM702.217 899.773C702.668 901.373 703.12 902.974 703.572 904.574C704.475 907.774 705.379 909.374 706.282 909.374C707.185 909.374 708.314 907.774 709.669 904.574C710.347 902.974 711.024 901.373 711.702 899.773C711.928 900.23 712.154 900.688 712.379 901.145C712.831 902.059 712.605 904.116 711.702 907.317C710.799 910.517 708.54 914.174 704.927 918.289C703.12 920.346 701.313 922.403 699.507 924.461C699.281 922.632 699.055 920.803 698.829 918.975C698.378 915.317 698.829 911.203 700.184 906.631C700.862 904.345 701.539 902.059 702.217 899.773ZM646.661 909.374C648.016 909.831 649.371 910.288 650.726 910.745C649.371 910.974 648.016 911.203 646.661 911.431C643.951 911.888 642.596 912.574 642.596 913.489C642.596 913.946 642.596 914.403 642.596 914.86C640.79 914.403 638.983 913.946 637.176 913.489C633.563 912.574 631.756 911.66 631.756 910.745C631.756 909.831 633.563 909.145 637.176 908.688C640.79 908.231 643.951 908.46 646.661 909.374ZM316.715 914.86C319.651 915.317 322.587 915.774 325.523 916.232C324.168 919.889 322.813 923.546 321.458 927.204C320.103 930.861 318.748 934.518 317.393 938.176C315.135 936.576 312.876 934.976 310.618 933.376C306.101 930.175 303.843 926.747 303.843 923.089C303.843 919.432 304.52 916.917 305.875 915.546C307.23 914.174 310.844 913.946 316.715 914.86ZM593.816 925.832C598.332 925.832 602.172 926.518 605.333 927.889C606.914 928.575 608.495 929.261 610.076 929.947C608.721 930.404 607.366 930.861 606.011 931.318C604.656 931.775 603.301 932.233 601.946 932.69C603.075 933.604 604.204 934.518 605.333 935.433C606.463 936.347 607.592 937.262 608.721 938.176C606.011 937.49 603.301 936.804 600.591 936.119C595.171 934.747 591.332 933.147 589.073 931.318C586.815 929.49 585.911 928.118 586.363 927.204C586.815 926.289 589.299 925.832 593.816 925.832ZM729.317 939.547C730.22 939.547 731.124 939.547 732.027 939.547C730.898 940.462 729.769 941.376 728.64 942.29C726.381 944.119 725.252 945.719 725.252 947.091C725.252 947.777 725.252 948.462 725.252 949.148C725.93 948.919 726.607 948.691 727.285 948.462C727.962 948.234 728.64 948.005 729.317 947.777C729.091 948.462 728.865 949.148 728.64 949.834C728.188 951.205 724.8 952.805 718.477 954.634C715.315 955.548 712.154 956.463 708.992 957.377C710.573 955.091 712.154 952.805 713.734 950.52C716.896 945.948 719.832 942.976 722.542 941.605C725.252 940.233 727.51 939.547 729.317 939.547ZM648.694 946.405C649.371 946.405 650.049 946.405 650.726 946.405C650.275 947.319 649.823 948.234 649.371 949.148C648.468 950.977 648.468 952.348 649.371 953.263C649.823 953.72 650.275 954.177 650.726 954.634C648.92 955.091 647.113 955.548 645.306 956.006C643.5 956.463 641.693 956.92 639.886 957.377C639.886 956.691 639.886 956.006 639.886 955.32C639.886 953.948 641.015 952.12 643.274 949.834C645.532 947.548 647.339 946.405 648.694 946.405ZM730.672 946.405C731.124 946.634 731.575 946.862 732.027 947.091C732.479 947.319 732.93 947.548 733.382 947.777C732.93 947.548 732.479 947.319 732.027 947.091C731.575 946.862 731.124 946.634 730.672 946.405ZM741.512 949.148C742.19 949.605 742.867 950.062 743.545 950.52C744.9 951.434 745.803 953.034 746.255 955.32C746.706 957.606 747.384 958.749 748.287 958.749C748.739 958.749 749.191 958.749 749.642 958.749C749.191 961.949 748.739 965.149 748.287 968.349C747.836 971.55 747.384 974.75 746.932 977.95C746.029 976.35 745.126 974.75 744.222 973.15C742.416 969.949 742.19 966.521 743.545 962.863C744.9 959.206 744.9 956.92 743.545 956.006C742.19 955.091 741.512 953.72 741.512 951.891C741.512 950.977 741.512 950.062 741.512 949.148ZM616.851 950.52C617.303 951.662 617.754 952.805 618.206 953.948C619.109 956.234 618.206 960.12 615.496 965.606C614.141 968.349 612.786 971.092 611.431 973.835C610.753 971.321 610.076 968.807 609.398 966.292C608.721 963.778 608.043 961.263 607.366 958.749C608.947 958.292 610.528 957.834 612.108 957.377C615.27 956.463 616.851 955.091 616.851 953.263C616.851 952.348 616.851 951.434 616.851 950.52ZM577.556 956.006C579.362 956.006 581.169 956.006 582.976 956.006C581.169 956.92 579.362 957.834 577.556 958.749C573.942 960.577 572.361 962.406 572.813 964.235C573.039 965.149 573.265 966.063 573.491 966.978C576.426 965.835 579.362 964.692 582.298 963.549C585.234 962.406 588.17 961.263 591.106 960.12C590.88 961.263 590.654 962.406 590.428 963.549C589.977 965.835 588.621 968.121 586.363 970.407C584.105 972.692 581.621 974.521 578.911 975.893C576.201 977.264 569.877 977.95 559.94 977.95C554.972 977.95 550.004 977.95 545.035 977.95C547.068 975.436 549.1 972.921 551.133 970.407C555.198 965.378 559.715 961.72 564.683 959.434C569.651 957.149 573.942 956.006 577.556 956.006ZM649.371 975.207C649.823 975.893 650.275 976.578 650.726 977.264C651.63 978.636 651.63 980.464 650.726 982.75C650.275 983.893 649.823 985.036 649.371 986.179C650.275 985.951 651.178 985.722 652.081 985.493C653.888 985.036 655.017 983.436 655.469 980.693C655.921 977.95 656.598 976.578 657.501 976.578C657.953 976.578 658.405 976.578 658.856 976.578C658.631 978.636 658.405 980.693 658.179 982.75C657.727 986.865 656.598 990.294 654.791 993.037C653.888 994.408 652.985 995.78 652.081 997.151C651.178 996.466 650.275 995.78 649.371 995.094C647.565 993.722 646.661 990.751 646.661 986.179C646.661 981.607 647.113 978.636 648.016 977.264C648.468 976.578 648.92 975.893 649.371 975.207ZM725.252 995.78C725.478 996.237 725.704 996.694 725.93 997.151C726.155 997.608 726.381 998.066 726.607 998.523C726.381 998.066 726.155 997.608 725.93 997.151C725.704 996.694 725.478 996.237 725.252 995.78ZM732.027 995.78C732.253 997.151 732.479 998.523 732.705 999.894C732.93 1001.27 733.156 1002.64 733.382 1004.01C732.93 1004.01 732.479 1004.01 732.027 1004.01C731.124 1004.01 729.769 1005.84 727.962 1009.49C727.059 1011.32 726.155 1013.15 725.252 1014.98C724.575 1014.3 723.897 1013.61 723.22 1012.92C721.864 1011.55 721.413 1009.04 721.864 1005.38C722.09 1003.55 722.316 1001.72 722.542 999.894C722.768 1000.81 722.994 1001.72 723.22 1002.64C723.671 1004.47 724.349 1005.38 725.252 1005.38C726.155 1005.38 727.51 1003.78 729.317 1000.58C730.22 998.98 731.124 997.38 732.027 995.78Z" id="Fill"/>
</defs>
<clipPath id="ArtboardFrame">
<rect height="1024" width="1024" x="0" y="0"/>
</clipPath>
<g clip-path="url(#ArtboardFrame)" id="Layer-2" vectornator:layerName="Layer 2">
<path d="M-7.10543e-15 512C-7.10543e-15 229.23 229.23 0 512 0C794.77 0 1024 229.23 1024 512C1024 794.77 794.77 1024 512 1024C229.23 1024-7.10543e-15 794.77-7.10543e-15 512Z" fill="#f7efe7" fill-rule="nonzero" opacity="1" stroke="none" vectornator:layerName="Oval 1"/>
</g>
<g id="Layer-1" vectornator:layerName="Layer 1">
<g opacity="1" vectornator:layerName="Curve 1">
<use fill="#2a1510" fill-rule="nonzero" stroke="none" xlink:href="#Fill"/>
<mask height="1000" id="StrokeMask" maskUnits="userSpaceOnUse" width="1000" x="22" y="22">
<rect fill="#000000" height="1000" stroke="none" width="1000" x="22" y="22"/>
<use fill="#ffffff" fill-rule="evenodd" stroke="none" xlink:href="#Fill"/>
</mask>
<use fill="none" mask="url(#StrokeMask)" stroke="#646460" stroke-linecap="round" stroke-linejoin="round" stroke-width="4" xlink:href="#Fill"/>
</g>
</g>
</svg>
